<svg width="74" height="83" viewBox="0 0 74 83" fill="none" xmlns="http://www.w3.org/2000/svg">
<g filter="url(#filter0_d)">
<circle cx="33" cy="33" r="33" transform="translate(4)" fill="#E8EEF2"/>
<circle cx="33" cy="33" r="31.5" transform="translate(4)" stroke="#FFA630" stroke-width="3"/>
</g>
<path d="M7.2041 15V5.04688H10.458C11.5381 5.04688 12.3493 5.27018 12.8916 5.7168C13.4385 6.16341 13.7119 6.82422 13.7119 7.69922C13.7119 8.16406 13.5798 8.5765 13.3154 8.93652C13.0511 9.29199 12.6911 9.56771 12.2354 9.76367C12.7731 9.91406 13.1969 10.2012 13.5068 10.625C13.8213 11.0443 13.9785 11.5456 13.9785 12.1289C13.9785 13.0221 13.6891 13.724 13.1104 14.2344C12.5316 14.7448 11.7135 15 10.6562 15H7.2041ZM8.5166 10.3447V13.9268H10.6836C11.2943 13.9268 11.7751 13.7695 12.126 13.4551C12.4814 13.1361 12.6592 12.6986 12.6592 12.1426C12.6592 10.944 12.0075 10.3447 10.7041 10.3447H8.5166ZM8.5166 9.29199H10.499C11.0732 9.29199 11.5312 9.14844 11.873 8.86133C12.2194 8.57422 12.3926 8.18457 12.3926 7.69238C12.3926 7.14551 12.2331 6.74902 11.9141 6.50293C11.5951 6.25228 11.1097 6.12695 10.458 6.12695H8.5166V9.29199ZM18.7979 15.1367C17.7952 15.1367 16.9795 14.8086 16.3506 14.1523C15.7217 13.4915 15.4072 12.6097 15.4072 11.5068V11.2744C15.4072 10.5407 15.5462 9.88672 15.8242 9.3125C16.1068 8.73372 16.4987 8.28255 17 7.95898C17.5059 7.63086 18.0527 7.4668 18.6406 7.4668C19.6022 7.4668 20.3496 7.78353 20.8828 8.41699C21.416 9.05046 21.6826 9.95736 21.6826 11.1377V11.6641H16.6719C16.6901 12.3932 16.902 12.9834 17.3076 13.4346C17.7178 13.8812 18.2373 14.1045 18.8662 14.1045C19.3128 14.1045 19.6911 14.0133 20.001 13.8311C20.3109 13.6488 20.582 13.4072 20.8145 13.1064L21.5869 13.708C20.9671 14.6605 20.0374 15.1367 18.7979 15.1367ZM18.6406 8.50586C18.1302 8.50586 17.7018 8.69271 17.3555 9.06641C17.0091 9.43555 16.7949 9.95508 16.7129 10.625H20.418V10.5293C20.3815 9.88672 20.2083 9.38997 19.8984 9.03906C19.5885 8.68359 19.1693 8.50586 18.6406 8.50586ZM22.8447 11.2402C22.8447 10.1055 23.1136 9.19401 23.6514 8.50586C24.1891 7.81315 24.8932 7.4668 25.7637 7.4668C26.6296 7.4668 27.3154 7.76302 27.8213 8.35547V4.5H29.0859V15H27.9238L27.8623 14.207C27.3564 14.8268 26.6523 15.1367 25.75 15.1367C24.8932 15.1367 24.1937 14.7858 23.6514 14.084C23.1136 13.3822 22.8447 12.4661 22.8447 11.3359V11.2402ZM24.1094 11.3838C24.1094 12.2223 24.2826 12.8786 24.6289 13.3525C24.9753 13.8265 25.4538 14.0635 26.0645 14.0635C26.8665 14.0635 27.4521 13.7035 27.8213 12.9834V9.58594C27.443 8.88867 26.862 8.54004 26.0781 8.54004C25.4583 8.54004 24.9753 8.7793 24.6289 9.25781C24.2826 9.73633 24.1094 10.445 24.1094 11.3838ZM34.6299 8.73828C34.4385 8.70638 34.2311 8.69043 34.0078 8.69043C33.1784 8.69043 32.6156 9.04362 32.3193 9.75V15H31.0547V7.60352H32.2852L32.3057 8.45801C32.7204 7.7972 33.3083 7.4668 34.0693 7.4668C34.3154 7.4668 34.5023 7.4987 34.6299 7.5625V8.73828ZM35.3271 11.2334C35.3271 10.5088 35.4684 9.8571 35.751 9.27832C36.0381 8.69954 36.4346 8.25293 36.9404 7.93848C37.4508 7.62402 38.0319 7.4668 38.6836 7.4668C39.6908 7.4668 40.5042 7.81543 41.124 8.5127C41.7484 9.20996 42.0605 10.1374 42.0605 11.2949V11.3838C42.0605 12.1038 41.9215 12.751 41.6436 13.3252C41.3701 13.8949 40.9759 14.3392 40.4609 14.6582C39.9505 14.9772 39.3626 15.1367 38.6973 15.1367C37.6947 15.1367 36.8812 14.7881 36.2568 14.0908C35.637 13.3936 35.3271 12.4707 35.3271 11.3223V11.2334ZM36.5986 11.3838C36.5986 12.2041 36.7878 12.8626 37.166 13.3594C37.5488 13.8561 38.0592 14.1045 38.6973 14.1045C39.3398 14.1045 39.8503 13.8538 40.2285 13.3525C40.6068 12.8467 40.7959 12.1403 40.7959 11.2334C40.7959 10.4222 40.6022 9.76595 40.2148 9.26465C39.832 8.75879 39.3216 8.50586 38.6836 8.50586C38.0592 8.50586 37.5557 8.75423 37.1729 9.25098C36.79 9.74772 36.5986 10.4587 36.5986 11.3838ZM43.3115 11.2334C43.3115 10.5088 43.4528 9.8571 43.7354 9.27832C44.0225 8.69954 44.4189 8.25293 44.9248 7.93848C45.4352 7.62402 46.0163 7.4668 46.668 7.4668C47.6751 7.4668 48.4886 7.81543 49.1084 8.5127C49.7327 9.20996 50.0449 10.1374 50.0449 11.2949V11.3838C50.0449 12.1038 49.9059 12.751 49.6279 13.3252C49.3545 13.8949 48.9603 14.3392 48.4453 14.6582C47.9349 14.9772 47.347 15.1367 46.6816 15.1367C45.679 15.1367 44.8656 14.7881 44.2412 14.0908C43.6214 13.3936 43.3115 12.4707 43.3115 11.3223V11.2334ZM44.583 11.3838C44.583 12.2041 44.7721 12.8626 45.1504 13.3594C45.5332 13.8561 46.0436 14.1045 46.6816 14.1045C47.3242 14.1045 47.8346 13.8538 48.2129 13.3525C48.5911 12.8467 48.7803 12.1403 48.7803 11.2334C48.7803 10.4222 48.5866 9.76595 48.1992 9.26465C47.8164 8.75879 47.306 8.50586 46.668 8.50586C46.0436 8.50586 45.54 8.75423 45.1572 9.25098C44.7744 9.74772 44.583 10.4587 44.583 11.3838ZM52.8203 7.60352L52.8545 8.42383C53.3968 7.78581 54.1283 7.4668 55.0488 7.4668C56.0833 7.4668 56.7874 7.86328 57.1611 8.65625C57.4072 8.30078 57.7262 8.01367 58.1182 7.79492C58.5146 7.57617 58.9818 7.4668 59.5195 7.4668C61.1419 7.4668 61.9668 8.32585 61.9941 10.0439V15H60.7295V10.1191C60.7295 9.59049 60.6087 9.19629 60.3672 8.93652C60.1257 8.6722 59.7201 8.54004 59.1504 8.54004C58.681 8.54004 58.2913 8.68132 57.9814 8.96387C57.6715 9.24186 57.4915 9.61784 57.4414 10.0918V15H56.1699V10.1533C56.1699 9.0778 55.6436 8.54004 54.5908 8.54004C53.7614 8.54004 53.194 8.89323 52.8887 9.59961V15H51.624V7.60352H52.8203Z" transform="translate(1 67)" fill="#F2994A"/>
<path d="M32.3274 0H26.4726C24.4444 0.000365854 22.8003 2.00543 22.8 4.47878V7.31707H19.9878C18.3369 7.31378 16.9964 8.9432 16.9937 10.9565C16.9927 11.7563 17.2073 12.5344 17.6046 13.1707H3.2442C1.45328 13.1731 0.00195 14.943 0 17.1271V26.3415C0 26.7455 0.26865 27.0732 0.6 27.0732H1.2V29.2683C1.2 29.6724 1.46865 30 1.8 30H4.2C4.53135 30 4.8 29.6724 4.8 29.2683V27.0732H10.8V29.2683C10.8 29.6724 11.0687 30 11.4 30H13.8C14.1313 30 14.4 29.6724 14.4 29.2683V27.0732H31.2V29.2683C31.2 29.6724 31.4687 30 31.8 30H34.2C34.5313 30 34.8 29.6724 34.8 29.2683V27.0732H35.4C35.7313 27.0732 36 26.7455 36 26.3415V4.47878C35.9997 2.00543 34.3556 0.000365854 32.3274 0ZM3.6 28.5366H2.4V27.0732H3.6V28.5366ZM13.2 28.5366H12V27.0732H13.2V28.5366ZM13.2 25.6098H1.2V23.4146H13.2V25.6098ZM13.2 17.1271V21.9512H1.2V17.1271C1.20097 15.7507 2.1156 14.6353 3.2442 14.6341H13.9284C13.4569 15.3377 13.1995 16.2185 13.2 17.1271ZM18.7152 9.42293C19.0536 9.01299 19.5108 8.78213 19.9878 8.78049H23.8104C23.007 10.0799 23.007 11.8713 23.8104 13.1707H19.9878C18.9937 13.1709 18.1877 12.1882 18.1876 10.9759C18.1875 10.3934 18.3773 9.83469 18.7152 9.42293ZM14.4 17.1271C14.401 15.7507 15.3156 14.6353 16.4442 14.6341H21.9984C22.7721 14.6353 23.399 15.3999 23.4 16.3434V21.9512H14.4V17.1271ZM33.6 28.5366H32.4V27.0732H33.6V28.5366ZM34.8 25.6098H14.4V23.4146H29.4C29.7313 23.4146 30 23.087 30 22.6829C30 22.2788 29.7313 21.9512 29.4 21.9512H28.2V16.3434C28.1982 15.7362 28.0523 15.1425 27.78 14.6341H34.8V25.6098ZM25.5984 14.6341C26.3721 14.6353 26.999 15.3999 27 16.3434V21.9512H24.6V16.3434C24.5982 15.7362 24.4523 15.1425 24.18 14.6341H25.5984ZM24.3934 10.9766C24.3932 10.3938 24.583 9.83488 24.921 9.42293C25.2581 9.01015 25.7165 8.77884 26.1942 8.78049H31.2C32.1941 8.78049 33 9.76326 33 10.9756C33 12.188 32.1941 13.1707 31.2 13.1707H26.1942C25.2001 13.1713 24.3938 12.189 24.3934 10.9766ZM34.8 13.1707H33.5832C34.5833 11.5689 34.3292 9.28171 33.0157 8.06204C32.4938 7.57756 31.8558 7.3157 31.2 7.31707H24V4.47878C24.0021 3.67957 24.2623 2.91348 24.7242 2.34659C25.1869 1.77924 25.8165 1.46122 26.4726 1.46341H32.3274C32.9835 1.46122 33.6131 1.77924 34.0758 2.34659C34.5377 2.91348 34.7979 3.67957 34.8 4.47878V13.1707Z" transform="translate(17 18)" fill="#FFA630"/>
<path d="M1.8 0H0.6C0.26865 0 0 0.327622 0 0.731707C0 1.13579 0.26865 1.46341 0.6 1.46341H1.8C2.13135 1.46341 2.4 1.13579 2.4 0.731707C2.4 0.327622 2.13135 0 1.8 0Z" transform="translate(48.2 39.9512)" fill="#FFA630"/>
<defs>
<filter id="filter0_d" x="0" y="0" width="74" height="74" filterUnits="userSpaceOnUse" color-interpolation-filters="sRGB">
<feFlood flood-opacity="0" result="BackgroundImageFix"/>
<feColorMatrix in="SourceAlpha" type="matrix" values="0 0 0 0 0 0 0 0 0 0 0 0 0 0 0 0 0 0 255 0"/>
<feOffset dy="4"/>
<feGaussianBlur stdDeviation="2"/>
<feColorMatrix type="matrix" values="0 0 0 0 0 0 0 0 0 0 0 0 0 0 0 0 0 0 0.25 0"/>
<feBlend mode="normal" in2="BackgroundImageFix" result="effect1_dropShadow"/>
<feBlend mode="normal" in="SourceGraphic" in2="effect1_dropShadow" result="shape"/>
</filter>
</defs>
</svg>
