<svg width="40" height="41" viewBox="0 0 40 41" fill="none" xmlns="http://www.w3.org/2000/svg">
<path d="M15.5482 0C6.96196 0 0 6.96196 0 15.5483C0 24.1346 6.96196 31.0965 15.5483 31.0965C18.85 31.0965 21.9121 30.0667 24.4291 28.3125L24.4309 28.3106L35.9622 39.842C36.1762 40.056 36.5164 40.0615 36.736 39.842L39.8438 36.7341C40.0578 36.5202 40.0468 36.1653 39.842 35.9604L28.3124 24.4309C30.0666 21.9121 31.0965 18.85 31.0965 15.5483C31.0965 6.96196 24.1345 0 15.5482 0ZM15.5482 27.4381C8.98133 27.4381 3.65836 22.1151 3.65836 15.5483C3.65836 8.9814 8.9814 3.65843 15.5482 3.65843C22.115 3.65843 27.438 8.9814 27.438 15.5483C27.438 22.1151 22.1151 27.4381 15.5482 27.4381Z" fill="#4C6085"/>
</svg>
