<svg width="74" height="83" viewBox="0 0 74 83" fill="none" xmlns="http://www.w3.org/2000/svg">
<g filter="url(#filter0_d)">
<circle cx="33" cy="33" r="33" transform="translate(4)" fill="#E8EEF2"/>
<circle cx="33" cy="33" r="31.5" transform="translate(4)" stroke="#FFA630" stroke-width="3"/>
</g>
<path d="M16.1523 15V5.04688H19.4062C20.4863 5.04688 21.2975 5.27018 21.8398 5.7168C22.3867 6.16341 22.6602 6.82422 22.6602 7.69922C22.6602 8.16406 22.528 8.5765 22.2637 8.93652C21.9993 9.29199 21.6393 9.56771 21.1836 9.76367C21.7214 9.91406 22.1452 10.2012 22.4551 10.625C22.7695 11.0443 22.9268 11.5456 22.9268 12.1289C22.9268 13.0221 22.6374 13.724 22.0586 14.2344C21.4798 14.7448 20.6618 15 19.6045 15H16.1523ZM17.4648 10.3447V13.9268H19.6318C20.2425 13.9268 20.7233 13.7695 21.0742 13.4551C21.4297 13.1361 21.6074 12.6986 21.6074 12.1426C21.6074 10.944 20.9557 10.3447 19.6523 10.3447H17.4648ZM17.4648 9.29199H19.4473C20.0215 9.29199 20.4795 9.14844 20.8213 8.86133C21.1676 8.57422 21.3408 8.18457 21.3408 7.69238C21.3408 7.14551 21.1813 6.74902 20.8623 6.50293C20.5433 6.25228 20.0579 6.12695 19.4062 6.12695H17.4648V9.29199ZM24.3418 11.2334C24.3418 10.5088 24.4831 9.8571 24.7656 9.27832C25.0527 8.69954 25.4492 8.25293 25.9551 7.93848C26.4655 7.62402 27.0465 7.4668 27.6982 7.4668C28.7054 7.4668 29.5189 7.81543 30.1387 8.5127C30.763 9.20996 31.0752 10.1374 31.0752 11.2949V11.3838C31.0752 12.1038 30.9362 12.751 30.6582 13.3252C30.3848 13.8949 29.9906 14.3392 29.4756 14.6582C28.9652 14.9772 28.3773 15.1367 27.7119 15.1367C26.7093 15.1367 25.8958 14.7881 25.2715 14.0908C24.6517 13.3936 24.3418 12.4707 24.3418 11.3223V11.2334ZM25.6133 11.3838C25.6133 12.2041 25.8024 12.8626 26.1807 13.3594C26.5635 13.8561 27.0739 14.1045 27.7119 14.1045C28.3545 14.1045 28.8649 13.8538 29.2432 13.3525C29.6214 12.8467 29.8105 12.1403 29.8105 11.2334C29.8105 10.4222 29.6169 9.76595 29.2295 9.26465C28.8467 8.75879 28.3363 8.50586 27.6982 8.50586C27.0739 8.50586 26.5703 8.75423 26.1875 9.25098C25.8047 9.74772 25.6133 10.4587 25.6133 11.3838ZM32.3262 11.2334C32.3262 10.5088 32.4674 9.8571 32.75 9.27832C33.0371 8.69954 33.4336 8.25293 33.9395 7.93848C34.4499 7.62402 35.0309 7.4668 35.6826 7.4668C36.6898 7.4668 37.5033 7.81543 38.123 8.5127C38.7474 9.20996 39.0596 10.1374 39.0596 11.2949V11.3838C39.0596 12.1038 38.9206 12.751 38.6426 13.3252C38.3691 13.8949 37.9749 14.3392 37.46 14.6582C36.9495 14.9772 36.3617 15.1367 35.6963 15.1367C34.6937 15.1367 33.8802 14.7881 33.2559 14.0908C32.6361 13.3936 32.3262 12.4707 32.3262 11.3223V11.2334ZM33.5977 11.3838C33.5977 12.2041 33.7868 12.8626 34.165 13.3594C34.5479 13.8561 35.0583 14.1045 35.6963 14.1045C36.3389 14.1045 36.8493 13.8538 37.2275 13.3525C37.6058 12.8467 37.7949 12.1403 37.7949 11.2334C37.7949 10.4222 37.6012 9.76595 37.2139 9.26465C36.8311 8.75879 36.3206 8.50586 35.6826 8.50586C35.0583 8.50586 34.5547 8.75423 34.1719 9.25098C33.7891 9.74772 33.5977 10.4587 33.5977 11.3838ZM42.71 11.5752L41.917 12.4023V15H40.6523V4.5H41.917V10.8506L42.5938 10.0371L44.8975 7.60352H46.4355L43.5576 10.6934L46.7705 15H45.2871L42.71 11.5752ZM52.0479 13.0381C52.0479 12.6963 51.918 12.432 51.6582 12.2451C51.403 12.0537 50.9541 11.8896 50.3115 11.7529C49.6735 11.6162 49.1654 11.4521 48.7871 11.2607C48.4134 11.0693 48.1354 10.8415 47.9531 10.5771C47.7754 10.3128 47.6865 9.99837 47.6865 9.63379C47.6865 9.02767 47.9417 8.51497 48.4521 8.0957C48.9671 7.67643 49.6234 7.4668 50.4209 7.4668C51.2594 7.4668 51.9385 7.68327 52.458 8.11621C52.9821 8.54915 53.2441 9.10286 53.2441 9.77734H51.9727C51.9727 9.43099 51.8245 9.13249 51.5283 8.88184C51.2367 8.63118 50.8675 8.50586 50.4209 8.50586C49.9606 8.50586 49.6006 8.60612 49.3408 8.80664C49.0811 9.00716 48.9512 9.26921 48.9512 9.59277C48.9512 9.89811 49.0719 10.1283 49.3135 10.2832C49.555 10.4382 49.9902 10.5863 50.6191 10.7275C51.2526 10.8688 51.7653 11.0374 52.1572 11.2334C52.5492 11.4294 52.8385 11.6663 53.0254 11.9443C53.2168 12.2178 53.3125 12.5527 53.3125 12.9492C53.3125 13.61 53.0482 14.141 52.5195 14.542C51.9909 14.9385 51.305 15.1367 50.4619 15.1367C49.8695 15.1367 49.3454 15.0319 48.8896 14.8223C48.4339 14.6126 48.0762 14.321 47.8164 13.9473C47.5612 13.569 47.4336 13.1611 47.4336 12.7236H48.6982C48.721 13.1475 48.8896 13.4847 49.2041 13.7354C49.5231 13.9814 49.9424 14.1045 50.4619 14.1045C50.9404 14.1045 51.3232 14.0088 51.6104 13.8174C51.902 13.6214 52.0479 13.3617 52.0479 13.0381Z" transform="translate(1 67)" fill="#F2994A"/>
<path d="M35.4 20.8369H33.1422L34.7868 11.3185C34.856 10.9166 34.6495 10.5212 34.3255 10.4353C34.2842 10.4243 34.2422 10.4188 34.2 10.4188H32.4V8.93055H33.6V7.44225H32.4V6.6981C32.3997 6.36872 32.3744 6.04008 32.3244 5.71657L33.2682 5.13166L32.7318 3.79964L31.9278 4.29822C31.7551 3.89089 31.5398 3.51351 31.2876 3.17604L32.2242 2.01517L31.3758 0.962939L30.3558 2.22799C29.8792 1.87387 29.3501 1.64151 28.8 1.54486V0.000753841H27.6V1.54486C27.0504 1.64356 26.5222 1.87759 26.0466 2.2332L25.0266 0.968148L24.1782 2.02038L25.1148 3.18199C24.8624 3.51909 24.6471 3.89619 24.4746 4.30343L23.6706 3.80485L23.1342 5.13687L24.078 5.72177C24.0275 6.04343 24.0014 6.37039 24 6.6981V7.44225H22.8V8.93055H24V10.4188H22.2C21.8687 10.4188 21.6 10.7519 21.5999 11.1629C21.5999 11.2152 21.6043 11.2674 21.6132 11.3185L23.2578 20.8369H18.6894L20.6652 20.2104C20.9863 20.1086 21.1799 19.7032 21.0979 19.3051C21.0979 19.305 21.0978 19.3049 21.0978 19.3047L20.5032 16.4219L19.611 12.0969L17.232 0.562587C17.1511 0.164095 16.825 -0.0776609 16.5037 0.0227063C16.5025 0.0230783 16.5013 0.0234505 16.5 0.0238226L11.85 1.49947C11.7928 1.52087 11.7386 1.55296 11.6892 1.59472C11.6018 1.52896 11.5021 1.49249 11.4 1.48905H1.8C1.46865 1.48905 1.2 1.82225 1.2 2.2332V20.8369H0.6C0.26865 20.8369 0 21.1701 0 21.5811V26.046C0 26.4569 0.26865 26.7901 0.6 26.7901H2.4V31.255C2.4 31.666 2.66865 31.9992 3.00007 31.9991C3.17512 31.9991 3.34148 31.9042 3.4554 31.7395L6.876 26.7901H29.124L32.544 31.7395C32.7594 32.0518 33.1381 32.0885 33.3899 31.8214C33.5234 31.6798 33.6002 31.4729 33.6 31.255V26.7901H35.4C35.7313 26.7901 36 26.4569 36 26.046V21.5811C36 21.1701 35.7313 20.8369 35.4 20.8369ZM25.2 6.6981C25.2 4.64322 26.5432 2.97735 28.2 2.97735C29.8568 2.97735 31.2 4.64322 31.2 6.6981V10.4188H30V5.95395C30 5.54299 29.7313 5.2098 29.4 5.2098C29.0686 5.2098 28.8 5.54299 28.8 5.95395V10.4188H27.6V7.44225C27.6 7.03129 27.3314 6.6981 27 6.6981C26.6686 6.6981 26.4 7.03129 26.4 7.44225V10.4188H25.2V6.6981ZM22.9422 11.9071H33.4578L31.9146 20.8369H24.4854L22.9422 11.9071ZM19.7868 18.9528L16.2984 20.0593L15.9984 18.6171L19.4862 17.5106L19.7868 18.9528ZM19.1916 16.0692L15.7038 17.1757L15.1092 14.2921L18.597 13.1856L19.1916 16.0692ZM16.2174 1.65053L18.3 11.7434L14.8122 12.85L12.7302 2.75411L16.2174 1.65053ZM12 18.6045V5.22319L13.8 13.9387L14.646 18.0404L15.2202 20.8369H12V18.6045ZM7.2 2.97735H10.8V13.3954H7.2V2.97735ZM7.2 14.8837H10.8V17.8603H7.2V14.8837ZM7.2 19.3486H10.8V20.8369H7.2V19.3486ZM2.4 2.97735H6V13.3954H2.4V2.97735ZM2.4 14.8837H6V17.8603H2.4V14.8837ZM2.4 19.3486H6V20.8369H2.4V19.3486ZM3.6 29.2458V26.7901H5.2956L3.6 29.2458ZM32.4 29.2458L30.7044 26.7901H32.4V29.2458ZM34.8 25.3018H1.2V22.3252H34.8V25.3018Z" transform="translate(18 20)" fill="#FFA630"/>
<defs>
<filter id="filter0_d" x="0" y="0" width="74" height="74" filterUnits="userSpaceOnUse" color-interpolation-filters="sRGB">
<feFlood flood-opacity="0" result="BackgroundImageFix"/>
<feColorMatrix in="SourceAlpha" type="matrix" values="0 0 0 0 0 0 0 0 0 0 0 0 0 0 0 0 0 0 255 0"/>
<feOffset dy="4"/>
<feGaussianBlur stdDeviation="2"/>
<feColorMatrix type="matrix" values="0 0 0 0 0 0 0 0 0 0 0 0 0 0 0 0 0 0 0.25 0"/>
<feBlend mode="normal" in2="BackgroundImageFix" result="effect1_dropShadow"/>
<feBlend mode="normal" in="SourceGraphic" in2="effect1_dropShadow" result="shape"/>
</filter>
</defs>
</svg>
