<svg width="74" height="93" viewBox="0 0 74 93" fill="none" xmlns="http://www.w3.org/2000/svg">
<path d="M11.707 12.8916C11.707 14.1514 11.4844 15.2559 11.0391 16.2051C10.5938 17.1543 9.95508 17.8867 9.12305 18.4023C8.29688 18.918 7.34766 19.1758 6.27539 19.1758C5.21484 19.1758 4.26855 18.9209 3.43652 18.4111C2.60449 17.9014 1.95996 17.1748 1.50293 16.2314C1.0459 15.2822 0.814453 14.1924 0.808594 12.9619V12.3291C0.808594 11.0693 1.03418 9.96191 1.48535 9.00684C1.94238 8.0459 2.58398 7.31055 3.41016 6.80078C4.24219 6.28516 5.19141 6.02734 6.25781 6.02734C7.32422 6.02734 8.27051 6.28516 9.09668 6.80078C9.92871 7.31055 10.5703 8.0459 11.0215 9.00684C11.4785 9.96191 11.707 11.0664 11.707 12.3203V12.8916ZM9.03516 12.3115C9.03516 10.9697 8.79492 9.9502 8.31445 9.25293C7.83398 8.55566 7.14844 8.20703 6.25781 8.20703C5.37305 8.20703 4.69043 8.55273 4.20996 9.24414C3.72949 9.92969 3.48633 10.9375 3.48047 12.2676V12.8916C3.48047 14.1982 3.7207 15.2119 4.20117 15.9326C4.68164 16.6533 5.37305 17.0137 6.27539 17.0137C7.16016 17.0137 7.83984 16.668 8.31445 15.9766C8.78906 15.2793 9.0293 14.2656 9.03516 12.9355V12.3115ZM16.4971 7.15234V9.49023H18.123V11.3535H16.4971V16.0996C16.4971 16.4512 16.5645 16.7031 16.6992 16.8555C16.834 17.0078 17.0918 17.084 17.4727 17.084C17.7539 17.084 18.0029 17.0635 18.2197 17.0225V18.9473C17.7217 19.0996 17.209 19.1758 16.6816 19.1758C14.9004 19.1758 13.9922 18.2764 13.957 16.4775V11.3535H12.5684V9.49023H13.957V7.15234H16.4971ZM22.0166 10.5273C22.6904 9.71875 23.5371 9.31445 24.5566 9.31445C26.6191 9.31445 27.665 10.5127 27.6943 12.9092V19H25.1543V12.9795C25.1543 12.4346 25.0371 12.0332 24.8027 11.7754C24.5684 11.5117 24.1787 11.3799 23.6338 11.3799C22.8896 11.3799 22.3506 11.667 22.0166 12.2412V19H19.4766V5.5H22.0166V10.5273ZM33.9873 19.1758C32.5928 19.1758 31.4561 18.748 30.5771 17.8926C29.7041 17.0371 29.2676 15.8975 29.2676 14.4736V14.2275C29.2676 13.2725 29.4521 12.4199 29.8213 11.6699C30.1904 10.9141 30.7119 10.334 31.3857 9.92969C32.0654 9.51953 32.8389 9.31445 33.7061 9.31445C35.0068 9.31445 36.0293 9.72461 36.7734 10.5449C37.5234 11.3652 37.8984 12.5283 37.8984 14.0342V15.0713H31.8428C31.9248 15.6924 32.1709 16.1904 32.5811 16.5654C32.9971 16.9404 33.5215 17.1279 34.1543 17.1279C35.1328 17.1279 35.8975 16.7734 36.4482 16.0645L37.6963 17.4619C37.3154 18.001 36.7998 18.4229 36.1494 18.7275C35.499 19.0264 34.7783 19.1758 33.9873 19.1758ZM33.6973 11.3711C33.1934 11.3711 32.7832 11.541 32.4668 11.8809C32.1562 12.2207 31.957 12.707 31.8691 13.3398H35.4023V13.1377C35.3906 12.5752 35.2383 12.1416 34.9453 11.8369C34.6523 11.5264 34.2363 11.3711 33.6973 11.3711ZM44.6924 11.8721C44.3467 11.8252 44.042 11.8018 43.7783 11.8018C42.8174 11.8018 42.1875 12.127 41.8887 12.7773V19H39.3486V9.49023H41.748L41.8184 10.624C42.3281 9.75098 43.0342 9.31445 43.9365 9.31445C44.2178 9.31445 44.4814 9.35254 44.7275 9.42871L44.6924 11.8721Z" transform="translate(15 66)" fill="#4C6085"/>
<g filter="url(#filter0_d)">
<circle cx="33" cy="33" r="33" transform="translate(4)" fill="#FFA630"/>
<circle cx="33" cy="33" r="31.5" transform="translate(4)" stroke="#4C6085" stroke-width="3"/>
</g>
<path d="M12.3164 18.2695C12.3164 16.4466 12.5378 14.9948 12.9805 13.9141C13.4232 12.8333 14.2305 11.7721 15.4023 10.7305C16.5872 9.67578 17.375 8.82292 17.7656 8.17188C18.1562 7.50781 18.3516 6.8112 18.3516 6.08203C18.3516 3.88151 17.3359 2.78125 15.3047 2.78125C14.3411 2.78125 13.5664 3.08073 12.9805 3.67969C12.4076 4.26562 12.1081 5.07943 12.082 6.12109H6.41797C6.44401 3.63411 7.24479 1.6875 8.82031 0.28125C10.4089 -1.125 12.5703 -1.82812 15.3047 -1.82812C18.0651 -1.82812 20.207 -1.15755 21.7305 0.183594C23.2539 1.51172 24.0156 3.39323 24.0156 5.82812C24.0156 6.9349 23.7682 7.98307 23.2734 8.97266C22.7786 9.94922 21.9128 11.0365 20.6758 12.2344L19.0938 13.7383C18.1042 14.6888 17.5378 15.8021 17.3945 17.0781L17.3164 18.2695H12.3164ZM11.75 24.2656C11.75 23.3932 12.043 22.6771 12.6289 22.1172C13.2279 21.5443 13.9896 21.2578 14.9141 21.2578C15.8385 21.2578 16.5938 21.5443 17.1797 22.1172C17.7786 22.6771 18.0781 23.3932 18.0781 24.2656C18.0781 25.125 17.7852 25.8346 17.1992 26.3945C16.6263 26.9544 15.8646 27.2344 14.9141 27.2344C13.9635 27.2344 13.1953 26.9544 12.6094 26.3945C12.0365 25.8346 11.75 25.125 11.75 24.2656Z" transform="translate(22 20)" fill="#F2F2F2"/>
<path d="M12.3164 18.2695H11.8164V18.7695H12.3164V18.2695ZM15.4023 10.7305L15.7345 11.1042L15.7348 11.1039L15.4023 10.7305ZM17.7656 8.17188L18.1944 8.42913L18.1966 8.42539L17.7656 8.17188ZM12.9805 3.67969L12.6231 3.33004L12.623 3.33013L12.9805 3.67969ZM12.082 6.12109V6.62109H12.5697L12.5819 6.13359L12.082 6.12109ZM6.41797 6.12109L5.918 6.11586L5.91271 6.62109H6.41797V6.12109ZM8.82031 0.28125L8.48889 -0.0931342L8.48737 -0.0917735L8.82031 0.28125ZM21.7305 0.183594L21.4001 0.558891L21.4019 0.56048L21.7305 0.183594ZM23.2734 8.97266L23.7195 9.19864L23.7207 9.19626L23.2734 8.97266ZM20.6758 12.2344L21.0203 12.5968L21.0236 12.5936L20.6758 12.2344ZM19.0938 13.7383L18.7493 13.3759L18.7474 13.3777L19.0938 13.7383ZM17.3945 17.0781L16.8977 17.0224L16.8964 17.0339L16.8956 17.0454L17.3945 17.0781ZM17.3164 18.2695V18.7695H17.7847L17.8153 18.3022L17.3164 18.2695ZM12.6289 22.1172L12.9743 22.4787L12.9745 22.4785L12.6289 22.1172ZM17.1797 22.1172L16.83 22.4748L16.8382 22.4825L17.1797 22.1172ZM17.1992 26.3945L16.8538 26.033L16.8498 26.0369L17.1992 26.3945ZM12.6094 26.3945L12.2599 26.7521L12.2639 26.756L12.6094 26.3945ZM12.8164 18.2695C12.8164 16.4791 13.035 15.1001 13.4432 14.1036L12.5178 13.7245C12.0406 14.8895 11.8164 16.4141 11.8164 18.2695H12.8164ZM13.4432 14.1036C13.8488 13.1133 14.601 12.1117 15.7345 11.1042L15.0702 10.3568C13.8599 11.4326 12.9975 12.5534 12.5178 13.7245L13.4432 14.1036ZM15.7348 11.1039C16.9256 10.044 17.7623 9.14917 18.1944 8.42912L17.3369 7.91463C16.9877 8.49666 16.2489 9.30759 15.0699 10.357L15.7348 11.1039ZM18.1966 8.42539C18.6298 7.68901 18.8516 6.90545 18.8516 6.08203H17.8516C17.8516 6.71695 17.6827 7.32662 17.3347 7.91836L18.1966 8.42539ZM18.8516 6.08203C18.8516 4.91419 18.5829 3.94509 17.9572 3.26731C17.3246 2.58196 16.4081 2.28125 15.3047 2.28125V3.28125C16.2325 3.28125 16.8394 3.53067 17.2224 3.94559C17.6124 4.36806 17.8516 5.04935 17.8516 6.08203H18.8516ZM15.3047 2.28125C14.2286 2.28125 13.3174 2.62029 12.6231 3.33004L13.3379 4.02933C13.8154 3.54116 14.4537 3.28125 15.3047 3.28125V2.28125ZM12.623 3.33013C11.9396 4.02901 11.6105 4.97625 11.5822 6.1086L12.5819 6.13359C12.6056 5.1826 12.8755 4.50224 13.338 4.02925L12.623 3.33013ZM12.082 5.62109H6.41797V6.62109H12.082V5.62109ZM6.91794 6.12633C6.9428 3.75267 7.70144 1.95011 9.15326 0.654274L8.48737 -0.0917735C6.78814 1.42489 5.94522 3.51556 5.918 6.11586L6.91794 6.12633ZM9.15173 0.655631C10.6249 -0.648527 12.6562 -1.32812 15.3047 -1.32812V-2.32812C12.4844 -2.32812 10.1928 -1.60147 8.48889 -0.0931311L9.15173 0.655631ZM15.3047 -1.32812C17.9876 -1.32812 19.9963 -0.676883 21.4001 0.558887L22.0609 -0.191699C20.4177 -1.63822 18.1426 -2.32812 15.3047 -2.32812V-1.32812ZM21.4019 0.56048C22.7942 1.77428 23.5156 3.50538 23.5156 5.82812H24.5156C24.5156 3.28108 23.7136 1.24916 22.059 -0.193293L21.4019 0.56048ZM23.5156 5.82812C23.5156 6.8573 23.2863 7.82892 22.8262 8.74905L23.7207 9.19626C24.2502 8.13723 24.5156 7.01249 24.5156 5.82812H23.5156ZM22.8274 8.74667C22.3679 9.65369 21.5452 10.6964 20.3279 11.8752L21.0236 12.5936C22.2803 11.3765 23.1894 10.2448 23.7195 9.19864L22.8274 8.74667ZM20.3313 11.872L18.7493 13.3759L19.4382 14.1007L21.0203 12.5968L20.3313 11.872ZM18.7474 13.3777C17.6798 14.4031 17.0548 15.6219 16.8977 17.0224L17.8914 17.1339C18.0207 15.9822 18.5285 14.9745 19.4401 14.0989L18.7474 13.3777ZM16.8956 17.0454L16.8175 18.2368L17.8153 18.3022L17.8935 17.1108L16.8956 17.0454ZM17.3164 17.7695H12.3164V18.7695H17.3164V17.7695ZM12.25 24.2656C12.25 23.5182 12.4952 22.9365 12.9743 22.4787L12.2835 21.7557C11.5907 22.4177 11.25 23.2683 11.25 24.2656H12.25ZM12.9745 22.4785C13.4694 22.0052 14.1022 21.7578 14.9141 21.7578V20.7578C13.877 20.7578 12.9864 21.0834 12.2833 21.7559L12.9745 22.4785ZM14.9141 21.7578C15.7261 21.7578 16.3499 22.0051 16.8301 22.4747L17.5292 21.7597C16.8376 21.0834 15.951 20.7578 14.9141 20.7578V21.7578ZM16.8382 22.4825C17.329 22.9412 17.5781 23.5217 17.5781 24.2656H18.5781C18.5781 23.2647 18.2283 22.4129 17.5211 21.7519L16.8382 22.4825ZM17.5781 24.2656C17.5781 24.9977 17.3345 25.5737 16.8538 26.033L17.5446 26.756C18.2358 26.0956 18.5781 25.2523 18.5781 24.2656H17.5781ZM16.8498 26.0369C16.3874 26.4888 15.76 26.7344 14.9141 26.7344V27.7344C15.9691 27.7344 16.8652 27.4201 17.5487 26.7521L16.8498 26.0369ZM14.9141 26.7344C14.0684 26.7344 13.4318 26.4888 12.9548 26.033L12.2639 26.756C12.9588 27.42 13.8587 27.7344 14.9141 27.7344V26.7344ZM12.9588 26.0369C12.4897 25.5785 12.25 25.0013 12.25 24.2656H11.25C11.25 25.2487 11.5832 26.0908 12.2599 26.7521L12.9588 26.0369Z" transform="translate(22 20)" fill="#FFA630"/>
<defs>
<filter id="filter0_d" x="0" y="0" width="74" height="74" filterUnits="userSpaceOnUse" color-interpolation-filters="sRGB">
<feFlood flood-opacity="0" result="BackgroundImageFix"/>
<feColorMatrix in="SourceAlpha" type="matrix" values="0 0 0 0 0 0 0 0 0 0 0 0 0 0 0 0 0 0 255 0"/>
<feOffset dy="4"/>
<feGaussianBlur stdDeviation="2"/>
<feColorMatrix type="matrix" values="0 0 0 0 0 0 0 0 0 0 0 0 0 0 0 0 0 0 0.25 0"/>
<feBlend mode="normal" in2="BackgroundImageFix" result="effect1_dropShadow"/>
<feBlend mode="normal" in="SourceGraphic" in2="effect1_dropShadow" result="shape"/>
</filter>
</defs>
</svg>
