<svg width="74" height="88" viewBox="0 0 74 88" fill="none" xmlns="http://www.w3.org/2000/svg">
<g filter="url(#filter0_d)">
<circle cx="33" cy="33" r="33" transform="translate(4)" fill="#FFA630"/>
<circle cx="33" cy="33" r="31.5" transform="translate(4)" stroke="#4C6085" stroke-width="3"/>
</g>
<path d="M8.76367 16.3633H4.14062L3.26172 19H0.458008L5.22168 6.20312H7.66504L12.4551 19H9.65137L8.76367 16.3633ZM4.85254 14.2275H8.05176L6.44336 9.4375L4.85254 14.2275ZM18.8271 11.8721C18.4814 11.8252 18.1768 11.8018 17.9131 11.8018C16.9521 11.8018 16.3223 12.127 16.0234 12.7773V19H13.4834V9.49023H15.8828L15.9531 10.624C16.4629 9.75098 17.1689 9.31445 18.0713 9.31445C18.3525 9.31445 18.6162 9.35254 18.8623 9.42871L18.8271 11.8721ZM23.5381 7.15234V9.49023H25.1641V11.3535H23.5381V16.0996C23.5381 16.4512 23.6055 16.7031 23.7402 16.8555C23.875 17.0078 24.1328 17.084 24.5137 17.084C24.7949 17.084 25.0439 17.0635 25.2607 17.0225V18.9473C24.7627 19.0996 24.25 19.1758 23.7227 19.1758C21.9414 19.1758 21.0332 18.2764 20.998 16.4775V11.3535H19.6094V9.49023H20.998V7.15234H23.5381Z" transform="translate(24 68)" fill="#4C6085"/>
<path d="M35.9567 6.52678C35.8698 6.31688 35.6649 6.17988 35.4375 6.1796H24.4204L18.3977 0.164482C18.178 -0.0548274 17.822 -0.0548274 17.6023 0.164482L11.5796 6.1796H0.5625C0.335109 6.17988 0.130219 6.31688 0.0433125 6.52678C0.0150469 6.59483 0.000351562 6.66772 0 6.74139V33.7074C0.000351562 33.7811 0.0150469 33.854 0.0433125 33.922C0.100406 34.0596 0.209883 34.1689 0.347625 34.226C0.415758 34.2542 0.488742 34.2689 0.5625 34.2692H35.4375C35.5113 34.2689 35.5842 34.2542 35.6524 34.226C35.7901 34.1689 35.8996 34.0596 35.9567 33.922C35.985 33.854 35.9996 33.7811 36 33.7074V6.74139C35.9996 6.66772 35.985 6.59483 35.9567 6.52678ZM18 1.35604L22.8296 6.1796H13.1704L18 1.35604ZM34.0796 7.30318L32.9546 8.42677H3.04538L1.92038 7.30318H34.0796ZM26.775 21.4604C26.575 21.3106 26.3 21.3106 26.1 21.4604L19.7955 26.1794L12.8205 17.0716C12.717 16.9379 12.5588 16.8579 12.3896 16.8537C12.2197 16.8509 12.0574 16.9235 11.9464 17.052L3.375 27.1232V9.55035H32.625V25.8423L26.775 21.4604ZM32.625 27.2468V30.8985H3.375V28.8575L12.3519 18.3104L19.2409 27.3069C19.4283 27.5517 19.7781 27.6001 20.025 27.4154L26.4375 22.612L32.625 27.2468ZM1.125 8.09756L2.25 9.22114V31.2277L1.125 32.3513V8.09756ZM1.92038 33.1456L3.04538 32.0221H32.9546L34.0796 33.1456H1.92038ZM34.875 32.3513L33.75 31.2277V9.22114L34.875 8.09756V32.3513Z" transform="translate(19 14)" fill="white"/>
<path d="M3.9375 -4.97192e-07C1.76288 -4.97192e-07 0 1.76066 0 3.93255C0.00246094 6.10339 1.76393 7.86264 3.9375 7.8651C6.11212 7.8651 7.875 6.10444 7.875 3.93255C7.875 1.76066 6.11212 -4.97192e-07 3.9375 -4.97192e-07ZM3.9375 6.74151C2.38423 6.74151 1.125 5.48387 1.125 3.93255C1.12683 2.382 2.385 1.12541 3.9375 1.12358C5.49077 1.12358 6.75 2.38123 6.75 3.93255C6.75 5.48387 5.49077 6.74151 3.9375 6.74151Z" transform="translate(38.125 25.7975)" fill="white"/>
<defs>
<filter id="filter0_d" x="0" y="0" width="74" height="74" filterUnits="userSpaceOnUse" color-interpolation-filters="sRGB">
<feFlood flood-opacity="0" result="BackgroundImageFix"/>
<feColorMatrix in="SourceAlpha" type="matrix" values="0 0 0 0 0 0 0 0 0 0 0 0 0 0 0 0 0 0 255 0"/>
<feOffset dy="4"/>
<feGaussianBlur stdDeviation="2"/>
<feColorMatrix type="matrix" values="0 0 0 0 0 0 0 0 0 0 0 0 0 0 0 0 0 0 0.25 0"/>
<feBlend mode="normal" in2="BackgroundImageFix" result="effect1_dropShadow"/>
<feBlend mode="normal" in="SourceGraphic" in2="effect1_dropShadow" result="shape"/>
</filter>
</defs>
</svg>
