<svg width="74" height="88" viewBox="0 0 74 88" fill="none" xmlns="http://www.w3.org/2000/svg">
<g filter="url(#filter0_d)">
<circle cx="33" cy="33" r="33" transform="translate(4)" fill="#FFA630"/>
<circle cx="33" cy="33" r="31.5" transform="translate(4)" stroke="#4C6085" stroke-width="3"/>
</g>
<path d="M11.2422 14.7373C11.1426 16.1143 10.6328 17.1982 9.71289 17.9893C8.79883 18.7803 7.5918 19.1758 6.0918 19.1758C4.45117 19.1758 3.15918 18.625 2.21582 17.5234C1.27832 16.416 0.80957 14.8984 0.80957 12.9707V12.1885C0.80957 10.958 1.02637 9.87402 1.45996 8.93652C1.89355 7.99902 2.51172 7.28125 3.31445 6.7832C4.12305 6.2793 5.06055 6.02734 6.12695 6.02734C7.60352 6.02734 8.79297 6.42285 9.69531 7.21387C10.5977 8.00488 11.1191 9.11523 11.2598 10.5449H8.62305C8.55859 9.71875 8.32715 9.12109 7.92871 8.75195C7.53613 8.37695 6.93555 8.18945 6.12695 8.18945C5.24805 8.18945 4.58887 8.50586 4.14941 9.13867C3.71582 9.76562 3.49316 10.7412 3.48145 12.0654V13.0322C3.48145 14.415 3.68945 15.4258 4.10547 16.0645C4.52734 16.7031 5.18945 17.0225 6.0918 17.0225C6.90625 17.0225 7.5127 16.8379 7.91113 16.4688C8.31543 16.0938 8.54688 15.5166 8.60547 14.7373H11.2422ZM15.4873 19H12.9385V5.5H15.4873V19ZM17.1924 14.1572C17.1924 13.2139 17.374 12.373 17.7373 11.6348C18.1006 10.8965 18.6221 10.3252 19.3018 9.9209C19.9873 9.5166 20.7812 9.31445 21.6836 9.31445C22.9668 9.31445 24.0127 9.70703 24.8213 10.4922C25.6357 11.2773 26.0898 12.3438 26.1836 13.6914L26.2012 14.3418C26.2012 15.8008 25.7939 16.9727 24.9795 17.8574C24.165 18.7363 23.0723 19.1758 21.7012 19.1758C20.3301 19.1758 19.2344 18.7363 18.4141 17.8574C17.5996 16.9785 17.1924 15.7832 17.1924 14.2715V14.1572ZM19.7324 14.3418C19.7324 15.2441 19.9023 15.9355 20.2422 16.416C20.582 16.8906 21.0684 17.1279 21.7012 17.1279C22.3164 17.1279 22.7969 16.8936 23.1426 16.4248C23.4883 15.9502 23.6611 15.1943 23.6611 14.1572C23.6611 13.2725 23.4883 12.5869 23.1426 12.1006C22.7969 11.6143 22.3105 11.3711 21.6836 11.3711C21.0625 11.3711 20.582 11.6143 20.2422 12.1006C19.9023 12.5811 19.7324 13.3281 19.7324 14.3418ZM30.8066 7.15234V9.49023H32.4326V11.3535H30.8066V16.0996C30.8066 16.4512 30.874 16.7031 31.0088 16.8555C31.1436 17.0078 31.4014 17.084 31.7822 17.084C32.0635 17.084 32.3125 17.0635 32.5293 17.0225V18.9473C32.0312 19.0996 31.5186 19.1758 30.9912 19.1758C29.21 19.1758 28.3018 18.2764 28.2666 16.4775V11.3535H26.8779V9.49023H28.2666V7.15234H30.8066ZM36.3262 10.5273C37 9.71875 37.8467 9.31445 38.8662 9.31445C40.9287 9.31445 41.9746 10.5127 42.0039 12.9092V19H39.4639V12.9795C39.4639 12.4346 39.3467 12.0332 39.1123 11.7754C38.8779 11.5117 38.4883 11.3799 37.9434 11.3799C37.1992 11.3799 36.6602 11.667 36.3262 12.2412V19H33.7861V5.5H36.3262V10.5273ZM48.2969 19.1758C46.9023 19.1758 45.7656 18.748 44.8867 17.8926C44.0137 17.0371 43.5771 15.8975 43.5771 14.4736V14.2275C43.5771 13.2725 43.7617 12.4199 44.1309 11.6699C44.5 10.9141 45.0215 10.334 45.6953 9.92969C46.375 9.51953 47.1484 9.31445 48.0156 9.31445C49.3164 9.31445 50.3389 9.72461 51.083 10.5449C51.833 11.3652 52.208 12.5283 52.208 14.0342V15.0713H46.1523C46.2344 15.6924 46.4805 16.1904 46.8906 16.5654C47.3066 16.9404 47.8311 17.1279 48.4639 17.1279C49.4424 17.1279 50.207 16.7734 50.7578 16.0645L52.0059 17.4619C51.625 18.001 51.1094 18.4229 50.459 18.7275C49.8086 19.0264 49.0879 19.1758 48.2969 19.1758ZM48.0068 11.3711C47.5029 11.3711 47.0928 11.541 46.7764 11.8809C46.4658 12.2207 46.2666 12.707 46.1787 13.3398H49.7119V13.1377C49.7002 12.5752 49.5479 12.1416 49.2549 11.8369C48.9619 11.5264 48.5459 11.3711 48.0068 11.3711ZM58.8086 16.3721C58.8086 16.0615 58.6533 15.8184 58.3428 15.6426C58.0381 15.4609 57.5459 15.2998 56.8662 15.1592C54.6045 14.6846 53.4736 13.7236 53.4736 12.2764C53.4736 11.4326 53.8223 10.7295 54.5195 10.167C55.2227 9.59863 56.1396 9.31445 57.2705 9.31445C58.4775 9.31445 59.4414 9.59863 60.1621 10.167C60.8887 10.7354 61.252 11.4736 61.252 12.3818H58.7119C58.7119 12.0186 58.5947 11.7197 58.3604 11.4854C58.126 11.2451 57.7598 11.125 57.2617 11.125C56.834 11.125 56.5029 11.2217 56.2686 11.415C56.0342 11.6084 55.917 11.8545 55.917 12.1533C55.917 12.4346 56.0488 12.6631 56.3125 12.8389C56.582 13.0088 57.0332 13.1582 57.666 13.2871C58.2988 13.4102 58.832 13.5508 59.2656 13.709C60.6074 14.2012 61.2783 15.0537 61.2783 16.2666C61.2783 17.1338 60.9062 17.8369 60.1621 18.376C59.418 18.9092 58.457 19.1758 57.2793 19.1758C56.4824 19.1758 55.7734 19.0352 55.1523 18.7539C54.5371 18.4668 54.0537 18.0771 53.7021 17.585C53.3506 17.0869 53.1748 16.5508 53.1748 15.9766H55.583C55.6064 16.4277 55.7734 16.7734 56.084 17.0137C56.3945 17.2539 56.8105 17.374 57.332 17.374C57.8184 17.374 58.1846 17.2832 58.4307 17.1016C58.6826 16.9141 58.8086 16.6709 58.8086 16.3721Z" transform="translate(6 68)" fill="#4C6085"/>
<path d="M35.83 12.9443L30.0236 7.13788C29.94 7.05456 29.8331 6.99867 29.717 6.97762L23.33 5.81633C23.0145 5.75892 22.7122 5.96817 22.6547 6.28368C22.6485 6.31779 22.6454 6.35241 22.6454 6.3871C22.6437 6.57161 22.6272 6.75567 22.596 6.93756L18.5809 5.9342V5.74839C20.1519 5.42773 21.1655 3.89417 20.8448 2.32316C20.5242 0.752151 18.9906 -0.261439 17.4196 0.0592227C16.0681 0.335102 15.0973 1.52383 15.097 2.90323H16.2583C16.2583 1.94117 17.0382 1.16129 18.0003 1.16129C18.9623 1.16129 19.7422 1.94117 19.7422 2.90323C19.7422 3.86529 18.9623 4.64517 18.0003 4.64517C17.6796 4.64517 17.4196 4.90515 17.4196 5.22581V5.93362L13.4045 6.93756C13.3733 6.75567 13.3568 6.57161 13.3551 6.3871C13.3552 6.21487 13.2788 6.05156 13.1467 5.94117C13.0152 5.82925 12.8399 5.78331 12.6705 5.81633L6.28349 6.97762C6.16737 6.99867 6.06046 7.05456 5.97692 7.13788L0.170504 12.9443C-0.0561638 13.1711 -0.0561638 13.5386 0.170504 13.7654L4.81563 18.4105C5.04237 18.6372 5.40992 18.6372 5.63666 18.4105L6.96807 17.0791V20.9033H2.90358C1.305 20.8986 0.00538415 22.1908 0.000739019 23.7894C-0.00194645 24.7127 0.436002 25.5819 1.17966 26.1291C-0.103051 27.0663 -0.383137 28.866 0.554163 30.1487C0.729153 30.3882 0.940144 30.5992 1.17966 30.7742C-0.107841 31.7216 -0.3835 33.5335 0.563961 34.8211C1.11122 35.5646 1.98036 36.0026 2.90358 36H23.8067C23.9607 36 24.1083 35.9387 24.2172 35.8299L28.8623 31.1847C28.9698 31.0753 29.0292 30.9275 29.0272 30.7742H29.0324V17.0791L30.3638 18.4105C30.5906 18.6372 30.9581 18.6372 31.1849 18.4105L35.83 13.7654C36.0567 13.5386 36.0567 13.171 35.83 12.9443ZM18.0003 6.98517L22.2227 8.04079C21.3475 9.53254 19.729 10.4288 18.0003 10.379C16.2715 10.4288 14.653 9.53254 13.7778 8.04079L18.0003 6.98517ZM1.16166 23.8065C1.16166 22.8444 1.94153 22.0646 2.90358 22.0646H15.6777C16.6397 22.0646 17.4196 22.8444 17.4196 23.8065C17.4196 24.7686 16.6397 25.5484 15.6777 25.5484H2.90358C1.94153 25.5484 1.16166 24.7685 1.16166 23.8065ZM1.16166 28.4517C1.16166 27.4896 1.94153 26.7097 2.90358 26.7097H15.6777C16.6397 26.7097 17.4196 27.4896 17.4196 28.4517C17.4196 29.4137 16.6397 30.1936 15.6777 30.1936H2.90358C1.94153 30.1936 1.16166 29.4136 1.16166 28.4517ZM15.6777 34.8388H14.5164H2.90358C1.94153 34.8388 1.16166 34.0589 1.16166 33.0968C1.16166 32.1348 1.94153 31.3549 2.90358 31.3549H15.6777C16.6397 31.3549 17.4196 32.1348 17.4196 33.0968C17.4196 34.0589 16.6397 34.8388 15.6777 34.8388ZM24.3873 34.0177V31.3549H27.0501L24.3873 34.0177ZM30.7744 17.179L27.1204 13.525L26.2994 14.346L27.8712 15.9178V30.1936H23.8067C23.486 30.1936 23.226 30.4536 23.226 30.7742V34.8388H17.9852C18.9516 33.5868 18.7201 31.7884 17.4682 30.8219C17.4472 30.8057 17.426 30.7899 17.4045 30.7742C18.6872 29.837 18.9673 28.0374 18.0301 26.7546C17.8551 26.5151 17.6441 26.3041 17.4045 26.1291C18.6921 25.1816 18.9677 23.3697 18.0202 22.0822C17.4724 21.3377 16.6019 20.8997 15.6777 20.9033H8.12935V15.9178L9.70115 14.346L8.88012 13.525L5.22615 17.179L1.40204 13.3549L6.66962 8.08724L12.2438 7.07401C12.6235 9.59169 15.0599 11.5403 17.9991 11.5403C20.9383 11.5403 23.3747 9.59169 23.7544 7.07401L29.3286 8.08724L34.5985 13.3549L30.7744 17.179Z" transform="translate(21 13)" fill="white"/>
<path d="M13.9354 0H0V1.16129H13.9354V0Z" transform="translate(23.3229 36.2258)" fill="white"/>
<path d="M13.3547 0H0V1.16129H13.3547V0Z" transform="translate(23.3229 40.871)" fill="white"/>
<path d="M13.3547 0H0V1.16129H13.3547V0Z" transform="translate(23.3229 45.5162)" fill="white"/>
<defs>
<filter id="filter0_d" x="0" y="0" width="74" height="74" filterUnits="userSpaceOnUse" color-interpolation-filters="sRGB">
<feFlood flood-opacity="0" result="BackgroundImageFix"/>
<feColorMatrix in="SourceAlpha" type="matrix" values="0 0 0 0 0 0 0 0 0 0 0 0 0 0 0 0 0 0 255 0"/>
<feOffset dy="4"/>
<feGaussianBlur stdDeviation="2"/>
<feColorMatrix type="matrix" values="0 0 0 0 0 0 0 0 0 0 0 0 0 0 0 0 0 0 0.25 0"/>
<feBlend mode="normal" in2="BackgroundImageFix" result="effect1_dropShadow"/>
<feBlend mode="normal" in="SourceGraphic" in2="effect1_dropShadow" result="shape"/>
</filter>
</defs>
</svg>
