<svg width="85" height="88" viewBox="0 0 85 88" fill="none" xmlns="http://www.w3.org/2000/svg">
<g filter="url(#filter0_d)">
<circle cx="33" cy="33" r="33" transform="translate(9)" fill="#FFA630"/>
<circle cx="33" cy="33" r="31.5" transform="translate(9)" stroke="#4C6085" stroke-width="3"/>
</g>
<path d="M11.6572 14.7373C11.5576 16.1143 11.0479 17.1982 10.1279 17.9893C9.21387 18.7803 8.00684 19.1758 6.50684 19.1758C4.86621 19.1758 3.57422 18.625 2.63086 17.5234C1.69336 16.416 1.22461 14.8984 1.22461 12.9707V12.1885C1.22461 10.958 1.44141 9.87402 1.875 8.93652C2.30859 7.99902 2.92676 7.28125 3.72949 6.7832C4.53809 6.2793 5.47559 6.02734 6.54199 6.02734C8.01855 6.02734 9.20801 6.42285 10.1104 7.21387C11.0127 8.00488 11.5342 9.11523 11.6748 10.5449H9.03809C8.97363 9.71875 8.74219 9.12109 8.34375 8.75195C7.95117 8.37695 7.35059 8.18945 6.54199 8.18945C5.66309 8.18945 5.00391 8.50586 4.56445 9.13867C4.13086 9.76562 3.9082 10.7412 3.89648 12.0654V13.0322C3.89648 14.415 4.10449 15.4258 4.52051 16.0645C4.94238 16.7031 5.60449 17.0225 6.50684 17.0225C7.32129 17.0225 7.92773 16.8379 8.32617 16.4688C8.73047 16.0938 8.96191 15.5166 9.02051 14.7373H11.6572ZM12.8262 14.1572C12.8262 13.2139 13.0078 12.373 13.3711 11.6348C13.7344 10.8965 14.2559 10.3252 14.9355 9.9209C15.6211 9.5166 16.415 9.31445 17.3174 9.31445C18.6006 9.31445 19.6465 9.70703 20.4551 10.4922C21.2695 11.2773 21.7236 12.3438 21.8174 13.6914L21.835 14.3418C21.835 15.8008 21.4277 16.9727 20.6133 17.8574C19.7988 18.7363 18.7061 19.1758 17.335 19.1758C15.9639 19.1758 14.8682 18.7363 14.0479 17.8574C13.2334 16.9785 12.8262 15.7832 12.8262 14.2715V14.1572ZM15.3662 14.3418C15.3662 15.2441 15.5361 15.9355 15.876 16.416C16.2158 16.8906 16.7021 17.1279 17.335 17.1279C17.9502 17.1279 18.4307 16.8936 18.7764 16.4248C19.1221 15.9502 19.2949 15.1943 19.2949 14.1572C19.2949 13.2725 19.1221 12.5869 18.7764 12.1006C18.4307 11.6143 17.9443 11.3711 17.3174 11.3711C16.6963 11.3711 16.2158 11.6143 15.876 12.1006C15.5361 12.5811 15.3662 13.3281 15.3662 14.3418ZM28.5498 16.3721C28.5498 16.0615 28.3945 15.8184 28.084 15.6426C27.7793 15.4609 27.2871 15.2998 26.6074 15.1592C24.3457 14.6846 23.2148 13.7236 23.2148 12.2764C23.2148 11.4326 23.5635 10.7295 24.2607 10.167C24.9639 9.59863 25.8809 9.31445 27.0117 9.31445C28.2188 9.31445 29.1826 9.59863 29.9033 10.167C30.6299 10.7354 30.9932 11.4736 30.9932 12.3818H28.4531C28.4531 12.0186 28.3359 11.7197 28.1016 11.4854C27.8672 11.2451 27.501 11.125 27.0029 11.125C26.5752 11.125 26.2441 11.2217 26.0098 11.415C25.7754 11.6084 25.6582 11.8545 25.6582 12.1533C25.6582 12.4346 25.79 12.6631 26.0537 12.8389C26.3232 13.0088 26.7744 13.1582 27.4072 13.2871C28.04 13.4102 28.5732 13.5508 29.0068 13.709C30.3486 14.2012 31.0195 15.0537 31.0195 16.2666C31.0195 17.1338 30.6475 17.8369 29.9033 18.376C29.1592 18.9092 28.1982 19.1758 27.0205 19.1758C26.2236 19.1758 25.5146 19.0352 24.8936 18.7539C24.2783 18.4668 23.7949 18.0771 23.4434 17.585C23.0918 17.0869 22.916 16.5508 22.916 15.9766H25.3242C25.3477 16.4277 25.5146 16.7734 25.8252 17.0137C26.1357 17.2539 26.5518 17.374 27.0732 17.374C27.5596 17.374 27.9258 17.2832 28.1719 17.1016C28.4238 16.9141 28.5498 16.6709 28.5498 16.3721ZM35.0449 9.49023L35.124 10.5537C35.7979 9.72754 36.709 9.31445 37.8574 9.31445C39.082 9.31445 39.9229 9.79785 40.3799 10.7646C41.0479 9.79785 42 9.31445 43.2363 9.31445C44.2676 9.31445 45.0352 9.61621 45.5391 10.2197C46.043 10.8174 46.2949 11.7197 46.2949 12.9268V19H43.7461V12.9355C43.7461 12.3965 43.6406 12.0039 43.4297 11.7578C43.2188 11.5059 42.8467 11.3799 42.3135 11.3799C41.5518 11.3799 41.0244 11.7432 40.7314 12.4697L40.7402 19H38.2002V12.9443C38.2002 12.3936 38.0918 11.9951 37.875 11.749C37.6582 11.5029 37.2891 11.3799 36.7676 11.3799C36.0469 11.3799 35.5254 11.6787 35.2031 12.2764V19H32.6631V9.49023H35.0449ZM52.6318 19.1758C51.2373 19.1758 50.1006 18.748 49.2217 17.8926C48.3486 17.0371 47.9121 15.8975 47.9121 14.4736V14.2275C47.9121 13.2725 48.0967 12.4199 48.4658 11.6699C48.835 10.9141 49.3564 10.334 50.0303 9.92969C50.71 9.51953 51.4834 9.31445 52.3506 9.31445C53.6514 9.31445 54.6738 9.72461 55.418 10.5449C56.168 11.3652 56.543 12.5283 56.543 14.0342V15.0713H50.4873C50.5693 15.6924 50.8154 16.1904 51.2256 16.5654C51.6416 16.9404 52.166 17.1279 52.7988 17.1279C53.7773 17.1279 54.542 16.7734 55.0928 16.0645L56.3408 17.4619C55.96 18.001 55.4443 18.4229 54.7939 18.7275C54.1436 19.0264 53.4229 19.1758 52.6318 19.1758ZM52.3418 11.3711C51.8379 11.3711 51.4277 11.541 51.1113 11.8809C50.8008 12.2207 50.6016 12.707 50.5137 13.3398H54.0469V13.1377C54.0352 12.5752 53.8828 12.1416 53.5898 11.8369C53.2969 11.5264 52.8809 11.3711 52.3418 11.3711ZM61.0342 7.15234V9.49023H62.6602V11.3535H61.0342V16.0996C61.0342 16.4512 61.1016 16.7031 61.2363 16.8555C61.3711 17.0078 61.6289 17.084 62.0098 17.084C62.291 17.084 62.54 17.0635 62.7568 17.0225V18.9473C62.2588 19.0996 61.7461 19.1758 61.2188 19.1758C59.4375 19.1758 58.5293 18.2764 58.4941 16.4775V11.3535H57.1055V9.49023H58.4941V7.15234H61.0342ZM66.7559 19H64.207V9.49023H66.7559V19ZM64.0576 7.0293C64.0576 6.64844 64.1836 6.33496 64.4355 6.08887C64.6934 5.84277 65.042 5.71973 65.4814 5.71973C65.915 5.71973 66.2607 5.84277 66.5186 6.08887C66.7764 6.33496 66.9053 6.64844 66.9053 7.0293C66.9053 7.41602 66.7734 7.73242 66.5098 7.97852C66.252 8.22461 65.9092 8.34766 65.4814 8.34766C65.0537 8.34766 64.708 8.22461 64.4443 7.97852C64.1865 7.73242 64.0576 7.41602 64.0576 7.0293ZM72.8115 17.1279C73.2803 17.1279 73.6611 16.999 73.9541 16.7412C74.2471 16.4834 74.3994 16.1406 74.4111 15.7129H76.793C76.7871 16.3574 76.6113 16.9492 76.2656 17.4883C75.9199 18.0215 75.4453 18.4375 74.8418 18.7363C74.2441 19.0293 73.582 19.1758 72.8555 19.1758C71.4961 19.1758 70.4238 18.7451 69.6387 17.8838C68.8535 17.0166 68.4609 15.8213 68.4609 14.2979V14.1309C68.4609 12.666 68.8506 11.4971 69.6299 10.624C70.4092 9.75098 71.4785 9.31445 72.8379 9.31445C74.0273 9.31445 74.9795 9.6543 75.6943 10.334C76.415 11.0078 76.7812 11.9072 76.793 13.0322H74.4111C74.3994 12.54 74.2471 12.1416 73.9541 11.8369C73.6611 11.5264 73.2744 11.3711 72.7939 11.3711C72.2021 11.3711 71.7539 11.5879 71.4492 12.0215C71.1504 12.4492 71.001 13.1465 71.001 14.1133V14.377C71.001 15.3555 71.1504 16.0586 71.4492 16.4863C71.748 16.9141 72.2021 17.1279 72.8115 17.1279ZM83.3936 16.3721C83.3936 16.0615 83.2383 15.8184 82.9277 15.6426C82.623 15.4609 82.1309 15.2998 81.4512 15.1592C79.1895 14.6846 78.0586 13.7236 78.0586 12.2764C78.0586 11.4326 78.4072 10.7295 79.1045 10.167C79.8076 9.59863 80.7246 9.31445 81.8555 9.31445C83.0625 9.31445 84.0264 9.59863 84.7471 10.167C85.4736 10.7354 85.8369 11.4736 85.8369 12.3818H83.2969C83.2969 12.0186 83.1797 11.7197 82.9453 11.4854C82.7109 11.2451 82.3447 11.125 81.8467 11.125C81.4189 11.125 81.0879 11.2217 80.8535 11.415C80.6191 11.6084 80.502 11.8545 80.502 12.1533C80.502 12.4346 80.6338 12.6631 80.8975 12.8389C81.167 13.0088 81.6182 13.1582 82.251 13.2871C82.8838 13.4102 83.417 13.5508 83.8506 13.709C85.1924 14.2012 85.8633 15.0537 85.8633 16.2666C85.8633 17.1338 85.4912 17.8369 84.7471 18.376C84.0029 18.9092 83.042 19.1758 81.8643 19.1758C81.0674 19.1758 80.3584 19.0352 79.7373 18.7539C79.1221 18.4668 78.6387 18.0771 78.2871 17.585C77.9355 17.0869 77.7598 16.5508 77.7598 15.9766H80.168C80.1914 16.4277 80.3584 16.7734 80.6689 17.0137C80.9795 17.2539 81.3955 17.374 81.917 17.374C82.4033 17.374 82.7695 17.2832 83.0156 17.1016C83.2676 16.9141 83.3936 16.6709 83.3936 16.3721Z" transform="translate(-1 68)" fill="#4C6085"/>
<path d="M1.24138 0H0V1.24138H1.24138V0Z" transform="translate(33.6896 31)" fill="white"/>
<path d="M9.31034 0H8.06897V1.24138H8.68965V12.4138H1.24138V1.24138H4.34483V0H0.62069C0.277914 0 0 0.277914 0 0.62069V13.0345C0 13.3773 0.277914 13.6552 0.62069 13.6552H9.31034C9.65312 13.6552 9.93103 13.3773 9.93103 13.0345V0.62069C9.93103 0.277914 9.65312 0 9.31034 0Z" transform="translate(28.1035 31)" fill="white"/>
<path d="M35.3793 24.2069C35.7221 24.2069 36 23.929 36 23.5862V21.1034C36 20.075 35.1663 19.2414 34.1379 19.2414H28.5517V17.3793C28.5517 17.2147 28.4862 17.0569 28.3699 16.9405L24.2069 12.7775V11.1724H24.8276C25.1704 11.1724 25.4483 10.8945 25.4483 10.5517V6.82759C25.4483 6.14196 24.8925 5.58621 24.2069 5.58621H15.5172C14.8316 5.58621 14.2759 6.14196 14.2759 6.82759V10.5517C14.2759 10.8945 14.5538 11.1724 14.8966 11.1724H15.5172V12.7775L14.2194 14.0754C14.0246 13.809 13.8108 13.5572 13.5794 13.3219L13.3666 13.1102C12.5071 12.2536 11.9654 11.1295 11.831 9.92359C12.157 9.90582 12.4126 9.63691 12.4138 9.31034V5.58621C12.4138 5.24343 12.1359 4.96552 11.7931 4.96552V0.62069C11.7931 0.277914 11.5152 0 11.1724 0H0.62069C0.277914 0 0 0.277914 0 0.62069V3.10345C0 3.44622 0.277914 3.72414 0.62069 3.72414H4.34483V4.96552C4.00205 4.96552 3.72414 5.24343 3.72414 5.58621V9.31034C3.7253 9.63691 3.98095 9.90582 4.30697 9.92359C4.17259 11.1293 3.63111 12.2531 2.772 13.1096L2.55786 13.3225C1.31353 14.5604 0.615957 16.2447 0.62069 18V34.7586C0.62069 36.1298 1.73227 37.2414 3.10345 37.2414H34.1379C35.1663 37.2414 36 36.4077 36 35.3793V27.0503C36.0004 26.1968 35.4542 25.4391 34.6444 25.1696C34.3418 25.069 34.1377 24.7858 34.1379 24.467V24.2069H35.3793ZM15.5172 6.82759H16.7586V9.31034H18V6.82759H19.2414V9.31034H20.4828V6.82759H21.7241V9.31034H22.9655V6.82759H24.2069V9.93103H15.5172V6.82759ZM1.24138 2.48276V1.24138H10.5517V4.96552H5.58621V3.10345C5.58621 2.76067 5.30829 2.48276 4.96552 2.48276H1.24138ZM11.1724 6.2069V8.68966H4.96552V6.2069H11.1724ZM14.2759 34.7586C14.2759 35.4442 13.7201 36 13.0345 36H3.10345C2.41782 36 1.86207 35.4442 1.86207 34.7586V18C1.85796 16.5744 2.42434 15.2064 3.4349 14.2008L3.64903 13.9879C4.74091 12.9012 5.41591 11.4651 5.55579 9.93103H10.5834C10.7233 11.4655 11.3985 12.9017 12.4908 13.9885L12.7037 14.2001C13.7141 15.206 14.2803 16.5743 14.2759 18V34.7586ZM16.8728 36H15.1721C15.3955 35.6242 15.5147 35.1957 15.5172 34.7586V18C15.5169 17.0217 15.2983 16.0558 14.8773 15.1728L16.5768 13.4733C16.6931 13.3569 16.7586 13.1991 16.7586 13.0345H20.4828V11.7931H16.7586V11.1724H22.9655V11.7931H21.7241V13.0345H22.9655C22.9655 13.1991 23.031 13.3569 23.1474 13.4733L27.3103 17.6363V19.2414H18.6207C17.5923 19.2414 16.7586 20.075 16.7586 21.1034V23.5862C16.7586 23.929 17.0365 24.2069 17.3793 24.2069H18.6207V24.467C18.6209 24.7858 18.4168 25.069 18.1142 25.1696C17.3044 25.4391 16.7582 26.1968 16.7586 27.0503V35.3793C16.7607 35.5913 16.7993 35.8012 16.8728 36ZM34.2521 26.3477C34.5547 26.4482 34.7589 26.7314 34.7586 27.0503V35.3793C34.7586 35.7221 34.4807 36 34.1379 36H18.6207C18.2779 36 18 35.7221 18 35.3793V27.0503C17.9998 26.7314 18.2039 26.4482 18.5065 26.3477C19.3163 26.0781 19.8625 25.3204 19.8621 24.467V24.2069H32.8966V24.467C32.8962 25.3204 33.4424 26.0781 34.2521 26.3477ZM18 22.9655V21.1034C18 20.7607 18.2779 20.4828 18.6207 20.4828H34.1379C34.4807 20.4828 34.7586 20.7607 34.7586 21.1034V22.9655H18Z" transform="translate(25 14)" fill="white"/>
<path d="M1.24138 1.24138V0H0V1.86207C0 2.20484 0.277914 2.48276 0.62069 2.48276H2.48276V1.24138H1.24138Z" transform="translate(44.2414 45.2759)" fill="white"/>
<path d="M1.24138 0V1.24138H0V2.48276H1.86207C2.20484 2.48276 2.48276 2.20484 2.48276 1.86207V0H1.24138Z" transform="translate(56.0345 45.2759)" fill="white"/>
<path d="M1.24138 0H0V1.24138H1.24138V0Z" transform="translate(52.3104 40.3103)" fill="white"/>
<path d="M9.93103 0H8.68966V1.24138H9.31035V3.72414H1.24138V1.24138H4.96552V0H0.62069C0.277914 0 0 0.277914 0 0.62069V4.34483C0 4.6876 0.277914 4.96552 0.62069 4.96552H9.93103C10.2738 4.96552 10.5517 4.6876 10.5517 4.34483V0.62069C10.5517 0.277914 10.2738 0 9.93103 0Z" transform="translate(46.1035 40.3103)" fill="white"/>
<defs>
<filter id="filter0_d" x="5" y="0" width="74" height="74" filterUnits="userSpaceOnUse" color-interpolation-filters="sRGB">
<feFlood flood-opacity="0" result="BackgroundImageFix"/>
<feColorMatrix in="SourceAlpha" type="matrix" values="0 0 0 0 0 0 0 0 0 0 0 0 0 0 0 0 0 0 255 0"/>
<feOffset dy="4"/>
<feGaussianBlur stdDeviation="2"/>
<feColorMatrix type="matrix" values="0 0 0 0 0 0 0 0 0 0 0 0 0 0 0 0 0 0 0.25 0"/>
<feBlend mode="normal" in2="BackgroundImageFix" result="effect1_dropShadow"/>
<feBlend mode="normal" in="SourceGraphic" in2="effect1_dropShadow" result="shape"/>
</filter>
</defs>
</svg>
