<svg width="74" height="91" viewBox="0 0 74 91" fill="none" xmlns="http://www.w3.org/2000/svg">
<g filter="url(#filter0_d)">
<circle cx="33" cy="33" r="33" transform="translate(4)" fill="#FFA630"/>
<circle cx="33" cy="33" r="31.5" transform="translate(4)" stroke="#4C6085" stroke-width="3"/>
</g>
<path d="M8.0332 15.6426C8.0332 15.1445 7.85742 14.7637 7.50586 14.5C7.1543 14.2305 6.52148 13.9492 5.60742 13.6562C4.69336 13.3574 3.96973 13.0645 3.43652 12.7773C1.9834 11.9922 1.25684 10.9346 1.25684 9.60449C1.25684 8.91309 1.4502 8.29785 1.83691 7.75879C2.22949 7.21387 2.78906 6.78906 3.51562 6.48438C4.24805 6.17969 5.06836 6.02734 5.97656 6.02734C6.89062 6.02734 7.70508 6.19434 8.41992 6.52832C9.13477 6.85645 9.68848 7.32227 10.0811 7.92578C10.4795 8.5293 10.6787 9.21484 10.6787 9.98242H8.04199C8.04199 9.39648 7.85742 8.94238 7.48828 8.62012C7.11914 8.29199 6.60059 8.12793 5.93262 8.12793C5.28809 8.12793 4.78711 8.26562 4.42969 8.54102C4.07227 8.81055 3.89355 9.16797 3.89355 9.61328C3.89355 10.0293 4.10156 10.3779 4.51758 10.6592C4.93945 10.9404 5.55762 11.2041 6.37207 11.4502C7.87207 11.9014 8.96484 12.4609 9.65039 13.1289C10.3359 13.7969 10.6787 14.6289 10.6787 15.625C10.6787 16.7324 10.2598 17.6025 9.42188 18.2354C8.58398 18.8623 7.45605 19.1758 6.03809 19.1758C5.05371 19.1758 4.15723 18.9971 3.34863 18.6396C2.54004 18.2764 1.92188 17.7812 1.49414 17.1543C1.07227 16.5273 0.861328 15.8008 0.861328 14.9746H3.50684C3.50684 16.3867 4.35059 17.0928 6.03809 17.0928C6.66504 17.0928 7.1543 16.9668 7.50586 16.7148C7.85742 16.457 8.0332 16.0996 8.0332 15.6426ZM20.8652 14.333C20.8652 15.7979 20.5312 16.9727 19.8633 17.8574C19.2012 18.7363 18.3047 19.1758 17.1738 19.1758C16.2129 19.1758 15.4365 18.8418 14.8447 18.1738V22.6562H12.3047V9.49023H14.6602L14.748 10.4219C15.3633 9.68359 16.166 9.31445 17.1562 9.31445C18.3281 9.31445 19.2393 9.74805 19.8896 10.6152C20.54 11.4824 20.8652 12.6777 20.8652 14.2012V14.333ZM18.3252 14.1484C18.3252 13.2637 18.167 12.5811 17.8506 12.1006C17.54 11.6201 17.0859 11.3799 16.4883 11.3799C15.6914 11.3799 15.1436 11.6846 14.8447 12.2939V16.1875C15.1553 16.8145 15.709 17.1279 16.5059 17.1279C17.7188 17.1279 18.3252 16.1348 18.3252 14.1484ZM22.0518 14.1572C22.0518 13.2139 22.2334 12.373 22.5967 11.6348C22.96 10.8965 23.4814 10.3252 24.1611 9.9209C24.8467 9.5166 25.6406 9.31445 26.543 9.31445C27.8262 9.31445 28.8721 9.70703 29.6807 10.4922C30.4951 11.2773 30.9492 12.3438 31.043 13.6914L31.0605 14.3418C31.0605 15.8008 30.6533 16.9727 29.8389 17.8574C29.0244 18.7363 27.9316 19.1758 26.5605 19.1758C25.1895 19.1758 24.0938 18.7363 23.2734 17.8574C22.459 16.9785 22.0518 15.7832 22.0518 14.2715V14.1572ZM24.5918 14.3418C24.5918 15.2441 24.7617 15.9355 25.1016 16.416C25.4414 16.8906 25.9277 17.1279 26.5605 17.1279C27.1758 17.1279 27.6562 16.8936 28.002 16.4248C28.3477 15.9502 28.5205 15.1943 28.5205 14.1572C28.5205 13.2725 28.3477 12.5869 28.002 12.1006C27.6562 11.6143 27.1699 11.3711 26.543 11.3711C25.9219 11.3711 25.4414 11.6143 25.1016 12.1006C24.7617 12.5811 24.5918 13.3281 24.5918 14.3418ZM37.9688 11.8721C37.623 11.8252 37.3184 11.8018 37.0547 11.8018C36.0938 11.8018 35.4639 12.127 35.165 12.7773V19H32.625V9.49023H35.0244L35.0947 10.624C35.6045 9.75098 36.3105 9.31445 37.2129 9.31445C37.4941 9.31445 37.7578 9.35254 38.0039 9.42871L37.9688 11.8721ZM42.6797 7.15234V9.49023H44.3057V11.3535H42.6797V16.0996C42.6797 16.4512 42.7471 16.7031 42.8818 16.8555C43.0166 17.0078 43.2744 17.084 43.6553 17.084C43.9365 17.084 44.1855 17.0635 44.4023 17.0225V18.9473C43.9043 19.0996 43.3916 19.1758 42.8643 19.1758C41.083 19.1758 40.1748 18.2764 40.1396 16.4775V11.3535H38.751V9.49023H40.1396V7.15234H42.6797Z" transform="translate(15 68)" fill="#4C6085"/>
<path d="M-3.0078e-07 1.89428C-3.0078e-07 2.93883 0.849723 3.78856 1.89428 3.78856C2.93883 3.78856 3.78856 2.93883 3.78856 1.89428C3.78856 0.849723 2.93883 -5.80075e-07 1.89428 -5.80075e-07C0.849723 -5.80075e-07 -3.0078e-07 0.849811 -3.0078e-07 1.89428ZM2.46856 1.89428C2.46856 2.21099 2.21099 2.46856 1.89428 2.46856C1.57757 2.46856 1.31999 2.21099 1.31999 1.89428C1.31999 1.57757 1.57757 1.31999 1.89428 1.31999C2.21099 1.31999 2.46856 1.57766 2.46856 1.89428Z" transform="translate(49.0538 42.4052)" fill="white"/>
<path d="M1.89428 -5.80075e-07C0.849724 -5.80075e-07 1.61132e-08 0.849723 1.61132e-08 1.89428C1.61132e-08 2.93883 0.849812 3.78856 1.89428 3.78856C2.93875 3.78856 3.78856 2.93883 3.78856 1.89428C3.78856 0.849723 2.93883 -5.80075e-07 1.89428 -5.80075e-07ZM1.89428 2.46856C1.57757 2.46856 1.31999 2.21099 1.31999 1.89428C1.31999 1.57757 1.57766 1.31999 1.89428 1.31999C2.2109 1.31999 2.46856 1.57757 2.46856 1.89428C2.46856 2.21099 2.21099 2.46856 1.89428 2.46856Z" transform="translate(26.1673 42.4052)" fill="white"/>
<path d="M1.89428 -5.80075e-07C0.849723 -5.80075e-07 -5.37107e-07 0.849723 -5.37107e-07 1.89428C-5.37107e-07 2.93883 0.849723 3.78856 1.89428 3.78856C2.93883 3.78856 3.78856 2.93883 3.78856 1.89428C3.78856 0.849723 2.93883 -5.80075e-07 1.89428 -5.80075e-07ZM1.89428 2.46856C1.57757 2.46856 1.31999 2.21099 1.31999 1.89428C1.31999 1.57757 1.57757 1.31999 1.89428 1.31999C2.21099 1.31999 2.46856 1.57757 2.46856 1.89428C2.46856 2.21099 2.21099 2.46856 1.89428 2.46856Z" transform="translate(33.7961 42.4052)" fill="white"/>
<path d="M1.89428 -5.80075e-07C0.849725 -5.80075e-07 -4.18943e-07 0.849723 -4.18943e-07 1.89428C-4.18943e-07 2.93883 0.849725 3.78856 1.89428 3.78856C2.93883 3.78856 3.78856 2.93883 3.78856 1.89428C3.78856 0.849723 2.93883 -5.80075e-07 1.89428 -5.80075e-07ZM1.89428 2.46856C1.57757 2.46856 1.31999 2.21099 1.31999 1.89428C1.31999 1.57757 1.57757 1.31999 1.89428 1.31999C2.21099 1.31999 2.46856 1.57757 2.46856 1.89428C2.46856 2.21099 2.21099 2.46856 1.89428 2.46856Z" transform="translate(41.425 42.4052)" fill="white"/>
<path d="M34.713 24.7686C35.5189 24.265 36 23.3971 36 22.4472C36 22.325 35.9911 22.1982 35.9734 22.0682C35.5714 19.1871 33.3749 16.918 30.5078 16.4218L28.5991 16.0918C27.1196 15.836 25.7152 15.3485 24.4113 14.6393C24.4227 14.6097 24.4329 14.5795 24.44 14.5482C24.4862 14.3466 24.4353 14.135 24.3024 13.9766L21.7258 10.9053C21.5355 10.6786 21.2177 10.6062 20.9481 10.7282L20.1901 11.0711C20.0471 10.889 19.9081 10.7033 19.7742 10.5137C19.8827 10.4715 19.9798 10.4015 20.0536 10.3077C20.1787 10.1488 20.2241 9.94122 20.1766 9.74463L19.2526 5.91683C19.1811 5.62044 18.9159 5.41171 18.611 5.41171H17.6918V0.659997C17.6918 0.295503 17.3963 3.35692e-08 17.0318 3.35692e-08H15.5478C14.0414 3.35692e-08 12.8025 1.16432 12.6818 2.64025H3.82736C3.49552 2.64025 3.21524 2.88665 3.17282 3.21577L1.72171 14.4621C1.29703 17.7544 1.99029 21.1066 3.67486 23.9581L0.157783 28.0822C0.0559677 28.2017 0 28.3535 0 28.5104V31.1503C0 31.5148 0.295502 31.8103 0.659997 31.8103H4.347C4.94496 33.2752 6.38428 34.3105 8.06164 34.3105C9.84117 34.3105 11.3529 33.1453 11.8761 31.538C12.3992 33.1452 13.911 34.3105 15.6905 34.3105C17.47 34.3105 18.9818 33.1453 19.5049 31.538C20.0281 33.1452 21.5398 34.3105 23.3194 34.3105C25.0989 34.3105 26.6106 33.1453 27.1338 31.538C27.6569 33.1452 29.1687 34.3105 30.9482 34.3105C33.1599 34.3105 34.9592 32.5112 34.9592 30.2995C34.9592 28.4615 33.7161 26.9094 32.0267 26.4369L32.6298 25.4357C33.3677 25.3906 34.0812 25.1635 34.713 24.7686ZM34.0135 23.6493C33.4902 23.9763 32.8865 24.1399 32.2704 24.1234L4.86136 23.3724C4.13369 22.161 3.60402 20.8483 3.28335 19.4869C5.34316 20.7684 9.5608 22.9668 14.2552 22.9668H34.5821C34.473 23.2448 34.2769 23.4846 34.0135 23.6493ZM21.0361 12.1372L22.7301 14.1565L11.9876 18.9838L11.0197 16.6692L21.0361 12.1372ZM18.6966 9.23951H11.8793V6.7317H18.0913L18.6966 9.23951ZM13.9913 2.87653C13.9913 2.01827 14.6896 1.31999 15.5478 1.31999H16.3718V5.41136H13.9913V2.87653ZM3.03088 14.6311L4.40772 3.96024H12.6713V5.41171H11.2194C10.9488 5.41171 10.7166 5.57468 10.6147 5.80771H5.93971C5.57521 5.80771 5.27971 6.10321 5.27971 6.4677V9.50351C5.27971 9.86801 5.57521 10.1635 5.93971 10.1635H10.6147C10.7166 10.3965 10.9488 10.5595 11.2194 10.5595H18.2211C18.45 10.9265 18.6953 11.284 18.955 11.6299L9.89141 15.7309C9.56608 15.8781 9.41683 16.2574 9.55455 16.5869L11.0313 20.1181C11.1 20.2824 11.2321 20.4119 11.3977 20.4773C11.4757 20.5081 11.5579 20.5234 11.6401 20.5234C11.7325 20.5234 11.8248 20.5041 11.9107 20.4654L23.1302 15.4238C23.3398 15.5517 23.5519 15.6741 23.7665 15.7912L22.3859 17.071C22.1186 17.3188 22.1028 17.7365 22.3507 18.0037C22.4807 18.144 22.6575 18.215 22.8348 18.215C22.9953 18.215 23.1564 18.1568 23.2834 18.039L25.0416 16.4089C25.3987 16.5615 25.7614 16.7002 26.1299 16.8244L25.2273 17.9296C24.9967 18.2119 25.0387 18.6277 25.321 18.8582C25.4436 18.9584 25.5912 19.007 25.7381 19.007C25.9294 19.007 26.1192 18.9242 26.2497 18.7645L27.5134 17.217C27.7977 17.2832 28.0844 17.3424 28.374 17.3924L30.2826 17.7224C32.378 18.0851 34.0263 19.6287 34.5461 21.6467H14.2552C8.91999 21.6467 4.07033 18.4667 2.98662 17.7059C2.88568 16.6881 2.89862 15.6564 3.03088 14.6311ZM6.5997 8.84351V7.1277H10.5594V8.84351H6.5997ZM8.06155 32.9904C6.5777 32.9904 5.37052 31.7832 5.37052 30.2994C5.37052 28.8155 6.5777 27.6084 8.06155 27.6084C9.5454 27.6084 10.7526 28.8155 10.7526 30.2994C10.7526 31.7832 9.5454 32.9904 8.06155 32.9904ZM15.6904 32.9904C14.2066 32.9904 12.9994 31.7832 12.9994 30.2994C12.9994 28.8155 14.2066 27.6084 15.6904 27.6084C17.1743 27.6084 18.3814 28.8155 18.3814 30.2994C18.3814 31.7832 17.1743 32.9904 15.6904 32.9904ZM23.3193 32.9904C21.8354 32.9904 20.6282 31.7832 20.6282 30.2994C20.6282 28.8155 21.8354 27.6084 23.3193 27.6084C24.8031 27.6084 26.0103 28.8155 26.0103 30.2994C26.0103 31.7832 24.8031 32.9904 23.3193 32.9904ZM27.1337 29.0609C26.6105 27.4537 25.0988 26.2884 23.3193 26.2884C21.5397 26.2884 20.028 27.4536 19.5048 29.0609C18.9817 27.4537 17.4699 26.2884 15.6904 26.2884C13.9109 26.2884 12.3991 27.4536 11.876 29.0609C11.3528 27.4537 9.84108 26.2884 8.06155 26.2884C5.84986 26.2884 4.05053 28.0877 4.05053 30.2994C4.05053 30.3635 4.05238 30.427 4.05537 30.4903H1.31999V28.7536L4.7848 24.6906L31.1032 25.4117L30.5639 26.3071C28.9536 26.461 27.6187 27.5708 27.1337 29.0609ZM33.6392 30.2994C33.6392 31.7832 32.432 32.9904 30.9481 32.9904C29.4643 32.9904 28.2571 31.7832 28.2571 30.2994C28.2571 28.8155 29.4643 27.6084 30.9481 27.6084C32.432 27.6084 33.6392 28.8156 33.6392 30.2994Z" transform="translate(20 14)" fill="white"/>
<defs>
<filter id="filter0_d" x="0" y="0" width="74" height="74" filterUnits="userSpaceOnUse" color-interpolation-filters="sRGB">
<feFlood flood-opacity="0" result="BackgroundImageFix"/>
<feColorMatrix in="SourceAlpha" type="matrix" values="0 0 0 0 0 0 0 0 0 0 0 0 0 0 0 0 0 0 255 0"/>
<feOffset dy="4"/>
<feGaussianBlur stdDeviation="2"/>
<feColorMatrix type="matrix" values="0 0 0 0 0 0 0 0 0 0 0 0 0 0 0 0 0 0 0.25 0"/>
<feBlend mode="normal" in2="BackgroundImageFix" result="effect1_dropShadow"/>
<feBlend mode="normal" in="SourceGraphic" in2="effect1_dropShadow" result="shape"/>
</filter>
</defs>
</svg>
