<svg width="74" height="88" viewBox="0 0 74 88" fill="none" xmlns="http://www.w3.org/2000/svg">
<g filter="url(#filter0_d)">
<circle cx="33" cy="33" r="33" transform="translate(4)" fill="#FFA630"/>
<circle cx="33" cy="33" r="31.5" transform="translate(4)" stroke="#4C6085" stroke-width="3"/>
</g>
<path d="M10.8271 8.33887H6.90723V19H4.27051V8.33887H0.40332V6.20312H10.8271V8.33887ZM15.7578 19.1758C14.3633 19.1758 13.2266 18.748 12.3477 17.8926C11.4746 17.0371 11.0381 15.8975 11.0381 14.4736V14.2275C11.0381 13.2725 11.2227 12.4199 11.5918 11.6699C11.9609 10.9141 12.4824 10.334 13.1562 9.92969C13.8359 9.51953 14.6094 9.31445 15.4766 9.31445C16.7773 9.31445 17.7998 9.72461 18.5439 10.5449C19.2939 11.3652 19.6689 12.5283 19.6689 14.0342V15.0713H13.6133C13.6953 15.6924 13.9414 16.1904 14.3516 16.5654C14.7676 16.9404 15.292 17.1279 15.9248 17.1279C16.9033 17.1279 17.668 16.7734 18.2188 16.0645L19.4668 17.4619C19.0859 18.001 18.5703 18.4229 17.9199 18.7275C17.2695 19.0264 16.5488 19.1758 15.7578 19.1758ZM15.4678 11.3711C14.9639 11.3711 14.5537 11.541 14.2373 11.8809C13.9268 12.2207 13.7275 12.707 13.6396 13.3398H17.1729V13.1377C17.1611 12.5752 17.0088 12.1416 16.7158 11.8369C16.4229 11.5264 16.0068 11.3711 15.4678 11.3711ZM24.7402 12.3291L26.3398 9.49023H29.0557L26.3486 14.1484L29.1699 19H26.4453L24.749 16.0117L23.0615 19H20.3281L23.1494 14.1484L20.4512 9.49023H23.1758L24.7402 12.3291ZM33.3184 7.15234V9.49023H34.9443V11.3535H33.3184V16.0996C33.3184 16.4512 33.3857 16.7031 33.5205 16.8555C33.6553 17.0078 33.9131 17.084 34.2939 17.084C34.5752 17.084 34.8242 17.0635 35.041 17.0225V18.9473C34.543 19.0996 34.0303 19.1758 33.5029 19.1758C31.7217 19.1758 30.8135 18.2764 30.7783 16.4775V11.3535H29.3896V9.49023H30.7783V7.15234H33.3184ZM39.04 19H36.4912V9.49023H39.04V19ZM36.3418 7.0293C36.3418 6.64844 36.4678 6.33496 36.7197 6.08887C36.9775 5.84277 37.3262 5.71973 37.7656 5.71973C38.1992 5.71973 38.5449 5.84277 38.8027 6.08887C39.0605 6.33496 39.1895 6.64844 39.1895 7.0293C39.1895 7.41602 39.0576 7.73242 38.7939 7.97852C38.5361 8.22461 38.1934 8.34766 37.7656 8.34766C37.3379 8.34766 36.9922 8.22461 36.7285 7.97852C36.4707 7.73242 36.3418 7.41602 36.3418 7.0293ZM43.8213 19H41.2725V5.5H43.8213V19ZM50.2988 19.1758C48.9043 19.1758 47.7676 18.748 46.8887 17.8926C46.0156 17.0371 45.5791 15.8975 45.5791 14.4736V14.2275C45.5791 13.2725 45.7637 12.4199 46.1328 11.6699C46.502 10.9141 47.0234 10.334 47.6973 9.92969C48.377 9.51953 49.1504 9.31445 50.0176 9.31445C51.3184 9.31445 52.3408 9.72461 53.085 10.5449C53.835 11.3652 54.21 12.5283 54.21 14.0342V15.0713H48.1543C48.2363 15.6924 48.4824 16.1904 48.8926 16.5654C49.3086 16.9404 49.833 17.1279 50.4658 17.1279C51.4443 17.1279 52.209 16.7734 52.7598 16.0645L54.0078 17.4619C53.627 18.001 53.1113 18.4229 52.4609 18.7275C51.8105 19.0264 51.0898 19.1758 50.2988 19.1758ZM50.0088 11.3711C49.5049 11.3711 49.0947 11.541 48.7783 11.8809C48.4678 12.2207 48.2686 12.707 48.1807 13.3398H51.7139V13.1377C51.7021 12.5752 51.5498 12.1416 51.2568 11.8369C50.9639 11.5264 50.5479 11.3711 50.0088 11.3711ZM60.8105 16.3721C60.8105 16.0615 60.6553 15.8184 60.3447 15.6426C60.04 15.4609 59.5479 15.2998 58.8682 15.1592C56.6064 14.6846 55.4756 13.7236 55.4756 12.2764C55.4756 11.4326 55.8242 10.7295 56.5215 10.167C57.2246 9.59863 58.1416 9.31445 59.2725 9.31445C60.4795 9.31445 61.4434 9.59863 62.1641 10.167C62.8906 10.7354 63.2539 11.4736 63.2539 12.3818H60.7139C60.7139 12.0186 60.5967 11.7197 60.3623 11.4854C60.1279 11.2451 59.7617 11.125 59.2637 11.125C58.8359 11.125 58.5049 11.2217 58.2705 11.415C58.0361 11.6084 57.9189 11.8545 57.9189 12.1533C57.9189 12.4346 58.0508 12.6631 58.3145 12.8389C58.584 13.0088 59.0352 13.1582 59.668 13.2871C60.3008 13.4102 60.834 13.5508 61.2676 13.709C62.6094 14.2012 63.2803 15.0537 63.2803 16.2666C63.2803 17.1338 62.9082 17.8369 62.1641 18.376C61.4199 18.9092 60.459 19.1758 59.2812 19.1758C58.4844 19.1758 57.7754 19.0352 57.1543 18.7539C56.5391 18.4668 56.0557 18.0771 55.7041 17.585C55.3525 17.0869 55.1768 16.5508 55.1768 15.9766H57.585C57.6084 16.4277 57.7754 16.7734 58.0859 17.0137C58.3965 17.2539 58.8125 17.374 59.334 17.374C59.8203 17.374 60.1865 17.2832 60.4326 17.1016C60.6846 16.9141 60.8105 16.6709 60.8105 16.3721Z" transform="translate(5 68)" fill="#4C6085"/>
<path d="M21.8251 0C21.4599 0 21.1638 0.2985 21.1638 0.666667V4H19.841V0.666667C19.841 0.2985 19.5449 0 19.1797 0C18.8144 0 18.5183 0.2985 18.5183 0.666667V4H17.1955V0.666667C17.1955 0.2985 16.8994 0 16.5342 0C16.1689 0 15.8728 0.2985 15.8728 0.666667V4H6.61367V0.666667C6.61367 0.2985 6.31755 0 5.95231 0C5.58707 0 5.29094 0.2985 5.29094 0.666667V4H3.9682V0.666667C3.9682 0.2985 3.67208 0 3.30684 0C2.9416 0 2.64547 0.2985 2.64547 0.666667V4H1.32273V0.666667C1.32273 0.2985 1.02661 0 0.661367 0C0.296127 0 0 0.2985 0 0.666667V39.3333C0 39.7015 0.296127 40 0.661367 40C1.02661 40 1.32273 39.7015 1.32273 39.3333V36H2.64547V39.3333C2.64547 39.7015 2.9416 40 3.30684 40C3.67208 40 3.9682 39.7015 3.9682 39.3333V36H5.29094V39.3333C5.29094 39.7015 5.58707 40 5.95231 40C6.31755 40 6.61367 39.7015 6.61367 39.3333V36H15.8728V39.3333C15.8728 39.7015 16.1689 40 16.5342 40C16.8994 40 17.1955 39.7015 17.1955 39.3333V36H18.5183V39.3333C18.5183 39.7015 18.8144 40 19.1797 40C19.5449 40 19.841 39.7015 19.841 39.3333V36H21.1638V39.3333C21.1638 39.7015 21.4599 40 21.8251 40C22.1904 40 22.4865 39.7015 22.4865 39.3333V0.666667C22.4865 0.2985 22.1904 0 21.8251 0ZM21.1638 34.6667H1.32273V32.9427L2.64547 31.6093L4.16198 33.138C4.42025 33.3983 4.83889 33.3983 5.09716 33.138L6.61367 31.6093L8.13019 33.138C8.38845 33.3983 8.8071 33.3983 9.06536 33.138L10.5819 31.6093L12.0984 33.138C12.3567 33.3983 12.7753 33.3983 13.0336 33.138L14.5501 31.6093L16.0666 33.138C16.3249 33.3983 16.7435 33.3983 17.0018 33.138L18.5183 31.6093L20.0348 33.138C20.2931 33.3983 20.7117 33.3983 20.97 33.138L21.1638 32.9427V34.6667ZM21.1638 31.0573L20.5024 31.724L18.9859 30.1953C18.7276 29.9351 18.309 29.9351 18.0507 30.1953L16.5342 31.724L15.0177 30.1953C14.7594 29.9351 14.3408 29.9351 14.0825 30.1953L12.566 31.724L11.0495 30.1953C10.7912 29.9351 10.3726 29.9351 10.1143 30.1953L8.59777 31.724L7.08126 30.1953C6.823 29.9351 6.40435 29.9351 6.14609 30.1953L4.62957 31.724L3.11306 30.1953C2.85479 29.9351 2.43615 29.9351 2.17788 30.1953L1.32273 31.0573V29.6093L2.64547 28.276L4.16198 29.8047C4.42025 30.0649 4.83889 30.0649 5.09716 29.8047L6.61367 28.276L8.13019 29.8047C8.38845 30.0649 8.8071 30.0649 9.06536 29.8047L10.5819 28.276L12.0984 29.8047C12.3567 30.0649 12.7753 30.0649 13.0336 29.8047L14.5501 28.276L16.0666 29.8047C16.3249 30.0649 16.7435 30.0649 17.0018 29.8047L18.5183 28.276L20.0348 29.8047C20.2931 30.0649 20.7117 30.0649 20.97 29.8047L21.1638 29.6093V31.0573ZM21.1638 27.724L20.5024 28.3907L18.9859 26.862C18.7276 26.6017 18.309 26.6017 18.0507 26.862L16.5342 28.3907L15.0177 26.862C14.7594 26.6017 14.3408 26.6017 14.0825 26.862L12.566 28.3907L11.0495 26.862C10.7912 26.6017 10.3726 26.6017 10.1143 26.862L8.59777 28.3907L7.08126 26.862C6.823 26.6017 6.40435 26.6017 6.14609 26.862L4.62957 28.3907L3.11306 26.862C2.85479 26.6017 2.43615 26.6017 2.17788 26.862L1.32273 27.724V12.9427L2.64547 11.6093L4.16198 13.138C4.42025 13.3983 4.83889 13.3983 5.09716 13.138L6.61367 11.6093L8.13019 13.138C8.38845 13.3983 8.8071 13.3983 9.06536 13.138L10.5819 11.6093L12.0984 13.138C12.3567 13.3983 12.7753 13.3983 13.0336 13.138L14.5501 11.6093L16.0666 13.138C16.3249 13.3983 16.7435 13.3983 17.0018 13.138L18.5183 11.6093L20.0348 13.138C20.2931 13.3983 20.7117 13.3983 20.97 13.138L21.1638 12.9427V27.724ZM21.1638 11.0573L20.5024 11.724L18.9859 10.1953C18.7276 9.93508 18.309 9.93508 18.0507 10.1953L16.5342 11.724L15.0177 10.1953C14.7594 9.93508 14.3408 9.93508 14.0825 10.1953L12.566 11.724L11.0495 10.1953C10.7912 9.93508 10.3726 9.93508 10.1143 10.1953L8.59777 11.724L7.08126 10.1953C6.823 9.93508 6.40435 9.93508 6.14609 10.1953L4.62957 11.724L3.11306 10.1953C2.85479 9.93508 2.43615 9.93508 2.17788 10.1953L1.32273 11.0573V9.60933L2.64547 8.276L4.16198 9.80467C4.42025 10.0649 4.83889 10.0649 5.09716 9.80467L6.61367 8.276L8.13019 9.80467C8.38845 10.0649 8.8071 10.0649 9.06536 9.80467L10.5819 8.276L12.0984 9.80467C12.3567 10.0649 12.7753 10.0649 13.0336 9.80467L14.5501 8.276L16.0666 9.80467C16.3249 10.0649 16.7435 10.0649 17.0018 9.80467L18.5183 8.276L20.0348 9.80467C20.2931 10.0649 20.7117 10.0649 20.97 9.80467L21.1638 9.60933V11.0573ZM21.1638 7.724L20.5024 8.39067L18.9859 6.862C18.7276 6.60175 18.309 6.60175 18.0507 6.862L16.5342 8.39067L15.0177 6.862C14.7594 6.60175 14.3408 6.60175 14.0825 6.862L12.566 8.39067L11.0495 6.862C10.7912 6.60175 10.3726 6.60175 10.1143 6.862L8.59777 8.39067L7.08126 6.862C6.823 6.60175 6.40435 6.60175 6.14609 6.862L4.62957 8.39067L3.11306 6.862C2.85479 6.60175 2.43615 6.60175 2.17788 6.862L1.32273 7.724V5.33333H21.1638V7.724Z" transform="translate(26 13)" fill="white"/>
<path d="M0.992051 0C0.444191 0 0 0.44775 0 1C0 1.55225 0.444191 2 0.992051 2C1.53991 2 1.9841 1.55225 1.9841 1C1.9841 0.44775 1.53991 0 0.992051 0ZM0.992051 1.33333C0.809431 1.33333 0.661367 1.18408 0.661367 1C0.661367 0.815917 0.809431 0.666667 0.992051 0.666667C1.17467 0.666667 1.32273 0.815917 1.32273 1C1.32273 1.18408 1.17467 1.33333 0.992051 1.33333Z" transform="translate(35.2592 31)" fill="white"/>
<path d="M0.992051 2C1.53995 2 1.9841 1.55228 1.9841 1C1.9841 0.447715 1.53995 0 0.992051 0C0.444156 0 0 0.447715 0 1C0 1.55228 0.444156 2 0.992051 2Z" transform="translate(35.2592 31)" fill="white"/>
<path d="M0.992051 2C1.53995 2 1.9841 1.55228 1.9841 1C1.9841 0.447715 1.53995 0 0.992051 0C0.444156 0 0 0.447715 0 1C0 1.55228 0.444156 2 0.992051 2Z" transform="translate(39.8887 33)" fill="white"/>
<path d="M0.992051 2C1.53995 2 1.9841 1.55228 1.9841 1C1.9841 0.447715 1.53995 0 0.992051 0C0.444156 0 0 0.447715 0 1C0 1.55228 0.444156 2 0.992051 2Z" transform="translate(39.8887 27)" fill="white"/>
<path d="M0.992051 2C1.53995 2 1.9841 1.55228 1.9841 1C1.9841 0.447715 1.53995 0 0.992051 0C0.444156 0 0 0.447715 0 1C0 1.55228 0.444156 2 0.992051 2Z" transform="translate(43.1956 29)" fill="white"/>
<path d="M0.992051 2C1.53995 2 1.9841 1.55228 1.9841 1C1.9841 0.447715 1.53995 0 0.992051 0C0.444156 0 0 0.447715 0 1C0 1.55228 0.444156 2 0.992051 2Z" transform="translate(35.9205 35)" fill="white"/>
<path d="M0.992051 2C1.53995 2 1.9841 1.55228 1.9841 1C1.9841 0.447715 1.53995 0 0.992051 0C0.444156 0 0 0.447715 0 1C0 1.55228 0.444156 2 0.992051 2Z" transform="translate(30.6296 36.3334)" fill="white"/>
<path d="M0.992051 2C1.53995 2 1.9841 1.55228 1.9841 1C1.9841 0.447715 1.53995 0 0.992051 0C0.444156 0 0 0.447715 0 1C0 1.55228 0.444156 2 0.992051 2Z" transform="translate(29.9682 29)" fill="white"/>
<path d="M0.992051 2C1.53995 2 1.9841 1.55228 1.9841 1C1.9841 0.447715 1.53995 0 0.992051 0C0.444156 0 0 0.447715 0 1C0 1.55228 0.444156 2 0.992051 2Z" transform="translate(33.9364 27.6666)" fill="white"/>
<path d="M0.992051 2C1.53995 2 1.9841 1.55228 1.9841 1C1.9841 0.447715 1.53995 0 0.992051 0C0.444156 0 0 0.447715 0 1C0 1.55228 0.444156 2 0.992051 2Z" transform="translate(41.8728 37)" fill="white"/>
<defs>
<filter id="filter0_d" x="0" y="0" width="74" height="74" filterUnits="userSpaceOnUse" color-interpolation-filters="sRGB">
<feFlood flood-opacity="0" result="BackgroundImageFix"/>
<feColorMatrix in="SourceAlpha" type="matrix" values="0 0 0 0 0 0 0 0 0 0 0 0 0 0 0 0 0 0 255 0"/>
<feOffset dy="4"/>
<feGaussianBlur stdDeviation="2"/>
<feColorMatrix type="matrix" values="0 0 0 0 0 0 0 0 0 0 0 0 0 0 0 0 0 0 0.25 0"/>
<feBlend mode="normal" in2="BackgroundImageFix" result="effect1_dropShadow"/>
<feBlend mode="normal" in="SourceGraphic" in2="effect1_dropShadow" result="shape"/>
</filter>
</defs>
</svg>
