<svg width="74" height="88" viewBox="0 0 74 88" fill="none" xmlns="http://www.w3.org/2000/svg">
<g filter="url(#filter0_d)">
<circle cx="33" cy="33" r="33" transform="translate(4)" fill="#FFA630"/>
<circle cx="33" cy="33" r="31.5" transform="translate(4)" stroke="#4C6085" stroke-width="3"/>
</g>
<path d="M3.98926 14.4912V19H1.35254V6.20312H6.34473C7.30566 6.20312 8.14941 6.37891 8.87598 6.73047C9.6084 7.08203 10.1709 7.58301 10.5635 8.2334C10.9561 8.87793 11.1523 9.61328 11.1523 10.4395C11.1523 11.6934 10.7217 12.6836 9.86035 13.4102C9.00488 14.1309 7.81836 14.4912 6.30078 14.4912H3.98926ZM3.98926 12.3555H6.34473C7.04199 12.3555 7.57227 12.1914 7.93555 11.8633C8.30469 11.5352 8.48926 11.0664 8.48926 10.457C8.48926 9.83008 8.30469 9.32324 7.93555 8.93652C7.56641 8.5498 7.05664 8.35059 6.40625 8.33887H3.98926V12.3555ZM17.0586 19.1758C15.6641 19.1758 14.5273 18.748 13.6484 17.8926C12.7754 17.0371 12.3389 15.8975 12.3389 14.4736V14.2275C12.3389 13.2725 12.5234 12.4199 12.8926 11.6699C13.2617 10.9141 13.7832 10.334 14.457 9.92969C15.1367 9.51953 15.9102 9.31445 16.7773 9.31445C18.0781 9.31445 19.1006 9.72461 19.8447 10.5449C20.5947 11.3652 20.9697 12.5283 20.9697 14.0342V15.0713H14.9141C14.9961 15.6924 15.2422 16.1904 15.6523 16.5654C16.0684 16.9404 16.5928 17.1279 17.2256 17.1279C18.2041 17.1279 18.9688 16.7734 19.5195 16.0645L20.7676 17.4619C20.3867 18.001 19.8711 18.4229 19.2207 18.7275C18.5703 19.0264 17.8496 19.1758 17.0586 19.1758ZM16.7686 11.3711C16.2646 11.3711 15.8545 11.541 15.5381 11.8809C15.2275 12.2207 15.0283 12.707 14.9404 13.3398H18.4736V13.1377C18.4619 12.5752 18.3096 12.1416 18.0166 11.8369C17.7236 11.5264 17.3076 11.3711 16.7686 11.3711ZM25.4609 7.15234V9.49023H27.0869V11.3535H25.4609V16.0996C25.4609 16.4512 25.5283 16.7031 25.6631 16.8555C25.7979 17.0078 26.0557 17.084 26.4365 17.084C26.7178 17.084 26.9668 17.0635 27.1836 17.0225V18.9473C26.6855 19.0996 26.1729 19.1758 25.6455 19.1758C23.8643 19.1758 22.9561 18.2764 22.9209 16.4775V11.3535H21.5322V9.49023H22.9209V7.15234H25.4609ZM33.6523 16.3721C33.6523 16.0615 33.4971 15.8184 33.1865 15.6426C32.8818 15.4609 32.3896 15.2998 31.71 15.1592C29.4482 14.6846 28.3174 13.7236 28.3174 12.2764C28.3174 11.4326 28.666 10.7295 29.3633 10.167C30.0664 9.59863 30.9834 9.31445 32.1143 9.31445C33.3213 9.31445 34.2852 9.59863 35.0059 10.167C35.7324 10.7354 36.0957 11.4736 36.0957 12.3818H33.5557C33.5557 12.0186 33.4385 11.7197 33.2041 11.4854C32.9697 11.2451 32.6035 11.125 32.1055 11.125C31.6777 11.125 31.3467 11.2217 31.1123 11.415C30.8779 11.6084 30.7607 11.8545 30.7607 12.1533C30.7607 12.4346 30.8926 12.6631 31.1562 12.8389C31.4258 13.0088 31.877 13.1582 32.5098 13.2871C33.1426 13.4102 33.6758 13.5508 34.1094 13.709C35.4512 14.2012 36.1221 15.0537 36.1221 16.2666C36.1221 17.1338 35.75 17.8369 35.0059 18.376C34.2617 18.9092 33.3008 19.1758 32.123 19.1758C31.3262 19.1758 30.6172 19.0352 29.9961 18.7539C29.3809 18.4668 28.8975 18.0771 28.5459 17.585C28.1943 17.0869 28.0186 16.5508 28.0186 15.9766H30.4268C30.4502 16.4277 30.6172 16.7734 30.9277 17.0137C31.2383 17.2539 31.6543 17.374 32.1758 17.374C32.6621 17.374 33.0283 17.2832 33.2744 17.1016C33.5264 16.9141 33.6523 16.6709 33.6523 16.3721Z" transform="translate(19 68)" fill="#4C6085"/>
<path d="M35.317 24.9003C34.0505 22.6794 31.7294 22.2636 31.2764 22.203C31.25 22.1994 31.2236 22.1976 31.1966 22.1976H24.8457L24.5944 21.9462C24.9177 21.8335 25.2273 21.6859 25.5141 21.5071C25.8086 21.3235 26.0588 21.1171 26.2802 20.903L28.6319 21.5749L28.9613 20.4212L27.0799 19.8837C27.3283 19.4595 27.4842 19.0605 27.5712 18.7714C27.588 18.715 27.597 18.6568 27.597 18.598V17.3651L29.0333 16.7496L28.5611 15.6469L27.597 16.0603V15.5983C27.597 15.4897 27.5676 15.3829 27.5112 15.2894L25.7114 12.2897C25.6166 12.1313 25.4535 12.0257 25.2705 12.0029C25.0899 11.9831 24.9045 12.0431 24.7731 12.1745L23.1491 13.7985H22.7975V6.24773L23.6459 5.39942H24.4156L26.0642 6.4985C26.3402 6.68268 26.7121 6.60769 26.8963 6.33232L28.0962 4.53251C28.2306 4.33093 28.2306 4.06876 28.0962 3.86718L25.6964 0.267571C25.5848 0.100189 25.3977 -9.38315e-08 25.1973 -9.38315e-08H23.3975C23.1701 -9.38315e-08 22.9625 0.128386 22.8605 0.331764L21.8269 2.39974H15.3691L14.3349 0.331764C14.2335 0.128386 14.0259 -9.38315e-08 13.7985 -9.38315e-08H11.3988C11.205 -9.38315e-08 11.0232 0.0935899 10.911 0.251373L7.91135 4.45092C7.74097 4.6891 7.76796 5.01606 7.97494 5.22364L9.17481 6.42351C9.37699 6.62629 9.69376 6.65628 9.93193 6.4985L11.5806 5.39942H12.9502L13.1986 5.64779V12.1691C11.6148 12.7444 7.29042 14.7182 5.43841 19.5849C4.34593 22.4562 4.58831 25.1367 4.99086 26.8927L3.59961 26.0576V23.9974C3.59961 23.3111 3.21805 22.6944 2.60492 22.3878C1.99059 22.0806 1.26826 22.1466 0.719323 22.5582C0.268771 22.8965 0 23.4347 0 23.9974V28.197C0 28.4039 0.106789 28.5959 0.28197 28.7057L5.08145 31.7054C5.17684 31.7648 5.28663 31.7966 5.39942 31.7966H17.3981H19.7979H32.3965C32.4895 31.7966 32.5819 31.775 32.6647 31.7336L35.0644 30.5337C35.173 30.4797 35.2618 30.3939 35.3206 30.2883C35.383 30.1768 36.818 27.5298 35.317 24.9003ZM19.1985 25.7936L15.6457 25.7822L15.6421 26.9821L19.1979 26.9935V30.5967H17.9981C17.9981 29.2733 16.9218 28.197 15.5983 28.197H14.3985C14.3985 25.2201 11.9765 22.7975 8.99903 22.7975H8.3991V23.9974H8.99903C11.3142 23.9974 13.1986 25.8812 13.1986 28.197V28.7969C13.1986 29.1281 13.4668 29.3968 13.7985 29.3968H15.5983C16.2601 29.3968 16.7982 29.935 16.7982 30.5967H5.5716L1.19987 27.8646V23.9974C1.19987 23.8096 1.28926 23.6303 1.43925 23.5175C1.62523 23.3783 1.8598 23.3567 2.06798 23.4611C2.27556 23.5649 2.39974 23.7652 2.39974 23.9974V26.3972C2.39974 26.6077 2.51073 26.8033 2.69071 26.9113L5.69039 28.7111C5.90816 28.8419 6.18533 28.8215 6.38151 28.6589C6.57709 28.4963 6.64968 28.2288 6.56209 27.99C6.11334 26.7685 5.21464 23.5457 6.55969 20.0108C6.64788 19.7787 6.74807 19.5603 6.84826 19.3425L6.84946 19.3431C8.86945 14.9534 13.1404 13.4314 13.9767 13.171C14.2281 13.0936 14.3985 12.8614 14.3985 12.5986V5.39942C14.3985 5.24044 14.3355 5.08745 14.2227 4.97526L13.6227 4.37533C13.5105 4.26254 13.3582 4.19955 13.1986 4.19955H11.3988C11.2806 4.19955 11.1642 4.23494 11.0658 4.30034L9.67516 5.22724L9.18261 4.73469L11.7077 1.19987H13.4278L14.462 3.26785C14.5634 3.47123 14.771 3.59961 14.9984 3.59961H22.1976C22.425 3.59961 22.6326 3.47123 22.7346 3.26785L23.7682 1.19987H24.8763L26.8759 4.19955L26.231 5.16724L24.9303 4.30034C24.8319 4.23494 24.7155 4.19955 24.5974 4.19955H23.3975C23.2379 4.19955 23.0855 4.26254 22.9733 4.37533L21.7735 5.5752C21.6607 5.68739 21.5977 5.84037 21.5977 5.99935V13.7985H20.0462L18.4222 12.1745C18.2914 12.0431 18.1073 11.9813 17.9249 12.0029C17.7413 12.0257 17.5787 12.1313 17.4839 12.2897L15.6841 15.2894C15.6277 15.3829 15.5983 15.4897 15.5983 15.5983V16.0603L14.6348 15.6475L14.1627 16.7502L15.5983 17.3651V18.3112V18.598C15.5983 18.6568 15.6073 18.715 15.6241 18.7714C15.7345 19.1385 15.9523 19.6797 16.3392 20.2292L14.1879 21.0361L14.6096 22.1598L17.2217 21.1801C17.3633 21.2941 17.5163 21.4039 17.6819 21.5071C18.142 21.7939 18.658 21.999 19.1985 22.113V25.7936V25.7936ZM34.3475 29.5504L32.2549 30.5967H26.8291L26.3972 29.2996V27.7788L27.1651 26.6269C27.2605 26.483 27.4213 26.3972 27.5934 26.3972C27.8526 26.3972 27.9858 26.5681 28.0308 26.6413C28.0764 26.7151 28.1694 26.9107 28.0536 27.1417L27.66 27.9288C27.5448 28.1598 27.5898 28.4387 27.7728 28.6211L28.3727 29.2211C28.4849 29.3338 28.6373 29.3968 28.7969 29.3968H31.7966V28.197H29.0453L28.9271 28.0788L29.1275 27.6786C29.395 27.1435 29.3662 26.5195 29.0519 26.0108C28.7375 25.5021 28.1916 25.1973 27.5934 25.1973C27.0193 25.1973 26.486 25.4829 26.1668 25.9604L25.2981 27.2641C25.2327 27.3631 25.1973 27.4788 25.1973 27.597V29.3968C25.1973 29.461 25.2081 29.5252 25.2285 29.5864L25.5651 30.5967H23.3975V26.3972H22.1976V30.5967H20.3978V26.3954V21.5977C20.3978 21.2881 20.162 21.0289 19.8537 21.0001C19.4145 20.9593 19.0024 20.8418 18.6214 20.6546L19.4091 20.3594L18.9874 19.2357L17.5115 19.7895C17.1222 19.3299 16.908 18.844 16.7982 18.5062V18.3106V17.8787L18.3616 18.5488L18.8338 17.4461L16.7982 16.5744V15.7645L18.1169 13.5663L19.3737 14.8226C19.4859 14.9354 19.6383 14.9984 19.7979 14.9984H22.1976H23.3975C23.5571 14.9984 23.7094 14.9354 23.8216 14.8226L25.0785 13.5663L26.3972 15.7645V16.5744L24.361 17.4467L24.8331 18.5494L26.3972 17.8793V18.5062C26.3072 18.7828 26.1458 19.1595 25.8776 19.5399L24.7623 19.2213L24.433 20.375L24.8637 20.498C24.406 20.7794 23.8948 20.9491 23.3423 21.0007C23.1107 21.0223 22.9121 21.1759 22.8335 21.3943C22.7544 21.6133 22.8089 21.8574 22.9733 22.0218L24.1732 23.2217C24.2854 23.3345 24.4378 23.3975 24.5974 23.3975H31.154C31.4972 23.4497 33.3108 23.803 34.2755 25.4949C35.263 27.2257 34.5881 29.0213 34.3475 29.5504Z" transform="translate(19.0009 19.2012)" fill="white"/>
<path d="M35.4426 7.91538C34.3621 4.9127 30.8549 0.333394 25.6175 0.0262266C22.0574 -0.18795 19.3475 2.58735 18.0511 3.91921C18.0259 3.94501 18.0007 3.9708 17.9767 3.9954C17.9431 3.9612 17.9089 3.92521 17.8723 3.88741C16.5956 2.56155 13.9187 -0.202949 10.3809 0.0118281C5.14347 0.318995 1.63624 4.8977 0.555759 7.90098C-0.887086 11.9145 0.510164 17.0428 4.38995 21.9707L5.33365 21.2285C1.71483 16.633 0.384777 11.9229 1.68544 8.30654C2.65733 5.60323 5.7944 1.48227 10.4511 1.2093C13.4568 1.04072 15.8559 3.52325 17.0084 4.72012C17.2286 4.9481 17.4067 5.13228 17.5387 5.24926C17.6113 5.31406 17.6995 5.36025 17.7937 5.38365L17.8555 5.39865C18.0469 5.44604 18.2509 5.39625 18.3984 5.26426C18.5262 5.15088 18.6984 4.97449 18.9114 4.75552C20.0831 3.55205 22.529 1.05332 25.5473 1.2237C30.2046 1.49727 33.341 5.61823 34.3129 8.32153C35.7918 12.4323 33.8684 17.9163 29.1685 22.9912L30.0486 23.8065C35.0592 18.3962 37.0756 12.4557 35.4426 7.91538Z" transform="translate(19 15)" fill="white"/>
<path d="M1.19987 0H0V1.19987H1.19987V0Z" transform="translate(34.5992 25.2006)" fill="white"/>
<path d="M1.19987 0H0V1.19987H1.19987V0Z" transform="translate(38.1988 25.2006)" fill="white"/>
<path d="M2.39974 0H0V1.19987H2.39974V0Z" transform="translate(35.799 27.6002)" fill="white"/>
<path d="M1.19987 0H0V1.19987H1.19987V0Z" transform="translate(38.1988 35.3994)" fill="white"/>
<path d="M1.19987 0H0V1.19987H1.19987V0Z" transform="translate(41.7984 35.3994)" fill="white"/>
<path d="M1.19987 0H0V1.19987H1.19987V0Z" transform="translate(39.9985 37.1992)" fill="white"/>
<defs>
<filter id="filter0_d" x="0" y="0" width="74" height="74" filterUnits="userSpaceOnUse" color-interpolation-filters="sRGB">
<feFlood flood-opacity="0" result="BackgroundImageFix"/>
<feColorMatrix in="SourceAlpha" type="matrix" values="0 0 0 0 0 0 0 0 0 0 0 0 0 0 0 0 0 0 255 0"/>
<feOffset dy="4"/>
<feGaussianBlur stdDeviation="2"/>
<feColorMatrix type="matrix" values="0 0 0 0 0 0 0 0 0 0 0 0 0 0 0 0 0 0 0.25 0"/>
<feBlend mode="normal" in2="BackgroundImageFix" result="effect1_dropShadow"/>
<feBlend mode="normal" in="SourceGraphic" in2="effect1_dropShadow" result="shape"/>
</filter>
</defs>
</svg>
