<svg width="80" height="91" viewBox="0 0 80 91" fill="none" xmlns="http://www.w3.org/2000/svg">
<g filter="url(#filter0_d)">
<circle cx="33" cy="33" r="33" transform="translate(7)" fill="#FFA630"/>
<circle cx="33" cy="33" r="31.5" transform="translate(7)" stroke="#4C6085" stroke-width="3"/>
</g>
<path d="M11.1279 8.33887H7.20801V19H4.57129V8.33887H0.704102V6.20312H11.1279V8.33887ZM17.2363 11.8721C16.8906 11.8252 16.5859 11.8018 16.3223 11.8018C15.3613 11.8018 14.7314 12.127 14.4326 12.7773V19H11.8926V9.49023H14.292L14.3623 10.624C14.8721 9.75098 15.5781 9.31445 16.4805 9.31445C16.7617 9.31445 17.0254 9.35254 17.2715 9.42871L17.2363 11.8721ZM23.7139 19C23.5967 18.7715 23.5117 18.4873 23.459 18.1475C22.8438 18.833 22.0439 19.1758 21.0596 19.1758C20.1279 19.1758 19.3545 18.9062 18.7393 18.3672C18.1299 17.8281 17.8252 17.1484 17.8252 16.3281C17.8252 15.3203 18.1973 14.5469 18.9414 14.0078C19.6914 13.4688 20.7725 13.1963 22.1846 13.1904H23.3535V12.6455C23.3535 12.2061 23.2393 11.8545 23.0107 11.5908C22.7881 11.3271 22.4336 11.1953 21.9473 11.1953C21.5195 11.1953 21.1826 11.2979 20.9365 11.5029C20.6963 11.708 20.5762 11.9893 20.5762 12.3467H18.0361C18.0361 11.7959 18.2061 11.2861 18.5459 10.8174C18.8857 10.3486 19.3662 9.98242 19.9873 9.71875C20.6084 9.44922 21.3057 9.31445 22.0791 9.31445C23.251 9.31445 24.1797 9.61035 24.8652 10.2021C25.5566 10.7881 25.9023 11.6143 25.9023 12.6807V16.8027C25.9082 17.7051 26.0342 18.3877 26.2803 18.8506V19H23.7139ZM21.6133 17.2334C21.9883 17.2334 22.334 17.1514 22.6504 16.9873C22.9668 16.8174 23.2012 16.5918 23.3535 16.3105V14.6758H22.4043C21.1328 14.6758 20.4561 15.1152 20.374 15.9941L20.3652 16.1436C20.3652 16.46 20.4766 16.7207 20.6992 16.9258C20.9219 17.1309 21.2266 17.2334 21.6133 17.2334ZM30.1914 9.49023L30.2705 10.5889C30.9502 9.73926 31.8613 9.31445 33.0039 9.31445C34.0117 9.31445 34.7617 9.61035 35.2539 10.2021C35.7461 10.7939 35.998 11.6787 36.0098 12.8564V19H33.4697V12.918C33.4697 12.3789 33.3525 11.9893 33.1182 11.749C32.8838 11.5029 32.4941 11.3799 31.9492 11.3799C31.2344 11.3799 30.6982 11.6846 30.3408 12.2939V19H27.8008V9.49023H30.1914ZM43.0938 16.3721C43.0938 16.0615 42.9385 15.8184 42.6279 15.6426C42.3232 15.4609 41.8311 15.2998 41.1514 15.1592C38.8896 14.6846 37.7588 13.7236 37.7588 12.2764C37.7588 11.4326 38.1074 10.7295 38.8047 10.167C39.5078 9.59863 40.4248 9.31445 41.5557 9.31445C42.7627 9.31445 43.7266 9.59863 44.4473 10.167C45.1738 10.7354 45.5371 11.4736 45.5371 12.3818H42.9971C42.9971 12.0186 42.8799 11.7197 42.6455 11.4854C42.4111 11.2451 42.0449 11.125 41.5469 11.125C41.1191 11.125 40.7881 11.2217 40.5537 11.415C40.3193 11.6084 40.2021 11.8545 40.2021 12.1533C40.2021 12.4346 40.334 12.6631 40.5977 12.8389C40.8672 13.0088 41.3184 13.1582 41.9512 13.2871C42.584 13.4102 43.1172 13.5508 43.5508 13.709C44.8926 14.2012 45.5635 15.0537 45.5635 16.2666C45.5635 17.1338 45.1914 17.8369 44.4473 18.376C43.7031 18.9092 42.7422 19.1758 41.5645 19.1758C40.7676 19.1758 40.0586 19.0352 39.4375 18.7539C38.8223 18.4668 38.3389 18.0771 37.9873 17.585C37.6357 17.0869 37.46 16.5508 37.46 15.9766H39.8682C39.8916 16.4277 40.0586 16.7734 40.3691 17.0137C40.6797 17.2539 41.0957 17.374 41.6172 17.374C42.1035 17.374 42.4697 17.2832 42.7158 17.1016C42.9678 16.9141 43.0938 16.6709 43.0938 16.3721ZM55.7676 14.333C55.7676 15.7979 55.4336 16.9727 54.7656 17.8574C54.1035 18.7363 53.207 19.1758 52.0762 19.1758C51.1152 19.1758 50.3389 18.8418 49.7471 18.1738V22.6562H47.207V9.49023H49.5625L49.6504 10.4219C50.2656 9.68359 51.0684 9.31445 52.0586 9.31445C53.2305 9.31445 54.1416 9.74805 54.792 10.6152C55.4424 11.4824 55.7676 12.6777 55.7676 14.2012V14.333ZM53.2275 14.1484C53.2275 13.2637 53.0693 12.5811 52.7529 12.1006C52.4424 11.6201 51.9883 11.3799 51.3906 11.3799C50.5938 11.3799 50.0459 11.6846 49.7471 12.2939V16.1875C50.0576 16.8145 50.6113 17.1279 51.4082 17.1279C52.6211 17.1279 53.2275 16.1348 53.2275 14.1484ZM56.9541 14.1572C56.9541 13.2139 57.1357 12.373 57.499 11.6348C57.8623 10.8965 58.3838 10.3252 59.0635 9.9209C59.749 9.5166 60.543 9.31445 61.4453 9.31445C62.7285 9.31445 63.7744 9.70703 64.583 10.4922C65.3975 11.2773 65.8516 12.3438 65.9453 13.6914L65.9629 14.3418C65.9629 15.8008 65.5557 16.9727 64.7412 17.8574C63.9268 18.7363 62.834 19.1758 61.4629 19.1758C60.0918 19.1758 58.9961 18.7363 58.1758 17.8574C57.3613 16.9785 56.9541 15.7832 56.9541 14.2715V14.1572ZM59.4941 14.3418C59.4941 15.2441 59.6641 15.9355 60.0039 16.416C60.3438 16.8906 60.8301 17.1279 61.4629 17.1279C62.0781 17.1279 62.5586 16.8936 62.9043 16.4248C63.25 15.9502 63.4229 15.1943 63.4229 14.1572C63.4229 13.2725 63.25 12.5869 62.9043 12.1006C62.5586 11.6143 62.0723 11.3711 61.4453 11.3711C60.8242 11.3711 60.3438 11.6143 60.0039 12.1006C59.6641 12.5811 59.4941 13.3281 59.4941 14.3418ZM72.8711 11.8721C72.5254 11.8252 72.2207 11.8018 71.957 11.8018C70.9961 11.8018 70.3662 12.127 70.0674 12.7773V19H67.5273V9.49023H69.9268L69.9971 10.624C70.5068 9.75098 71.2129 9.31445 72.1152 9.31445C72.3965 9.31445 72.6602 9.35254 72.9062 9.42871L72.8711 11.8721ZM77.582 7.15234V9.49023H79.208V11.3535H77.582V16.0996C77.582 16.4512 77.6494 16.7031 77.7842 16.8555C77.9189 17.0078 78.1768 17.084 78.5576 17.084C78.8389 17.084 79.0879 17.0635 79.3047 17.0225V18.9473C78.8066 19.0996 78.2939 19.1758 77.7666 19.1758C75.9854 19.1758 75.0771 18.2764 75.042 16.4775V11.3535H73.6533V9.49023H75.042V7.15234H77.582Z" transform="translate(0 68)" fill="#4C6085"/>
<path d="M35.0444 6.01812C33.75 6.01812 32.5156 6.2789 31.3903 6.75011L28.6995 1.52923H32.4604C32.8684 1.52923 33.2003 1.86117 33.2003 2.26917C33.2003 2.67717 32.8684 3.00911 32.4604 3.00911H31.6579C31.2356 3.00911 30.8933 3.35145 30.8933 3.77372C30.8933 4.19599 31.2356 4.53834 31.6579 4.53834H32.4604C33.7116 4.53834 34.7296 3.52038 34.7296 2.26917C34.7296 1.01796 33.7117 -2.48898e-07 32.4604 -2.48898e-07H27.4453C27.1787 -2.48898e-07 26.9313 0.138956 26.7925 0.366606C26.6537 0.594257 26.6435 0.877878 26.7656 1.11491L28.1037 3.71123H17.0685L15.9552 1.52923H17.7158C18.1382 1.52923 18.4804 1.18688 18.4804 0.764613C18.4804 0.342343 18.1382 -2.48898e-07 17.7158 -2.48898e-07H12.7006C12.2783 -2.48898e-07 11.936 0.342343 11.936 0.764613C11.936 1.18688 12.2783 1.52923 12.7006 1.52923H14.2384L15.7244 4.44169L13.9778 7.14771C12.641 6.42744 11.113 6.01812 9.49099 6.01812C4.25767 6.01812 0 10.2757 0 15.509C0 20.7423 4.25767 25 9.49099 25C14.4669 25 18.5604 21.1507 18.9511 16.2736H21.1947L20.3231 19.1096H19.8213C19.399 19.1096 19.0567 19.452 19.0567 19.8742C19.0567 20.2965 19.399 20.6388 19.8213 20.6388H22.5739C22.9963 20.6388 23.3385 20.2965 23.3385 19.8742C23.3385 19.452 22.9963 19.1096 22.5739 19.1096H21.9229L22.929 15.8357L29.2912 6.01526L30.0323 7.45304C27.3452 9.13091 25.5534 12.1144 25.5534 15.509C25.5534 20.7423 29.8111 25 35.0445 25C40.2778 25 44.5355 20.7423 44.5355 15.509C44.5354 10.2757 40.2777 6.01812 35.0444 6.01812ZM16.528 6.01659L20.9809 14.7444H18.951C18.7306 11.9933 17.3318 9.5697 15.2612 7.9792L16.528 6.01659ZM17.4152 14.7444H10.8946L14.4283 9.26987C16.0807 10.5804 17.2033 12.5309 17.4152 14.7444ZM9.49099 23.4708C5.10079 23.4708 1.52923 19.8992 1.52923 15.509C1.52923 11.1189 5.10079 7.54724 9.49099 7.54724C10.8076 7.54724 12.0494 7.87042 13.1445 8.43858L8.84851 15.0943C8.69671 15.3295 8.6856 15.6289 8.81956 15.8747C8.95342 16.1205 9.21104 16.2735 9.49099 16.2735H17.4152C17.0291 20.3063 13.6232 23.4708 9.49099 23.4708ZM22.3083 13.9811L17.8487 5.24035H27.9711L22.3083 13.9811ZM35.0444 23.4708C30.6542 23.4708 27.0825 19.8991 27.0825 15.509C27.0825 12.7056 28.5402 10.2379 30.7361 8.81885L34.3647 15.8593C34.5005 16.1226 34.7678 16.2737 35.045 16.2737C35.1629 16.2737 35.2826 16.2463 35.3947 16.1886C35.7701 15.9952 35.9176 15.5341 35.7241 15.1586L32.0944 8.11612C33.0074 7.75053 34.0023 7.54714 35.0444 7.54714C39.4346 7.54714 43.0061 11.1188 43.0061 15.5089C43.0061 19.8992 39.4346 23.4708 35.0444 23.4708Z" transform="translate(18 21)" fill="white"/>
<defs>
<filter id="filter0_d" x="3" y="0" width="74" height="74" filterUnits="userSpaceOnUse" color-interpolation-filters="sRGB">
<feFlood flood-opacity="0" result="BackgroundImageFix"/>
<feColorMatrix in="SourceAlpha" type="matrix" values="0 0 0 0 0 0 0 0 0 0 0 0 0 0 0 0 0 0 255 0"/>
<feOffset dy="4"/>
<feGaussianBlur stdDeviation="2"/>
<feColorMatrix type="matrix" values="0 0 0 0 0 0 0 0 0 0 0 0 0 0 0 0 0 0 0.25 0"/>
<feBlend mode="normal" in2="BackgroundImageFix" result="effect1_dropShadow"/>
<feBlend mode="normal" in="SourceGraphic" in2="effect1_dropShadow" result="shape"/>
</filter>
</defs>
</svg>
