<svg width="74" height="88" viewBox="0 0 74 88" fill="none" xmlns="http://www.w3.org/2000/svg">
<g filter="url(#filter0_d)">
<path d="M33 66C51.2254 66 66 51.2254 66 33C66 14.7746 51.2254 0 33 0C14.7746 0 0 14.7746 0 33C0 51.2254 14.7746 66 33 66Z" transform="translate(4)" fill="#FFA630"/>
<path d="M31.5 63C48.897 63 63 48.897 63 31.5C63 14.103 48.897 0 31.5 0C14.103 0 0 14.103 0 31.5C0 48.897 14.103 63 31.5 63Z" transform="translate(5.5 1.5)" stroke="#4C6085" stroke-width="3"/>
</g>
<path d="M7.69922 8.05077H2.63672V13.2803H1.61743e-08V0.48339H8.33203V2.61914H2.63672V5.92387H7.69922V8.05077ZM12.375 13.2803H9.82616V3.7705H12.375V13.2803ZM9.67676 1.30957C9.67676 0.92871 9.80276 0.61523 10.0547 0.36914C10.3125 0.12304 10.6612 -9.96399e-08 11.1006 -9.96399e-08C11.5342 -9.96399e-08 11.8799 0.12304 12.1377 0.36914C12.3955 0.61523 12.5245 0.92871 12.5245 1.30957C12.5245 1.69629 12.3926 2.01269 12.1289 2.25879C11.8711 2.50488 11.5284 2.62793 11.1006 2.62793C10.6729 2.62793 10.3272 2.50488 10.0635 2.25879C9.80566 2.01269 9.67676 1.69629 9.67676 1.30957ZM17.5166 1.43261V3.7705H19.1426V5.63377H17.5166V10.3799C17.5166 10.7315 17.584 10.9834 17.7188 11.1358C17.8536 11.2881 18.1114 11.3643 18.4922 11.3643C18.7735 11.3643 19.0225 11.3438 19.2393 11.3028V13.2276C18.7413 13.3799 18.2286 13.4561 17.7012 13.4561C15.92 13.4561 15.0118 12.5567 14.9766 10.7578V5.63377H13.5879V3.7705H14.9766V1.43261H17.5166ZM22.8955 3.7705L22.9746 4.86917C23.6543 4.01953 24.5655 3.59472 25.708 3.59472C26.7159 3.59472 27.4659 3.89062 27.958 4.48237C28.4502 5.07417 28.7022 5.95897 28.7139 7.13667V13.2803H26.1739V7.19827C26.1739 6.65917 26.0567 6.26957 25.8223 6.02927C25.5879 5.78317 25.1983 5.66017 24.6534 5.66017C23.9385 5.66017 23.4024 5.96487 23.045 6.57417V13.2803H20.5049V3.7705H22.8955ZM35.0245 13.4561C33.6299 13.4561 32.4932 13.0283 31.6143 12.1729C30.7413 11.3174 30.3047 10.1778 30.3047 8.75387V8.50777C30.3047 7.55277 30.4893 6.70017 30.8584 5.95017C31.2276 5.19437 31.7491 4.61427 32.4229 4.20996C33.1026 3.7998 33.876 3.59472 34.7432 3.59472C36.044 3.59472 37.0664 4.00488 37.8106 4.82517C38.5606 5.64547 38.9356 6.80857 38.9356 8.31447V9.35157H32.8799C32.962 9.97267 33.208 10.4707 33.6182 10.8457C34.0342 11.2207 34.5586 11.4082 35.1914 11.4082C36.17 11.4082 36.9346 11.0537 37.4854 10.3448L38.7334 11.7422C38.3526 12.2813 37.837 12.7032 37.1866 13.0078C36.5362 13.3067 35.8155 13.4561 35.0245 13.4561ZM34.7344 5.65137C34.2305 5.65137 33.8204 5.82127 33.5039 6.16117C33.1934 6.50097 32.9942 6.98727 32.9063 7.62007H36.4395V7.41797C36.4278 6.85547 36.2754 6.42187 35.9825 6.11717C35.6895 5.80667 35.2735 5.65137 34.7344 5.65137ZM45.5362 10.6524C45.5362 10.3418 45.3809 10.0987 45.0704 9.92287C44.7657 9.74117 44.2735 9.58007 43.5938 9.43947C41.3321 8.96487 40.2012 8.00387 40.2012 6.55667C40.2012 5.71287 40.5498 5.00977 41.2471 4.44727C41.9502 3.8789 42.8672 3.59472 43.9981 3.59472C45.2051 3.59472 46.169 3.8789 46.8897 4.44727C47.6163 5.01567 47.9795 5.75387 47.9795 6.66207H45.4395C45.4395 6.29887 45.3223 5.99997 45.0879 5.76567C44.8536 5.52537 44.4873 5.40527 43.9893 5.40527C43.5616 5.40527 43.2305 5.50197 42.9961 5.69527C42.7618 5.88867 42.6446 6.13477 42.6446 6.43357C42.6446 6.71487 42.7764 6.94337 43.0401 7.11917C43.3096 7.28907 43.7608 7.43847 44.3936 7.56737C45.0264 7.69047 45.5596 7.83107 45.9932 7.98927C47.335 8.48147 48.0059 9.33397 48.0059 10.5469C48.0059 11.4141 47.6338 12.1172 46.8897 12.6563C46.1455 13.1895 45.1846 13.4561 44.0069 13.4561C43.21 13.4561 42.501 13.3155 41.8799 13.0342C41.2647 12.7471 40.7813 12.3574 40.4297 11.8653C40.0782 11.3672 39.9024 10.8311 39.9024 10.2569H42.3106C42.334 10.708 42.501 11.0537 42.8116 11.294C43.1221 11.5342 43.5381 11.6543 44.0596 11.6543C44.5459 11.6543 44.9121 11.5635 45.1582 11.3819C45.4102 11.1944 45.5362 10.9512 45.5362 10.6524ZM54.7998 10.6524C54.7998 10.3418 54.6446 10.0987 54.334 9.92287C54.0293 9.74117 53.5371 9.58007 52.8575 9.43947C50.5957 8.96487 49.4649 8.00387 49.4649 6.55667C49.4649 5.71287 49.8135 5.00977 50.5108 4.44727C51.2139 3.8789 52.1309 3.59472 53.2618 3.59472C54.4688 3.59472 55.4327 3.8789 56.1534 4.44727C56.8799 5.01567 57.2432 5.75387 57.2432 6.66207H54.7032C54.7032 6.29887 54.586 5.99997 54.3516 5.76567C54.1172 5.52537 53.751 5.40527 53.253 5.40527C52.8252 5.40527 52.4942 5.50197 52.2598 5.69527C52.0254 5.88867 51.9082 6.13477 51.9082 6.43357C51.9082 6.71487 52.0401 6.94337 52.3037 7.11917C52.5733 7.28907 53.0245 7.43847 53.6573 7.56737C54.2901 7.69047 54.8233 7.83107 55.2569 7.98927C56.5987 8.48147 57.2696 9.33397 57.2696 10.5469C57.2696 11.4141 56.8975 12.1172 56.1534 12.6563C55.4092 13.1895 54.4483 13.4561 53.2705 13.4561C52.4737 13.4561 51.7647 13.3155 51.1436 13.0342C50.5284 12.7471 50.045 12.3574 49.6934 11.8653C49.3418 11.3672 49.1661 10.8311 49.1661 10.2569H51.5743C51.5977 10.708 51.7647 11.0537 52.0752 11.294C52.3858 11.5342 52.8018 11.6543 53.3233 11.6543C53.8096 11.6543 54.1758 11.5635 54.4219 11.3819C54.6739 11.1944 54.7998 10.9512 54.7998 10.6524Z" transform="translate(8.60254 73.7197)" fill="#4C6085"/>
<path d="M0 1.89428C0 2.93883 0.849724 3.78856 1.89428 3.78856C2.93883 3.78856 3.78856 2.93883 3.78856 1.89428C3.78856 0.849724 2.93883 0 1.89428 0C0.849724 0 0 0.849812 0 1.89428ZM2.46856 1.89428C2.46856 2.21099 2.21099 2.46856 1.89428 2.46856C1.57757 2.46856 1.31999 2.21099 1.31999 1.89428C1.31999 1.57757 1.57757 1.31999 1.89428 1.31999C2.21099 1.31999 2.46856 1.57766 2.46856 1.89428Z" transform="translate(49.0538 42.4052)" fill="white"/>
<path d="M1.89428 0C0.849724 0 0 0.849724 0 1.89428C0 2.93883 0.849812 3.78856 1.89428 3.78856C2.93875 3.78856 3.78856 2.93883 3.78856 1.89428C3.78856 0.849724 2.93883 0 1.89428 0ZM1.89428 2.46856C1.57757 2.46856 1.31999 2.21099 1.31999 1.89428C1.31999 1.57757 1.57766 1.31999 1.89428 1.31999C2.2109 1.31999 2.46856 1.57757 2.46856 1.89428C2.46856 2.21099 2.21099 2.46856 1.89428 2.46856Z" transform="translate(26.1673 42.4052)" fill="white"/>
<path d="M1.89428 0C0.849724 0 0 0.849724 0 1.89428C0 2.93883 0.849724 3.78856 1.89428 3.78856C2.93883 3.78856 3.78856 2.93883 3.78856 1.89428C3.78856 0.849724 2.93883 0 1.89428 0ZM1.89428 2.46856C1.57757 2.46856 1.31999 2.21099 1.31999 1.89428C1.31999 1.57757 1.57757 1.31999 1.89428 1.31999C2.21099 1.31999 2.46856 1.57757 2.46856 1.89428C2.46856 2.21099 2.21099 2.46856 1.89428 2.46856Z" transform="translate(33.7961 42.4052)" fill="white"/>
<path d="M1.89428 0C0.849725 0 0 0.849724 0 1.89428C0 2.93883 0.849725 3.78856 1.89428 3.78856C2.93883 3.78856 3.78856 2.93883 3.78856 1.89428C3.78856 0.849724 2.93883 0 1.89428 0ZM1.89428 2.46856C1.57757 2.46856 1.31999 2.21099 1.31999 1.89428C1.31999 1.57757 1.57757 1.31999 1.89428 1.31999C2.21099 1.31999 2.46856 1.57757 2.46856 1.89428C2.46856 2.21099 2.21099 2.46856 1.89428 2.46856Z" transform="translate(41.425 42.4052)" fill="white"/>
<path d="M34.713 24.7686C35.5189 24.265 36 23.3971 36 22.4472C36 22.325 35.9911 22.1982 35.9734 22.0682C35.5714 19.1871 33.3749 16.918 30.5078 16.4218L28.5991 16.0918C27.1196 15.836 25.7152 15.3485 24.4113 14.6393C24.4227 14.6097 24.4329 14.5795 24.44 14.5482C24.4862 14.3466 24.4353 14.135 24.3024 13.9766L21.7258 10.9053C21.5355 10.6786 21.2177 10.6062 20.9481 10.7282L20.1901 11.0711C20.0471 10.889 19.9081 10.7033 19.7742 10.5137C19.8827 10.4715 19.9798 10.4015 20.0536 10.3077C20.1787 10.1488 20.2241 9.94122 20.1766 9.74463L19.2526 5.91683C19.1811 5.62044 18.9159 5.41171 18.611 5.41171H17.6918V0.659997C17.6918 0.295503 17.3963 0 17.0318 0H15.5478C14.0414 0 12.8025 1.16432 12.6818 2.64025H3.82736C3.49552 2.64025 3.21524 2.88665 3.17282 3.21577L1.72171 14.4621C1.29703 17.7544 1.99029 21.1066 3.67486 23.9581L0.157783 28.0822C0.0559677 28.2017 0 28.3535 0 28.5104V31.1503C0 31.5148 0.295502 31.8103 0.659997 31.8103H4.347C4.94496 33.2752 6.38428 34.3105 8.06164 34.3105C9.84117 34.3105 11.3529 33.1453 11.8761 31.538C12.3992 33.1452 13.911 34.3105 15.6905 34.3105C17.47 34.3105 18.9818 33.1453 19.5049 31.538C20.0281 33.1452 21.5398 34.3105 23.3194 34.3105C25.0989 34.3105 26.6106 33.1453 27.1338 31.538C27.6569 33.1452 29.1687 34.3105 30.9482 34.3105C33.1599 34.3105 34.9592 32.5112 34.9592 30.2995C34.9592 28.4615 33.7161 26.9094 32.0267 26.4369L32.6298 25.4357C33.3677 25.3906 34.0812 25.1635 34.713 24.7686ZM34.0135 23.6493C33.4902 23.9763 32.8865 24.1399 32.2704 24.1234L4.86136 23.3724C4.13369 22.161 3.60402 20.8483 3.28335 19.4869C5.34316 20.7684 9.5608 22.9668 14.2552 22.9668H34.5821C34.473 23.2448 34.2769 23.4846 34.0135 23.6493ZM21.0361 12.1372L22.7301 14.1565L11.9876 18.9838L11.0197 16.6692L21.0361 12.1372ZM18.6966 9.23951H11.8793V6.7317H18.0913L18.6966 9.23951ZM13.9913 2.87653C13.9913 2.01827 14.6896 1.31999 15.5478 1.31999H16.3718V5.41136H13.9913V2.87653ZM3.03088 14.6311L4.40772 3.96024H12.6713V5.41171H11.2194C10.9488 5.41171 10.7166 5.57468 10.6147 5.80771H5.93971C5.57521 5.80771 5.27971 6.10321 5.27971 6.4677V9.50351C5.27971 9.86801 5.57521 10.1635 5.93971 10.1635H10.6147C10.7166 10.3965 10.9488 10.5595 11.2194 10.5595H18.2211C18.45 10.9265 18.6953 11.284 18.955 11.6299L9.89141 15.7309C9.56608 15.8781 9.41683 16.2574 9.55455 16.5869L11.0313 20.1181C11.1 20.2824 11.2321 20.4119 11.3977 20.4773C11.4757 20.5081 11.5579 20.5234 11.6401 20.5234C11.7325 20.5234 11.8248 20.5041 11.9107 20.4654L23.1302 15.4238C23.3398 15.5517 23.5519 15.6741 23.7665 15.7912L22.3859 17.071C22.1186 17.3188 22.1028 17.7365 22.3507 18.0037C22.4807 18.144 22.6575 18.215 22.8348 18.215C22.9953 18.215 23.1564 18.1568 23.2834 18.039L25.0416 16.4089C25.3987 16.5615 25.7614 16.7002 26.1299 16.8244L25.2273 17.9296C24.9967 18.2119 25.0387 18.6277 25.321 18.8582C25.4436 18.9584 25.5912 19.007 25.7381 19.007C25.9294 19.007 26.1192 18.9242 26.2497 18.7645L27.5134 17.217C27.7976 17.2832 28.0844 17.3424 28.374 17.3924L30.2826 17.7224C32.378 18.0851 34.0263 19.6287 34.5461 21.6467H14.2552C8.91999 21.6467 4.07033 18.4667 2.98662 17.7059C2.88568 16.6881 2.89862 15.6564 3.03088 14.6311ZM6.5997 8.84352V7.1277H10.5594V8.84352H6.5997ZM8.06155 32.9904C6.5777 32.9904 5.37052 31.7832 5.37052 30.2994C5.37052 28.8155 6.5777 27.6084 8.06155 27.6084C9.5454 27.6084 10.7526 28.8155 10.7526 30.2994C10.7526 31.7832 9.5454 32.9904 8.06155 32.9904ZM15.6904 32.9904C14.2066 32.9904 12.9994 31.7832 12.9994 30.2994C12.9994 28.8155 14.2066 27.6084 15.6904 27.6084C17.1743 27.6084 18.3814 28.8155 18.3814 30.2994C18.3814 31.7832 17.1743 32.9904 15.6904 32.9904ZM23.3193 32.9904C21.8354 32.9904 20.6282 31.7832 20.6282 30.2994C20.6282 28.8155 21.8354 27.6084 23.3193 27.6084C24.8031 27.6084 26.0103 28.8155 26.0103 30.2994C26.0103 31.7832 24.8031 32.9904 23.3193 32.9904ZM27.1337 29.0609C26.6105 27.4537 25.0988 26.2884 23.3193 26.2884C21.5397 26.2884 20.028 27.4536 19.5048 29.0609C18.9817 27.4537 17.4699 26.2884 15.6904 26.2884C13.9109 26.2884 12.3991 27.4536 11.876 29.0609C11.3528 27.4537 9.84108 26.2884 8.06155 26.2884C5.84986 26.2884 4.05053 28.0877 4.05053 30.2994C4.05053 30.3635 4.05238 30.427 4.05537 30.4903H1.31999V28.7536L4.7848 24.6906L31.1032 25.4117L30.5639 26.3071C28.9536 26.461 27.6187 27.5708 27.1337 29.0609ZM33.6391 30.2994C33.6391 31.7832 32.432 32.9904 30.9481 32.9904C29.4643 32.9904 28.2571 31.7832 28.2571 30.2994C28.2571 28.8155 29.4643 27.6084 30.9481 27.6084C32.432 27.6084 33.6391 28.8156 33.6391 30.2994Z" transform="translate(20 14)" fill="white"/>
<defs>
<filter id="filter0_d" x="0" y="0" width="74" height="74" filterUnits="userSpaceOnUse" color-interpolation-filters="sRGB">
<feFlood flood-opacity="0" result="BackgroundImageFix"/>
<feColorMatrix in="SourceAlpha" type="matrix" values="0 0 0 0 0 0 0 0 0 0 0 0 0 0 0 0 0 0 255 0"/>
<feOffset dy="4"/>
<feGaussianBlur stdDeviation="2"/>
<feColorMatrix type="matrix" values="0 0 0 0 0 0 0 0 0 0 0 0 0 0 0 0 0 0 0.25 0"/>
<feBlend mode="normal" in2="BackgroundImageFix" result="effect1_dropShadow"/>
<feBlend mode="normal" in="SourceGraphic" in2="effect1_dropShadow" result="shape"/>
</filter>
</defs>
</svg>
