<svg width="74" height="91" viewBox="0 0 74 91" fill="none" xmlns="http://www.w3.org/2000/svg">
<g filter="url(#filter0_d)">
<circle cx="33" cy="33" r="33" transform="translate(4)" fill="#FFA630"/>
<circle cx="33" cy="33" r="31.5" transform="translate(4)" stroke="#4C6085" stroke-width="3"/>
</g>
<path d="M11.666 14.7373C11.5664 16.1143 11.0566 17.1982 10.1367 17.9893C9.22266 18.7803 8.01562 19.1758 6.51562 19.1758C4.875 19.1758 3.58301 18.625 2.63965 17.5234C1.70215 16.416 1.2334 14.8984 1.2334 12.9707V12.1885C1.2334 10.958 1.4502 9.87402 1.88379 8.93652C2.31738 7.99902 2.93555 7.28125 3.73828 6.7832C4.54688 6.2793 5.48438 6.02734 6.55078 6.02734C8.02734 6.02734 9.2168 6.42285 10.1191 7.21387C11.0215 8.00488 11.543 9.11523 11.6836 10.5449H9.04688C8.98242 9.71875 8.75098 9.12109 8.35254 8.75195C7.95996 8.37695 7.35938 8.18945 6.55078 8.18945C5.67188 8.18945 5.0127 8.50586 4.57324 9.13867C4.13965 9.76562 3.91699 10.7412 3.90527 12.0654V13.0322C3.90527 14.415 4.11328 15.4258 4.5293 16.0645C4.95117 16.7031 5.61328 17.0225 6.51562 17.0225C7.33008 17.0225 7.93652 16.8379 8.33496 16.4688C8.73926 16.0938 8.9707 15.5166 9.0293 14.7373H11.666ZM15.9111 19H13.3623V5.5H15.9111V19ZM17.6162 14.1572C17.6162 13.2139 17.7979 12.373 18.1611 11.6348C18.5244 10.8965 19.0459 10.3252 19.7256 9.9209C20.4111 9.5166 21.2051 9.31445 22.1074 9.31445C23.3906 9.31445 24.4365 9.70703 25.2451 10.4922C26.0596 11.2773 26.5137 12.3438 26.6074 13.6914L26.625 14.3418C26.625 15.8008 26.2178 16.9727 25.4033 17.8574C24.5889 18.7363 23.4961 19.1758 22.125 19.1758C20.7539 19.1758 19.6582 18.7363 18.8379 17.8574C18.0234 16.9785 17.6162 15.7832 17.6162 14.2715V14.1572ZM20.1562 14.3418C20.1562 15.2441 20.3262 15.9355 20.666 16.416C21.0059 16.8906 21.4922 17.1279 22.125 17.1279C22.7402 17.1279 23.2207 16.8936 23.5664 16.4248C23.9121 15.9502 24.085 15.1943 24.085 14.1572C24.085 13.2725 23.9121 12.5869 23.5664 12.1006C23.2207 11.6143 22.7344 11.3711 22.1074 11.3711C21.4863 11.3711 21.0059 11.6143 20.666 12.1006C20.3262 12.5811 20.1562 13.3281 20.1562 14.3418ZM31.2305 7.15234V9.49023H32.8564V11.3535H31.2305V16.0996C31.2305 16.4512 31.2979 16.7031 31.4326 16.8555C31.5674 17.0078 31.8252 17.084 32.2061 17.084C32.4873 17.084 32.7363 17.0635 32.9531 17.0225V18.9473C32.4551 19.0996 31.9424 19.1758 31.415 19.1758C29.6338 19.1758 28.7256 18.2764 28.6904 16.4775V11.3535H27.3018V9.49023H28.6904V7.15234H31.2305ZM36.75 10.5273C37.4238 9.71875 38.2705 9.31445 39.29 9.31445C41.3525 9.31445 42.3984 10.5127 42.4277 12.9092V19H39.8877V12.9795C39.8877 12.4346 39.7705 12.0332 39.5361 11.7754C39.3018 11.5117 38.9121 11.3799 38.3672 11.3799C37.623 11.3799 37.084 11.667 36.75 12.2412V19H34.21V5.5H36.75V10.5273ZM47.0244 19H44.4756V9.49023H47.0244V19ZM44.3262 7.0293C44.3262 6.64844 44.4521 6.33496 44.7041 6.08887C44.9619 5.84277 45.3105 5.71973 45.75 5.71973C46.1836 5.71973 46.5293 5.84277 46.7871 6.08887C47.0449 6.33496 47.1738 6.64844 47.1738 7.0293C47.1738 7.41602 47.042 7.73242 46.7783 7.97852C46.5205 8.22461 46.1777 8.34766 45.75 8.34766C45.3223 8.34766 44.9766 8.22461 44.7129 7.97852C44.4551 7.73242 44.3262 7.41602 44.3262 7.0293ZM51.4629 9.49023L51.542 10.5889C52.2217 9.73926 53.1328 9.31445 54.2754 9.31445C55.2832 9.31445 56.0332 9.61035 56.5254 10.2021C57.0176 10.7939 57.2695 11.6787 57.2812 12.8564V19H54.7412V12.918C54.7412 12.3789 54.624 11.9893 54.3896 11.749C54.1553 11.5029 53.7656 11.3799 53.2207 11.3799C52.5059 11.3799 51.9697 11.6846 51.6123 12.2939V19H49.0723V9.49023H51.4629ZM58.8457 14.1748C58.8457 12.7158 59.1914 11.541 59.8828 10.6504C60.5801 9.75977 61.5176 9.31445 62.6953 9.31445C63.7383 9.31445 64.5498 9.67188 65.1299 10.3867L65.2354 9.49023H67.5381V18.6836C67.5381 19.5156 67.3477 20.2393 66.9668 20.8545C66.5918 21.4697 66.0615 21.9385 65.376 22.2607C64.6904 22.583 63.8877 22.7441 62.9678 22.7441C62.2705 22.7441 61.5908 22.6035 60.9287 22.3223C60.2666 22.0469 59.7656 21.6895 59.4258 21.25L60.5508 19.7031C61.1836 20.4121 61.9512 20.7666 62.8535 20.7666C63.5273 20.7666 64.0518 20.585 64.4268 20.2217C64.8018 19.8643 64.9893 19.3545 64.9893 18.6924V18.1826C64.4033 18.8447 63.6328 19.1758 62.6777 19.1758C61.5352 19.1758 60.6094 18.7305 59.9004 17.8398C59.1973 16.9434 58.8457 15.7568 58.8457 14.2803V14.1748ZM61.3857 14.3594C61.3857 15.2207 61.5586 15.8975 61.9043 16.3896C62.25 16.876 62.7246 17.1191 63.3281 17.1191C64.1016 17.1191 64.6553 16.8291 64.9893 16.249V12.25C64.6494 11.6699 64.1016 11.3799 63.3457 11.3799C62.7363 11.3799 62.2559 11.6289 61.9043 12.127C61.5586 12.625 61.3857 13.3691 61.3857 14.3594Z" transform="translate(3 68)" fill="#4C6085"/>
<path d="M35.83 12.9442L30.0236 7.13782C29.94 7.0545 29.8331 6.99861 29.717 6.97756L23.33 5.81628C23.0145 5.75887 22.7122 5.96812 22.6547 6.28362C22.6485 6.31774 22.6454 6.35236 22.6454 6.38705C22.6437 6.57155 22.6272 6.75561 22.596 6.9375L18.5809 5.93415V5.74834C20.1519 5.42769 21.1655 3.89414 20.8448 2.32314C20.5242 0.752145 18.9906 -0.261437 17.4196 0.0592222C16.0681 0.335099 15.0973 1.52382 15.097 2.9032H16.2583C16.2583 1.94115 17.0382 1.16128 18.0003 1.16128C18.9623 1.16128 19.7422 1.94115 19.7422 2.9032C19.7422 3.86525 18.9623 4.64513 18.0003 4.64513C17.6796 4.64513 17.4196 4.90511 17.4196 5.22577V5.93357L13.4045 6.9375C13.3733 6.75561 13.3568 6.57155 13.3551 6.38705C13.3552 6.21482 13.2788 6.05151 13.1467 5.94112C13.0152 5.8292 12.8399 5.78326 12.6705 5.81628L6.28349 6.97756C6.16737 6.99861 6.06046 7.0545 5.97692 7.13782L0.170504 12.9442C-0.0561638 13.171 -0.0561638 13.5385 0.170504 13.7653L4.81563 18.4104C5.04237 18.6371 5.40992 18.6371 5.63666 18.4104L6.96807 17.079V20.9031H2.90358C1.305 20.8984 0.00538415 22.1906 0.000739019 23.7892C-0.00194645 24.7125 0.436002 25.5817 1.17966 26.1288C-0.103051 27.0661 -0.383137 28.8657 0.554163 30.1484C0.729153 30.3879 0.940144 30.5989 1.17966 30.7739C-0.107841 31.7214 -0.3835 33.5333 0.563961 34.8208C1.11122 35.5643 1.98036 36.0023 2.90358 35.9997H23.8067C23.9607 35.9997 24.1083 35.9384 24.2172 35.8295L28.8623 31.1844C28.9698 31.075 29.0292 30.9273 29.0272 30.7739H29.0324V17.079L30.3638 18.4104C30.5906 18.6371 30.9581 18.6371 31.1849 18.4104L35.83 13.7653C36.0567 13.5385 36.0567 13.1709 35.83 12.9442ZM18.0003 6.98511L22.2227 8.04072C21.3475 9.53246 19.729 10.4287 18.0003 10.379C16.2715 10.4287 14.653 9.53246 13.7778 8.04072L18.0003 6.98511ZM1.16166 23.8063C1.16166 22.8442 1.94153 22.0644 2.90358 22.0644H15.6777C16.6397 22.0644 17.4196 22.8442 17.4196 23.8063C17.4196 24.7683 16.6397 25.5482 15.6777 25.5482H2.90358C1.94153 25.5482 1.16166 24.7683 1.16166 23.8063ZM1.16166 28.4514C1.16166 27.4894 1.94153 26.7095 2.90358 26.7095H15.6777C16.6397 26.7095 17.4196 27.4894 17.4196 28.4514C17.4196 29.4135 16.6397 30.1933 15.6777 30.1933H2.90358C1.94153 30.1933 1.16166 29.4134 1.16166 28.4514ZM15.6777 34.8385H14.5164H2.90358C1.94153 34.8385 1.16166 34.0586 1.16166 33.0965C1.16166 32.1345 1.94153 31.3546 2.90358 31.3546H15.6777C16.6397 31.3546 17.4196 32.1345 17.4196 33.0965C17.4196 34.0586 16.6397 34.8385 15.6777 34.8385ZM24.3873 34.0174V31.3546H27.0501L24.3873 34.0174ZM30.7744 17.1788L27.1204 13.5249L26.2994 14.3459L27.8712 15.9177V30.1933H23.8067C23.486 30.1933 23.226 30.4533 23.226 30.774V34.8385H17.9852C18.9516 33.5865 18.7201 31.7881 17.4682 30.8217C17.4472 30.8055 17.426 30.7896 17.4045 30.774C18.6872 29.8368 18.9673 28.0371 18.0301 26.7543C17.8551 26.5148 17.6441 26.3038 17.4045 26.1288C18.6921 25.1814 18.9677 23.3695 18.0202 22.082C17.4724 21.3375 16.6019 20.8995 15.6777 20.9031H8.12935V15.9177L9.70115 14.3459L8.88012 13.5249L5.22615 17.1788L1.40204 13.3547L6.66962 8.08717L12.2438 7.07395C12.6235 9.59161 15.0599 11.5402 17.9991 11.5402C20.9383 11.5402 23.3747 9.59161 23.7544 7.07395L29.3286 8.08717L34.5985 13.3547L30.7744 17.1788Z" transform="translate(20 15)" fill="white"/>
<path d="M13.9354 0H0V1.16128H13.9354V0Z" transform="translate(22.3229 38.2256)" fill="white"/>
<path d="M13.3547 0H0V1.16128H13.3547V0Z" transform="translate(22.3229 42.8708)" fill="white"/>
<path d="M13.3547 0H0V1.16128H13.3547V0Z" transform="translate(22.3229 47.5159)" fill="white"/>
<defs>
<filter id="filter0_d" x="0" y="0" width="74" height="74" filterUnits="userSpaceOnUse" color-interpolation-filters="sRGB">
<feFlood flood-opacity="0" result="BackgroundImageFix"/>
<feColorMatrix in="SourceAlpha" type="matrix" values="0 0 0 0 0 0 0 0 0 0 0 0 0 0 0 0 0 0 255 0"/>
<feOffset dy="4"/>
<feGaussianBlur stdDeviation="2"/>
<feColorMatrix type="matrix" values="0 0 0 0 0 0 0 0 0 0 0 0 0 0 0 0 0 0 0.25 0"/>
<feBlend mode="normal" in2="BackgroundImageFix" result="effect1_dropShadow"/>
<feBlend mode="normal" in="SourceGraphic" in2="effect1_dropShadow" result="shape"/>
</filter>
</defs>
</svg>
