<svg width="74" height="88" viewBox="0 0 74 88" fill="none" xmlns="http://www.w3.org/2000/svg">
<g filter="url(#filter0_d)">
<circle cx="33" cy="33" r="33" transform="translate(4)" fill="#FFA630"/>
<circle cx="33" cy="33" r="31.5" transform="translate(4)" stroke="#4C6085" stroke-width="3"/>
</g>
<path d="M11.9404 19H9.30371V13.5156H4.16211V19H1.52539V6.20312H4.16211V11.3887H9.30371V6.20312H11.9404V19ZM13.6895 14.1572C13.6895 13.2139 13.8711 12.373 14.2344 11.6348C14.5977 10.8965 15.1191 10.3252 15.7988 9.9209C16.4844 9.5166 17.2783 9.31445 18.1807 9.31445C19.4639 9.31445 20.5098 9.70703 21.3184 10.4922C22.1328 11.2773 22.5869 12.3438 22.6807 13.6914L22.6982 14.3418C22.6982 15.8008 22.291 16.9727 21.4766 17.8574C20.6621 18.7363 19.5693 19.1758 18.1982 19.1758C16.8271 19.1758 15.7314 18.7363 14.9111 17.8574C14.0967 16.9785 13.6895 15.7832 13.6895 14.2715V14.1572ZM16.2295 14.3418C16.2295 15.2441 16.3994 15.9355 16.7393 16.416C17.0791 16.8906 17.5654 17.1279 18.1982 17.1279C18.8135 17.1279 19.2939 16.8936 19.6396 16.4248C19.9854 15.9502 20.1582 15.1943 20.1582 14.1572C20.1582 13.2725 19.9854 12.5869 19.6396 12.1006C19.2939 11.6143 18.8076 11.3711 18.1807 11.3711C17.5596 11.3711 17.0791 11.6143 16.7393 12.1006C16.3994 12.5811 16.2295 13.3281 16.2295 14.3418ZM26.6445 9.49023L26.7236 10.5537C27.3975 9.72754 28.3086 9.31445 29.457 9.31445C30.6816 9.31445 31.5225 9.79785 31.9795 10.7646C32.6475 9.79785 33.5996 9.31445 34.8359 9.31445C35.8672 9.31445 36.6348 9.61621 37.1387 10.2197C37.6426 10.8174 37.8945 11.7197 37.8945 12.9268V19H35.3457V12.9355C35.3457 12.3965 35.2402 12.0039 35.0293 11.7578C34.8184 11.5059 34.4463 11.3799 33.9131 11.3799C33.1514 11.3799 32.624 11.7432 32.3311 12.4697L32.3398 19H29.7998V12.9443C29.7998 12.3936 29.6914 11.9951 29.4746 11.749C29.2578 11.5029 28.8887 11.3799 28.3672 11.3799C27.6465 11.3799 27.125 11.6787 26.8027 12.2764V19H24.2627V9.49023H26.6445ZM44.2314 19.1758C42.8369 19.1758 41.7002 18.748 40.8213 17.8926C39.9482 17.0371 39.5117 15.8975 39.5117 14.4736V14.2275C39.5117 13.2725 39.6963 12.4199 40.0654 11.6699C40.4346 10.9141 40.9561 10.334 41.6299 9.92969C42.3096 9.51953 43.083 9.31445 43.9502 9.31445C45.251 9.31445 46.2734 9.72461 47.0176 10.5449C47.7676 11.3652 48.1426 12.5283 48.1426 14.0342V15.0713H42.0869C42.1689 15.6924 42.415 16.1904 42.8252 16.5654C43.2412 16.9404 43.7656 17.1279 44.3984 17.1279C45.377 17.1279 46.1416 16.7734 46.6924 16.0645L47.9404 17.4619C47.5596 18.001 47.0439 18.4229 46.3936 18.7275C45.7432 19.0264 45.0225 19.1758 44.2314 19.1758ZM43.9414 11.3711C43.4375 11.3711 43.0273 11.541 42.7109 11.8809C42.4004 12.2207 42.2012 12.707 42.1133 13.3398H45.6465V13.1377C45.6348 12.5752 45.4824 12.1416 45.1895 11.8369C44.8965 11.5264 44.4805 11.3711 43.9414 11.3711Z" transform="translate(13 68)" fill="#4C6085"/>
<path d="M1.20016 0.206014C1.06868 0.0751629 0.888045 -4.97817e-07 0.703123 -4.97817e-07C0.517428 -4.97817e-07 0.336796 0.0751629 0.206015 0.206014C0.0745309 0.336795 -2.66075e-07 0.518202 -2.66075e-07 0.703123C-2.66075e-07 0.888045 0.0745309 1.06945 0.206015 1.20016C0.336796 1.33094 0.518132 1.40625 0.703123 1.40625C0.888045 1.40625 1.06868 1.33101 1.20016 1.20016C1.33094 1.06945 1.40625 0.888045 1.40625 0.703123C1.40625 0.518202 1.33101 0.336795 1.20016 0.206014Z" transform="translate(27.437 39.7498)" fill="white"/>
<path d="M11.3905 31.2185H9.84296V27.9138C9.84296 27.5255 9.5281 27.2107 9.13983 27.2107C8.75157 27.2107 8.43671 27.5255 8.43671 27.9138V31.2185H7.03046V2.10937C7.03046 1.72167 7.34588 1.40625 7.73359 1.40625C8.12129 1.40625 8.43671 1.72167 8.43671 2.10937V22.7108C8.43671 23.099 8.75157 23.4139 9.13983 23.4139C9.5281 23.4139 9.84296 23.099 9.84296 22.7108V20.6974C12.0693 20.3575 13.7805 18.4299 13.7805 16.11V14.6649C14.5988 14.3747 15.1867 13.5931 15.1867 12.6765C15.1867 11.5134 14.2404 10.5671 13.0773 10.5671C11.9142 10.5671 10.968 11.5134 10.968 12.6765C10.968 13.5931 11.5558 14.3747 12.3742 14.6649V16.11C12.3742 17.6519 11.2893 18.9445 9.84296 19.2664V10.1302C12.0693 9.79036 13.7805 7.86268 13.7805 5.54286V4.0978C14.5988 3.80756 15.1867 3.02603 15.1867 2.10937C15.1867 0.946264 14.2404 0 13.0773 0C11.9142 0 10.968 0.946264 10.968 2.10937C10.968 3.02596 11.5558 3.80756 12.3742 4.0978V5.54286C12.3742 7.08481 11.2893 8.37737 9.84296 8.69933V2.10937C9.84296 0.946264 8.89669 0 7.73359 0C6.57048 0 5.62422 0.946264 5.62422 2.10937V12.5455C4.04001 12.3376 2.81271 10.9797 2.81271 9.33966V7.8946C3.63107 7.60435 4.21895 6.82283 4.21895 5.90617C4.21895 4.74306 3.27269 3.7968 2.10958 3.7968C0.946475 3.7968 0.000210937 4.74306 0.000210937 5.90617C0.000210937 6.82276 0.588093 7.60435 1.40646 7.8946V9.33966C1.40646 11.7559 3.26292 13.7457 5.62422 13.9601V23.1126C4.04001 22.9047 2.81271 21.5468 2.81271 19.9068V18.4618C3.63107 18.1715 4.21895 17.39 4.21895 16.4733C4.21895 15.3102 3.27269 14.364 2.10958 14.364C0.946475 14.364 0.000210937 15.3102 0.000210937 16.4733C0.000210937 17.3899 0.588093 18.1715 1.40646 18.4618V19.9068C1.40646 22.323 3.26292 24.3129 5.62422 24.5273V31.2184H4.07812C1.82946 31.2184 0 33.0479 0 35.2965C0 35.6848 0.314859 35.9996 0.703124 35.9996H14.7655C15.1537 35.9996 15.4686 35.6848 15.4686 35.2965C15.4686 33.0479 13.6391 31.2185 11.3905 31.2185ZM13.0773 11.9734C13.465 11.9734 13.7805 12.2888 13.7805 12.6765C13.7805 13.0642 13.465 13.3797 13.0773 13.3797C12.6896 13.3797 12.3742 13.0642 12.3742 12.6765C12.3742 12.2888 12.6897 11.9734 13.0773 11.9734ZM13.0773 1.40625C13.465 1.40625 13.7805 1.72167 13.7805 2.10937C13.7805 2.49707 13.465 2.81249 13.0773 2.81249C12.6896 2.81249 12.3742 2.49707 12.3742 2.10937C12.3742 1.72167 12.6897 1.40625 13.0773 1.40625ZM2.10965 6.60929C1.72195 6.60929 1.40653 6.29387 1.40653 5.90617C1.40653 5.51847 1.72195 5.20304 2.10965 5.20304C2.49735 5.20304 2.81278 5.51847 2.81278 5.90617C2.81278 6.29387 2.49735 6.60929 2.10965 6.60929ZM2.10965 17.1765C1.72195 17.1765 1.40653 16.861 1.40653 16.4733C1.40653 16.0856 1.72195 15.7702 2.10965 15.7702C2.49735 15.7702 2.81278 16.0856 2.81278 16.4733C2.81278 16.861 2.49735 17.1765 2.10965 17.1765ZM1.50011 34.5934C1.80949 33.4601 2.84807 32.6247 4.07812 32.6247H11.3905C12.6206 32.6247 13.6592 33.4601 13.9685 34.5934H1.50011Z" transform="translate(19 15)" fill="white"/>
<path d="M17.9998 0H0.703125C0.31486 0 -7.72475e-08 0.314788 -7.72475e-08 0.703124V3.51562C-7.72475e-08 3.90395 0.31486 4.21874 0.703125 4.21874H3.61131V5.62499C3.61131 5.85765 3.4221 6.04686 3.18944 6.04686C2.95678 6.04686 2.76757 5.85765 2.76757 5.62499C2.76757 5.23665 2.45271 4.92187 2.06444 4.92187C1.67618 4.92187 1.36132 5.23665 1.36132 5.62499C1.36132 6.63299 2.18137 7.45311 3.18944 7.45311C4.19751 7.45311 5.01756 6.63299 5.01756 5.62499V4.21874H9.10637V5.62499C9.10637 5.85765 8.91716 6.04686 8.68449 6.04686C8.45183 6.04686 8.26262 5.85765 8.26262 5.62499C8.26262 5.23665 7.94776 4.92187 7.55949 4.92187C7.17123 4.92187 6.85637 5.23665 6.85637 5.62499C6.85637 6.63299 7.67642 7.45311 8.68449 7.45311C9.69256 7.45311 10.5126 6.63299 10.5126 5.62499V4.21874H14.6015V5.62499C14.6015 5.85765 14.4123 6.04686 14.1796 6.04686C13.9469 6.04686 13.7577 5.85765 13.7577 5.62499C13.7577 5.23665 13.4429 4.92187 13.0546 4.92187C12.6664 4.92187 12.3515 5.23665 12.3515 5.62499C12.3515 6.63299 13.1715 7.45311 14.1796 7.45311C15.1877 7.45311 16.0077 6.63299 16.0077 5.62499V4.21874H17.9999C18.3882 4.21874 18.703 3.90395 18.703 3.51562V0.703124C18.7029 0.314788 18.3881 0 17.9998 0ZM17.2968 2.81249H16.0065C15.994 2.43513 15.6849 2.13278 15.3045 2.13278C14.9242 2.13278 14.6151 2.43506 14.6026 2.81249H10.5113C10.4988 2.43513 10.1898 2.13278 9.80942 2.13278C9.42903 2.13278 9.11994 2.43506 9.10749 2.81249H5.0163C5.00385 2.43513 4.69476 2.13278 4.31437 2.13278C3.93398 2.13278 3.62488 2.43506 3.61244 2.81249H1.40618V1.40625H17.2966V2.81249H17.2968Z" transform="translate(36.297 15)" fill="white"/>
<path d="M14.7655 -2.48909e-07H7.73429C7.34603 -2.48909e-07 7.03117 0.314788 7.03117 0.703123C7.03117 1.09146 7.34603 1.40625 7.73429 1.40625H14.0623V5.06249H1.40625V1.40625H2.95312C3.34139 1.40625 3.65624 1.09146 3.65624 0.703123C3.65624 0.314788 3.34139 -2.48909e-07 2.95312 -2.48909e-07H0.703125C0.31486 -2.48909e-07 9.95634e-07 0.314788 9.95634e-07 0.703123V18.7074C9.95634e-07 19.0956 0.31486 19.4105 0.703125 19.4105C1.09139 19.4105 1.40625 19.0956 1.40625 18.7074V16.5936H14.0623V18.7074C14.0623 19.0956 14.3772 19.4105 14.7655 19.4105C15.1537 19.4105 15.4686 19.0956 15.4686 18.7074V0.703123C15.4686 0.314859 15.1537 -2.48909e-07 14.7655 -2.48909e-07ZM14.0623 15.1873H1.40625V11.5311H14.0623V15.1873ZM14.0623 10.1249H1.40625V6.46867H14.0623V10.1249Z" transform="translate(39.5314 31.5891)" fill="white"/>
<path d="M1.20016 0.206015C1.06945 0.0752339 0.888046 1.71661e-07 0.703124 1.71661e-07C0.517429 1.71661e-07 0.336796 0.0752339 0.206015 0.206015C0.0752342 0.336796 4.97817e-07 0.517499 4.97817e-07 0.703124C4.97817e-07 0.888045 0.0751639 1.06945 0.206015 1.20023C0.336867 1.33101 0.518203 1.40625 0.703124 1.40625C0.888046 1.40625 1.06945 1.33101 1.20016 1.20023C1.33094 1.06945 1.40625 0.888045 1.40625 0.703124C1.40625 0.518202 1.33101 0.336796 1.20016 0.206015Z" transform="translate(44.2422 31.5894)" fill="white"/>
<path d="M1.94526 -4.97817e-07H0.703124C0.314859 -4.97817e-07 -5.14983e-08 0.314858 -5.14983e-08 0.703123C-5.14983e-08 1.09139 0.314859 1.40625 0.703124 1.40625H1.94526C2.33353 1.40625 2.64839 1.09139 2.64839 0.703123C2.64839 0.314858 2.33353 -4.97817e-07 1.94526 -4.97817e-07Z" transform="translate(45.9415 44.2146)" fill="white"/>
<path d="M1.94526 -4.97817e-07H0.703124C0.314859 -4.97817e-07 -5.14983e-08 0.314858 -5.14983e-08 0.703123C-5.14983e-08 1.09139 0.314788 1.40625 0.703124 1.40625H1.94526C2.33353 1.40625 2.64839 1.09139 2.64839 0.703123C2.64839 0.314858 2.33353 -4.97817e-07 1.94526 -4.97817e-07Z" transform="translate(45.9415 39.1521)" fill="white"/>
<path d="M1.94526 0H0.703124C0.314859 0 -5.14983e-08 0.314859 -5.14983e-08 0.703124C-5.14983e-08 1.09139 0.314859 1.40625 0.703124 1.40625H1.94526C2.33353 1.40625 2.64839 1.09139 2.64839 0.703124C2.64839 0.314859 2.33353 0 1.94526 0Z" transform="translate(45.9415 34.0896)" fill="white"/>
<defs>
<filter id="filter0_d" x="0" y="0" width="74" height="74" filterUnits="userSpaceOnUse" color-interpolation-filters="sRGB">
<feFlood flood-opacity="0" result="BackgroundImageFix"/>
<feColorMatrix in="SourceAlpha" type="matrix" values="0 0 0 0 0 0 0 0 0 0 0 0 0 0 0 0 0 0 255 0"/>
<feOffset dy="4"/>
<feGaussianBlur stdDeviation="2"/>
<feColorMatrix type="matrix" values="0 0 0 0 0 0 0 0 0 0 0 0 0 0 0 0 0 0 0.25 0"/>
<feBlend mode="normal" in2="BackgroundImageFix" result="effect1_dropShadow"/>
<feBlend mode="normal" in="SourceGraphic" in2="effect1_dropShadow" result="shape"/>
</filter>
</defs>
</svg>
