<svg width="75" height="89" viewBox="0 0 75 89" fill="none" xmlns="http://www.w3.org/2000/svg">
<g filter="url(#filter0_d)">
<circle cx="33" cy="33" r="33" transform="translate(4.22223)" fill="#FFA630"/>
<circle cx="33" cy="33" r="31.5" transform="translate(4.22223)" stroke="#4C6085" stroke-width="3"/>
</g>
<path d="M23.2276 19V6.20312H27.7101C29.2628 6.20312 30.4405 6.50195 31.2433 7.09961C32.046 7.69141 32.4474 8.56152 32.4474 9.70996C32.4474 10.3369 32.2862 10.8906 31.964 11.3711C31.6417 11.8457 31.1935 12.1943 30.6192 12.417C31.2755 12.5811 31.7911 12.9121 32.1661 13.4102C32.547 13.9082 32.7374 14.5176 32.7374 15.2383C32.7374 16.4688 32.3448 17.4004 31.5597 18.0332C30.7745 18.666 29.6554 18.9883 28.2023 19H23.2276ZM25.8644 13.4277V16.8818H28.1232C28.7442 16.8818 29.2276 16.7354 29.5733 16.4424C29.9249 16.1436 30.1007 15.7334 30.1007 15.2119C30.1007 14.04 29.4942 13.4453 28.2814 13.4277H25.8644ZM25.8644 11.5645H27.8155C29.1456 11.541 29.8107 11.0107 29.8107 9.97363C29.8107 9.39355 29.6407 8.97754 29.3009 8.72559C28.9669 8.46777 28.4366 8.33887 27.7101 8.33887H25.8644V11.5645ZM37.2374 19H34.6886V9.49023H37.2374V19ZM34.5392 7.0293C34.5392 6.64844 34.6651 6.33496 34.9171 6.08887C35.1749 5.84277 35.5235 5.71973 35.963 5.71973C36.3966 5.71973 36.7423 5.84277 37.0001 6.08887C37.2579 6.33496 37.3868 6.64844 37.3868 7.0293C37.3868 7.41602 37.255 7.73242 36.9913 7.97852C36.7335 8.22461 36.3907 8.34766 35.963 8.34766C35.5353 8.34766 35.1896 8.22461 34.9259 7.97852C34.6681 7.73242 34.5392 7.41602 34.5392 7.0293ZM42.7921 15.1855L41.878 16.0996V19H39.338V5.5H41.878V12.9795L42.3702 12.3467L44.8048 9.49023H47.8546L44.4181 13.4541L48.1534 19H45.2355L42.7921 15.1855ZM53.1544 19.1758C51.7599 19.1758 50.6232 18.748 49.7442 17.8926C48.8712 17.0371 48.4347 15.8975 48.4347 14.4736V14.2275C48.4347 13.2725 48.6192 12.4199 48.9884 11.6699C49.3575 10.9141 49.879 10.334 50.5528 9.92969C51.2325 9.51953 52.006 9.31445 52.8732 9.31445C54.1739 9.31445 55.1964 9.72461 55.9405 10.5449C56.6905 11.3652 57.0655 12.5283 57.0655 14.0342V15.0713H51.0099C51.0919 15.6924 51.338 16.1904 51.7482 16.5654C52.1642 16.9404 52.6886 17.1279 53.3214 17.1279C54.2999 17.1279 55.0646 16.7734 55.6153 16.0645L56.8634 17.4619C56.4825 18.001 55.9669 18.4229 55.3165 18.7275C54.6661 19.0264 53.9454 19.1758 53.1544 19.1758ZM52.8644 11.3711C52.3605 11.3711 51.9503 11.541 51.6339 11.8809C51.3233 12.2207 51.1241 12.707 51.0362 13.3398H54.5694V13.1377C54.5577 12.5752 54.4054 12.1416 54.1124 11.8369C53.8194 11.5264 53.4034 11.3711 52.8644 11.3711ZM63.6661 16.3721C63.6661 16.0615 63.5108 15.8184 63.2003 15.6426C62.8956 15.4609 62.4034 15.2998 61.7237 15.1592C59.462 14.6846 58.3312 13.7236 58.3312 12.2764C58.3312 11.4326 58.6798 10.7295 59.3771 10.167C60.0802 9.59863 60.9972 9.31445 62.128 9.31445C63.3351 9.31445 64.2989 9.59863 65.0196 10.167C65.7462 10.7354 66.1095 11.4736 66.1095 12.3818H63.5694C63.5694 12.0186 63.4523 11.7197 63.2179 11.4854C62.9835 11.2451 62.6173 11.125 62.1192 11.125C61.6915 11.125 61.3605 11.2217 61.1261 11.415C60.8917 11.6084 60.7745 11.8545 60.7745 12.1533C60.7745 12.4346 60.9064 12.6631 61.17 12.8389C61.4396 13.0088 61.8907 13.1582 62.5235 13.2871C63.1564 13.4102 63.6896 13.5508 64.1232 13.709C65.465 14.2012 66.1358 15.0537 66.1358 16.2666C66.1358 17.1338 65.7638 17.8369 65.0196 18.376C64.2755 18.9092 63.3146 19.1758 62.1368 19.1758C61.34 19.1758 60.631 19.0352 60.0099 18.7539C59.3946 18.4668 58.9112 18.0771 58.5597 17.585C58.2081 17.0869 58.0323 16.5508 58.0323 15.9766H60.4405C60.464 16.4277 60.631 16.7734 60.9415 17.0137C61.2521 17.2539 61.6681 17.374 62.1896 17.374C62.6759 17.374 63.0421 17.2832 63.2882 17.1016C63.5401 16.9141 63.6661 16.6709 63.6661 16.3721Z" transform="translate(-8.55554 69)" fill="#4C6085"/>
<path d="M38.9382 6.01812C37.5 6.01812 36.1285 6.2789 34.8781 6.75011L31.8883 1.52923H36.0671C36.5204 1.52923 36.8892 1.86117 36.8892 2.26917C36.8892 2.67717 36.5204 3.00911 36.0671 3.00911H35.1755C34.7062 3.00911 34.3259 3.35145 34.3259 3.77372C34.3259 4.19599 34.7062 4.53834 35.1755 4.53834H36.0671C37.4573 4.53834 38.5884 3.52038 38.5884 2.26917C38.5884 1.01796 37.4574 -2.48898e-07 36.0671 -2.48898e-07H30.4948C30.1986 -2.48898e-07 29.9237 0.138956 29.7694 0.366606C29.6152 0.594257 29.6039 0.877878 29.7396 1.11491L31.2264 3.71123H18.965L17.728 1.52923H19.6842C20.1535 1.52923 20.5338 1.18688 20.5338 0.764613C20.5338 0.342343 20.1535 -2.48898e-07 19.6842 -2.48898e-07H14.1118C13.6425 -2.48898e-07 13.2622 0.342343 13.2622 0.764613C13.2622 1.18688 13.6425 1.52923 14.1118 1.52923H15.8205L17.4716 4.44169L15.5309 7.14771C14.0455 6.42744 12.3478 6.01812 10.5455 6.01812C4.73075 6.01812 0 10.2757 0 15.509C0 20.7423 4.73075 25 10.5455 25C16.0743 25 20.6227 21.1507 21.0568 16.2736H23.5496L22.5812 19.1096H22.0237C21.5544 19.1096 21.1741 19.452 21.1741 19.8742C21.1741 20.2965 21.5544 20.6388 22.0237 20.6388H25.0821C25.5515 20.6388 25.9317 20.2965 25.9317 19.8742C25.9317 19.452 25.5515 19.1096 25.0821 19.1096H24.3588L25.4767 15.8357L32.5458 6.01526L33.3692 7.45304C30.3836 9.13091 28.3926 12.1144 28.3926 15.509C28.3926 20.7423 33.1234 25 38.9383 25C44.7531 25 49.4838 20.7423 49.4838 15.509C49.4837 10.2757 44.753 6.01812 38.9382 6.01812ZM18.3644 6.01659L23.3121 14.7444H21.0567C20.8118 11.9933 19.2576 9.5697 16.9569 7.9792L18.3644 6.01659ZM19.3503 14.7444H12.1051L16.0314 9.26987C17.8675 10.5804 19.1148 12.5309 19.3503 14.7444ZM10.5455 23.4708C5.66754 23.4708 1.69914 19.8992 1.69914 15.509C1.69914 11.1189 5.66754 7.54724 10.5455 7.54724C12.0084 7.54724 13.3882 7.87042 14.605 8.43858L9.83168 15.0943C9.66301 15.3295 9.65067 15.6289 9.79951 15.8747C9.94824 16.1205 10.2345 16.2735 10.5455 16.2735H19.3503C18.9212 20.3063 15.1369 23.4708 10.5455 23.4708ZM24.787 13.9811L19.8319 5.24035H31.079L24.787 13.9811ZM38.9382 23.4708C34.0602 23.4708 30.0917 19.8991 30.0917 15.509C30.0917 12.7056 31.7113 10.2379 34.1513 8.81885L38.183 15.8593C38.3339 16.1226 38.6309 16.2737 38.9389 16.2737C39.0699 16.2737 39.2029 16.2463 39.3274 16.1886C39.7446 15.9952 39.9084 15.5341 39.6934 15.1586L35.6604 8.11612C36.6749 7.75053 37.7803 7.54714 38.9382 7.54714C43.8162 7.54714 47.7846 11.1188 47.7846 15.5089C47.7846 19.8992 43.8162 23.4708 38.9382 23.4708Z" transform="translate(12.4445 21)" fill="white"/>
<defs>
<filter id="filter0_d" x="0.222229" y="0" width="74" height="74" filterUnits="userSpaceOnUse" color-interpolation-filters="sRGB">
<feFlood flood-opacity="0" result="BackgroundImageFix"/>
<feColorMatrix in="SourceAlpha" type="matrix" values="0 0 0 0 0 0 0 0 0 0 0 0 0 0 0 0 0 0 255 0"/>
<feOffset dy="4"/>
<feGaussianBlur stdDeviation="2"/>
<feColorMatrix type="matrix" values="0 0 0 0 0 0 0 0 0 0 0 0 0 0 0 0 0 0 0.25 0"/>
<feBlend mode="normal" in2="BackgroundImageFix" result="effect1_dropShadow"/>
<feBlend mode="normal" in="SourceGraphic" in2="effect1_dropShadow" result="shape"/>
</filter>
</defs>
</svg>
