<svg width="89" height="88" viewBox="0 0 89 88" fill="none" xmlns="http://www.w3.org/2000/svg">
<g filter="url(#filter0_d)">
<circle cx="33" cy="33" r="33" transform="translate(10)" fill="#FFA630"/>
<circle cx="33" cy="33" r="31.5" transform="translate(10)" stroke="#4C6085" stroke-width="3"/>
</g>
<path d="M9.30664 13.4541H4.24414V16.8818H10.1855V19H1.60742V6.20312H10.168V8.33887H4.24414V11.3887H9.30664V13.4541ZM14.2461 19H11.6973V5.5H14.2461V19ZM20.7236 19.1758C19.3291 19.1758 18.1924 18.748 17.3135 17.8926C16.4404 17.0371 16.0039 15.8975 16.0039 14.4736V14.2275C16.0039 13.2725 16.1885 12.4199 16.5576 11.6699C16.9268 10.9141 17.4482 10.334 18.1221 9.92969C18.8018 9.51953 19.5752 9.31445 20.4424 9.31445C21.7432 9.31445 22.7656 9.72461 23.5098 10.5449C24.2598 11.3652 24.6348 12.5283 24.6348 14.0342V15.0713H18.5791C18.6611 15.6924 18.9072 16.1904 19.3174 16.5654C19.7334 16.9404 20.2578 17.1279 20.8906 17.1279C21.8691 17.1279 22.6338 16.7734 23.1846 16.0645L24.4326 17.4619C24.0518 18.001 23.5361 18.4229 22.8857 18.7275C22.2354 19.0264 21.5146 19.1758 20.7236 19.1758ZM20.4336 11.3711C19.9297 11.3711 19.5195 11.541 19.2031 11.8809C18.8926 12.2207 18.6934 12.707 18.6055 13.3398H22.1387V13.1377C22.127 12.5752 21.9746 12.1416 21.6816 11.8369C21.3887 11.5264 20.9727 11.3711 20.4336 11.3711ZM30.04 17.1279C30.5088 17.1279 30.8896 16.999 31.1826 16.7412C31.4756 16.4834 31.6279 16.1406 31.6396 15.7129H34.0215C34.0156 16.3574 33.8398 16.9492 33.4941 17.4883C33.1484 18.0215 32.6738 18.4375 32.0703 18.7363C31.4727 19.0293 30.8105 19.1758 30.084 19.1758C28.7246 19.1758 27.6523 18.7451 26.8672 17.8838C26.082 17.0166 25.6895 15.8213 25.6895 14.2979V14.1309C25.6895 12.666 26.0791 11.4971 26.8584 10.624C27.6377 9.75098 28.707 9.31445 30.0664 9.31445C31.2559 9.31445 32.208 9.6543 32.9229 10.334C33.6436 11.0078 34.0098 11.9072 34.0215 13.0322H31.6396C31.6279 12.54 31.4756 12.1416 31.1826 11.8369C30.8896 11.5264 30.5029 11.3711 30.0225 11.3711C29.4307 11.3711 28.9824 11.5879 28.6777 12.0215C28.3789 12.4492 28.2295 13.1465 28.2295 14.1133V14.377C28.2295 15.3555 28.3789 16.0586 28.6777 16.4863C28.9766 16.9141 29.4307 17.1279 30.04 17.1279ZM38.5127 7.15234V9.49023H40.1387V11.3535H38.5127V16.0996C38.5127 16.4512 38.5801 16.7031 38.7148 16.8555C38.8496 17.0078 39.1074 17.084 39.4883 17.084C39.7695 17.084 40.0186 17.0635 40.2354 17.0225V18.9473C39.7373 19.0996 39.2246 19.1758 38.6973 19.1758C36.916 19.1758 36.0078 18.2764 35.9727 16.4775V11.3535H34.584V9.49023H35.9727V7.15234H38.5127ZM46.8975 11.8721C46.5518 11.8252 46.2471 11.8018 45.9834 11.8018C45.0225 11.8018 44.3926 12.127 44.0938 12.7773V19H41.5537V9.49023H43.9531L44.0234 10.624C44.5332 9.75098 45.2393 9.31445 46.1416 9.31445C46.4229 9.31445 46.6865 9.35254 46.9326 9.42871L46.8975 11.8721ZM47.416 14.1572C47.416 13.2139 47.5977 12.373 47.9609 11.6348C48.3242 10.8965 48.8457 10.3252 49.5254 9.9209C50.2109 9.5166 51.0049 9.31445 51.9072 9.31445C53.1904 9.31445 54.2363 9.70703 55.0449 10.4922C55.8594 11.2773 56.3135 12.3438 56.4072 13.6914L56.4248 14.3418C56.4248 15.8008 56.0176 16.9727 55.2031 17.8574C54.3887 18.7363 53.2959 19.1758 51.9248 19.1758C50.5537 19.1758 49.458 18.7363 48.6377 17.8574C47.8232 16.9785 47.416 15.7832 47.416 14.2715V14.1572ZM49.9561 14.3418C49.9561 15.2441 50.126 15.9355 50.4658 16.416C50.8057 16.8906 51.292 17.1279 51.9248 17.1279C52.54 17.1279 53.0205 16.8936 53.3662 16.4248C53.7119 15.9502 53.8848 15.1943 53.8848 14.1572C53.8848 13.2725 53.7119 12.5869 53.3662 12.1006C53.0205 11.6143 52.5342 11.3711 51.9072 11.3711C51.2861 11.3711 50.8057 11.6143 50.4658 12.1006C50.126 12.5811 49.9561 13.3281 49.9561 14.3418ZM60.3271 9.49023L60.4062 10.5889C61.0859 9.73926 61.9971 9.31445 63.1396 9.31445C64.1475 9.31445 64.8975 9.61035 65.3896 10.2021C65.8818 10.7939 66.1338 11.6787 66.1455 12.8564V19H63.6055V12.918C63.6055 12.3789 63.4883 11.9893 63.2539 11.749C63.0195 11.5029 62.6299 11.3799 62.085 11.3799C61.3701 11.3799 60.834 11.6846 60.4766 12.2939V19H57.9365V9.49023H60.3271ZM70.7598 19H68.2109V9.49023H70.7598V19ZM68.0615 7.0293C68.0615 6.64844 68.1875 6.33496 68.4395 6.08887C68.6973 5.84277 69.0459 5.71973 69.4854 5.71973C69.9189 5.71973 70.2646 5.84277 70.5225 6.08887C70.7803 6.33496 70.9092 6.64844 70.9092 7.0293C70.9092 7.41602 70.7773 7.73242 70.5137 7.97852C70.2559 8.22461 69.9131 8.34766 69.4854 8.34766C69.0576 8.34766 68.7119 8.22461 68.4482 7.97852C68.1904 7.73242 68.0615 7.41602 68.0615 7.0293ZM76.8154 17.1279C77.2842 17.1279 77.665 16.999 77.958 16.7412C78.251 16.4834 78.4033 16.1406 78.415 15.7129H80.7969C80.791 16.3574 80.6152 16.9492 80.2695 17.4883C79.9238 18.0215 79.4492 18.4375 78.8457 18.7363C78.248 19.0293 77.5859 19.1758 76.8594 19.1758C75.5 19.1758 74.4277 18.7451 73.6426 17.8838C72.8574 17.0166 72.4648 15.8213 72.4648 14.2979V14.1309C72.4648 12.666 72.8545 11.4971 73.6338 10.624C74.4131 9.75098 75.4824 9.31445 76.8418 9.31445C78.0312 9.31445 78.9834 9.6543 79.6982 10.334C80.4189 11.0078 80.7852 11.9072 80.7969 13.0322H78.415C78.4033 12.54 78.251 12.1416 77.958 11.8369C77.665 11.5264 77.2783 11.3711 76.7979 11.3711C76.2061 11.3711 75.7578 11.5879 75.4531 12.0215C75.1543 12.4492 75.0049 13.1465 75.0049 14.1133V14.377C75.0049 15.3555 75.1543 16.0586 75.4531 16.4863C75.752 16.9141 76.2061 17.1279 76.8154 17.1279ZM87.3975 16.3721C87.3975 16.0615 87.2422 15.8184 86.9316 15.6426C86.627 15.4609 86.1348 15.2998 85.4551 15.1592C83.1934 14.6846 82.0625 13.7236 82.0625 12.2764C82.0625 11.4326 82.4111 10.7295 83.1084 10.167C83.8115 9.59863 84.7285 9.31445 85.8594 9.31445C87.0664 9.31445 88.0303 9.59863 88.751 10.167C89.4775 10.7354 89.8408 11.4736 89.8408 12.3818H87.3008C87.3008 12.0186 87.1836 11.7197 86.9492 11.4854C86.7148 11.2451 86.3486 11.125 85.8506 11.125C85.4229 11.125 85.0918 11.2217 84.8574 11.415C84.623 11.6084 84.5059 11.8545 84.5059 12.1533C84.5059 12.4346 84.6377 12.6631 84.9014 12.8389C85.1709 13.0088 85.6221 13.1582 86.2549 13.2871C86.8877 13.4102 87.4209 13.5508 87.8545 13.709C89.1963 14.2012 89.8672 15.0537 89.8672 16.2666C89.8672 17.1338 89.4951 17.8369 88.751 18.376C88.0068 18.9092 87.0459 19.1758 85.8682 19.1758C85.0713 19.1758 84.3623 19.0352 83.7412 18.7539C83.126 18.4668 82.6426 18.0771 82.291 17.585C81.9395 17.0869 81.7637 16.5508 81.7637 15.9766H84.1719C84.1953 16.4277 84.3623 16.7734 84.6729 17.0137C84.9834 17.2539 85.3994 17.374 85.9209 17.374C86.4072 17.374 86.7734 17.2832 87.0195 17.1016C87.2715 16.9141 87.3975 16.6709 87.3975 16.3721Z" transform="translate(-1 68)" fill="#4C6085"/>
<path d="M13.1027 24.5926L12.8286 27.1813C12.8065 27.3902 12.874 27.5986 13.0146 27.7548C13.155 27.9109 13.3552 28 13.5653 28H21.3979C21.6079 28 21.8081 27.9108 21.9486 27.7548C22.0891 27.5986 22.1566 27.3902 22.1346 27.1813L21.8605 24.5926H31.6168C33.1353 24.5926 34.3706 23.3573 34.3706 21.8388V2.75381C34.3705 1.23532 33.1351 0 31.6167 0H2.75381C1.23532 0 -3.99386e-08 1.23532 -3.99386e-08 2.75381V21.8388C-3.99386e-08 23.3573 1.23532 24.5926 2.75381 24.5926H13.1027ZM20.5744 26.5185H14.3886L14.5924 24.5926H20.3705L20.5744 26.5185ZM2.75381 1.48155H31.6167C32.3182 1.48155 32.8889 2.05225 32.8889 2.75381V19.5555H1.48155V2.75381C1.48155 2.05225 2.05225 1.48155 2.75381 1.48155ZM1.48155 21.8388V21.0371H32.8888V21.8388C32.8888 22.5404 32.3181 23.1111 31.6166 23.1111H2.75381C2.05225 23.1111 1.48155 22.5404 1.48155 21.8388Z" transform="translate(25 16)" fill="white"/>
<path d="M28.9295 3.94015C29.0639 3.7189 29.0731 3.44363 28.9536 3.21398L27.4906 0.39913C27.363 0.153884 27.1097 8.68098e-07 26.8332 8.68098e-07H2.20387C1.92751 8.68098e-07 1.67407 0.153884 1.54656 0.39913L0.0834727 3.21398C-0.0358419 3.44363 -0.0267547 3.7189 0.107573 3.94015C0.241901 4.16139 0.482011 4.29641 0.740789 4.29641H28.2963C28.5551 4.29651 28.7952 4.16139 28.9295 3.94015ZM1.9607 2.81495L2.65367 1.48165H26.3833L27.0764 2.81495H1.9607Z" transform="translate(27.6667 45.0369)" fill="white"/>
<path d="M4.29641 -5.30505e-07H3.11117C1.39572 -5.30505e-07 8.68098e-07 1.39562 8.68098e-07 3.11116C8.68098e-07 3.52027 0.331672 3.85194 0.740778 3.85194H6.6667C7.0758 3.85194 7.40748 3.52027 7.40748 3.11116C7.40757 1.39572 6.01195 -5.30505e-07 4.29641 -5.30505e-07ZM1.65993 2.37039C1.93007 1.84325 2.47923 1.48155 3.11117 1.48155H4.29641C4.92834 1.48155 5.47751 1.84325 5.74774 2.37039H1.65993Z" transform="translate(53.5925 50.6666)" fill="white"/>
<defs>
<filter id="filter0_d" x="6" y="0" width="74" height="74" filterUnits="userSpaceOnUse" color-interpolation-filters="sRGB">
<feFlood flood-opacity="0" result="BackgroundImageFix"/>
<feColorMatrix in="SourceAlpha" type="matrix" values="0 0 0 0 0 0 0 0 0 0 0 0 0 0 0 0 0 0 255 0"/>
<feOffset dy="4"/>
<feGaussianBlur stdDeviation="2"/>
<feColorMatrix type="matrix" values="0 0 0 0 0 0 0 0 0 0 0 0 0 0 0 0 0 0 0.25 0"/>
<feBlend mode="normal" in2="BackgroundImageFix" result="effect1_dropShadow"/>
<feBlend mode="normal" in="SourceGraphic" in2="effect1_dropShadow" result="shape"/>
</filter>
</defs>
</svg>
