<svg width="74" height="88" viewBox="0 0 74 88" fill="none" xmlns="http://www.w3.org/2000/svg">
<g filter="url(#filter0_d)">
<circle cx="33" cy="33" r="33" transform="translate(4)" fill="#FFA630"/>
<circle cx="33" cy="33" r="31.5" transform="translate(4)" stroke="#4C6085" stroke-width="3"/>
</g>
<path d="M9.10352 13.7705H4.04102V19H1.4043V6.20312H9.73633V8.33887H4.04102V11.6436H9.10352V13.7705ZM16.6006 18.0332C15.9736 18.7949 15.1064 19.1758 13.999 19.1758C12.9795 19.1758 12.2002 18.8828 11.6611 18.2969C11.1279 17.7109 10.8555 16.8525 10.8438 15.7217V9.49023H13.3838V15.6338C13.3838 16.624 13.835 17.1191 14.7373 17.1191C15.5986 17.1191 16.1904 16.8203 16.5127 16.2227V9.49023H19.0615V19H16.6709L16.6006 18.0332ZM26.3213 11.8721C25.9756 11.8252 25.6709 11.8018 25.4072 11.8018C24.4463 11.8018 23.8164 12.127 23.5176 12.7773V19H20.9775V9.49023H23.377L23.4473 10.624C23.957 9.75098 24.6631 9.31445 25.5654 9.31445C25.8467 9.31445 26.1104 9.35254 26.3564 9.42871L26.3213 11.8721ZM29.8896 9.49023L29.9688 10.5889C30.6484 9.73926 31.5596 9.31445 32.7021 9.31445C33.71 9.31445 34.46 9.61035 34.9521 10.2021C35.4443 10.7939 35.6963 11.6787 35.708 12.8564V19H33.168V12.918C33.168 12.3789 33.0508 11.9893 32.8164 11.749C32.582 11.5029 32.1924 11.3799 31.6475 11.3799C30.9326 11.3799 30.3965 11.6846 30.0391 12.2939V19H27.499V9.49023H29.8896ZM40.3223 19H37.7734V9.49023H40.3223V19ZM37.624 7.0293C37.624 6.64844 37.75 6.33496 38.002 6.08887C38.2598 5.84277 38.6084 5.71973 39.0479 5.71973C39.4814 5.71973 39.8271 5.84277 40.085 6.08887C40.3428 6.33496 40.4717 6.64844 40.4717 7.0293C40.4717 7.41602 40.3398 7.73242 40.0762 7.97852C39.8184 8.22461 39.4756 8.34766 39.0479 8.34766C38.6201 8.34766 38.2744 8.22461 38.0107 7.97852C37.7529 7.73242 37.624 7.41602 37.624 7.0293ZM45.4639 7.15234V9.49023H47.0898V11.3535H45.4639V16.0996C45.4639 16.4512 45.5312 16.7031 45.666 16.8555C45.8008 17.0078 46.0586 17.084 46.4395 17.084C46.7207 17.084 46.9697 17.0635 47.1865 17.0225V18.9473C46.6885 19.0996 46.1758 19.1758 45.6484 19.1758C43.8672 19.1758 42.959 18.2764 42.9238 16.4775V11.3535H41.5352V9.49023H42.9238V7.15234H45.4639ZM54.2002 18.0332C53.5732 18.7949 52.7061 19.1758 51.5986 19.1758C50.5791 19.1758 49.7998 18.8828 49.2607 18.2969C48.7275 17.7109 48.4551 16.8525 48.4434 15.7217V9.49023H50.9834V15.6338C50.9834 16.624 51.4346 17.1191 52.3369 17.1191C53.1982 17.1191 53.79 16.8203 54.1123 16.2227V9.49023H56.6611V19H54.2705L54.2002 18.0332ZM63.9209 11.8721C63.5752 11.8252 63.2705 11.8018 63.0068 11.8018C62.0459 11.8018 61.416 12.127 61.1172 12.7773V19H58.5771V9.49023H60.9766L61.0469 10.624C61.5566 9.75098 62.2627 9.31445 63.165 9.31445C63.4463 9.31445 63.71 9.35254 63.9561 9.42871L63.9209 11.8721ZM69.3525 19.1758C67.958 19.1758 66.8213 18.748 65.9424 17.8926C65.0693 17.0371 64.6328 15.8975 64.6328 14.4736V14.2275C64.6328 13.2725 64.8174 12.4199 65.1865 11.6699C65.5557 10.9141 66.0771 10.334 66.751 9.92969C67.4307 9.51953 68.2041 9.31445 69.0713 9.31445C70.3721 9.31445 71.3945 9.72461 72.1387 10.5449C72.8887 11.3652 73.2637 12.5283 73.2637 14.0342V15.0713H67.208C67.29 15.6924 67.5361 16.1904 67.9463 16.5654C68.3623 16.9404 68.8867 17.1279 69.5195 17.1279C70.498 17.1279 71.2627 16.7734 71.8135 16.0645L73.0615 17.4619C72.6807 18.001 72.165 18.4229 71.5146 18.7275C70.8643 19.0264 70.1436 19.1758 69.3525 19.1758ZM69.0625 11.3711C68.5586 11.3711 68.1484 11.541 67.832 11.8809C67.5215 12.2207 67.3223 12.707 67.2344 13.3398H70.7676V13.1377C70.7559 12.5752 70.6035 12.1416 70.3105 11.8369C70.0176 11.5264 69.6016 11.3711 69.0625 11.3711Z" transform="translate(0 68)" fill="#4C6085"/>
<path d="M27.7811 35.5201L22.039 24.4151C21.99 24.3238 21.9186 24.244 21.8304 24.1821C21.9778 24.0889 22.1185 23.9984 22.2563 23.8971L22.8392 23.4689C25.4772 21.5339 26.7321 18.4207 26.1004 15.3783L24.5736 8.02448C23.4611 2.67023 17.8241 -0.843641 11.9829 0.176048C7.64224 0.933765 4.2474 4.04568 3.42077 8.02439L1.89258 15.3782C1.26085 18.4209 2.5164 21.5343 5.15526 23.4688L5.73883 23.897C5.87662 23.9983 6.02104 24.0888 6.16472 24.182C6.07648 24.2439 6.00519 24.3237 5.95619 24.4151L0.21851 35.5201C-0.0516302 36.0447 -0.0721697 36.6486 0.161773 37.1877C0.508175 37.9785 1.34678 38.4949 2.27647 38.4899C2.58603 38.4891 2.89264 38.4343 3.17982 38.3284C3.71366 38.1335 4.147 37.7604 4.39264 37.2843L6.9347 32.3619L11.7867 30.5302V34.5637C11.7867 35.6828 12.7764 36.59 13.9972 36.59C15.218 36.59 16.2077 35.6828 16.2077 34.5637V30.5302L21.0597 32.3619L23.6018 37.2843C23.8608 37.7776 24.3178 38.1599 24.8772 38.3514C25.1445 38.4498 25.4299 38.5002 25.7179 38.5C26.9753 38.5026 27.997 37.5704 28 36.4178C28.0007 36.1073 27.9259 35.8007 27.7811 35.5201ZM3.06046 36.7054C2.96006 36.8899 2.78424 37.0305 2.5712 37.0965C2.15968 37.2472 1.69281 37.0637 1.52831 36.6865C1.44542 36.4963 1.45279 36.2832 1.54849 36.0983L7.28765 24.9919C7.31021 24.9386 7.32504 24.8827 7.33185 24.8258C7.72504 25.0103 8.13233 25.1683 8.55057 25.2986C8.66699 25.3337 8.78635 25.3587 8.90277 25.3918L8.28826 26.5818C8.23456 26.6342 8.19054 26.6941 8.15784 26.7595C8.14467 26.8005 8.13583 26.8425 8.13131 26.8851L3.06046 36.7054ZM11.7867 29.0687L7.87195 30.5465L9.23877 27.8995L11.7867 28.8613V29.0687V29.0687ZM9.87097 26.6764L10.2394 25.9564C10.2739 25.8848 10.2946 25.8083 10.3005 25.7302C10.7917 25.8278 11.2861 25.9055 11.7838 25.9632L11.7867 27.3998L9.87097 26.6764ZM14.734 34.5631C14.734 34.9361 14.4041 35.2385 13.9972 35.2385C13.5903 35.2385 13.2604 34.9361 13.2604 34.5631V29.9703L13.9972 29.6921L14.734 29.9703V34.5631ZM14.734 27.9563L13.9972 28.2339L13.2604 27.9556V26.078C13.5057 26.0874 13.7511 26.1043 13.9972 26.1043C14.2433 26.1043 14.4887 26.0874 14.734 26.078V27.9563ZM9.01772 24.0187C8.16226 23.7569 7.36409 23.3586 6.65987 22.8421L6.07483 22.4146C3.8624 20.7925 2.81012 18.1819 3.34045 15.6309L4.86864 8.27708C5.82946 3.65581 10.6955 0.623502 15.737 1.50431C19.4825 2.15861 22.412 4.84384 23.1258 8.27708L24.654 15.6309C25.1841 18.1819 24.1318 20.7924 21.9196 22.4146L21.336 22.8421C20.6318 23.3586 19.8336 23.7569 18.9782 24.0187C15.7441 24.9993 12.2517 24.9993 9.01772 24.0187ZM18.1242 26.6764L16.2077 27.3998V25.9632C16.7058 25.9051 17.2002 25.8274 17.6909 25.7302C17.6968 25.8083 17.7175 25.8848 17.7521 25.9564L18.1242 26.6764ZM16.2077 29.0687V28.8613L18.7556 27.8995L20.1225 30.5465L16.2077 29.0687ZM26.4695 36.6859C26.2929 37.0686 25.8112 37.2475 25.3937 37.0856C25.3839 37.0818 25.374 37.0778 25.3643 37.0735C25.1761 37.0049 25.0234 36.8734 24.9369 36.7054L19.8631 26.8864C19.8586 26.8439 19.8497 26.8019 19.8366 26.7608C19.8039 26.6953 19.7599 26.6351 19.7062 26.5825L19.0916 25.3931C19.2081 25.36 19.3274 25.335 19.4438 25.2999C19.8621 25.1697 20.2694 25.0116 20.6626 24.8271C20.6693 24.884 20.6842 24.9399 20.7068 24.9933L26.4496 36.0983C26.5447 36.2832 26.5518 36.4959 26.4695 36.6859Z" transform="translate(23 13)" fill="white"/>
<path d="M14.613 0.300705C14.3871 -0.00964291 13.9295 -0.0933931 13.591 0.113618C9.82531 2.42341 4.91159 2.42341 1.14593 0.113618C0.80736 -0.0933931 0.349789 -0.00964291 0.123951 0.300705C-0.101887 0.611052 -0.0105195 1.03048 0.328053 1.23749C2.4119 2.51417 4.86194 3.19582 7.36845 3.19616C9.87496 3.19582 12.325 2.51417 14.4089 1.23749C14.7474 1.03039 14.8388 0.611052 14.613 0.300705Z" transform="translate(29.6287 32.1002)" fill="white"/>
<defs>
<filter id="filter0_d" x="0" y="0" width="74" height="74" filterUnits="userSpaceOnUse" color-interpolation-filters="sRGB">
<feFlood flood-opacity="0" result="BackgroundImageFix"/>
<feColorMatrix in="SourceAlpha" type="matrix" values="0 0 0 0 0 0 0 0 0 0 0 0 0 0 0 0 0 0 255 0"/>
<feOffset dy="4"/>
<feGaussianBlur stdDeviation="2"/>
<feColorMatrix type="matrix" values="0 0 0 0 0 0 0 0 0 0 0 0 0 0 0 0 0 0 0.25 0"/>
<feBlend mode="normal" in2="BackgroundImageFix" result="effect1_dropShadow"/>
<feBlend mode="normal" in="SourceGraphic" in2="effect1_dropShadow" result="shape"/>
</filter>
</defs>
</svg>
