<svg width="74" height="88" viewBox="0 0 74 88" fill="none" xmlns="http://www.w3.org/2000/svg">
<g filter="url(#filter0_d)">
<circle cx="33" cy="33" r="33" transform="translate(4)" fill="#FFA630"/>
<circle cx="33" cy="33" r="31.5" transform="translate(4)" stroke="#4C6085" stroke-width="3"/>
</g>
<path d="M1.27734 19V6.20312H5.75977C7.3125 6.20312 8.49023 6.50195 9.29297 7.09961C10.0957 7.69141 10.4971 8.56152 10.4971 9.70996C10.4971 10.3369 10.3359 10.8906 10.0137 11.3711C9.69141 11.8457 9.24316 12.1943 8.66895 12.417C9.3252 12.5811 9.84082 12.9121 10.2158 13.4102C10.5967 13.9082 10.7871 14.5176 10.7871 15.2383C10.7871 16.4688 10.3945 17.4004 9.60938 18.0332C8.82422 18.666 7.70508 18.9883 6.25195 19H1.27734ZM3.91406 13.4277V16.8818H6.17285C6.79395 16.8818 7.27734 16.7354 7.62305 16.4424C7.97461 16.1436 8.15039 15.7334 8.15039 15.2119C8.15039 14.04 7.54395 13.4453 6.33105 13.4277H3.91406ZM3.91406 11.5645H5.86523C7.19531 11.541 7.86035 11.0107 7.86035 9.97363C7.86035 9.39355 7.69043 8.97754 7.35059 8.72559C7.0166 8.46777 6.48633 8.33887 5.75977 8.33887H3.91406V11.5645ZM12.2109 14.1572C12.2109 13.2139 12.3926 12.373 12.7559 11.6348C13.1191 10.8965 13.6406 10.3252 14.3203 9.9209C15.0059 9.5166 15.7998 9.31445 16.7021 9.31445C17.9854 9.31445 19.0312 9.70703 19.8398 10.4922C20.6543 11.2773 21.1084 12.3438 21.2021 13.6914L21.2197 14.3418C21.2197 15.8008 20.8125 16.9727 19.998 17.8574C19.1836 18.7363 18.0908 19.1758 16.7197 19.1758C15.3486 19.1758 14.2529 18.7363 13.4326 17.8574C12.6182 16.9785 12.2109 15.7832 12.2109 14.2715V14.1572ZM14.751 14.3418C14.751 15.2441 14.9209 15.9355 15.2607 16.416C15.6006 16.8906 16.0869 17.1279 16.7197 17.1279C17.335 17.1279 17.8154 16.8936 18.1611 16.4248C18.5068 15.9502 18.6797 15.1943 18.6797 14.1572C18.6797 13.2725 18.5068 12.5869 18.1611 12.1006C17.8154 11.6143 17.3291 11.3711 16.7021 11.3711C16.0811 11.3711 15.6006 11.6143 15.2607 12.1006C14.9209 12.5811 14.751 13.3281 14.751 14.3418ZM22.3887 14.1572C22.3887 13.2139 22.5703 12.373 22.9336 11.6348C23.2969 10.8965 23.8184 10.3252 24.498 9.9209C25.1836 9.5166 25.9775 9.31445 26.8799 9.31445C28.1631 9.31445 29.209 9.70703 30.0176 10.4922C30.832 11.2773 31.2861 12.3438 31.3799 13.6914L31.3975 14.3418C31.3975 15.8008 30.9902 16.9727 30.1758 17.8574C29.3613 18.7363 28.2686 19.1758 26.8975 19.1758C25.5264 19.1758 24.4307 18.7363 23.6104 17.8574C22.7959 16.9785 22.3887 15.7832 22.3887 14.2715V14.1572ZM24.9287 14.3418C24.9287 15.2441 25.0986 15.9355 25.4385 16.416C25.7783 16.8906 26.2646 17.1279 26.8975 17.1279C27.5127 17.1279 27.9932 16.8936 28.3389 16.4248C28.6846 15.9502 28.8574 15.1943 28.8574 14.1572C28.8574 13.2725 28.6846 12.5869 28.3389 12.1006C27.9932 11.6143 27.5068 11.3711 26.8799 11.3711C26.2588 11.3711 25.7783 11.6143 25.4385 12.1006C25.0986 12.5811 24.9287 13.3281 24.9287 14.3418ZM36.416 15.1855L35.502 16.0996V19H32.9619V5.5H35.502V12.9795L35.9941 12.3467L38.4287 9.49023H41.4785L38.042 13.4541L41.7773 19H38.8594L36.416 15.1855ZM47.7275 16.3721C47.7275 16.0615 47.5723 15.8184 47.2617 15.6426C46.957 15.4609 46.4648 15.2998 45.7852 15.1592C43.5234 14.6846 42.3926 13.7236 42.3926 12.2764C42.3926 11.4326 42.7412 10.7295 43.4385 10.167C44.1416 9.59863 45.0586 9.31445 46.1895 9.31445C47.3965 9.31445 48.3604 9.59863 49.0811 10.167C49.8076 10.7354 50.1709 11.4736 50.1709 12.3818H47.6309C47.6309 12.0186 47.5137 11.7197 47.2793 11.4854C47.0449 11.2451 46.6787 11.125 46.1807 11.125C45.7529 11.125 45.4219 11.2217 45.1875 11.415C44.9531 11.6084 44.8359 11.8545 44.8359 12.1533C44.8359 12.4346 44.9678 12.6631 45.2314 12.8389C45.501 13.0088 45.9521 13.1582 46.585 13.2871C47.2178 13.4102 47.751 13.5508 48.1846 13.709C49.5264 14.2012 50.1973 15.0537 50.1973 16.2666C50.1973 17.1338 49.8252 17.8369 49.0811 18.376C48.3369 18.9092 47.376 19.1758 46.1982 19.1758C45.4014 19.1758 44.6924 19.0352 44.0713 18.7539C43.4561 18.4668 42.9727 18.0771 42.6211 17.585C42.2695 17.0869 42.0938 16.5508 42.0938 15.9766H44.502C44.5254 16.4277 44.6924 16.7734 45.0029 17.0137C45.3135 17.2539 45.7295 17.374 46.251 17.374C46.7373 17.374 47.1035 17.2832 47.3496 17.1016C47.6016 16.9141 47.7275 16.6709 47.7275 16.3721Z" transform="translate(12 68)" fill="#4C6085"/>
<defs>
<filter id="filter0_d" x="0" y="0" width="74" height="74" filterUnits="userSpaceOnUse" color-interpolation-filters="sRGB">
<feFlood flood-opacity="0" result="BackgroundImageFix"/>
<feColorMatrix in="SourceAlpha" type="matrix" values="0 0 0 0 0 0 0 0 0 0 0 0 0 0 0 0 0 0 255 0"/>
<feOffset dy="4"/>
<feGaussianBlur stdDeviation="2"/>
<feColorMatrix type="matrix" values="0 0 0 0 0 0 0 0 0 0 0 0 0 0 0 0 0 0 0.25 0"/>
<feBlend mode="normal" in2="BackgroundImageFix" result="effect1_dropShadow"/>
<feBlend mode="normal" in="SourceGraphic" in2="effect1_dropShadow" result="shape"/>
</filter>
</defs>
</svg>
