<svg width="83" height="94" viewBox="0 0 83 94" fill="none" xmlns="http://www.w3.org/2000/svg">
<g filter="url(#filter0_d)">
<circle cx="37.5" cy="37.5" r="36" transform="translate(4)" fill="#F3F1F1" stroke="#FFA630" stroke-width="3"/>
</g>
<path d="M5.6323 11.2646C2.5661 11.2646 1.00078e-06 8.78869 1.00078e-06 5.6323C1.00078e-06 2.5661 2.47592 0 5.6323 0C8.6985 0 11.2646 2.47592 11.2646 5.6323C11.2646 8.78869 8.6985 11.2646 5.6323 11.2646ZM5.6323 1.80365C3.50072 1.80365 1.70527 3.5909 1.70527 5.73068C1.70527 7.87046 3.49252 9.65772 5.6323 9.65772C7.77208 9.65772 9.55933 7.87046 9.55933 5.73068C9.55933 3.5909 7.84587 1.80365 5.6323 1.80365Z" transform="translate(46.751 25.7151)" fill="black"/>
<path d="M13.7323 18.3316H3.32855V12.8715H-1.00078e-06V5.36995C-1.00078e-06 2.38573 1.87743 -5.00391e-07 4.18118 -5.00391e-07H12.9699C15.2736 -5.00391e-07 17.1511 2.38573 17.1511 5.36995V12.8715H13.8225V18.3316H13.7323V18.3316ZM4.95184 16.6264H12.0271V11.1662H15.3556V5.27977C15.3556 3.32035 14.2488 1.61509 12.8797 1.61509H4.18118C2.82025 1.61509 1.70527 3.32035 1.70527 5.27977V11.1662H5.03382V16.6264H4.95184V16.6264Z" transform="translate(43.8491 37.7585)" fill="black"/>
<path d="M5.6323 11.1744C2.5661 11.1744 1.25098e-07 8.6985 1.25098e-07 5.6323C1.25098e-07 2.47592 2.5579 5.00391e-07 5.6323 5.00391e-07C8.7067 5.00391e-07 11.2646 2.47592 11.2646 5.6323C11.1744 8.7067 8.6985 11.1744 5.6323 11.1744V11.1744ZM5.6323 1.71347C3.41873 1.71347 1.70527 3.41873 1.70527 5.6405C1.70527 7.86227 3.49252 9.56753 5.6323 9.56753C7.77208 9.56753 9.55934 7.78028 9.55934 5.6405C9.55934 3.50072 7.76389 1.71347 5.6323 1.71347Z" transform="translate(23.894 25.8053)" fill="black"/>
<path d="M13.7241 18.3316H3.32035V12.8715H3.12744e-08V5.36995C3.12744e-08 2.38573 1.87743 -5.00391e-07 4.18118 -5.00391e-07H12.9617C15.2654 -5.00391e-07 17.1429 2.38573 17.1429 5.36995V12.8715H13.8143V18.3316H13.7241ZM4.94364 16.6264H12.0189V11.1662H15.3474V5.27977C15.3474 3.32035 14.2406 1.61509 12.8715 1.61509H4.091C2.73007 1.61509 1.61509 3.32035 1.61509 5.27977V11.1662H4.94364V16.6264Z" transform="translate(21 37.7585)" fill="black"/>
<path d="M1.45112 11.2646V9.13302H0.852633C0.426316 9.13302 0 8.78869 0 8.28039V0.852634C0 0.426317 0.344332 0 0.852633 0H13.2158C13.6421 0 14.0685 0.344333 14.0685 0.852634V8.35417C14.0685 8.78049 13.7241 9.20681 13.2158 9.20681H5.54212L2.81205 11.9369C2.33654 12.3386 1.45112 12.1008 1.45112 11.2646V11.2646ZM1.70527 7.50974H2.30375C2.73007 7.50974 3.15638 7.85407 3.15638 8.36237V9.29699L4.68949 7.76389C4.86165 7.59172 5.03382 7.50974 5.28797 7.50974H12.4534V1.70527H1.70527V7.50974V7.50974Z" transform="translate(34.7241 16)" fill="black"/>
<path d="M37.5342 16.8418C37.4111 17.8945 37.0215 18.708 36.3652 19.2822C35.7135 19.8519 34.8454 20.1367 33.7607 20.1367C32.585 20.1367 31.6416 19.7152 30.9307 18.8721C30.2243 18.029 29.8711 16.901 29.8711 15.4883V14.5312C29.8711 13.6061 30.0352 12.7926 30.3633 12.0908C30.696 11.389 31.1654 10.8512 31.7715 10.4775C32.3776 10.0993 33.0794 9.91016 33.877 9.91016C34.9342 9.91016 35.7819 10.2064 36.4199 10.7988C37.0579 11.3867 37.4294 12.2025 37.5342 13.2461H36.2148C36.1009 12.4531 35.8525 11.8789 35.4697 11.5234C35.0915 11.168 34.5605 10.9902 33.877 10.9902C33.0384 10.9902 32.3799 11.3001 31.9014 11.9199C31.4274 12.5397 31.1904 13.4215 31.1904 14.5654V15.5293C31.1904 16.6094 31.416 17.4684 31.8672 18.1064C32.3184 18.7445 32.9495 19.0635 33.7607 19.0635C34.4899 19.0635 35.0482 18.8994 35.4355 18.5713C35.8275 18.2386 36.0872 17.6621 36.2148 16.8418H37.5342ZM38.7988 16.2334C38.7988 15.5088 38.9401 14.8571 39.2227 14.2783C39.5098 13.6995 39.9062 13.2529 40.4121 12.9385C40.9225 12.624 41.5036 12.4668 42.1553 12.4668C43.1624 12.4668 43.9759 12.8154 44.5957 13.5127C45.2201 14.21 45.5322 15.1374 45.5322 16.2949V16.3838C45.5322 17.1038 45.3932 17.751 45.1152 18.3252C44.8418 18.8949 44.4476 19.3392 43.9326 19.6582C43.4222 19.9772 42.8343 20.1367 42.1689 20.1367C41.1663 20.1367 40.3529 19.7881 39.7285 19.0908C39.1087 18.3936 38.7988 17.4707 38.7988 16.3223V16.2334ZM40.0703 16.3838C40.0703 17.2041 40.2594 17.8626 40.6377 18.3594C41.0205 18.8561 41.5309 19.1045 42.1689 19.1045C42.8115 19.1045 43.3219 18.8538 43.7002 18.3525C44.0785 17.8467 44.2676 17.1403 44.2676 16.2334C44.2676 15.4222 44.0739 14.766 43.6865 14.2646C43.3037 13.7588 42.7933 13.5059 42.1553 13.5059C41.5309 13.5059 41.0273 13.7542 40.6445 14.251C40.2617 14.7477 40.0703 15.4587 40.0703 16.3838ZM48.3145 12.6035L48.3555 13.5332C48.9206 12.8223 49.6589 12.4668 50.5703 12.4668C52.1335 12.4668 52.9219 13.3486 52.9355 15.1123V20H51.6709V15.1055C51.6663 14.5723 51.5433 14.1781 51.3018 13.9229C51.0648 13.6676 50.6934 13.54 50.1875 13.54C49.7773 13.54 49.4173 13.6494 49.1074 13.8682C48.7975 14.0869 48.556 14.374 48.3828 14.7295V20H47.1182V12.6035H48.3145ZM56.0391 12.6035L56.0801 13.5332C56.6452 12.8223 57.3835 12.4668 58.2949 12.4668C59.8581 12.4668 60.6465 13.3486 60.6602 15.1123V20H59.3955V15.1055C59.391 14.5723 59.2679 14.1781 59.0264 13.9229C58.7894 13.6676 58.418 13.54 57.9121 13.54C57.502 13.54 57.1419 13.6494 56.832 13.8682C56.5221 14.0869 56.2806 14.374 56.1074 14.7295V20H54.8428V12.6035H56.0391ZM65.6367 20.1367C64.6341 20.1367 63.8184 19.8086 63.1895 19.1523C62.5605 18.4915 62.2461 17.6097 62.2461 16.5068V16.2744C62.2461 15.5407 62.3851 14.8867 62.6631 14.3125C62.9456 13.7337 63.3376 13.2826 63.8389 12.959C64.3447 12.6309 64.8916 12.4668 65.4795 12.4668C66.4411 12.4668 67.1885 12.7835 67.7217 13.417C68.2549 14.0505 68.5215 14.9574 68.5215 16.1377V16.6641H63.5107C63.529 17.3932 63.7409 17.9834 64.1465 18.4346C64.5566 18.8812 65.0762 19.1045 65.7051 19.1045C66.1517 19.1045 66.5299 19.0133 66.8398 18.8311C67.1497 18.6488 67.4209 18.4072 67.6533 18.1064L68.4258 18.708C67.806 19.6605 66.8763 20.1367 65.6367 20.1367ZM65.4795 13.5059C64.9691 13.5059 64.5407 13.6927 64.1943 14.0664C63.848 14.4355 63.6338 14.9551 63.5518 15.625H67.2568V15.5293C67.2204 14.8867 67.0472 14.39 66.7373 14.0391C66.4274 13.6836 66.0081 13.5059 65.4795 13.5059ZM72.958 19.1045C73.4092 19.1045 73.8034 18.9678 74.1406 18.6943C74.4779 18.4209 74.6647 18.0791 74.7012 17.6689H75.8975C75.8747 18.0928 75.7288 18.4961 75.46 18.8789C75.1911 19.2617 74.8311 19.5671 74.3799 19.7949C73.9333 20.0228 73.4593 20.1367 72.958 20.1367C71.9508 20.1367 71.1488 19.8018 70.5518 19.1318C69.9593 18.4574 69.6631 17.5368 69.6631 16.3701V16.1582C69.6631 15.4382 69.7952 14.7979 70.0596 14.2373C70.3239 13.6768 70.7021 13.2415 71.1943 12.9316C71.6911 12.6217 72.2767 12.4668 72.9512 12.4668C73.7806 12.4668 74.4688 12.7152 75.0156 13.2119C75.5671 13.7087 75.861 14.3535 75.8975 15.1465H74.7012C74.6647 14.668 74.4824 14.276 74.1543 13.9707C73.8307 13.6608 73.4297 13.5059 72.9512 13.5059C72.3086 13.5059 71.8096 13.7383 71.4541 14.2031C71.1032 14.6634 70.9277 15.3311 70.9277 16.2061V16.4453C70.9277 17.2975 71.1032 17.9538 71.4541 18.4141C71.805 18.8743 72.3063 19.1045 72.958 19.1045ZM79.0352 10.8125V12.6035H80.416V13.5811H79.0352V18.168C79.0352 18.4642 79.0967 18.6875 79.2197 18.8379C79.3428 18.9837 79.5524 19.0566 79.8486 19.0566C79.9945 19.0566 80.195 19.0293 80.4502 18.9746V20C80.1175 20.0911 79.7939 20.1367 79.4795 20.1367C78.9144 20.1367 78.4883 19.9658 78.2012 19.624C77.9141 19.2822 77.7705 18.7969 77.7705 18.168V13.5811H76.4238V12.6035H77.7705V10.8125H79.0352Z" transform="translate(-13 73)" fill="#FFA630"/>
<defs>
<filter id="filter0_d" x="0" y="0" width="83" height="83" filterUnits="userSpaceOnUse" color-interpolation-filters="sRGB">
<feFlood flood-opacity="0" result="BackgroundImageFix"/>
<feColorMatrix in="SourceAlpha" type="matrix" values="0 0 0 0 0 0 0 0 0 0 0 0 0 0 0 0 0 0 255 0"/>
<feOffset dy="4"/>
<feGaussianBlur stdDeviation="2"/>
<feColorMatrix type="matrix" values="0 0 0 0 0 0 0 0 0 0 0 0 0 0 0 0 0 0 0.25 0"/>
<feBlend mode="normal" in2="BackgroundImageFix" result="effect1_dropShadow"/>
<feBlend mode="normal" in="SourceGraphic" in2="effect1_dropShadow" result="shape"/>
</filter>
</defs>
</svg>
