<svg width="122" height="55" viewBox="0 0 122 55" fill="none" xmlns="http://www.w3.org/2000/svg">
<rect x="1.5" y="1.5" width="119" height="52" rx="8.5" fill="#4C6085" stroke="#FFA630" stroke-width="3"/>
<path d="M4.50587 10.1153C2.05289 10.1153 8.0063e-07 7.89202 8.0063e-07 5.05766C8.0063e-07 2.30429 1.98075 0 4.50587 0C6.95885 0 9.01174 2.22331 9.01174 5.05766C9.01174 7.89202 6.95885 10.1153 4.50587 10.1153ZM4.50587 1.61963C2.80059 1.61963 1.36422 3.22454 1.36422 5.14601C1.36422 7.06748 2.79403 8.67238 4.50587 8.67238C6.21771 8.67238 7.64752 7.06748 7.64752 5.14601C7.64752 3.22454 6.27674 1.61963 4.50587 1.61963Z" transform="translate(28.6005 17.7239)" fill="white"/>
<path d="M10.9859 16.4613H2.66286V11.5583H-8.00631e-07V4.82208C-8.00631e-07 2.14233 1.50196 -4.49338e-07 3.34497 -4.49338e-07H10.376C12.219 -4.49338e-07 13.7209 2.14233 13.7209 4.82208V11.5583H11.0581V16.4613H10.9859V16.4613ZM3.9615 14.93H9.62171V10.027H12.2846V4.7411C12.2846 2.98159 11.3991 1.45031 10.3038 1.45031H3.34497C2.25621 1.45031 1.36422 2.98159 1.36422 4.7411V10.027H4.02708V14.93H3.9615V14.93Z" transform="translate(26.2791 28.5387)" fill="white"/>
<path d="M4.50587 10.0343C2.05289 10.0343 1.00079e-07 7.81104 1.00079e-07 5.05766C1.00079e-07 2.22331 2.04633 4.49338e-07 4.50587 4.49338e-07C6.96541 4.49338e-07 9.01174 2.22331 9.01174 5.05766C8.9396 7.8184 6.95885 10.0343 4.50587 10.0343V10.0343ZM4.50587 1.53865C2.735 1.53865 1.36422 3.06994 1.36422 5.06503C1.36422 7.06012 2.79403 8.5914 4.50587 8.5914C6.21771 8.5914 7.64752 6.9865 7.64752 5.06503C7.64752 3.14355 6.21115 1.53865 4.50587 1.53865Z" transform="translate(10.3152 17.8049)" fill="white"/>
<path d="M10.9794 16.4613H2.6563V11.5583H2.50197e-08V4.82208C2.50197e-08 2.14233 1.50196 -4.49338e-07 3.34497 -4.49338e-07H10.3694C12.2124 -4.49338e-07 13.7144 2.14233 13.7144 4.82208V11.5583H11.0515V16.4613H10.9794ZM3.95494 14.93H9.61515V10.027H12.278V4.7411C12.278 2.98159 11.3926 1.45031 10.2973 1.45031H3.27282C2.18407 1.45031 1.29208 2.98159 1.29208 4.7411V10.027H3.95494V14.93Z" transform="translate(8 28.5387)" fill="white"/>
<path d="M1.1609 10.1153V8.20122H0.682111C0.341055 8.20122 0 7.89202 0 7.43558V0.765643C0 0.382822 0.275468 0 0.682111 0H10.5727C10.9138 0 11.2548 0.309202 11.2548 0.765643V7.50183C11.2548 7.88466 10.9794 8.26748 10.5727 8.26748H4.43373L2.24966 10.719C1.86925 11.0797 1.1609 10.8662 1.1609 10.1153V10.1153ZM1.36422 6.74355H1.84301C2.18407 6.74355 2.52512 7.05275 2.52512 7.5092V8.34846L3.75161 6.97177C3.88935 6.81717 4.02708 6.74355 4.2304 6.74355H9.96276V1.53129H1.36422V6.74355V6.74355Z" transform="translate(18.979 9)" fill="white"/>
<path d="M17.0654 20.7373C16.9658 22.1143 16.4561 23.1982 15.5361 23.9893C14.6221 24.7803 13.415 25.1758 11.915 25.1758C10.2744 25.1758 8.98242 24.625 8.03906 23.5234C7.10156 22.416 6.63281 20.8984 6.63281 18.9707V18.1885C6.63281 16.958 6.84961 15.874 7.2832 14.9365C7.7168 13.999 8.33496 13.2812 9.1377 12.7832C9.94629 12.2793 10.8838 12.0273 11.9502 12.0273C13.4268 12.0273 14.6162 12.4229 15.5186 13.2139C16.4209 14.0049 16.9424 15.1152 17.083 16.5449H14.4463C14.3818 15.7188 14.1504 15.1211 13.752 14.752C13.3594 14.377 12.7588 14.1895 11.9502 14.1895C11.0713 14.1895 10.4121 14.5059 9.97266 15.1387C9.53906 15.7656 9.31641 16.7412 9.30469 18.0654V19.0322C9.30469 20.415 9.5127 21.4258 9.92871 22.0645C10.3506 22.7031 11.0127 23.0225 11.915 23.0225C12.7295 23.0225 13.3359 22.8379 13.7344 22.4688C14.1387 22.0938 14.3701 21.5166 14.4287 20.7373H17.0654ZM18.2344 20.1572C18.2344 19.2139 18.416 18.373 18.7793 17.6348C19.1426 16.8965 19.6641 16.3252 20.3438 15.9209C21.0293 15.5166 21.8232 15.3145 22.7256 15.3145C24.0088 15.3145 25.0547 15.707 25.8633 16.4922C26.6777 17.2773 27.1318 18.3438 27.2256 19.6914L27.2432 20.3418C27.2432 21.8008 26.8359 22.9727 26.0215 23.8574C25.207 24.7363 24.1143 25.1758 22.7432 25.1758C21.3721 25.1758 20.2764 24.7363 19.4561 23.8574C18.6416 22.9785 18.2344 21.7832 18.2344 20.2715V20.1572ZM20.7744 20.3418C20.7744 21.2441 20.9443 21.9355 21.2842 22.416C21.624 22.8906 22.1104 23.1279 22.7432 23.1279C23.3584 23.1279 23.8389 22.8936 24.1846 22.4248C24.5303 21.9502 24.7031 21.1943 24.7031 20.1572C24.7031 19.2725 24.5303 18.5869 24.1846 18.1006C23.8389 17.6143 23.3525 17.3711 22.7256 17.3711C22.1045 17.3711 21.624 17.6143 21.2842 18.1006C20.9443 18.5811 20.7744 19.3281 20.7744 20.3418ZM31.1455 15.4902L31.2246 16.5889C31.9043 15.7393 32.8154 15.3145 33.958 15.3145C34.9658 15.3145 35.7158 15.6104 36.208 16.2021C36.7002 16.7939 36.9521 17.6787 36.9639 18.8564V25H34.4238V18.918C34.4238 18.3789 34.3066 17.9893 34.0723 17.749C33.8379 17.5029 33.4482 17.3799 32.9033 17.3799C32.1885 17.3799 31.6523 17.6846 31.2949 18.2939V25H28.7549V15.4902H31.1455ZM41.9385 13.1523V15.4902H43.5645V17.3535H41.9385V22.0996C41.9385 22.4512 42.0059 22.7031 42.1406 22.8555C42.2754 23.0078 42.5332 23.084 42.9141 23.084C43.1953 23.084 43.4443 23.0635 43.6611 23.0225V24.9473C43.1631 25.0996 42.6504 25.1758 42.123 25.1758C40.3418 25.1758 39.4336 24.2764 39.3984 22.4775V17.3535H38.0098V15.4902H39.3984V13.1523H41.9385ZM50.4902 25C50.373 24.7715 50.2881 24.4873 50.2354 24.1475C49.6201 24.833 48.8203 25.1758 47.8359 25.1758C46.9043 25.1758 46.1309 24.9062 45.5156 24.3672C44.9062 23.8281 44.6016 23.1484 44.6016 22.3281C44.6016 21.3203 44.9736 20.5469 45.7178 20.0078C46.4678 19.4688 47.5488 19.1963 48.9609 19.1904H50.1299V18.6455C50.1299 18.2061 50.0156 17.8545 49.7871 17.5908C49.5645 17.3271 49.21 17.1953 48.7236 17.1953C48.2959 17.1953 47.959 17.2979 47.7129 17.5029C47.4727 17.708 47.3525 17.9893 47.3525 18.3467H44.8125C44.8125 17.7959 44.9824 17.2861 45.3223 16.8174C45.6621 16.3486 46.1426 15.9824 46.7637 15.7188C47.3848 15.4492 48.082 15.3145 48.8555 15.3145C50.0273 15.3145 50.9561 15.6104 51.6416 16.2021C52.333 16.7881 52.6787 17.6143 52.6787 18.6807V22.8027C52.6846 23.7051 52.8105 24.3877 53.0566 24.8506V25H50.4902ZM48.3896 23.2334C48.7646 23.2334 49.1104 23.1514 49.4268 22.9873C49.7432 22.8174 49.9775 22.5918 50.1299 22.3105V20.6758H49.1807C47.9092 20.6758 47.2324 21.1152 47.1504 21.9941L47.1416 22.1436C47.1416 22.46 47.2529 22.7207 47.4756 22.9258C47.6982 23.1309 48.0029 23.2334 48.3896 23.2334ZM58.585 23.1279C59.0537 23.1279 59.4346 22.999 59.7275 22.7412C60.0205 22.4834 60.1729 22.1406 60.1846 21.7129H62.5664C62.5605 22.3574 62.3848 22.9492 62.0391 23.4883C61.6934 24.0215 61.2188 24.4375 60.6152 24.7363C60.0176 25.0293 59.3555 25.1758 58.6289 25.1758C57.2695 25.1758 56.1973 24.7451 55.4121 23.8838C54.627 23.0166 54.2344 21.8213 54.2344 20.2979V20.1309C54.2344 18.666 54.624 17.4971 55.4033 16.624C56.1826 15.751 57.252 15.3145 58.6113 15.3145C59.8008 15.3145 60.7529 15.6543 61.4678 16.334C62.1885 17.0078 62.5547 17.9072 62.5664 19.0322H60.1846C60.1729 18.54 60.0205 18.1416 59.7275 17.8369C59.4346 17.5264 59.0479 17.3711 58.5674 17.3711C57.9756 17.3711 57.5273 17.5879 57.2227 18.0215C56.9238 18.4492 56.7744 19.1465 56.7744 20.1133V20.377C56.7744 21.3555 56.9238 22.0586 57.2227 22.4863C57.5215 22.9141 57.9756 23.1279 58.585 23.1279ZM67.0576 13.1523V15.4902H68.6836V17.3535H67.0576V22.0996C67.0576 22.4512 67.125 22.7031 67.2598 22.8555C67.3945 23.0078 67.6523 23.084 68.0332 23.084C68.3145 23.084 68.5635 23.0635 68.7803 23.0225V24.9473C68.2822 25.0996 67.7695 25.1758 67.2422 25.1758C65.4609 25.1758 64.5527 24.2764 64.5176 22.4775V17.3535H63.1289V15.4902H64.5176V13.1523H67.0576Z" transform="translate(41.9999 9)" fill="white"/>
</svg>
