<svg width="117" height="38" viewBox="0 0 117 38" fill="none" xmlns="http://www.w3.org/2000/svg">
<rect x="1.5" y="1.5" width="114" height="35" rx="8.5" fill="#F3F1F1" stroke="#FFA630" stroke-width="3"/>
<path d="M2.81614 5.90061C1.28304 5.90061 5.00388e-07 4.60368 5.00388e-07 2.95031C5.00388e-07 1.34417 1.23795 0 2.81614 0C4.34923 0 5.63228 1.29693 5.63228 2.95031C5.63228 4.60368 4.34923 5.90061 2.81614 5.90061ZM2.81614 0.944785C1.75035 0.944785 0.85263 1.88098 0.85263 3.00184C0.85263 4.1227 1.74625 5.05889 2.81614 5.05889C3.88602 5.05889 4.77965 4.1227 4.77965 3.00184C4.77965 1.88098 3.92292 0.944785 2.81614 0.944785Z" transform="translate(27.8754 12.089)" fill="black"/>
<path d="M6.86613 9.60245H1.66427V6.74233H-5.00389e-07V2.81288C-5.00389e-07 1.24969 0.938712 -2.62114e-07 2.09058 -2.62114e-07H6.48491C7.63678 -2.62114e-07 8.57549 1.24969 8.57549 2.81288V6.74233H6.91122V9.60245H6.86613V9.60245ZM2.47591 8.7092H6.0135V5.84908H7.67777V2.76564C7.67777 1.73926 7.12438 0.846012 6.43982 0.846012H2.09058C1.41012 0.846012 0.85263 1.73926 0.85263 2.76564V5.84908H2.5169V8.7092H2.47591V8.7092Z" transform="translate(26.4244 18.3975)" fill="black"/>
<path d="M2.81614 5.85337C1.28304 5.85337 6.25486e-08 4.55644 6.25486e-08 2.95031C6.25486e-08 1.29693 1.27894 2.62114e-07 2.81614 2.62114e-07C4.35333 2.62114e-07 5.63228 1.29693 5.63228 2.95031C5.58719 4.56074 4.34923 5.85337 2.81614 5.85337V5.85337ZM2.81614 0.897546C1.70936 0.897546 0.85263 1.7908 0.85263 2.9546C0.85263 4.1184 1.74625 5.01166 2.81614 5.01166C3.88602 5.01166 4.77965 4.07546 4.77965 2.9546C4.77965 1.83374 3.88193 0.897546 2.81614 0.897546Z" transform="translate(16.447 12.1362)" fill="black"/>
<path d="M6.86203 9.60245H1.66017V6.74233H1.56371e-08V2.81288C1.56371e-08 1.24969 0.938713 -2.62114e-07 2.09058 -2.62114e-07H6.48081C7.63268 -2.62114e-07 8.57139 1.24969 8.57139 2.81288V6.74233H6.90712V9.60245H6.86203ZM2.47181 8.7092H6.0094V5.84908H7.67367V2.76564C7.67367 1.73926 7.12028 0.846012 6.43572 0.846012H2.04549C1.36503 0.846012 0.807539 1.73926 0.807539 2.76564V5.84908H2.47181V8.7092Z" transform="translate(15 18.3975)" fill="black"/>
<path d="M0.725555 5.90061V4.78405H0.426315C0.213157 4.78405 0 4.60368 0 4.33742V0.446626C0 0.223313 0.172165 0 0.426315 0H6.60788C6.82104 0 7.0342 0.180368 7.0342 0.446626V4.37607C7.0342 4.59939 6.86203 4.8227 6.60788 4.8227H2.77105L1.40602 6.25276C1.16827 6.46319 0.725555 6.33865 0.725555 5.90061V5.90061ZM0.85263 3.93374H1.15187C1.36503 3.93374 1.57819 4.11411 1.57819 4.38037V4.86994L2.34473 4.06687C2.43082 3.97669 2.5169 3.93374 2.64397 3.93374H6.22666V0.893251H0.85263V3.93374V3.93374Z" transform="translate(21.8619 7)" fill="black"/>
<path d="M21.6064 20.6846C21.529 21.7555 21.1325 22.5986 20.417 23.2139C19.7061 23.8291 18.7673 24.1367 17.6006 24.1367C16.3245 24.1367 15.3197 23.7083 14.5859 22.8516C13.8568 21.9902 13.4922 20.8099 13.4922 19.3105V18.7021C13.4922 17.7451 13.6608 16.902 13.998 16.1729C14.3353 15.4437 14.8161 14.8854 15.4404 14.498C16.0693 14.1061 16.7985 13.9102 17.6279 13.9102C18.7764 13.9102 19.7015 14.2178 20.4033 14.833C21.1051 15.4482 21.5107 16.3118 21.6201 17.4238H19.5693C19.5192 16.7812 19.3392 16.3164 19.0293 16.0293C18.724 15.7376 18.2568 15.5918 17.6279 15.5918C16.9443 15.5918 16.4316 15.8379 16.0898 16.3301C15.7526 16.8177 15.5794 17.5765 15.5703 18.6064V19.3584C15.5703 20.4339 15.7321 21.2201 16.0557 21.7168C16.3838 22.2135 16.8988 22.4619 17.6006 22.4619C18.234 22.4619 18.7057 22.3184 19.0156 22.0312C19.3301 21.7396 19.5101 21.2907 19.5557 20.6846H21.6064ZM22.5156 20.2334C22.5156 19.4997 22.6569 18.8457 22.9395 18.2715C23.222 17.6973 23.6276 17.2529 24.1562 16.9385C24.6895 16.624 25.307 16.4668 26.0088 16.4668C27.0068 16.4668 27.8203 16.7721 28.4492 17.3828C29.0827 17.9935 29.4359 18.8229 29.5088 19.8711L29.5225 20.377C29.5225 21.5117 29.2057 22.4232 28.5723 23.1113C27.9388 23.7949 27.0889 24.1367 26.0225 24.1367C24.9561 24.1367 24.1038 23.7949 23.4658 23.1113C22.8324 22.4277 22.5156 21.498 22.5156 20.3223V20.2334ZM24.4912 20.377C24.4912 21.0788 24.6234 21.6165 24.8877 21.9902C25.152 22.3594 25.5303 22.5439 26.0225 22.5439C26.501 22.5439 26.8747 22.3617 27.1436 21.9971C27.4124 21.6279 27.5469 21.04 27.5469 20.2334C27.5469 19.5452 27.4124 19.012 27.1436 18.6338C26.8747 18.2555 26.4964 18.0664 26.0088 18.0664C25.5257 18.0664 25.152 18.2555 24.8877 18.6338C24.6234 19.0075 24.4912 19.5885 24.4912 20.377ZM32.5576 16.6035L32.6191 17.458C33.1478 16.7972 33.8564 16.4668 34.7451 16.4668C35.529 16.4668 36.1123 16.6969 36.4951 17.1572C36.8779 17.6175 37.0739 18.3057 37.083 19.2217V24H35.1074V19.2695C35.1074 18.8503 35.0163 18.5472 34.834 18.3604C34.6517 18.1689 34.3486 18.0732 33.9248 18.0732C33.3688 18.0732 32.9518 18.3102 32.6738 18.7842V24H30.6982V16.6035H32.5576ZM40.9521 14.7852V16.6035H42.2168V18.0527H40.9521V21.7441C40.9521 22.0176 41.0046 22.2135 41.1094 22.332C41.2142 22.4505 41.4147 22.5098 41.7109 22.5098C41.9297 22.5098 42.1234 22.4938 42.292 22.4619V23.959C41.9046 24.0775 41.5059 24.1367 41.0957 24.1367C39.7103 24.1367 39.0039 23.4372 38.9766 22.0381V18.0527H37.8965V16.6035H38.9766V14.7852H40.9521ZM47.6035 24C47.5124 23.8223 47.4463 23.6012 47.4053 23.3369C46.9268 23.8701 46.3047 24.1367 45.5391 24.1367C44.8145 24.1367 44.2129 23.9271 43.7344 23.5078C43.2604 23.0885 43.0234 22.5599 43.0234 21.9219C43.0234 21.138 43.3128 20.5365 43.8916 20.1172C44.4749 19.6979 45.3158 19.486 46.4141 19.4814H47.3232V19.0576C47.3232 18.7158 47.2344 18.4424 47.0566 18.2373C46.8835 18.0322 46.6077 17.9297 46.2295 17.9297C45.8968 17.9297 45.6348 18.0094 45.4434 18.1689C45.2565 18.3285 45.1631 18.5472 45.1631 18.8252H43.1875C43.1875 18.3968 43.3197 18.0003 43.584 17.6357C43.8483 17.2712 44.222 16.9863 44.7051 16.7812C45.1882 16.5716 45.7305 16.4668 46.332 16.4668C47.2435 16.4668 47.9658 16.6969 48.499 17.1572C49.0368 17.613 49.3057 18.2555 49.3057 19.085V22.291C49.3102 22.9928 49.4082 23.5238 49.5996 23.8838V24H47.6035ZM45.9697 22.626C46.2614 22.626 46.5303 22.5622 46.7764 22.4346C47.0225 22.3024 47.2048 22.127 47.3232 21.9082V20.6367H46.585C45.596 20.6367 45.0697 20.9785 45.0059 21.6621L44.999 21.7783C44.999 22.0244 45.0856 22.2272 45.2588 22.3867C45.432 22.5462 45.6689 22.626 45.9697 22.626ZM53.8994 22.5439C54.264 22.5439 54.5602 22.4437 54.7881 22.2432C55.016 22.0426 55.1344 21.776 55.1436 21.4434H56.9961C56.9915 21.9447 56.8548 22.4049 56.5859 22.8242C56.3171 23.2389 55.9479 23.5625 55.4785 23.7949C55.0137 24.0228 54.4987 24.1367 53.9336 24.1367C52.8763 24.1367 52.0423 23.8018 51.4316 23.1318C50.821 22.4574 50.5156 21.5277 50.5156 20.3428V20.2129C50.5156 19.0736 50.8187 18.1644 51.4248 17.4854C52.0309 16.8063 52.8626 16.4668 53.9199 16.4668C54.8451 16.4668 55.5856 16.7311 56.1416 17.2598C56.7021 17.7839 56.987 18.4834 56.9961 19.3584H55.1436C55.1344 18.9756 55.016 18.6657 54.7881 18.4287C54.5602 18.1872 54.2594 18.0664 53.8857 18.0664C53.4255 18.0664 53.0768 18.235 52.8398 18.5723C52.6074 18.9049 52.4912 19.4473 52.4912 20.1992V20.4043C52.4912 21.1654 52.6074 21.7122 52.8398 22.0449C53.0723 22.3776 53.4255 22.5439 53.8994 22.5439ZM60.4893 14.7852V16.6035H61.7539V18.0527H60.4893V21.7441C60.4893 22.0176 60.5417 22.2135 60.6465 22.332C60.7513 22.4505 60.9518 22.5098 61.248 22.5098C61.4668 22.5098 61.6605 22.4938 61.8291 22.4619V23.959C61.4417 24.0775 61.043 24.1367 60.6328 24.1367C59.2474 24.1367 58.541 23.4372 58.5137 22.0381V18.0527H57.4336V16.6035H58.5137V14.7852H60.4893Z" transform="translate(34)" fill="#FFA630"/>
</svg>
