<svg width="46" height="46" viewBox="0 0 46 46" fill="none" xmlns="http://www.w3.org/2000/svg">
<circle cx="23" cy="23" r="21.5" fill="white" stroke="#FFA630" stroke-width="3"/>
<path d="M16.3159 2.81499H12.6586C12.4762 1.23297 11.1302 0 9.49998 0C7.86984 0 6.52402 1.23292 6.34158 2.81499H2.68408C1.20399 2.81499 -5.9452e-08 4.01932 -5.9452e-08 5.49936V5.63709C-5.9452e-08 6.76812 0.704247 7.73619 1.69633 8.13064V20.8114C1.69633 22.2915 2.90046 23.4958 4.38045 23.4958H14.6196C16.0996 23.4958 17.3037 22.2914 17.3037 20.8114V8.13069C18.2957 7.73619 19 6.76812 19 5.63714V5.49941C19 4.01932 17.7959 2.81499 16.3159 2.81499ZM9.49998 1.27305C10.4271 1.27305 11.201 1.9376 11.3723 2.81499H7.62802C7.79922 1.93756 8.57316 1.27305 9.49998 1.27305ZM16.0306 20.8114C16.0306 21.5896 15.3975 22.2228 14.6195 22.2228H4.3804C3.60247 22.2228 2.96933 21.5895 2.96933 20.8114V8.32146H16.0306V20.8114ZM17.727 5.63709C17.727 6.41527 17.0938 7.04846 16.3159 7.04846H2.68408C1.90614 7.04846 1.273 6.41527 1.273 5.63709V5.49936C1.273 4.72118 1.90614 4.08799 2.68408 4.08799H16.3159C17.0939 4.08799 17.727 4.72118 17.727 5.49936V5.63709H17.727Z" transform="translate(13 10)" fill="black"/>
<path d="M0.636501 8.43986C0.988039 8.43986 1.273 8.1548 1.273 7.8034V0.636549C1.273 0.285107 0.987991 -4.16164e-08 0.636501 -4.16164e-08C0.28501 -4.16164e-08 -1.42389e-07 0.285107 -1.42389e-07 0.636549V7.8034C-4.88455e-05 8.15489 0.284962 8.43986 0.636501 8.43986Z" transform="translate(18.4509 22.1549)" fill="black"/>
<path d="M0.636501 8.43986C0.98804 8.43986 1.27305 8.1548 1.27305 7.8034V0.636549C1.27305 0.285107 0.987942 -4.16164e-08 0.636501 -4.16164e-08C0.285011 -4.16164e-08 2.08082e-07 0.285107 2.08082e-07 0.636549V7.8034C2.08082e-07 8.15489 0.284962 8.43986 0.636501 8.43986Z" transform="translate(21.8635 22.1549)" fill="black"/>
<path d="M0.636549 8.43986C0.988039 8.43986 1.273 8.1548 1.273 7.8034V0.636549C1.273 0.285107 0.987991 -4.16164e-08 0.636549 -4.16164e-08C0.284962 -4.16164e-08 -5.16939e-07 0.285107 -5.16939e-07 0.636549V7.8034C-4.922e-05 8.15489 0.285059 8.43986 0.636549 8.43986Z" transform="translate(25.2761 22.1549)" fill="black"/>
</svg>
