<svg width="220" height="220" viewBox="0 0 220 220" fill="none" xmlns="http://www.w3.org/2000/svg">
<path d="M0 0H36V5H0V0Z" transform="translate(84 136) rotate(-90)" fill="white"/>
<circle cx="100" cy="100" r="105" transform="translate(10 10)" fill="#4C6085" stroke="white" stroke-width="10"/>
<path d="M0 0H128V5H0V0Z" transform="translate(85 131)" fill="white"/>
<rect x="2.5" y="2.5" width="47" height="47" transform="translate(84 84)" fill="#4C6085" stroke="white" stroke-width="5"/>
<path d="M0 0H126V5H0V0Z" transform="translate(8 84)" fill="#FFA630"/>
<path d="M58.4539 5.845C58.1239 5.815 57.7639 5.71 57.3739 5.53C56.9839 5.32 56.6239 5.08 56.2939 4.81C55.9939 4.54 55.7539 4.255 55.5739 3.955C55.3939 3.625 55.3639 3.295 55.4839 2.965C55.5739 2.725 55.8889 2.65 56.4289 2.74C56.9989 2.8 57.6739 2.845 58.4539 2.875C59.3539 2.905 60.3739 2.89 61.5139 2.83C62.6539 2.77 63.8239 2.695 65.0239 2.605C66.2539 2.515 67.4689 2.41 68.6689 2.29C69.8989 2.14 71.0239 1.99 72.0439 1.84C72.2539 1.81 72.5239 1.825 72.8539 1.885C73.1839 1.945 73.4989 2.035 73.7989 2.155C74.0989 2.245 74.3539 2.365 74.5639 2.515C74.8039 2.665 74.9239 2.83 74.9239 3.01C74.9239 3.19 74.8489 3.415 74.6989 3.685C74.5489 3.955 74.3389 4.24 74.0689 4.54C73.7989 4.81 73.4689 5.065 73.0789 5.305C72.6889 5.545 72.2689 5.695 71.8189 5.755C71.0389 5.875 70.2889 5.98 69.5689 6.07C68.8789 6.13 68.1739 6.175 67.4539 6.205C66.7339 6.235 65.9839 6.265 65.2039 6.295C64.4239 6.295 63.5689 6.295 62.6389 6.295C62.6689 7.675 62.6989 9.025 62.7289 10.345C62.7589 11.665 62.7439 12.85 62.6839 13.9C63.5839 13.87 64.3939 13.84 65.1139 13.81C65.8639 13.75 66.5839 13.705 67.2739 13.675C67.9639 13.615 68.6539 13.555 69.3439 13.495C70.0639 13.435 70.8289 13.36 71.6389 13.27C71.8189 13.24 72.0589 13.21 72.3589 13.18C72.6589 13.12 72.9589 13.09 73.2589 13.09C73.5889 13.06 73.8889 13.075 74.1589 13.135C74.4289 13.195 74.5939 13.33 74.6539 13.54C74.7739 13.9 74.7289 14.32 74.5189 14.8C74.3089 15.28 74.0089 15.745 73.6189 16.195C73.2589 16.615 72.8539 16.975 72.4039 17.275C71.9539 17.575 71.5789 17.725 71.2789 17.725H62.6839C62.6839 18.715 62.6539 19.81 62.5939 21.01C62.5639 22.21 62.4889 23.29 62.3689 24.25C62.2489 25.3 62.0389 26.29 61.7389 27.22C61.4689 28.12 61.1689 28.915 60.8389 29.605C60.5089 30.295 60.1789 30.835 59.8489 31.225C59.5189 31.645 59.2339 31.855 58.9939 31.855C58.7839 31.855 58.5139 31.66 58.1839 31.27C57.8539 30.91 57.6889 30.52 57.6889 30.1C57.6889 30.07 57.7339 29.875 57.8239 29.515C57.9139 29.155 57.9739 28.87 58.0039 28.66C58.0939 27.94 58.1689 27.295 58.2289 26.725C58.2889 26.155 58.3339 25.585 58.3639 25.015C58.3939 24.445 58.4089 23.845 58.4089 23.215C58.4389 22.555 58.4539 21.79 58.4539 20.92V5.845ZM78.5671 7.375C78.1771 6.775 77.7571 6.085 77.3071 5.305C76.8871 4.525 76.6771 3.76 76.6771 3.01C76.6771 2.77 76.7071 2.545 76.7671 2.335C76.8571 2.125 77.1121 2.02 77.5321 2.02C77.9821 2.02 78.4021 2.095 78.7921 2.245C79.1821 2.395 79.5421 2.59 79.8721 2.83C80.4121 3.25 80.8771 3.67 81.2671 4.09C81.6871 4.48 82.0171 4.93 82.2571 5.44C82.5271 5.95 82.7221 6.52 82.8421 7.15C82.9621 7.78 83.0221 8.5 83.0221 9.31C83.0221 9.91 83.0071 10.54 82.9771 11.2C82.9771 11.83 82.9621 12.55 82.9321 13.36C82.9021 14.17 82.8721 15.085 82.8421 16.105C82.8421 17.125 82.8421 18.295 82.8421 19.615C82.8421 21.145 82.7971 22.69 82.7071 24.25C82.6171 25.81 82.4671 27.19 82.2571 28.39C84.3271 28.42 86.2921 28.465 88.1521 28.525C90.0121 28.585 91.9921 28.69 94.0921 28.84C95.0521 28.9 95.8471 29.005 96.4771 29.155C97.1371 29.305 97.4671 29.545 97.4671 29.875C97.4671 30.085 97.3771 30.325 97.1971 30.595C97.0471 30.835 96.8371 31.06 96.5671 31.27C96.2971 31.51 96.0121 31.705 95.7121 31.855C95.4121 32.005 95.1271 32.08 94.8571 32.08C92.3071 32.08 89.8021 32.08 87.3421 32.08C84.8821 32.08 82.2571 32.05 79.4671 31.99C79.2271 31.99 78.9871 31.885 78.7471 31.675C78.5071 31.495 78.2971 31.27 78.1171 31C77.9371 30.73 77.7871 30.445 77.6671 30.145C77.5471 29.815 77.4871 29.515 77.4871 29.245C77.4871 28.915 77.6371 28.705 77.9371 28.615C78.2671 28.495 78.6121 28.405 78.9721 28.345C78.9121 27.655 78.8521 26.845 78.7921 25.915C78.7321 24.985 78.7021 24.085 78.7021 23.215C78.7021 21.925 78.6721 19.99 78.6121 17.41C78.5821 14.83 78.5671 11.485 78.5671 7.375ZM105.626 15.295C107.126 15.175 108.581 15.07 109.991 14.98C111.431 14.89 112.871 14.83 114.311 14.8C115.151 14.77 115.781 14.875 116.201 15.115C116.621 15.325 116.846 15.505 116.876 15.655C116.906 15.895 116.846 16.195 116.696 16.555C116.576 16.915 116.381 17.275 116.111 17.635C115.841 17.995 115.526 18.31 115.166 18.58C114.806 18.82 114.431 18.94 114.041 18.94C112.691 18.94 111.266 18.925 109.766 18.895C108.296 18.835 106.886 18.775 105.536 18.715C105.566 20.335 105.491 21.97 105.311 23.62C105.161 25.24 104.966 26.545 104.726 27.535C105.206 27.595 105.971 27.655 107.021 27.715C108.071 27.775 109.406 27.805 111.026 27.805C112.526 27.805 113.861 27.73 115.031 27.58C116.201 27.4 117.266 27.22 118.226 27.04C118.406 27.22 118.481 27.46 118.451 27.76C118.451 28.06 118.391 28.375 118.271 28.705C118.151 29.005 118.001 29.29 117.821 29.56C117.641 29.8 117.476 29.965 117.326 30.055C116.906 30.295 116.081 30.58 114.851 30.91C113.621 31.21 112.166 31.39 110.486 31.45C109.886 31.48 109.241 31.48 108.551 31.45C107.891 31.45 107.246 31.42 106.616 31.36C105.986 31.33 105.401 31.27 104.861 31.18C104.351 31.12 103.961 31.06 103.691 31C103.571 31.18 103.406 31.36 103.196 31.54C102.986 31.72 102.746 31.87 102.476 31.99C102.236 32.14 101.966 32.245 101.666 32.305C101.396 32.365 101.141 32.35 100.901 32.26C100.691 32.17 100.556 32.02 100.496 31.81C100.466 31.6 100.466 31.345 100.496 31.045C100.526 30.775 100.571 30.475 100.631 30.145C100.721 29.815 100.796 29.485 100.856 29.155C101.126 27.145 101.291 25.135 101.351 23.125C101.441 21.115 101.486 19.15 101.486 17.23C101.486 15.31 101.456 13.45 101.396 11.65C101.336 9.85 101.291 8.14 101.261 6.52C100.631 6.28 100.076 5.98 99.5958 5.62C99.1158 5.23 98.7708 4.75 98.5608 4.18C98.5008 4 98.5158 3.82 98.6058 3.64C98.6958 3.46 98.8158 3.31 98.9658 3.19C99.1458 3.04 99.3258 2.935 99.5058 2.875C99.6858 2.785 99.8208 2.755 99.9108 2.785C100.991 3.235 102.206 3.46 103.556 3.46C105.656 3.43 107.606 3.325 109.406 3.145C111.236 2.935 113.156 2.74 115.166 2.56C115.376 2.53 115.631 2.545 115.931 2.605C116.261 2.635 116.561 2.695 116.831 2.785C117.131 2.875 117.371 2.995 117.551 3.145C117.761 3.265 117.866 3.415 117.866 3.595C117.866 3.835 117.776 4.105 117.596 4.405C117.416 4.705 117.191 5.005 116.921 5.305C116.651 5.575 116.336 5.83 115.976 6.07C115.646 6.28 115.331 6.415 115.031 6.475C113.411 6.625 111.851 6.73 110.351 6.79C108.881 6.82 107.276 6.835 105.536 6.835L105.626 15.295ZM130.412 6.52C130.232 6.4 130.022 6.25 129.782 6.07C129.542 5.89 129.287 5.695 129.017 5.485C128.777 5.245 128.567 5.02 128.387 4.81C128.207 4.57 128.102 4.345 128.072 4.135C128.012 3.895 128.012 3.58 128.072 3.19C128.132 2.77 128.297 2.56 128.567 2.56C128.717 2.56 128.882 2.59 129.062 2.65C129.272 2.71 129.452 2.77 129.602 2.83C129.962 2.95 130.337 3.13 130.727 3.37C131.147 3.58 131.537 3.805 131.897 4.045C132.377 4.435 132.797 5.08 133.157 5.98C134.237 9.01 135.377 12.1 136.577 15.25C137.807 18.4 139.127 21.865 140.537 25.645C140.807 26.305 141.002 27.04 141.122 27.85C141.242 28.66 141.287 29.425 141.257 30.145C141.257 30.835 141.167 31.42 140.987 31.9C140.837 32.38 140.612 32.62 140.312 32.62C140.132 32.62 139.907 32.44 139.637 32.08C139.367 31.72 139.097 31.3 138.827 30.82C138.587 30.34 138.362 29.875 138.152 29.425C137.942 28.945 137.792 28.6 137.702 28.39L134.777 21.325C133.937 21.595 132.902 21.85 131.672 22.09C130.442 22.3 128.972 22.375 127.262 22.315C127.172 22.735 126.977 23.395 126.677 24.295C126.407 25.165 126.092 26.08 125.732 27.04C125.402 27.97 125.072 28.855 124.742 29.695C124.412 30.505 124.142 31.045 123.932 31.315C123.692 31.615 123.407 31.87 123.077 32.08C122.747 32.32 122.282 32.47 121.682 32.53C121.562 32.53 121.367 32.515 121.097 32.485C120.857 32.485 120.602 32.455 120.332 32.395C120.062 32.365 119.822 32.29 119.612 32.17C119.432 32.08 119.342 31.96 119.342 31.81C119.342 31.66 119.492 31.51 119.792 31.36C120.092 31.21 120.302 31.075 120.422 30.955C120.722 30.415 121.037 29.755 121.367 28.975C121.697 28.165 122.012 27.34 122.312 26.5C122.642 25.66 122.942 24.835 123.212 24.025C123.482 23.215 123.707 22.51 123.887 21.91C123.737 21.91 123.557 21.88 123.347 21.82C123.137 21.76 122.912 21.7 122.672 21.64C122.432 21.55 122.192 21.46 121.952 21.37C121.742 21.25 121.577 21.13 121.457 21.01C121.217 20.77 121.007 20.485 120.827 20.155C120.677 19.795 120.632 19.48 120.692 19.21C120.722 19.09 120.872 19.03 121.142 19.03C121.442 19 121.682 18.97 121.862 18.94H123.482C123.782 18.94 124.052 18.955 124.292 18.985C124.532 18.985 124.682 18.985 124.742 18.985L127.577 9.985C127.757 9.295 128.027 8.68 128.387 8.14C128.777 7.6 129.182 7.225 129.602 7.015L130.412 6.52ZM130.817 9.625C130.637 10.225 130.427 10.93 130.187 11.74C129.977 12.55 129.752 13.39 129.512 14.26C129.272 15.13 129.032 15.985 128.792 16.825C128.582 17.665 128.387 18.415 128.207 19.075C129.077 19.105 130.022 19.075 131.042 18.985C132.062 18.865 132.962 18.685 133.742 18.445C133.232 16.855 132.797 15.535 132.437 14.485C132.107 13.405 131.822 12.55 131.582 11.92C131.372 11.26 131.207 10.78 131.087 10.48C130.997 10.15 130.922 9.925 130.862 9.805L130.817 9.625Z" transform="translate(11 35)" fill="white"/>
<path d="M56.5389 21.305C56.5389 23.285 56.5089 25.19 56.4489 27.02C56.3889 28.85 56.2989 30.395 56.1789 31.655C56.1489 32.015 56.0289 32.57 55.8189 33.32C55.6089 34.04 55.3389 34.775 55.0089 35.525C54.7089 36.245 54.3489 36.875 53.9289 37.415C53.5389 37.955 53.1339 38.225 52.7139 38.225C52.5039 38.225 52.2639 38.15 51.9939 38C51.7539 37.85 51.6339 37.61 51.6339 37.28C51.6339 37.22 51.6789 37.04 51.7689 36.74C51.8889 36.41 51.9789 36.2 52.0389 36.11C52.2189 34.97 52.3389 33.455 52.3989 31.565C52.4889 29.675 52.5339 27.65 52.5339 25.49C52.5639 23.3 52.5639 21.08 52.5339 18.83C52.5339 16.55 52.5339 14.45 52.5339 12.53C52.5339 12.32 52.4139 12.17 52.1739 12.08C51.9339 11.96 51.6489 11.855 51.3189 11.765C51.0189 11.675 50.6889 11.585 50.3289 11.495C49.9989 11.405 49.7439 11.285 49.5639 11.135C49.4739 10.715 49.4439 10.325 49.4739 9.965C49.5339 9.605 49.7139 9.35 50.0139 9.2C50.4339 8.99 50.9289 8.84 51.4989 8.75C52.0989 8.63 52.6389 8.585 53.1189 8.615C53.6889 8.645 54.2589 8.75 54.8289 8.93C55.3989 9.11 55.9089 9.455 56.3589 9.965C56.5689 10.235 56.8539 10.685 57.2139 11.315C57.6039 11.915 58.0239 12.62 58.4739 13.43C58.9539 14.21 59.4339 15.02 59.9139 15.86C60.4239 16.7 60.9039 17.465 61.3539 18.155C61.8039 18.845 62.2089 19.415 62.5689 19.865C62.9289 20.315 63.1989 20.54 63.3789 20.54C63.6189 20.54 63.9939 20.24 64.5039 19.64C65.0439 19.04 65.6139 18.32 66.2139 17.48C66.8439 16.64 67.4589 15.77 68.0589 14.87C68.6889 13.97 69.2139 13.22 69.6339 12.62C69.9939 12.17 70.2939 11.705 70.5339 11.225C70.7739 10.715 71.0139 10.25 71.2539 9.83C71.5239 9.38 71.8239 9.02 72.1539 8.75C72.5139 8.48 72.9789 8.345 73.5489 8.345C73.9989 8.345 74.3439 8.51 74.5839 8.84C74.8239 9.17 74.9889 9.53 75.0789 9.92C75.4089 11.27 75.5439 12.725 75.4839 14.285C75.4539 15.845 75.4389 17.525 75.4389 19.325C75.4389 20.315 75.4239 21.155 75.3939 21.845C75.3939 22.535 75.3789 23.225 75.3489 23.915C75.3489 24.605 75.3339 25.385 75.3039 26.255C75.2739 27.095 75.2439 28.175 75.2139 29.495C75.1839 30.125 75.1539 30.845 75.1239 31.655C75.0939 32.465 75.0189 33.29 74.8989 34.13C74.8089 34.94 74.6439 35.72 74.4039 36.47C74.1939 37.22 73.8789 37.865 73.4589 38.405C73.3089 38.585 73.1289 38.675 72.9189 38.675C72.5889 38.675 72.3189 38.405 72.1089 37.865C71.8989 37.325 71.7339 36.71 71.6139 36.02C71.5239 35.33 71.4489 34.67 71.3889 34.04C71.3589 33.41 71.3439 32.99 71.3439 32.78C71.1639 30.05 71.1339 27.305 71.2539 24.545C71.3739 21.785 71.3439 19.055 71.1639 16.355C70.6839 17.255 70.0839 18.23 69.3639 19.28C68.6439 20.3 67.9089 21.26 67.1589 22.16C66.4089 23.06 65.6739 23.81 64.9539 24.41C64.2339 24.98 63.6339 25.265 63.1539 25.265C62.6139 25.265 62.0889 25.085 61.5789 24.725C61.0689 24.365 60.5889 23.93 60.1389 23.42C59.7189 22.91 59.3439 22.385 59.0139 21.845C58.6839 21.275 58.4139 20.795 58.2039 20.405C57.9639 19.985 57.6789 19.55 57.3489 19.1C57.0189 18.62 56.7489 18.14 56.5389 17.66V21.305ZM90.1578 13.52C89.9778 13.4 89.7678 13.25 89.5278 13.07C89.2878 12.89 89.0328 12.695 88.7628 12.485C88.5228 12.245 88.3128 12.02 88.1328 11.81C87.9528 11.57 87.8478 11.345 87.8178 11.135C87.7578 10.895 87.7578 10.58 87.8178 10.19C87.8778 9.77 88.0428 9.56 88.3128 9.56C88.4628 9.56 88.6278 9.59 88.8078 9.65C89.0178 9.71 89.1978 9.77 89.3478 9.83C89.7078 9.95 90.0828 10.13 90.4728 10.37C90.8928 10.58 91.2828 10.805 91.6428 11.045C92.1228 11.435 92.5428 12.08 92.9028 12.98C93.9828 16.01 95.1228 19.1 96.3228 22.25C97.5528 25.4 98.8728 28.865 100.283 32.645C100.553 33.305 100.748 34.04 100.868 34.85C100.988 35.66 101.033 36.425 101.003 37.145C101.003 37.835 100.913 38.42 100.733 38.9C100.583 39.38 100.358 39.62 100.058 39.62C99.8778 39.62 99.6528 39.44 99.3828 39.08C99.1128 38.72 98.8428 38.3 98.5728 37.82C98.3328 37.34 98.1078 36.875 97.8978 36.425C97.6878 35.945 97.5378 35.6 97.4478 35.39L94.5228 28.325C93.6828 28.595 92.6478 28.85 91.4178 29.09C90.1878 29.3 88.7178 29.375 87.0078 29.315C86.9178 29.735 86.7228 30.395 86.4228 31.295C86.1528 32.165 85.8378 33.08 85.4778 34.04C85.1478 34.97 84.8178 35.855 84.4878 36.695C84.1578 37.505 83.8878 38.045 83.6778 38.315C83.4378 38.615 83.1528 38.87 82.8228 39.08C82.4928 39.32 82.0278 39.47 81.4278 39.53C81.3078 39.53 81.1128 39.515 80.8428 39.485C80.6028 39.485 80.3478 39.455 80.0778 39.395C79.8078 39.365 79.5678 39.29 79.3578 39.17C79.1778 39.08 79.0878 38.96 79.0878 38.81C79.0878 38.66 79.2378 38.51 79.5378 38.36C79.8378 38.21 80.0478 38.075 80.1678 37.955C80.4678 37.415 80.7828 36.755 81.1128 35.975C81.4428 35.165 81.7578 34.34 82.0578 33.5C82.3878 32.66 82.6878 31.835 82.9578 31.025C83.2278 30.215 83.4528 29.51 83.6328 28.91C83.4828 28.91 83.3028 28.88 83.0928 28.82C82.8828 28.76 82.6578 28.7 82.4178 28.64C82.1778 28.55 81.9378 28.46 81.6978 28.37C81.4878 28.25 81.3228 28.13 81.2028 28.01C80.9628 27.77 80.7528 27.485 80.5728 27.155C80.4228 26.795 80.3778 26.48 80.4378 26.21C80.4678 26.09 80.6178 26.03 80.8878 26.03C81.1878 26 81.4278 25.97 81.6078 25.94H83.2278C83.5278 25.94 83.7978 25.955 84.0378 25.985C84.2778 25.985 84.4278 25.985 84.4878 25.985L87.3228 16.985C87.5028 16.295 87.7728 15.68 88.1328 15.14C88.5228 14.6 88.9278 14.225 89.3478 14.015L90.1578 13.52ZM90.5628 16.625C90.3828 17.225 90.1728 17.93 89.9328 18.74C89.7228 19.55 89.4978 20.39 89.2578 21.26C89.0178 22.13 88.7778 22.985 88.5378 23.825C88.3278 24.665 88.1328 25.415 87.9528 26.075C88.8228 26.105 89.7678 26.075 90.7878 25.985C91.8078 25.865 92.7078 25.685 93.4878 25.445C92.9778 23.855 92.5428 22.535 92.1828 21.485C91.8528 20.405 91.5678 19.55 91.3278 18.92C91.1178 18.26 90.9528 17.78 90.8328 17.48C90.7428 17.15 90.6678 16.925 90.6078 16.805L90.5628 16.625ZM105.447 12.44C105.447 12.11 105.282 11.825 104.952 11.585C104.652 11.345 104.232 11.165 103.692 11.045C103.482 10.985 103.212 10.925 102.882 10.865C102.582 10.805 102.417 10.67 102.387 10.46C102.387 10.31 102.432 10.16 102.522 10.01C102.642 9.83 102.777 9.665 102.927 9.515C103.077 9.365 103.242 9.245 103.422 9.155C103.602 9.035 103.752 8.96 103.872 8.93C105.102 8.6 106.197 8.6 107.157 8.93C108.117 9.23 108.732 9.68 109.002 10.28C109.782 9.77 110.772 9.32 111.972 8.93C113.172 8.54 114.447 8.345 115.797 8.345C117.207 8.345 118.452 8.6 119.532 9.11C120.612 9.59 121.512 10.25 122.232 11.09C122.982 11.9 123.537 12.83 123.897 13.88C124.287 14.93 124.482 16.01 124.482 17.12C124.482 17.75 124.377 18.425 124.167 19.145C123.957 19.865 123.597 20.555 123.087 21.215C122.577 21.875 121.872 22.475 120.972 23.015C120.102 23.555 118.977 23.975 117.597 24.275C117.837 27.095 118.677 29.585 120.117 31.745C121.557 33.875 123.447 35.66 125.787 37.1C126.177 37.37 126.387 37.655 126.417 37.955C126.447 38.225 126.342 38.42 126.102 38.54C125.892 38.66 125.427 38.75 124.707 38.81C124.017 38.87 123.267 38.78 122.457 38.54C121.047 38.09 119.847 37.355 118.857 36.335C117.867 35.285 117.027 34.115 116.337 32.825C115.677 31.505 115.152 30.155 114.762 28.775C114.402 27.365 114.147 26.075 113.997 24.905C113.547 24.935 112.947 24.98 112.197 25.04C111.447 25.07 110.622 25.085 109.722 25.085C109.722 26.135 109.692 27.17 109.632 28.19C109.602 29.21 109.527 30.245 109.407 31.295C109.377 31.565 109.287 32.105 109.137 32.915C108.987 33.695 108.777 34.52 108.507 35.39C108.267 36.26 107.952 37.04 107.562 37.73C107.202 38.39 106.782 38.72 106.302 38.72C106.242 38.72 106.122 38.675 105.942 38.585C105.762 38.525 105.582 38.42 105.402 38.27C105.222 38.12 105.072 37.94 104.952 37.73C104.832 37.52 104.817 37.28 104.907 37.01C104.997 36.74 105.072 36.32 105.132 35.75C105.192 35.18 105.237 34.52 105.267 33.77C105.327 33.02 105.372 32.21 105.402 31.34C105.432 30.47 105.447 29.585 105.447 28.685V12.44ZM109.722 22.79C110.592 22.67 111.612 22.52 112.782 22.34C113.982 22.16 115.122 21.875 116.202 21.485C117.282 21.065 118.197 20.495 118.947 19.775C119.697 19.055 120.072 18.08 120.072 16.85C120.072 16.46 119.982 15.965 119.802 15.365C119.622 14.765 119.307 14.195 118.857 13.655C118.407 13.115 117.807 12.65 117.057 12.26C116.307 11.87 115.362 11.675 114.222 11.675C113.442 11.675 112.677 11.78 111.927 11.99C111.207 12.17 110.427 12.515 109.587 13.025C109.587 15.245 109.602 17.105 109.632 18.605C109.692 20.075 109.722 21.47 109.722 22.79ZM136.609 13.07C135.529 13.1 134.434 13.115 133.324 13.115C132.214 13.115 131.179 13.07 130.219 12.98C130.069 12.98 129.829 12.905 129.499 12.755C129.199 12.605 128.884 12.425 128.554 12.215C128.224 12.005 127.924 11.78 127.654 11.54C127.414 11.27 127.294 11.015 127.294 10.775C127.294 10.595 127.369 10.46 127.519 10.37C127.669 10.25 127.849 10.16 128.059 10.1C128.299 10.04 128.539 9.995 128.779 9.965C129.049 9.905 129.274 9.875 129.454 9.875C129.934 9.845 130.744 9.8 131.884 9.74C133.054 9.68 134.344 9.62 135.754 9.56C137.164 9.47 138.604 9.41 140.074 9.38C141.574 9.32 142.894 9.26 144.034 9.2C144.124 9.2 144.364 9.2 144.754 9.2C145.144 9.2 145.534 9.23 145.924 9.29C146.344 9.35 146.719 9.44 147.049 9.56C147.409 9.68 147.589 9.875 147.589 10.145C147.589 10.325 147.529 10.55 147.409 10.82C147.289 11.09 147.124 11.345 146.914 11.585C146.704 11.825 146.464 12.05 146.194 12.26C145.924 12.44 145.654 12.56 145.384 12.62C144.874 12.71 144.274 12.785 143.584 12.845C142.894 12.875 141.979 12.89 140.839 12.89V24.365C140.839 25.325 140.764 26.495 140.614 27.875C140.464 29.255 140.224 30.635 139.894 32.015C139.564 33.365 139.129 34.61 138.589 35.75C138.079 36.89 137.464 37.685 136.744 38.135C136.414 38.345 136.039 38.435 135.619 38.405C135.229 38.405 134.959 38.345 134.809 38.225C134.659 38.105 134.629 37.925 134.719 37.685C134.809 37.445 134.884 37.25 134.944 37.1C135.304 36.17 135.589 35.165 135.799 34.085C136.039 32.975 136.219 31.85 136.339 30.71C136.459 29.57 136.534 28.43 136.564 27.29C136.594 26.12 136.609 25.01 136.609 23.96V13.07Z" transform="translate(11 143)" fill="white"/>
<path d="M16 0L29.8564 17.25L2.14359 17.25L16 0Z" transform="translate(70 87)" fill="white"/>
<path d="M16 0L29.8564 17.25L2.14359 17.25L16 0Z" transform="translate(117 132) scale(1 -1)" fill="#FFA630"/>
<path d="M0 0H36V5H0V0Z" transform="translate(131 120) rotate(-90)" fill="#FFA630"/>
</svg>
