<svg width="375" height="667" viewBox="0 0 375 667" fill="none" xmlns="http://www.w3.org/2000/svg">
<g clip-path="url(#clip0)">
<rect width="5" height="667" transform="translate(183)" fill="#4C6085"/>
<path d="M0 0H188V5H0V0Z" transform="translate(-5 609)" fill="#4C6085"/>
<g filter="url(#filter0_d)">
<circle cx="100" cy="100" r="100" transform="translate(88 234)" fill="white"/>
<circle cx="100" cy="100" r="100" transform="translate(88 234)" stroke="#4C6085" stroke-width="10"/>
</g>
<rect x="2.5" y="2.5" width="47" height="47" transform="translate(162 308)" fill="white" stroke="#FFA630" stroke-width="5"/>
<path d="M101.472 0H83.0945C76.7284 0.000939024 71.5676 5.14726 71.5667 11.4955V18.7805H62.7395C57.5575 18.772 53.3499 22.9542 53.3414 28.1217C53.3381 30.1746 54.0119 32.1717 55.2589 33.8049H10.1832C4.56167 33.811 0.00612083 38.3537 0 43.9595V67.6098C0 68.6469 0.843262 69.4878 1.88333 69.4878H3.76667V75.122C3.76667 76.1591 4.60993 77 5.65 77H13.1833C14.2234 77 15.0667 76.1591 15.0667 75.122V69.4878H33.9V75.122C33.9 76.1591 34.7433 77 35.7833 77H43.3167C44.3567 77 45.2 76.1591 45.2 75.122V69.4878H97.9333V75.122C97.9333 76.1591 98.7766 77 99.8167 77H107.35C108.39 77 109.233 76.1591 109.233 75.122V69.4878H111.117C112.157 69.4878 113 68.6469 113 67.6098V11.4955C112.999 5.14726 107.838 0.000939024 101.472 0ZM11.3 73.2439H7.53333V69.4878H11.3V73.2439ZM41.4333 73.2439H37.6667V69.4878H41.4333V73.2439ZM41.4333 65.7317H3.76667V60.0976H41.4333V65.7317ZM41.4333 43.9595V56.3415H3.76667V43.9595C3.76973 40.4269 6.64063 37.564 10.1832 37.561H43.7197C42.2396 39.3667 41.4319 41.6274 41.4333 43.9595ZM58.7449 24.1855C59.8071 23.1333 61.2422 22.5408 62.7395 22.5366H74.7382C72.2164 25.8718 72.2164 30.4697 74.7382 33.8049H62.7395C59.619 33.8053 57.0892 31.2831 57.0888 28.1714C57.0885 26.6763 57.6844 25.2424 58.7449 24.1855ZM45.2 43.9595C45.2031 40.4269 48.074 37.564 51.6165 37.561H69.0505C71.4791 37.564 73.4469 39.5264 73.45 41.9481V56.3415H45.2V43.9595ZM105.467 73.2439H101.7V69.4878H105.467V73.2439ZM109.233 65.7317H45.2V60.0976H92.2833C93.3234 60.0976 94.1667 59.2567 94.1667 58.2195C94.1667 57.1824 93.3234 56.3415 92.2833 56.3415H88.5167V41.9481C88.511 40.3896 88.0531 38.8658 87.1983 37.561H109.233V65.7317ZM80.3505 37.561C82.7791 37.564 84.7469 39.5264 84.75 41.9481V56.3415H77.2167V41.9481C77.211 40.3896 76.7531 38.8658 75.8983 37.561H80.3505ZM76.5681 28.1733C76.5674 26.6774 77.1632 25.2429 78.2242 24.1855C79.2824 23.1261 80.7213 22.5324 82.2207 22.5366H97.9333C101.054 22.5366 103.583 25.059 103.583 28.1707C103.583 31.2824 101.054 33.8049 97.9333 33.8049H82.2207C79.1002 33.8063 76.5695 31.285 76.5681 28.1733ZM109.233 33.8049H105.414C108.553 29.6936 107.756 23.823 103.633 20.6926C101.995 19.4491 99.9918 18.777 97.9333 18.7805H75.3333V11.4955C75.3399 9.44424 76.1566 7.47792 77.6065 6.0229C79.0588 4.56671 81.0351 3.75046 83.0945 3.7561H101.472C103.532 3.75046 105.508 4.56671 106.96 6.0229C108.41 7.47792 109.227 9.44424 109.233 11.4955V33.8049V33.8049Z" transform="translate(229 129)" fill="#FFA630"/>
<path d="M5.65 0H1.88333C0.843262 0 0 0.840896 0 1.87805C0 2.9152 0.843262 3.7561 1.88333 3.7561H5.65C6.69007 3.7561 7.53333 2.9152 7.53333 1.87805C7.53333 0.840896 6.69007 0 5.65 0Z" transform="translate(326.933 185.341)" fill="#FFA630"/>
<path d="M0 0H223V5H0V0Z" transform="translate(163 355)" fill="#4C6085"/>
<path d="M0 0H36V5H0V0Z" transform="translate(162 360) rotate(-90)" fill="#4C6085"/>
<rect width="223" height="5" transform="translate(186 49)" fill="#4C6085"/>
<path d="M0 0H210V5H0V0Z" transform="translate(0 308)" fill="#FFA630"/>
<path d="M103.875 18.8552C103.624 18.2488 103.032 17.853 102.375 17.8522H70.5478L53.1489 0.475171C52.5143 -0.15839 51.4857 -0.15839 50.8511 0.475171L33.4523 17.8522H1.625C0.968094 17.853 0.376187 18.2488 0.125125 18.8552C0.0434687 19.0517 0.00101562 19.2623 0 19.4751V97.377C0.00101562 97.5898 0.0434687 97.8004 0.125125 97.997C0.290062 98.3944 0.606328 98.7103 1.00425 98.875C1.20108 98.9566 1.41192 98.999 1.625 99H102.375C102.588 98.999 102.799 98.9566 102.996 98.875C103.394 98.7103 103.71 98.3944 103.875 97.997C103.957 97.8004 103.999 97.5898 104 97.377V19.4751C103.999 19.2623 103.957 19.0517 103.875 18.8552ZM52 3.91746L65.9522 17.8522H38.0477L52 3.91746ZM98.4522 21.0981L95.2022 24.344H8.79775L5.54775 21.0981H98.4522ZM77.35 61.9966C76.7723 61.5639 75.9777 61.5639 75.4 61.9966L57.187 75.6294L37.037 49.3181C36.738 48.9318 36.281 48.7005 35.7922 48.6883C35.3015 48.6804 34.8325 48.8902 34.5118 49.2612L9.75 78.356V27.5899H94.25V74.6556L77.35 61.9966ZM94.25 78.713V89.2623H9.75V83.3661L35.6834 52.8967L55.5848 78.8867C56.1261 79.5939 57.1366 79.7337 57.85 79.1999L76.375 65.3236L94.25 78.713ZM3.25 23.3929L6.5 26.6389V90.2133L3.25 93.4592V23.3929ZM5.54775 95.7541L8.79775 92.5082H95.2022L98.4522 95.7541H5.54775ZM100.75 93.4592L97.5 90.2133V26.6389L100.75 23.3929V93.4592Z" transform="translate(234 468)" fill="#FFA630"/>
<path d="M11.375 -1.43633e-06C5.09275 -1.43633e-06 0 5.08634 0 11.3607C0.00710938 17.632 5.0958 22.7143 11.375 22.7214C17.6572 22.7214 22.75 17.635 22.75 11.3607C22.75 5.08634 17.6572 -1.43633e-06 11.375 -1.43633e-06ZM11.375 19.4755C6.88777 19.4755 3.25 15.8423 3.25 11.3607C3.25528 6.88133 6.89 3.25119 11.375 3.24591C15.8622 3.24591 19.5 6.8791 19.5 11.3607C19.5 15.8423 15.8622 19.4755 11.375 19.4755Z" transform="translate(289.25 502.082)" fill="#FFA630"/>
<path d="M17.101 91.8333H12.3941V51.3222L18.3891 45.2691C20.5792 43.0528 21.7562 40.0162 21.6369 36.8885L20.239 1.52C20.2052 0.670344 19.5125 -0.000593356 18.67 3.93776e-07H2.98017C2.13763 -0.000593356 1.44492 0.670344 1.41119 1.52L0.00852017 36.8917C-0.112684 40.0195 1.06366 43.0566 3.25474 45.2722L9.25609 51.3222V91.8333H4.54915C3.68268 91.8333 2.98017 92.5423 2.98017 93.4167C2.98017 94.2911 3.68268 95 4.54915 95H17.101C17.9675 95 18.67 94.2911 18.67 93.4167C18.67 92.5423 17.9675 91.8333 17.101 91.8333ZM5.47328 43.0302C3.89802 41.4414 3.05136 39.2611 3.13707 37.0152L4.48482 3.16667H17.1606L18.5021 37.0152C18.5884 39.2607 17.7435 41.441 16.1706 43.0318L10.8251 48.4278L5.47328 43.0302Z" transform="translate(44 70)" fill="#FFA630"/>
<path d="M28.2417 79.1667H18.8278V38C18.8278 37.9731 18.8137 37.9509 18.8121 37.924C27.7584 37.1183 34.5923 29.5155 34.5176 20.4519L32.9486 1.45193C32.8807 0.629186 32.1976 -0.00276176 31.3796 9.07657e-06H3.13796C2.31993 -0.00276176 1.63684 0.629186 1.56898 1.45193L5.58339e-07 20.5833C-0.00176455 29.5947 6.81173 37.1175 15.7055 37.924C15.7055 37.9509 15.6898 37.9731 15.6898 38V79.1667H6.27592C5.40945 79.1667 4.70694 79.8756 4.70694 80.75C4.70694 81.6244 5.40945 82.3334 6.27592 82.3334H28.2417C29.1081 82.3334 29.8106 81.6244 29.8106 80.75C29.8106 79.8756 29.1081 79.1667 28.2417 79.1667ZM7.2738 30.6597H7.28007C4.64987 28.0284 3.16032 24.4522 3.13796 20.7148L4.58142 3.16668H29.9362L31.3796 20.5833C31.3796 28.4533 25.0576 34.8333 17.259 34.8335C13.5136 34.8335 9.92204 33.3321 7.2738 30.6597Z" transform="translate(69.1028 82.6666)" fill="#FFA630"/>
<path d="M4.69565 14.0536L3.12667 1.38693C3.01899 0.51926 2.2347 -0.0960624 1.3749 0.012396C1.3747 0.012396 1.37431 0.0123958 1.37412 0.0125938C0.514707 0.12125 -0.0950385 0.912124 0.0122406 1.77959L1.58122 14.4463C1.67929 15.2385 2.34649 15.8331 3.13765 15.8333C3.20315 15.8329 3.26866 15.8287 3.33377 15.8206C4.19318 15.7119 4.80273 14.9211 4.69565 14.0536Z" transform="translate(91.0688 89.0001)" fill="#FFA630"/>
<path d="M4.67647 9.18689C4.67647 9.18669 4.67647 9.18649 4.67628 9.18629L3.10729 1.26963C2.94235 0.418192 2.12491 -0.136964 1.2812 0.0294839C1.27276 0.0310672 1.26433 0.0328486 1.2559 0.0346299C0.406881 0.20939 -0.141085 1.04559 0.031895 1.90237C0.031895 1.90257 0.0318934 1.90276 0.0320895 1.90296L1.60107 9.81963C1.75012 10.5569 2.39301 11.0865 3.13867 11.0863C3.24399 11.0869 3.34931 11.0762 3.45247 11.0546C4.30168 10.8799 4.84965 10.0437 4.67647 9.18689Z" transform="translate(84.7915 88.9971)" fill="#FFA630"/>
<path d="M26.6727 0H1.56898C0.702508 0 -2.77713e-06 0.708937 -2.77713e-06 1.58333C-2.77713e-06 2.45773 0.702508 3.16667 1.56898 3.16667H26.6727C27.5391 3.16667 28.2417 2.45773 28.2417 1.58333C28.2417 0.708937 27.5391 0 26.6727 0Z" transform="translate(105.189 76.3334)" fill="#FFA630"/>
<path d="M27.2595 39.6071C24.8197 35.1682 23.538 30.1766 23.5347 25.1006V23.2117C23.5349 20.5566 23.8858 17.9134 24.5781 15.352L28.1867 1.99975C28.4146 1.15603 27.9216 0.285791 27.0857 0.0558121C26.9512 0.0188017 26.8123 4.14413e-08 26.6727 4.14413e-08H4.70694C3.84047 -0.000197875 3.13777 0.708542 3.13757 1.58294C3.13757 1.72366 3.1562 1.86378 3.19288 1.99975L6.80153 15.3536C7.49385 17.9144 7.8449 20.5572 7.8449 23.2117V25.1006C7.84157 30.1766 6.55991 35.1682 4.12015 39.6071C1.42111 44.5154 0.00333131 50.0359 -2.77713e-06 55.6494V80.75C-2.77713e-06 81.6244 0.702508 82.3333 1.56898 82.3333H29.8106C30.6771 82.3333 31.3796 81.6244 31.3796 80.75V55.6494C31.3763 50.0359 29.9585 44.5154 27.2595 39.6071ZM28.2417 72.8333H9.41388C8.54741 72.8333 7.8449 73.5423 7.8449 74.4167C7.8449 75.2911 8.54741 76 9.41388 76H28.2417V79.1667H3.13796V55.6494C3.14129 50.5734 4.42296 45.5818 6.86272 41.1429C9.56176 36.2346 10.9795 30.7141 10.9829 25.1006V23.2117C10.9833 20.2758 10.5953 17.3531 9.82967 14.5207L6.76231 3.16667H24.6173L21.55 14.5192C20.7843 17.3521 20.3966 20.2754 20.3967 23.2117V25.1006C20.4001 30.7141 21.8179 36.2346 24.5169 41.1429C26.9567 45.5818 28.2383 50.5734 28.2417 55.6494V72.8333V72.8333Z" transform="translate(103.62 82.6666)" fill="#FFA630"/>
<path d="M7.72698 12.0639L3.02003 0.980616C2.68996 0.172127 1.77289 -0.213415 0.97173 0.119877C0.170569 0.452971 -0.211477 1.37843 0.118793 2.18692C0.124481 2.20077 0.130364 2.21463 0.136443 2.22829L4.84339 13.3116C5.0907 13.8937 5.65769 14.2711 6.28528 14.2711C6.49788 14.2719 6.70851 14.2284 6.90346 14.1429C7.69952 13.7983 8.06823 12.8675 7.72698 12.0639Z" transform="translate(113.025 131.729)" fill="#FFA630"/>
<path d="M4.54319 4.04325L2.97421 0.876583C2.58686 0.0940205 1.6441 -0.223639 0.868636 0.167247C0.0931672 0.558132 -0.221613 1.50952 0.16573 2.29208L1.73471 5.45875C2.12205 6.24131 3.06482 6.55897 3.84029 6.16808C4.61576 5.7772 4.93053 4.82581 4.54319 4.04325Z" transform="translate(109.903 141.249)" fill="#FFA630"/>
<path d="M1.56898 0C0.702511 0 3.65096e-07 0.708937 3.65096e-07 1.58333V17.4167C3.65096e-07 18.2911 0.702511 19 1.56898 19C2.43545 19 3.13796 18.2911 3.13796 17.4167V1.58333C3.13796 0.708937 2.43545 0 1.56898 0Z" transform="translate(54.825 77.9166)" fill="#FFA630"/>
<path d="M1.56898 0C0.702511 0 3.65096e-07 0.708937 3.65096e-07 1.58333V3.16667C3.65096e-07 4.04106 0.702511 4.75 1.56898 4.75C2.43545 4.75 3.13796 4.04106 3.13796 3.16667V1.58333C3.13796 0.708937 2.43545 0 1.56898 0Z" transform="translate(54.825 100.083)" fill="#FFA630"/>
<path d="M67.353 10.435C67.0963 10.4117 66.8163 10.33 66.513 10.19C66.2097 10.0267 65.9297 9.84 65.673 9.63C65.4397 9.42 65.253 9.19833 65.113 8.965C64.973 8.70833 64.9497 8.45167 65.043 8.195C65.113 8.00833 65.358 7.95 65.778 8.02C66.2213 8.06667 66.7463 8.10167 67.353 8.125C68.053 8.14833 68.8463 8.13667 69.733 8.09C70.6197 8.04333 71.5297 7.985 72.463 7.915C73.4197 7.845 74.3647 7.76333 75.298 7.67C76.2547 7.55333 77.1297 7.43667 77.923 7.32C78.0863 7.29667 78.2963 7.30833 78.553 7.355C78.8097 7.40167 79.0547 7.47167 79.288 7.565C79.5213 7.635 79.7197 7.72833 79.883 7.845C80.0697 7.96167 80.163 8.09 80.163 8.23C80.163 8.37 80.1047 8.545 79.988 8.755C79.8713 8.965 79.708 9.18667 79.498 9.42C79.288 9.63 79.0313 9.82833 78.728 10.015C78.4247 10.2017 78.098 10.3183 77.748 10.365C77.1413 10.4583 76.558 10.54 75.998 10.61C75.4613 10.6567 74.913 10.6917 74.353 10.715C73.793 10.7383 73.2097 10.7617 72.603 10.785C71.9963 10.785 71.3313 10.785 70.608 10.785C70.6313 11.8583 70.6547 12.9083 70.678 13.935C70.7013 14.9617 70.6897 15.8833 70.643 16.7C71.343 16.6767 71.973 16.6533 72.533 16.63C73.1163 16.5833 73.6763 16.5483 74.213 16.525C74.7497 16.4783 75.2863 16.4317 75.823 16.385C76.383 16.3383 76.978 16.28 77.608 16.21C77.748 16.1867 77.9347 16.1633 78.168 16.14C78.4013 16.0933 78.6347 16.07 78.868 16.07C79.1247 16.0467 79.358 16.0583 79.568 16.105C79.778 16.1517 79.9063 16.2567 79.953 16.42C80.0463 16.7 80.0113 17.0267 79.848 17.4C79.6847 17.7733 79.4513 18.135 79.148 18.485C78.868 18.8117 78.553 19.0917 78.203 19.325C77.853 19.5583 77.5613 19.675 77.328 19.675H70.643C70.643 20.445 70.6197 21.2967 70.573 22.23C70.5497 23.1633 70.4913 24.0033 70.398 24.75C70.3047 25.5667 70.1413 26.3367 69.908 27.06C69.698 27.76 69.4647 28.3783 69.208 28.915C68.9513 29.4517 68.6947 29.8717 68.438 30.175C68.1813 30.5017 67.9597 30.665 67.773 30.665C67.6097 30.665 67.3997 30.5133 67.143 30.21C66.8863 29.93 66.758 29.6267 66.758 29.3C66.758 29.2767 66.793 29.125 66.863 28.845C66.933 28.565 66.9797 28.3433 67.003 28.18C67.073 27.62 67.1313 27.1183 67.178 26.675C67.2247 26.2317 67.2597 25.7883 67.283 25.345C67.3063 24.9017 67.318 24.435 67.318 23.945C67.3413 23.4317 67.353 22.8367 67.353 22.16V10.435ZM82.9966 11.625C82.6933 11.1583 82.3666 10.6217 82.0166 10.015C81.69 9.40833 81.5266 8.81333 81.5266 8.23C81.5266 8.04333 81.55 7.86833 81.5966 7.705C81.6666 7.54167 81.865 7.46 82.1916 7.46C82.5416 7.46 82.8683 7.51833 83.1716 7.635C83.475 7.75167 83.755 7.90333 84.0116 8.09C84.4316 8.41667 84.7933 8.74333 85.0966 9.07C85.4233 9.37333 85.68 9.72333 85.8666 10.12C86.0766 10.5167 86.2283 10.96 86.3216 11.45C86.415 11.94 86.4616 12.5 86.4616 13.13C86.4616 13.5967 86.45 14.0867 86.4266 14.6C86.4266 15.09 86.415 15.65 86.3916 16.28C86.3683 16.91 86.345 17.6217 86.3216 18.415C86.3216 19.2083 86.3216 20.1183 86.3216 21.145C86.3216 22.335 86.2866 23.5367 86.2166 24.75C86.1466 25.9633 86.03 27.0367 85.8666 27.97C87.4766 27.9933 89.005 28.0283 90.4516 28.075C91.8983 28.1217 93.4383 28.2033 95.0716 28.32C95.8183 28.3667 96.4366 28.4483 96.9266 28.565C97.44 28.6817 97.6966 28.8683 97.6966 29.125C97.6966 29.2883 97.6266 29.475 97.4866 29.685C97.37 29.8717 97.2066 30.0467 96.9966 30.21C96.7866 30.3967 96.565 30.5483 96.3316 30.665C96.0983 30.7817 95.8766 30.84 95.6666 30.84C93.6833 30.84 91.735 30.84 89.8216 30.84C87.9083 30.84 85.8666 30.8167 83.6966 30.77C83.51 30.77 83.3233 30.6883 83.1366 30.525C82.95 30.385 82.7866 30.21 82.6466 30C82.5066 29.79 82.39 29.5683 82.2966 29.335C82.2033 29.0783 82.1566 28.845 82.1566 28.635C82.1566 28.3783 82.2733 28.215 82.5066 28.145C82.7633 28.0517 83.0316 27.9817 83.3116 27.935C83.265 27.3983 83.2183 26.7683 83.1716 26.045C83.125 25.3217 83.1016 24.6217 83.1016 23.945C83.1016 22.9417 83.0783 21.4367 83.0316 19.43C83.0083 17.4233 82.9966 14.8217 82.9966 11.625ZM104.042 17.785C105.209 17.6917 106.341 17.61 107.437 17.54C108.557 17.47 109.677 17.4233 110.797 17.4C111.451 17.3767 111.941 17.4583 112.267 17.645C112.594 17.8083 112.769 17.9483 112.792 18.065C112.816 18.2517 112.769 18.485 112.652 18.765C112.559 19.045 112.407 19.325 112.197 19.605C111.987 19.885 111.742 20.13 111.462 20.34C111.182 20.5267 110.891 20.62 110.587 20.62C109.537 20.62 108.429 20.6083 107.262 20.585C106.119 20.5383 105.022 20.4917 103.972 20.445C103.996 21.705 103.937 22.9767 103.797 24.26C103.681 25.52 103.529 26.535 103.342 27.305C103.716 27.3517 104.311 27.3983 105.127 27.445C105.944 27.4917 106.982 27.515 108.242 27.515C109.409 27.515 110.447 27.4567 111.357 27.34C112.267 27.2 113.096 27.06 113.842 26.92C113.982 27.06 114.041 27.2467 114.017 27.48C114.017 27.7133 113.971 27.9583 113.877 28.215C113.784 28.4483 113.667 28.67 113.527 28.88C113.387 29.0667 113.259 29.195 113.142 29.265C112.816 29.4517 112.174 29.6733 111.217 29.93C110.261 30.1633 109.129 30.3033 107.822 30.35C107.356 30.3733 106.854 30.3733 106.317 30.35C105.804 30.35 105.302 30.3267 104.812 30.28C104.322 30.2567 103.867 30.21 103.447 30.14C103.051 30.0933 102.747 30.0467 102.537 30C102.444 30.14 102.316 30.28 102.152 30.42C101.989 30.56 101.802 30.6767 101.592 30.77C101.406 30.8867 101.196 30.9683 100.962 31.015C100.752 31.0617 100.554 31.05 100.367 30.98C100.204 30.91 100.099 30.7933 100.052 30.63C100.029 30.4667 100.029 30.2683 100.052 30.035C100.076 29.825 100.111 29.5917 100.157 29.335C100.227 29.0783 100.286 28.8217 100.332 28.565C100.542 27.0017 100.671 25.4383 100.717 23.875C100.787 22.3117 100.822 20.7833 100.822 19.29C100.822 17.7967 100.799 16.35 100.752 14.95C100.706 13.55 100.671 12.22 100.647 10.96C100.157 10.7733 99.7256 10.54 99.3523 10.26C98.979 9.95667 98.7106 9.58333 98.5473 9.14C98.5006 9 98.5123 8.86 98.5823 8.72C98.6523 8.58 98.7456 8.46333 98.8623 8.37C99.0023 8.25333 99.1423 8.17167 99.2823 8.125C99.4223 8.055 99.5273 8.03167 99.5973 8.055C100.437 8.405 101.382 8.58 102.432 8.58C104.066 8.55667 105.582 8.475 106.982 8.335C108.406 8.17167 109.899 8.02 111.462 7.88C111.626 7.85667 111.824 7.86833 112.057 7.915C112.314 7.93833 112.547 7.985 112.757 8.055C112.991 8.125 113.177 8.21833 113.317 8.335C113.481 8.42833 113.562 8.545 113.562 8.685C113.562 8.87167 113.492 9.08167 113.352 9.315C113.212 9.54833 113.037 9.78167 112.827 10.015C112.617 10.225 112.372 10.4233 112.092 10.61C111.836 10.7733 111.591 10.8783 111.357 10.925C110.097 11.0417 108.884 11.1233 107.717 11.17C106.574 11.1933 105.326 11.205 103.972 11.205L104.042 17.785ZM123.32 10.96C123.18 10.8667 123.017 10.75 122.83 10.61C122.644 10.47 122.445 10.3183 122.235 10.155C122.049 9.96833 121.885 9.79333 121.745 9.63C121.605 9.44333 121.524 9.26833 121.5 9.105C121.454 8.91833 121.454 8.67333 121.5 8.37C121.547 8.04333 121.675 7.88 121.885 7.88C122.002 7.88 122.13 7.90333 122.27 7.95C122.434 7.99667 122.574 8.04333 122.69 8.09C122.97 8.18333 123.262 8.32333 123.565 8.51C123.892 8.67333 124.195 8.84833 124.475 9.035C124.849 9.33833 125.175 9.84 125.455 10.54C126.295 12.8967 127.182 15.3 128.115 17.75C129.072 20.2 130.099 22.895 131.195 25.835C131.405 26.3483 131.557 26.92 131.65 27.55C131.744 28.18 131.779 28.775 131.755 29.335C131.755 29.8717 131.685 30.3267 131.545 30.7C131.429 31.0733 131.254 31.26 131.02 31.26C130.88 31.26 130.705 31.12 130.495 30.84C130.285 30.56 130.075 30.2333 129.865 29.86C129.679 29.4867 129.504 29.125 129.34 28.775C129.177 28.4017 129.06 28.1333 128.99 27.97L126.715 22.475C126.062 22.685 125.257 22.8833 124.3 23.07C123.344 23.2333 122.2 23.2917 120.87 23.245C120.8 23.5717 120.649 24.085 120.415 24.785C120.205 25.4617 119.96 26.1733 119.68 26.92C119.424 27.6433 119.167 28.3317 118.91 28.985C118.654 29.615 118.444 30.035 118.28 30.245C118.094 30.4783 117.872 30.6767 117.615 30.84C117.359 31.0267 116.997 31.1433 116.53 31.19C116.437 31.19 116.285 31.1783 116.075 31.155C115.889 31.155 115.69 31.1317 115.48 31.085C115.27 31.0617 115.084 31.0033 114.92 30.91C114.78 30.84 114.71 30.7467 114.71 30.63C114.71 30.5133 114.827 30.3967 115.06 30.28C115.294 30.1633 115.457 30.0583 115.55 29.965C115.784 29.545 116.029 29.0317 116.285 28.425C116.542 27.795 116.787 27.1533 117.02 26.5C117.277 25.8467 117.51 25.205 117.72 24.575C117.93 23.945 118.105 23.3967 118.245 22.93C118.129 22.93 117.989 22.9067 117.825 22.86C117.662 22.8133 117.487 22.7667 117.3 22.72C117.114 22.65 116.927 22.58 116.74 22.51C116.577 22.4167 116.449 22.3233 116.355 22.23C116.169 22.0433 116.005 21.8217 115.865 21.565C115.749 21.285 115.714 21.04 115.76 20.83C115.784 20.7367 115.9 20.69 116.11 20.69C116.344 20.6667 116.53 20.6433 116.67 20.62H117.93C118.164 20.62 118.374 20.6317 118.56 20.655C118.747 20.655 118.864 20.655 118.91 20.655L121.115 13.655C121.255 13.1183 121.465 12.64 121.745 12.22C122.049 11.8 122.364 11.5083 122.69 11.345L123.32 10.96ZM123.635 13.375C123.495 13.8417 123.332 14.39 123.145 15.02C122.982 15.65 122.807 16.3033 122.62 16.98C122.434 17.6567 122.247 18.3217 122.06 18.975C121.897 19.6283 121.745 20.2117 121.605 20.725C122.282 20.7483 123.017 20.725 123.81 20.655C124.604 20.5617 125.304 20.4217 125.91 20.235C125.514 18.9983 125.175 17.9717 124.895 17.155C124.639 16.315 124.417 15.65 124.23 15.16C124.067 14.6467 123.939 14.2733 123.845 14.04C123.775 13.7833 123.717 13.6083 123.67 13.515L123.635 13.375Z" transform="translate(88 254)" fill="#4C6085"/>
<path d="M48.7567 23.015C48.7567 24.555 48.7333 26.0367 48.6867 27.46C48.64 28.8833 48.57 30.085 48.4767 31.065C48.4533 31.345 48.36 31.7767 48.1967 32.36C48.0333 32.92 47.8233 33.4917 47.5667 34.075C47.3333 34.635 47.0533 35.125 46.7267 35.545C46.4233 35.965 46.1083 36.175 45.7817 36.175C45.6183 36.175 45.4317 36.1167 45.2217 36C45.035 35.8833 44.9417 35.6967 44.9417 35.44C44.9417 35.3933 44.9767 35.2533 45.0467 35.02C45.14 34.7633 45.21 34.6 45.2567 34.53C45.3967 33.6433 45.49 32.465 45.5367 30.995C45.6067 29.525 45.6417 27.95 45.6417 26.27C45.665 24.5667 45.665 22.84 45.6417 21.09C45.6417 19.3167 45.6417 17.6833 45.6417 16.19C45.6417 16.0267 45.5483 15.91 45.3617 15.84C45.175 15.7467 44.9533 15.665 44.6967 15.595C44.4633 15.525 44.2067 15.455 43.9267 15.385C43.67 15.315 43.4717 15.2217 43.3317 15.105C43.2617 14.7783 43.2383 14.475 43.2617 14.195C43.3083 13.915 43.4483 13.7167 43.6817 13.6C44.0083 13.4367 44.3933 13.32 44.8367 13.25C45.3033 13.1567 45.7233 13.1217 46.0967 13.145C46.54 13.1683 46.9833 13.25 47.4267 13.39C47.87 13.53 48.2667 13.7983 48.6167 14.195C48.78 14.405 49.0017 14.755 49.2817 15.245C49.585 15.7117 49.9117 16.26 50.2617 16.89C50.635 17.4967 51.0083 18.1267 51.3817 18.78C51.7783 19.4333 52.1517 20.0283 52.5017 20.565C52.8517 21.1017 53.1667 21.545 53.4467 21.895C53.7267 22.245 53.9367 22.42 54.0767 22.42C54.2633 22.42 54.555 22.1867 54.9517 21.72C55.3717 21.2533 55.815 20.6933 56.2817 20.04C56.7717 19.3867 57.25 18.71 57.7167 18.01C58.2067 17.31 58.615 16.7267 58.9417 16.26C59.2217 15.91 59.455 15.5483 59.6417 15.175C59.8283 14.7783 60.015 14.4167 60.2017 14.09C60.4117 13.74 60.645 13.46 60.9017 13.25C61.1817 13.04 61.5433 12.935 61.9867 12.935C62.3367 12.935 62.605 13.0633 62.7917 13.32C62.9783 13.5767 63.1067 13.8567 63.1767 14.16C63.4333 15.21 63.5383 16.3417 63.4917 17.555C63.4683 18.7683 63.4567 20.075 63.4567 21.475C63.4567 22.245 63.445 22.8983 63.4217 23.435C63.4217 23.9717 63.41 24.5083 63.3867 25.045C63.3867 25.5817 63.375 26.1883 63.3517 26.865C63.3283 27.5183 63.305 28.3583 63.2817 29.385C63.2583 29.875 63.235 30.435 63.2117 31.065C63.1883 31.695 63.13 32.3367 63.0367 32.99C62.9667 33.62 62.8383 34.2267 62.6517 34.81C62.4883 35.3933 62.2433 35.895 61.9167 36.315C61.8 36.455 61.66 36.525 61.4967 36.525C61.24 36.525 61.03 36.315 60.8667 35.895C60.7033 35.475 60.575 34.9967 60.4817 34.46C60.4117 33.9233 60.3533 33.41 60.3067 32.92C60.2833 32.43 60.2717 32.1033 60.2717 31.94C60.1317 29.8167 60.1083 27.6817 60.2017 25.535C60.295 23.3883 60.2717 21.265 60.1317 19.165C59.7583 19.865 59.2917 20.6233 58.7317 21.44C58.1717 22.2333 57.6 22.98 57.0167 23.68C56.4333 24.38 55.8617 24.9633 55.3017 25.43C54.7417 25.8733 54.275 26.095 53.9017 26.095C53.4817 26.095 53.0733 25.955 52.6767 25.675C52.28 25.395 51.9067 25.0567 51.5567 24.66C51.23 24.2633 50.9383 23.855 50.6817 23.435C50.425 22.9917 50.215 22.6183 50.0517 22.315C49.865 21.9883 49.6433 21.65 49.3867 21.3C49.13 20.9267 48.92 20.5533 48.7567 20.18V23.015ZM74.9047 16.96C74.7647 16.8667 74.6013 16.75 74.4147 16.61C74.228 16.47 74.0297 16.3183 73.8197 16.155C73.633 15.9683 73.4697 15.7933 73.3297 15.63C73.1897 15.4433 73.108 15.2683 73.0847 15.105C73.038 14.9183 73.038 14.6733 73.0847 14.37C73.1313 14.0433 73.2597 13.88 73.4697 13.88C73.5863 13.88 73.7147 13.9033 73.8547 13.95C74.018 13.9967 74.158 14.0433 74.2747 14.09C74.5547 14.1833 74.8463 14.3233 75.1497 14.51C75.4763 14.6733 75.7797 14.8483 76.0597 15.035C76.433 15.3383 76.7597 15.84 77.0397 16.54C77.8797 18.8967 78.7663 21.3 79.6997 23.75C80.6563 26.2 81.683 28.895 82.7797 31.835C82.9897 32.3483 83.1413 32.92 83.2347 33.55C83.328 34.18 83.363 34.775 83.3397 35.335C83.3397 35.8717 83.2697 36.3267 83.1297 36.7C83.013 37.0733 82.838 37.26 82.6047 37.26C82.4647 37.26 82.2897 37.12 82.0797 36.84C81.8697 36.56 81.6597 36.2333 81.4497 35.86C81.263 35.4867 81.088 35.125 80.9247 34.775C80.7613 34.4017 80.6447 34.1333 80.5747 33.97L78.2997 28.475C77.6463 28.685 76.8413 28.8833 75.8847 29.07C74.928 29.2333 73.7847 29.2917 72.4547 29.245C72.3847 29.5717 72.233 30.085 71.9997 30.785C71.7897 31.4617 71.5447 32.1733 71.2647 32.92C71.008 33.6433 70.7513 34.3317 70.4947 34.985C70.238 35.615 70.028 36.035 69.8647 36.245C69.678 36.4783 69.4563 36.6767 69.1997 36.84C68.943 37.0267 68.5813 37.1433 68.1147 37.19C68.0213 37.19 67.8697 37.1783 67.6597 37.155C67.473 37.155 67.2747 37.1317 67.0647 37.085C66.8547 37.0617 66.668 37.0033 66.5047 36.91C66.3647 36.84 66.2947 36.7467 66.2947 36.63C66.2947 36.5133 66.4113 36.3967 66.6447 36.28C66.878 36.1633 67.0413 36.0583 67.1347 35.965C67.368 35.545 67.613 35.0317 67.8697 34.425C68.1263 33.795 68.3713 33.1533 68.6047 32.5C68.8613 31.8467 69.0947 31.205 69.3047 30.575C69.5147 29.945 69.6897 29.3967 69.8297 28.93C69.713 28.93 69.573 28.9067 69.4097 28.86C69.2463 28.8133 69.0713 28.7667 68.8847 28.72C68.698 28.65 68.5113 28.58 68.3247 28.51C68.1613 28.4167 68.033 28.3233 67.9397 28.23C67.753 28.0433 67.5897 27.8217 67.4497 27.565C67.333 27.285 67.298 27.04 67.3447 26.83C67.368 26.7367 67.4847 26.69 67.6947 26.69C67.928 26.6667 68.1147 26.6433 68.2547 26.62H69.5147C69.748 26.62 69.958 26.6317 70.1447 26.655C70.3313 26.655 70.448 26.655 70.4947 26.655L72.6997 19.655C72.8397 19.1183 73.0497 18.64 73.3297 18.22C73.633 17.8 73.948 17.5083 74.2747 17.345L74.9047 16.96ZM75.2197 19.375C75.0797 19.8417 74.9163 20.39 74.7297 21.02C74.5663 21.65 74.3913 22.3033 74.2047 22.98C74.018 23.6567 73.8313 24.3217 73.6447 24.975C73.4813 25.6283 73.3297 26.2117 73.1897 26.725C73.8663 26.7483 74.6013 26.725 75.3947 26.655C76.188 26.5617 76.888 26.4217 77.4947 26.235C77.098 24.9983 76.7597 23.9717 76.4797 23.155C76.223 22.315 76.0013 21.65 75.8147 21.16C75.6513 20.6467 75.523 20.2733 75.4297 20.04C75.3597 19.7833 75.3013 19.6083 75.2547 19.515L75.2197 19.375ZM86.7965 16.12C86.7965 15.8633 86.6681 15.6417 86.4115 15.455C86.1781 15.2683 85.8515 15.1283 85.4315 15.035C85.2681 14.9883 85.0581 14.9417 84.8015 14.895C84.5681 14.8483 84.4398 14.7433 84.4165 14.58C84.4165 14.4633 84.4515 14.3467 84.5215 14.23C84.6148 14.09 84.7198 13.9617 84.8365 13.845C84.9531 13.7283 85.0815 13.635 85.2215 13.565C85.3615 13.4717 85.4781 13.4133 85.5715 13.39C86.5281 13.1333 87.3798 13.1333 88.1265 13.39C88.8731 13.6233 89.3515 13.9733 89.5615 14.44C90.1681 14.0433 90.9381 13.6933 91.8715 13.39C92.8048 13.0867 93.7965 12.935 94.8465 12.935C95.9431 12.935 96.9115 13.1333 97.7515 13.53C98.5915 13.9033 99.2915 14.4167 99.8515 15.07C100.435 15.7 100.866 16.4233 101.146 17.24C101.45 18.0567 101.601 18.8967 101.601 19.76C101.601 20.25 101.52 20.775 101.356 21.335C101.193 21.895 100.913 22.4317 100.516 22.945C100.12 23.4583 99.5715 23.925 98.8715 24.345C98.1948 24.765 97.3198 25.0917 96.2465 25.325C96.4331 27.5183 97.0865 29.455 98.2065 31.135C99.3265 32.7917 100.796 34.18 102.616 35.3C102.92 35.51 103.083 35.7317 103.106 35.965C103.13 36.175 103.048 36.3267 102.861 36.42C102.698 36.5133 102.336 36.5833 101.776 36.63C101.24 36.6767 100.656 36.6067 100.026 36.42C98.9298 36.07 97.9965 35.4983 97.2265 34.705C96.4565 33.8883 95.8031 32.9783 95.2665 31.975C94.7531 30.9483 94.3448 29.8983 94.0415 28.825C93.7615 27.7283 93.5631 26.725 93.4465 25.815C93.0965 25.8383 92.6298 25.8733 92.0465 25.92C91.4631 25.9433 90.8215 25.955 90.1215 25.955C90.1215 26.7717 90.0981 27.5767 90.0515 28.37C90.0281 29.1633 89.9698 29.9683 89.8765 30.785C89.8531 30.995 89.7831 31.415 89.6665 32.045C89.5498 32.6517 89.3865 33.2933 89.1765 33.97C88.9898 34.6467 88.7448 35.2533 88.4415 35.79C88.1615 36.3033 87.8348 36.56 87.4615 36.56C87.4148 36.56 87.3215 36.525 87.1815 36.455C87.0415 36.4083 86.9015 36.3267 86.7615 36.21C86.6215 36.0933 86.5048 35.9533 86.4115 35.79C86.3181 35.6267 86.3065 35.44 86.3765 35.23C86.4465 35.02 86.5048 34.6933 86.5515 34.25C86.5981 33.8067 86.6331 33.2933 86.6565 32.71C86.7031 32.1267 86.7381 31.4967 86.7615 30.82C86.7848 30.1433 86.7965 29.455 86.7965 28.755V16.12ZM90.1215 24.17C90.7981 24.0767 91.5915 23.96 92.5015 23.82C93.4348 23.68 94.3215 23.4583 95.1615 23.155C96.0015 22.8283 96.7131 22.385 97.2965 21.825C97.8798 21.265 98.1715 20.5067 98.1715 19.55C98.1715 19.2467 98.1015 18.8617 97.9615 18.395C97.8215 17.9283 97.5765 17.485 97.2265 17.065C96.8765 16.645 96.4098 16.2833 95.8265 15.98C95.2431 15.6767 94.5081 15.525 93.6215 15.525C93.0148 15.525 92.4198 15.6067 91.8365 15.77C91.2765 15.91 90.6698 16.1783 90.0165 16.575C90.0165 18.3017 90.0281 19.7483 90.0515 20.915C90.0981 22.0583 90.1215 23.1433 90.1215 24.17ZM105.573 15.945C105.176 15.945 104.803 15.91 104.453 15.84C104.126 15.7467 103.905 15.595 103.788 15.385C103.765 15.2917 103.753 15.175 103.753 15.035C103.776 14.8717 103.811 14.72 103.858 14.58C103.905 14.4167 103.951 14.2767 103.998 14.16C104.068 14.02 104.138 13.9267 104.208 13.88C104.675 13.6233 105.2 13.4483 105.783 13.355C106.39 13.2383 106.961 13.18 107.498 13.18C107.848 13.18 108.128 13.3083 108.338 13.565C108.571 13.8217 108.781 14.0667 108.968 14.3C109.201 14.65 109.365 15.245 109.458 16.085C109.551 16.925 109.598 17.835 109.598 18.815C109.621 19.7717 109.61 20.705 109.563 21.615C109.54 22.5017 109.528 23.19 109.528 23.68C109.831 23.5633 110.1 23.4467 110.333 23.33C110.59 23.2133 110.881 23.05 111.208 22.84C111.745 22.28 112.27 21.6617 112.783 20.985C113.32 20.3083 113.81 19.655 114.253 19.025C114.72 18.3717 115.128 17.765 115.478 17.205C115.828 16.645 116.108 16.2017 116.318 15.875C116.621 15.0117 116.96 14.4167 117.333 14.09C117.73 13.7633 118.033 13.6 118.243 13.6C118.546 13.6 118.745 13.705 118.838 13.915C118.955 14.125 119.013 14.3233 119.013 14.51C119.013 15.5133 118.838 16.3883 118.488 17.135C118.138 17.8817 117.706 18.6633 117.193 19.48C116.796 20.11 116.446 20.6817 116.143 21.195C115.84 21.685 115.548 22.14 115.268 22.56C114.988 22.98 114.696 23.3767 114.393 23.75C114.113 24.1233 113.798 24.485 113.448 24.835C113.938 25.5817 114.416 26.3983 114.883 27.285C115.35 28.1483 115.758 28.9417 116.108 29.665C116.341 30.1317 116.61 30.645 116.913 31.205C117.24 31.7417 117.59 32.255 117.963 32.745C118.36 33.235 118.768 33.655 119.188 34.005C119.631 34.355 120.086 34.565 120.553 34.635C120.74 34.6583 120.868 34.7633 120.938 34.95C121.008 35.1367 121.043 35.3117 121.043 35.475C121.043 35.5917 120.973 35.7083 120.833 35.825C120.716 35.9417 120.553 36.0467 120.343 36.14C120.156 36.2333 119.958 36.315 119.748 36.385C119.561 36.455 119.398 36.49 119.258 36.49C118.745 36.49 118.22 36.3267 117.683 36C117.146 35.6967 116.621 35.3117 116.108 34.845C115.595 34.355 115.105 33.8417 114.638 33.305C114.195 32.745 113.81 32.2317 113.483 31.765C112.643 30.505 112.013 29.4317 111.593 28.545C111.173 27.6583 110.823 27.0167 110.543 26.62L109.528 27.04C109.528 27.5067 109.528 27.88 109.528 28.16C109.528 28.4167 109.516 28.6617 109.493 28.895C109.47 29.1283 109.446 29.3733 109.423 29.63C109.4 29.8867 109.365 30.2367 109.318 30.68C109.295 30.7733 109.26 30.9833 109.213 31.31C109.166 31.6133 109.096 31.975 109.003 32.395C108.933 32.815 108.828 33.27 108.688 33.76C108.571 34.2267 108.431 34.67 108.268 35.09C108.105 35.4867 107.906 35.8133 107.673 36.07C107.463 36.3267 107.218 36.455 106.938 36.455C106.751 36.455 106.506 36.35 106.203 36.14C105.923 35.9533 105.783 35.6733 105.783 35.3C105.783 35.2533 105.783 35.1717 105.783 35.055C105.806 34.9383 105.83 34.8567 105.853 34.81C105.876 34.7167 105.9 34.3667 105.923 33.76C105.97 33.1533 106.016 32.36 106.063 31.38C106.11 30.4 106.145 29.28 106.168 28.02C106.191 26.7367 106.215 25.4183 106.238 24.065C106.261 22.6883 106.273 21.3117 106.273 19.935C106.273 18.535 106.261 17.205 106.238 15.945H105.573ZM127.404 23.785C128.571 23.6917 129.702 23.61 130.799 23.54C131.919 23.47 133.039 23.4233 134.159 23.4C134.812 23.3767 135.302 23.4583 135.629 23.645C135.956 23.8083 136.131 23.9483 136.154 24.065C136.177 24.2517 136.131 24.485 136.014 24.765C135.921 25.045 135.769 25.325 135.559 25.605C135.349 25.885 135.104 26.13 134.824 26.34C134.544 26.5267 134.252 26.62 133.949 26.62C132.899 26.62 131.791 26.6083 130.624 26.585C129.481 26.5383 128.384 26.4917 127.334 26.445C127.357 27.705 127.299 28.9767 127.159 30.26C127.042 31.52 126.891 32.535 126.704 33.305C127.077 33.3517 127.672 33.3983 128.489 33.445C129.306 33.4917 130.344 33.515 131.604 33.515C132.771 33.515 133.809 33.4567 134.719 33.34C135.629 33.2 136.457 33.06 137.204 32.92C137.344 33.06 137.402 33.2467 137.379 33.48C137.379 33.7133 137.332 33.9583 137.239 34.215C137.146 34.4483 137.029 34.67 136.889 34.88C136.749 35.0667 136.621 35.195 136.504 35.265C136.177 35.4517 135.536 35.6733 134.579 35.93C133.622 36.1633 132.491 36.3033 131.184 36.35C130.717 36.3733 130.216 36.3733 129.679 36.35C129.166 36.35 128.664 36.3267 128.174 36.28C127.684 36.2567 127.229 36.21 126.809 36.14C126.412 36.0933 126.109 36.0467 125.899 36C125.806 36.14 125.677 36.28 125.514 36.42C125.351 36.56 125.164 36.6767 124.954 36.77C124.767 36.8867 124.557 36.9683 124.324 37.015C124.114 37.0617 123.916 37.05 123.729 36.98C123.566 36.91 123.461 36.7933 123.414 36.63C123.391 36.4667 123.391 36.2683 123.414 36.035C123.437 35.825 123.472 35.5917 123.519 35.335C123.589 35.0783 123.647 34.8217 123.694 34.565C123.904 33.0017 124.032 31.4383 124.079 29.875C124.149 28.3117 124.184 26.7833 124.184 25.29C124.184 23.7967 124.161 22.35 124.114 20.95C124.067 19.55 124.032 18.22 124.009 16.96C123.519 16.7733 123.087 16.54 122.714 16.26C122.341 15.9567 122.072 15.5833 121.909 15.14C121.862 15 121.874 14.86 121.944 14.72C122.014 14.58 122.107 14.4633 122.224 14.37C122.364 14.2533 122.504 14.1717 122.644 14.125C122.784 14.055 122.889 14.0317 122.959 14.055C123.799 14.405 124.744 14.58 125.794 14.58C127.427 14.5567 128.944 14.475 130.344 14.335C131.767 14.1717 133.261 14.02 134.824 13.88C134.987 13.8567 135.186 13.8683 135.419 13.915C135.676 13.9383 135.909 13.985 136.119 14.055C136.352 14.125 136.539 14.2183 136.679 14.335C136.842 14.4283 136.924 14.545 136.924 14.685C136.924 14.8717 136.854 15.0817 136.714 15.315C136.574 15.5483 136.399 15.7817 136.189 16.015C135.979 16.225 135.734 16.4233 135.454 16.61C135.197 16.7733 134.952 16.8783 134.719 16.925C133.459 17.0417 132.246 17.1233 131.079 17.17C129.936 17.1933 128.687 17.205 127.334 17.205L127.404 23.785ZM145.247 16.61C144.407 16.6333 143.555 16.645 142.692 16.645C141.829 16.645 141.024 16.61 140.277 16.54C140.16 16.54 139.974 16.4817 139.717 16.365C139.484 16.2483 139.239 16.1083 138.982 15.945C138.725 15.7817 138.492 15.6067 138.282 15.42C138.095 15.21 138.002 15.0117 138.002 14.825C138.002 14.685 138.06 14.58 138.177 14.51C138.294 14.4167 138.434 14.3467 138.597 14.3C138.784 14.2533 138.97 14.2183 139.157 14.195C139.367 14.1483 139.542 14.125 139.682 14.125C140.055 14.1017 140.685 14.0667 141.572 14.02C142.482 13.9733 143.485 13.9267 144.582 13.88C145.679 13.81 146.799 13.7633 147.942 13.74C149.109 13.6933 150.135 13.6467 151.022 13.6C151.092 13.6 151.279 13.6 151.582 13.6C151.885 13.6 152.189 13.6233 152.492 13.67C152.819 13.7167 153.11 13.7867 153.367 13.88C153.647 13.9733 153.787 14.125 153.787 14.335C153.787 14.475 153.74 14.65 153.647 14.86C153.554 15.07 153.425 15.2683 153.262 15.455C153.099 15.6417 152.912 15.8167 152.702 15.98C152.492 16.12 152.282 16.2133 152.072 16.26C151.675 16.33 151.209 16.3883 150.672 16.435C150.135 16.4583 149.424 16.47 148.537 16.47V25.395C148.537 26.1417 148.479 27.0517 148.362 28.125C148.245 29.1983 148.059 30.2717 147.802 31.345C147.545 32.395 147.207 33.3633 146.787 34.25C146.39 35.1367 145.912 35.755 145.352 36.105C145.095 36.2683 144.804 36.3383 144.477 36.315C144.174 36.315 143.964 36.2683 143.847 36.175C143.73 36.0817 143.707 35.9417 143.777 35.755C143.847 35.5683 143.905 35.4167 143.952 35.3C144.232 34.5767 144.454 33.795 144.617 32.955C144.804 32.0917 144.944 31.2167 145.037 30.33C145.13 29.4433 145.189 28.5567 145.212 27.67C145.235 26.76 145.247 25.8967 145.247 25.08V16.61Z" transform="translate(91 359)" fill="#4C6085"/>
<path d="M16 0L29.8564 17.25L2.14359 17.25L16 0Z" transform="translate(148 311)" fill="#4C6085"/>
<path d="M16 0L29.8564 17.25L2.14359 17.25L16 0Z" transform="translate(195 355) scale(1 -1)" fill="#FFA630"/>
<path d="M36.4388 9.1202L36.4389 9.12009C37.786 7.79002 37.786 5.63371 36.4389 4.30364L36.4388 4.30354C35.7905 3.66719 34.9143 3.30891 34.0002 3.30593H34L6.8 3.30593L6.79984 3.30593C5.8859 3.30891 5.00954 3.66719 4.36117 4.30354L4.36107 4.30364C3.01397 5.63371 3.01397 7.79002 4.36107 9.12009L4.36117 9.1202C5.00954 9.75654 5.8859 10.1148 6.79984 10.1178H6.8H34H34.0002C34.9143 10.1148 35.7905 9.75654 36.4388 9.1202ZM6.8 0.05H34C37.7285 0.05 40.75 3.03326 40.75 6.71187C40.75 10.3905 37.7285 13.3737 34 13.3737H6.8C3.07148 13.3737 0.05 10.3905 0.05 6.71187C0.05 3.03326 3.07148 0.05 6.8 0.05Z" transform="translate(89 498.983)" fill="#FFA630" stroke="white" stroke-width="0.1"/>
<path d="M0.05 1.67797C0.05 0.779537 0.788172 0.05 1.7 0.05C2.61183 0.05 3.35 0.779537 3.35 1.67797V50.339C3.35 51.2374 2.61183 51.967 1.7 51.967C0.788172 51.967 0.05 51.2374 0.05 50.339V1.67797Z" transform="translate(133.2 498.983)" fill="#FFA630" stroke="white" stroke-width="0.1"/>
<path d="M1.75 43.6271V43.5771H1.7C0.788172 43.5771 0.05 42.8476 0.05 41.9492V1.67797C0.05 0.779537 0.788172 0.05 1.7 0.05H32.3C33.2118 0.05 33.95 0.779537 33.95 1.67797V41.9492C33.95 42.8476 33.2118 43.5771 32.3 43.5771H5.1H5.05V43.6271V50.339C5.05 51.2374 4.31183 51.967 3.4 51.967C2.48817 51.967 1.75 51.2374 1.75 50.339V43.6271ZM30.6 40.3212H30.65V40.2712V30.2034V30.1534H30.6H3.4H3.35V30.2034V40.2712V40.3212H3.4H30.6ZM30.6 26.8975H30.65V26.8475V16.7797V16.7297H30.6H3.4H3.35V16.7797V26.8475V26.8975H3.4H30.6ZM30.6 13.4737H30.65V13.4237V3.35593V3.30593H30.6H3.4H3.35V3.35593V13.4237V13.4737H3.4H30.6Z" transform="translate(41.3999 498.983)" fill="#FFA630" stroke="white" stroke-width="0.1"/>
<path d="M10.2 33.6093H10.25V33.5593V30.2034V30.1534H10.2H3.4H3.35V30.2034V33.5593V33.6093H3.4H10.2ZM10.2 26.8975H10.25V26.8475V23.4915V23.4415H10.2H3.4H3.35V23.4915V26.8475V26.8975H3.4H10.2ZM10.2 20.1856H10.25V20.1356V3.35593V3.30593H10.2H3.4H3.35V3.35593V20.1356V20.1856H3.4H10.2ZM1.7 0.05H11.9C12.8118 0.05 13.55 0.779537 13.55 1.67797V35.2373C13.55 36.1357 12.8118 36.8653 11.9 36.8653H1.7C0.788172 36.8653 0.05 36.1357 0.05 35.2373V1.67797C0.05 0.779537 0.788172 0.05 1.7 0.05Z" transform="translate(44.8 452)" fill="#FFA630" stroke="white" stroke-width="0.1"/>
<path d="M10.2 33.6093H10.25V33.5593V30.2034V30.1534H10.2H3.4H3.35V30.2034V33.5593V33.6093H3.4H10.2ZM10.2 26.8975H10.25V26.8475V23.4915V23.4415H10.2H3.4H3.35V23.4915V26.8475V26.8975H3.4H10.2ZM10.2 20.1856H10.25V20.1356V3.35593V3.30593H10.2H3.4H3.35V3.35593V20.1356V20.1856H3.4H10.2ZM1.7 0.05H11.9C12.8118 0.05 13.55 0.779537 13.55 1.67797V35.2373C13.55 36.1357 12.8118 36.8653 11.9 36.8653H1.7C0.788172 36.8653 0.05 36.1357 0.05 35.2373V1.67797C0.05 0.779537 0.788172 0.05 1.7 0.05Z" transform="translate(61.8 452)" fill="#FFA630" stroke="white" stroke-width="0.1"/>
<path d="M86.4515 31.8877L86.457 31.9314H86.5011H100.3C101.212 31.9314 101.95 32.6609 101.95 33.5593C101.95 34.4578 101.212 35.1873 100.3 35.1873H1.7C0.788172 35.1873 0.05 34.4578 0.05 33.5593C0.05 32.6609 0.788172 31.9314 1.7 31.9314H56.2989H56.343L56.3485 31.8877L57.377 23.7747C57.377 23.7747 57.377 23.7747 57.377 23.7747C57.7614 20.7681 60.3505 18.5114 63.422 18.5076H69.7H69.75V18.4576V15.1017V15.0517H69.7H66.3238C66.034 15.0517 65.7445 15.0313 65.4576 14.9907C62.1268 14.5193 59.8147 11.472 60.2924 8.1856L60.2924 8.18556L60.7191 5.23089C60.7191 5.23085 60.7191 5.23081 60.7191 5.23077C61.1617 2.2654 63.733 0.0633699 66.771 0.05H76.029C79.0669 0.06337 81.6384 2.26547 82.0809 5.23089L82.5076 8.18556L82.5571 8.17841L82.5076 8.18559C82.5487 8.46868 82.5694 8.75426 82.5694 9.04025C82.5687 12.3602 79.8413 15.0523 76.4762 15.0517H73.1H73.05V15.1017V18.4576V18.5076H73.1H79.378C82.4495 18.5114 85.0387 20.7681 85.423 23.7747L86.4515 31.8877ZM63.5543 8.64613L63.5543 8.64618C63.5359 8.77457 63.5266 8.90426 63.5266 9.03417C63.5266 10.56 64.7796 11.7958 66.3238 11.7958H76.4762C76.6055 11.7956 76.7344 11.7864 76.8622 11.7684C78.3912 11.5543 79.4561 10.1568 79.2389 8.64616L78.8122 5.69123L78.8122 5.69104C78.6094 4.32316 77.4253 3.30755 76.026 3.29922H76.0257L66.7675 3.29922L66.7672 3.29922C65.3679 3.30755 64.1838 4.32316 63.981 5.69104L63.981 5.69123L63.5543 8.64613ZM59.6765 31.8751L59.6694 31.9314H59.7261H83.0739H83.1306L83.1235 31.8751L82.1477 24.1782L82.1477 24.1782C81.9708 22.7997 80.7845 21.7663 79.3782 21.7636H63.4219H63.4218C62.0149 21.7655 60.8275 22.799 60.6506 24.1782L60.6506 24.1783L59.6765 31.8751Z" transform="translate(38 460.39)" fill="#FFA630" stroke="white" stroke-width="0.1"/>
<path d="M35.6506 22.2817V22.3108L35.6758 22.3252C36.1851 22.6153 36.6079 23.0328 36.9018 23.5352C37.8266 25.1161 37.2782 27.1377 35.6758 28.0508C34.0733 28.9642 32.0242 28.422 31.0993 26.8407L31.0562 26.8659L31.0993 26.8407C30.1745 25.26 30.723 23.2382 32.3253 22.3252L32.3509 22.3106L32.3506 22.2813C32.3308 20.1356 30.563 18.4076 28.3906 18.4076H20.4006H20.3506V18.4576V22.28V22.3091L20.3758 22.3235C20.8851 22.6136 21.3079 23.0311 21.6018 23.5336L21.645 23.5083L21.6018 23.5336C22.5266 25.1142 21.9782 27.136 20.3758 28.0491L20.4006 28.0925L20.3758 28.0491C18.7733 28.9625 16.7242 28.4203 15.7993 26.839L15.7562 26.8642L15.7993 26.839C14.8745 25.2583 15.423 23.2365 17.0253 22.3235L17.0506 22.3091V22.28V18.4576V18.4076H17.0006H9.01058C6.83944 18.4076 5.07234 20.1335 5.05059 22.2779L5.05029 22.3073L5.07583 22.3218C5.58506 22.612 6.00794 23.0294 6.30182 23.5319L6.34421 23.5071L6.30183 23.5319C7.22665 25.1126 6.67818 27.1344 5.07583 28.0474L5.10059 28.0908L5.07583 28.0474C3.47332 28.9608 1.42419 28.4186 0.499346 26.8373L0.459967 26.8604L0.499342 26.8373C-0.425479 25.2566 0.122991 23.2348 1.72534 22.3218L1.7504 22.3075L1.75059 22.2787C1.77654 18.3388 5.01742 15.1563 9.01064 15.1517H17.0006H17.0506V15.1017V1.67797C17.0506 0.779537 17.7888 0.05 18.7006 0.05C19.6124 0.05 20.3506 0.779537 20.3506 1.67797V15.1017V15.1517H20.4006H28.3905C32.3838 15.1563 35.6246 18.3388 35.6506 22.2787V22.2817Z" transform="translate(90.6995 515.763)" fill="#FFA630" stroke="white" stroke-width="0.1"/>
</g>
<defs>
<filter id="filter0_d" x="83" y="229" width="218" height="218" filterUnits="userSpaceOnUse" color-interpolation-filters="sRGB">
<feFlood flood-opacity="0" result="BackgroundImageFix"/>
<feColorMatrix in="SourceAlpha" type="matrix" values="0 0 0 0 0 0 0 0 0 0 0 0 0 0 0 0 0 0 255 0"/>
<feOffset dx="4" dy="4"/>
<feGaussianBlur stdDeviation="2"/>
<feColorMatrix type="matrix" values="0 0 0 0 0 0 0 0 0 0 0 0 0 0 0 0 0 0 0.25 0"/>
<feBlend mode="normal" in2="BackgroundImageFix" result="effect1_dropShadow"/>
<feBlend mode="normal" in="SourceGraphic" in2="effect1_dropShadow" result="shape"/>
</filter>
<clipPath id="clip0">
<rect width="375" height="667" fill="white"/>
</clipPath>
</defs>
</svg>
