<svg width="74" height="83" viewBox="0 0 74 83" fill="none" xmlns="http://www.w3.org/2000/svg">
<g filter="url(#filter0_d)">
<circle cx="33" cy="33" r="33" transform="translate(4)" fill="#E8EEF2"/>
<circle cx="33" cy="33" r="31.5" transform="translate(4)" stroke="#FFA630" stroke-width="3"/>
</g>
<path d="M13.3838 10.6045H9.20703V15H7.89453V5.04688H14.0605V6.12695H9.20703V9.53125H13.3838V10.6045ZM19.8506 14.2686C19.3584 14.8473 18.6361 15.1367 17.6836 15.1367C16.8952 15.1367 16.2936 14.9089 15.8789 14.4531C15.4688 13.9928 15.2614 13.3138 15.2568 12.416V7.60352H16.5215V12.3818C16.5215 13.5029 16.9772 14.0635 17.8887 14.0635C18.8548 14.0635 19.4974 13.7035 19.8164 12.9834V7.60352H21.0811V15H19.8779L19.8506 14.2686ZM26.584 8.73828C26.3926 8.70638 26.1852 8.69043 25.9619 8.69043C25.1325 8.69043 24.5697 9.04362 24.2734 9.75V15H23.0088V7.60352H24.2393L24.2598 8.45801C24.6745 7.7972 25.2624 7.4668 26.0234 7.4668C26.2695 7.4668 26.4564 7.4987 26.584 7.5625V8.73828ZM28.9492 7.60352L28.9902 8.5332C29.5553 7.82227 30.2936 7.4668 31.2051 7.4668C32.7682 7.4668 33.5566 8.34863 33.5703 10.1123V15H32.3057V10.1055C32.3011 9.57227 32.1781 9.17806 31.9365 8.92285C31.6995 8.66764 31.3281 8.54004 30.8223 8.54004C30.4121 8.54004 30.0521 8.64941 29.7422 8.86816C29.4323 9.08691 29.1908 9.37402 29.0176 9.72949V15H27.7529V7.60352H28.9492ZM36.8516 15H35.5869V7.60352H36.8516V15ZM35.4844 5.6416C35.4844 5.43652 35.5459 5.26335 35.6689 5.12207C35.7965 4.98079 35.9834 4.91016 36.2295 4.91016C36.4756 4.91016 36.6624 4.98079 36.79 5.12207C36.9176 5.26335 36.9814 5.43652 36.9814 5.6416C36.9814 5.84668 36.9176 6.01758 36.79 6.1543C36.6624 6.29102 36.4756 6.35938 36.2295 6.35938C35.9834 6.35938 35.7965 6.29102 35.6689 6.1543C35.5459 6.01758 35.4844 5.84668 35.4844 5.6416ZM40.5977 5.8125V7.60352H41.9785V8.58105H40.5977V13.168C40.5977 13.4642 40.6592 13.6875 40.7822 13.8379C40.9053 13.9837 41.1149 14.0566 41.4111 14.0566C41.557 14.0566 41.7575 14.0293 42.0127 13.9746V15C41.68 15.0911 41.3564 15.1367 41.042 15.1367C40.4769 15.1367 40.0508 14.9658 39.7637 14.624C39.4766 14.2822 39.333 13.7969 39.333 13.168V8.58105H37.9863V7.60352H39.333V5.8125H40.5977ZM48.0283 14.2686C47.5361 14.8473 46.8138 15.1367 45.8613 15.1367C45.0729 15.1367 44.4714 14.9089 44.0566 14.4531C43.6465 13.9928 43.4391 13.3138 43.4346 12.416V7.60352H44.6992V12.3818C44.6992 13.5029 45.1549 14.0635 46.0664 14.0635C47.0326 14.0635 47.6751 13.7035 47.9941 12.9834V7.60352H49.2588V15H48.0557L48.0283 14.2686ZM54.7617 8.73828C54.5703 8.70638 54.363 8.69043 54.1396 8.69043C53.3102 8.69043 52.7474 9.04362 52.4512 9.75V15H51.1865V7.60352H52.417L52.4375 8.45801C52.8522 7.7972 53.4401 7.4668 54.2012 7.4668C54.4473 7.4668 54.6341 7.4987 54.7617 7.5625V8.73828ZM58.8633 15.1367C57.8607 15.1367 57.0449 14.8086 56.416 14.1523C55.7871 13.4915 55.4727 12.6097 55.4727 11.5068V11.2744C55.4727 10.5407 55.6117 9.88672 55.8896 9.3125C56.1722 8.73372 56.5641 8.28255 57.0654 7.95898C57.5713 7.63086 58.1182 7.4668 58.7061 7.4668C59.6676 7.4668 60.415 7.78353 60.9482 8.41699C61.4814 9.05046 61.748 9.95736 61.748 11.1377V11.6641H56.7373C56.7555 12.3932 56.9674 12.9834 57.373 13.4346C57.7832 13.8812 58.3027 14.1045 58.9316 14.1045C59.3783 14.1045 59.7565 14.0133 60.0664 13.8311C60.3763 13.6488 60.6475 13.4072 60.8799 13.1064L61.6523 13.708C61.0326 14.6605 60.1029 15.1367 58.8633 15.1367ZM58.7061 8.50586C58.1956 8.50586 57.7673 8.69271 57.4209 9.06641C57.0745 9.43555 56.8604 9.95508 56.7783 10.625H60.4834V10.5293C60.4469 9.88672 60.2738 9.38997 59.9639 9.03906C59.654 8.68359 59.2347 8.50586 58.7061 8.50586Z" transform="translate(1 67)" fill="#F2994A"/>
<path d="M31.7498 40.5944L25.1874 27.903C25.1314 27.7986 25.0498 27.7074 24.9491 27.6367C25.1175 27.5302 25.2783 27.4268 25.4358 27.311L26.1019 26.8216C29.1168 24.6101 30.551 21.0522 29.829 17.5752L28.0842 9.17083C26.8127 3.05169 20.3704 -0.964161 13.6947 0.201198C8.73399 1.06716 4.85417 4.62364 3.90945 9.17074L2.16295 17.5751C1.44097 21.0524 2.87589 24.6106 5.89173 26.8215L6.55866 27.3109C6.71613 27.4267 6.88118 27.5301 7.04539 27.6366C6.94455 27.7074 6.86308 27.7985 6.80708 27.9029L0.249725 40.5944C-0.0590059 41.194 -0.0824797 41.8842 0.184884 42.5002C0.580771 43.404 1.53918 43.9942 2.60168 43.9884C2.95547 43.9875 3.30588 43.9249 3.63408 43.8039C4.24418 43.5811 4.73943 43.1548 5.02017 42.6106L7.92538 36.9851L13.4705 34.8917V39.5014C13.4705 40.7803 14.6016 41.8171 15.9968 41.8171C17.392 41.8171 18.5231 40.7803 18.5231 39.5014V34.8917L24.0682 36.9851L26.9734 42.6106C27.2694 43.1744 27.7917 43.6113 28.4311 43.8302C28.7366 43.9426 29.0628 44.0002 29.3919 44C30.829 44.003 31.9966 42.9376 32 41.6204C32.0008 41.2655 31.9154 40.915 31.7498 40.5944ZM3.49767 41.9491C3.38293 42.1599 3.18199 42.3206 2.93852 42.396C2.46821 42.5682 1.93464 42.3585 1.74664 41.9274C1.65191 41.7101 1.66033 41.4666 1.7697 41.2552L8.32874 28.5622C8.35453 28.5012 8.37147 28.4374 8.37926 28.3723C8.82862 28.5832 9.29409 28.7638 9.77208 28.9127C9.90513 28.9528 10.0415 28.9814 10.1746 29.0192L9.4723 30.3792C9.41093 30.4391 9.36061 30.5076 9.32325 30.5823C9.30819 30.6291 9.29809 30.6772 9.29293 30.7258L3.49767 41.9491ZM13.4705 33.2213L8.99651 34.9102L10.5586 31.8852L13.4705 32.9844V33.2213ZM11.2811 30.4873L11.7022 29.6645C11.7416 29.5827 11.7653 29.4951 11.772 29.4059C12.3334 29.5175 12.8984 29.6063 13.4672 29.6722L13.4705 31.314L11.2811 30.4873ZM16.8389 39.5007C16.8389 39.9269 16.4619 40.2725 15.9968 40.2725C15.5318 40.2725 15.1547 39.9269 15.1547 39.5007V34.2518L15.9968 33.9338L16.8389 34.2518V39.5007ZM16.8389 31.95L15.9968 32.2673L15.1547 31.9493V29.8034C15.4351 29.8142 15.7156 29.8335 15.9968 29.8335C16.2781 29.8335 16.5585 29.8142 16.8389 29.8034V31.95ZM10.306 27.4499C9.3283 27.1507 8.4161 26.6955 7.61128 26.1053L6.94266 25.6167C4.41418 23.7628 3.21157 20.7793 3.81766 17.8638L5.56415 9.45952C6.66224 4.17806 12.2234 0.712574 17.9852 1.71921C22.2657 2.46698 25.6137 5.53582 26.4295 9.45952L28.176 17.8638C28.7818 20.7793 27.5792 23.7627 25.051 25.6167L24.384 26.1053C23.5792 26.6955 22.667 27.1507 21.6893 27.4499C17.9933 28.5706 14.0019 28.5706 10.306 27.4499ZM20.7134 30.4873L18.5231 31.314V29.6722C19.0923 29.6058 19.6574 29.517 20.2182 29.4059C20.2249 29.4951 20.2486 29.5827 20.2881 29.6645L20.7134 30.4873ZM18.5231 33.2213V32.9844L21.435 31.8852L22.9971 34.9102L18.5231 33.2213ZM30.2509 41.9267C30.049 42.3641 29.4986 42.5686 29.0214 42.3836C29.0102 42.3792 28.9989 42.3746 28.9877 42.3698C28.7727 42.2913 28.5982 42.141 28.4993 41.9491L22.7007 30.7274C22.6955 30.6787 22.6854 30.6307 22.6704 30.5838C22.633 30.5089 22.5827 30.4401 22.5213 30.38L21.819 29.0207C21.9521 28.9829 22.0885 28.9543 22.2215 28.9142C22.6995 28.7653 23.165 28.5847 23.6144 28.3739C23.622 28.4389 23.6391 28.5028 23.6649 28.5638L30.2281 41.2552C30.3368 41.4665 30.345 41.7096 30.2509 41.9267Z" transform="translate(21 9)" fill="#FFA630"/>
<path d="M16.7005 0.343662C16.4424 -0.0110205 15.9195 -0.106735 15.5325 0.129849C11.2289 2.76961 5.61324 2.76961 1.30964 0.129849C0.922697 -0.106735 0.399759 -0.0110205 0.141659 0.343662C-0.116442 0.698345 -0.0120223 1.17769 0.374918 1.41427C2.75645 2.87333 5.55651 3.65236 8.42109 3.65275C11.2857 3.65236 14.0857 2.87333 16.4673 1.41427C16.8542 1.17759 16.9586 0.698345 16.7005 0.343662Z" transform="translate(28.5757 30.8289)" fill="#FFA630"/>
<defs>
<filter id="filter0_d" x="0" y="0" width="74" height="74" filterUnits="userSpaceOnUse" color-interpolation-filters="sRGB">
<feFlood flood-opacity="0" result="BackgroundImageFix"/>
<feColorMatrix in="SourceAlpha" type="matrix" values="0 0 0 0 0 0 0 0 0 0 0 0 0 0 0 0 0 0 255 0"/>
<feOffset dy="4"/>
<feGaussianBlur stdDeviation="2"/>
<feColorMatrix type="matrix" values="0 0 0 0 0 0 0 0 0 0 0 0 0 0 0 0 0 0 0.25 0"/>
<feBlend mode="normal" in2="BackgroundImageFix" result="effect1_dropShadow"/>
<feBlend mode="normal" in="SourceGraphic" in2="effect1_dropShadow" result="shape"/>
</filter>
</defs>
</svg>
