<svg width="122" height="55" viewBox="0 0 122 55" fill="none" xmlns="http://www.w3.org/2000/svg">
<rect x="1.5" y="1.5" width="119" height="52" rx="8.5" fill="#4C6085" stroke="#FFA630" stroke-width="3"/>
<path d="M24.9404 25H22.3037V19.5156H17.1621V25H14.5254V12.2031H17.1621V17.3887H22.3037V12.2031H24.9404V25ZM26.6895 20.1572C26.6895 19.2139 26.8711 18.373 27.2344 17.6348C27.5977 16.8965 28.1191 16.3252 28.7988 15.9209C29.4844 15.5166 30.2783 15.3145 31.1807 15.3145C32.4639 15.3145 33.5098 15.707 34.3184 16.4922C35.1328 17.2773 35.5869 18.3438 35.6807 19.6914L35.6982 20.3418C35.6982 21.8008 35.291 22.9727 34.4766 23.8574C33.6621 24.7363 32.5693 25.1758 31.1982 25.1758C29.8271 25.1758 28.7314 24.7363 27.9111 23.8574C27.0967 22.9785 26.6895 21.7832 26.6895 20.2715V20.1572ZM29.2295 20.3418C29.2295 21.2441 29.3994 21.9355 29.7393 22.416C30.0791 22.8906 30.5654 23.1279 31.1982 23.1279C31.8135 23.1279 32.2939 22.8936 32.6396 22.4248C32.9854 21.9502 33.1582 21.1943 33.1582 20.1572C33.1582 19.2725 32.9854 18.5869 32.6396 18.1006C32.2939 17.6143 31.8076 17.3711 31.1807 17.3711C30.5596 17.3711 30.0791 17.6143 29.7393 18.1006C29.3994 18.5811 29.2295 19.3281 29.2295 20.3418ZM39.6445 15.4902L39.7236 16.5537C40.3975 15.7275 41.3086 15.3145 42.457 15.3145C43.6816 15.3145 44.5225 15.7979 44.9795 16.7646C45.6475 15.7979 46.5996 15.3145 47.8359 15.3145C48.8672 15.3145 49.6348 15.6162 50.1387 16.2197C50.6426 16.8174 50.8945 17.7197 50.8945 18.9268V25H48.3457V18.9355C48.3457 18.3965 48.2402 18.0039 48.0293 17.7578C47.8184 17.5059 47.4463 17.3799 46.9131 17.3799C46.1514 17.3799 45.624 17.7432 45.3311 18.4697L45.3398 25H42.7998V18.9443C42.7998 18.3936 42.6914 17.9951 42.4746 17.749C42.2578 17.5029 41.8887 17.3799 41.3672 17.3799C40.6465 17.3799 40.125 17.6787 39.8027 18.2764V25H37.2627V15.4902H39.6445ZM57.2314 25.1758C55.8369 25.1758 54.7002 24.748 53.8213 23.8926C52.9482 23.0371 52.5117 21.8975 52.5117 20.4736V20.2275C52.5117 19.2725 52.6963 18.4199 53.0654 17.6699C53.4346 16.9141 53.9561 16.334 54.6299 15.9297C55.3096 15.5195 56.083 15.3145 56.9502 15.3145C58.251 15.3145 59.2734 15.7246 60.0176 16.5449C60.7676 17.3652 61.1426 18.5283 61.1426 20.0342V21.0713H55.0869C55.1689 21.6924 55.415 22.1904 55.8252 22.5654C56.2412 22.9404 56.7656 23.1279 57.3984 23.1279C58.377 23.1279 59.1416 22.7734 59.6924 22.0645L60.9404 23.4619C60.5596 24.001 60.0439 24.4229 59.3936 24.7275C58.7432 25.0264 58.0225 25.1758 57.2314 25.1758ZM56.9414 17.3711C56.4375 17.3711 56.0273 17.541 55.7109 17.8809C55.4004 18.2207 55.2012 18.707 55.1133 19.3398H58.6465V19.1377C58.6348 18.5752 58.4824 18.1416 58.1895 17.8369C57.8965 17.5264 57.4805 17.3711 56.9414 17.3711Z" transform="translate(41.9999 9)" fill="white"/>
<rect width="34" height="34" fill="#4C6085" transform="translate(12 10)"/>
<path d="M27.2764 9.83119V10.2247L27.5446 10.5127L32.6969 16.0458C32.6971 16.046 32.6973 16.0462 32.6975 16.0464C33.1013 16.4814 33.1003 17.2105 32.6977 17.6431C32.5062 17.8486 32.2725 17.9373 32.0505 17.9373C31.8305 17.9373 31.5971 17.8495 31.4038 17.6428C31.4036 17.6426 31.4034 17.6424 31.4032 17.6422L18.5191 3.80552L18.5181 3.80443C17.7041 2.93286 16.2939 2.93573 15.4803 3.80492L15.4785 3.80687L2.59563 17.6433L2.59511 17.6438C2.2301 18.0364 1.66815 18.0366 1.3027 17.6437L1.30243 17.6434C0.899606 17.2106 0.898745 16.4811 1.30252 16.0461C1.30266 16.0459 1.30281 16.0458 1.30295 16.0456L14.1864 2.21036L14.187 2.2097C15.6844 0.598745 18.3092 0.595809 19.8103 2.20665C19.8103 2.20672 19.8104 2.20679 19.8105 2.20686L23.647 6.32707L25.3788 8.18699V5.64561V3.43884C25.3788 2.76659 25.8696 2.34631 26.3264 2.34631C26.7865 2.34631 27.2764 2.76744 27.2764 3.43884V9.83119Z" transform="translate(12 10)" fill="#4C6085" stroke="white" stroke-width="2"/>
<path d="M21.0677 24.8409H16.4568V16.5092V15.5092H15.4568H9.12211H8.12211V16.5092V24.8409H3.5112C2.19045 24.8409 1 23.6686 1 22.0702V13.1961C1 13.1825 1.0026 13.1705 1.00613 13.1613C1.00929 13.1531 1.01223 13.1496 1.01222 13.1496L12.29 1.04188L23.5667 13.1497L23.568 13.151C23.568 13.151 23.568 13.151 23.568 13.1511C23.5685 13.1517 23.5705 13.1546 23.5728 13.1606C23.5761 13.1692 23.5789 13.1814 23.5789 13.1961V22.0703C23.5789 23.6686 22.3884 24.8409 21.0677 24.8409ZM12.3459 0.981924C12.346 0.981847 12.346 0.981857 12.3459 0.981944L12.3459 0.981924ZM12.2351 0.982855C12.2351 0.982855 12.2351 0.982859 12.2351 0.982864C12.2351 0.98286 12.2351 0.982854 12.2351 0.982855Z" transform="translate(16.71 18.1592)" fill="#4C6085" stroke="white" stroke-width="2"/>
</svg>
