<svg width="375" height="215" viewBox="0 0 375 215" fill="none" xmlns="http://www.w3.org/2000/svg">
<path d="M34.3333 0H6.86667C3.07434 0 0 3.03538 0 6.77966C0 10.5239 3.07434 13.5593 6.86667 13.5593H34.3333C38.1257 13.5593 41.2 10.5239 41.2 6.77966C41.2 3.03538 38.1257 0 34.3333 0ZM36.7607 9.17628C36.1155 9.80975 35.2434 10.1665 34.3333 10.1695H6.86667C5.95683 10.1665 5.08455 9.80975 4.4393 9.17628C3.09901 7.85255 3.09901 5.70678 4.4393 4.38305C5.08455 3.74958 5.95683 3.3928 6.86667 3.38983H34.3333C35.2434 3.3928 36.1155 3.74958 36.7607 4.38305C38.101 5.70678 38.101 7.85255 36.7607 9.17628Z" transform="translate(357.5 24.4576)" fill="#FFA630"/>
<path d="M32.6167 0H1.71667C0.768638 0 0 0.758898 0 1.69492V42.3729C0 43.3089 0.768638 44.0678 1.71667 44.0678V50.8475C1.71667 51.7835 2.4853 52.5424 3.43333 52.5424C4.38136 52.5424 5.15 51.7835 5.15 50.8475V44.0678H32.6167C33.5647 44.0678 34.3333 43.3089 34.3333 42.3729V1.69492C34.3333 0.758898 33.5647 0 32.6167 0ZM30.9 40.678H3.43333V30.5085H30.9V40.678ZM30.9 27.1186H3.43333V16.9492H30.9V27.1186ZM30.9 13.5593H3.43333V3.38983H30.9V13.5593Z" transform="translate(309.433 24.4576)" fill="#FFA630"/>
<path d="M12.0167 0H1.71667C0.768637 0 0 0.758898 0 1.69492V35.5932C0 36.5292 0.768637 37.2881 1.71667 37.2881H12.0167C12.9647 37.2881 13.7333 36.5292 13.7333 35.5932V1.69492C13.7333 0.758898 12.9647 0 12.0167 0ZM10.3 33.8983H3.43333V30.5085H10.3V33.8983ZM10.3 27.1187H3.43333V23.7288H10.3V27.1187ZM10.3 20.339H3.43333V3.38983H10.3V20.339Z" transform="translate(312.867 -23)" fill="#FFA630"/>
<path d="M12.0167 0H1.71667C0.768637 0 0 0.758898 0 1.69492V35.5932C0 36.5292 0.768637 37.2881 1.71667 37.2881H12.0167C12.9647 37.2881 13.7333 36.5292 13.7333 35.5932V1.69492C13.7333 0.758898 12.9647 0 12.0167 0ZM10.3 33.8983H3.43333V30.5085H10.3V33.8983ZM10.3 27.1187H3.43333V23.7288H10.3V27.1187ZM10.3 20.339H3.43333V3.38983H10.3V20.339Z" transform="translate(330.033 -23)" fill="#FFA630"/>
<path d="M101.283 32.2034H87.3491L86.3106 24.0085C85.9192 20.9458 83.2828 18.6479 80.1563 18.6441H73.8167V15.2542H77.226C80.6514 15.2549 83.4287 12.5136 83.4294 9.13157C83.4294 8.84026 83.4083 8.54937 83.3665 8.26102L82.9356 5.27627C82.485 2.25572 79.8666 0.0135593 76.7745 0H67.4255C64.3332 0.0135593 61.715 2.25572 61.2644 5.27627L60.8335 8.26102C60.3471 11.6089 62.7017 14.7121 66.0923 15.1922C66.3844 15.2335 66.679 15.2542 66.974 15.2542H70.3833V18.6441H64.0437C60.9172 18.6479 58.2808 20.9458 57.8894 24.0085L56.8509 32.2034H1.71667C0.768637 32.2034 0 32.9623 0 33.8983C0 34.8343 0.768637 35.5932 1.71667 35.5932H101.283C102.231 35.5932 103 34.8343 103 33.8983C103 32.9623 102.231 32.2034 101.283 32.2034ZM66.974 11.8644C65.4419 11.8644 64.1999 10.6381 64.1999 9.12543C64.1999 8.99661 64.2091 8.86801 64.2274 8.74068L64.6583 5.75593C64.8593 4.39937 66.0335 3.39131 67.4221 3.38305H76.7711C78.1596 3.39131 79.3338 4.39937 79.5349 5.75593L79.9658 8.74068C80.181 10.2383 79.1257 11.6248 77.6088 11.8373C77.482 11.8551 77.3541 11.8642 77.226 11.8644H66.974ZM60.3116 32.2034L61.2953 24.4288C61.4706 23.0614 62.6478 22.0358 64.0437 22.0339H80.1563C81.5515 22.0367 82.7277 23.0621 82.903 24.4288L83.8884 32.2034H60.3116Z" transform="translate(306 -14.5254)" fill="#FFA630"/>
<path d="M37.3072 23.7475C37.0059 23.2322 36.5725 22.8042 36.0506 22.5068V22.5034C36.0242 18.4953 32.7284 15.2589 28.6689 15.2542H20.6006V1.69492C20.6006 0.758898 19.832 0 18.8839 0C17.9359 0 17.1673 0.758898 17.1673 1.69492V15.2542H9.09892C5.03944 15.2589 1.74365 18.4953 1.71726 22.5034C0.0750525 23.4394 -0.487586 25.5127 0.460658 27.1339C1.40869 28.7553 3.5086 29.3108 5.15059 28.3746C6.7928 27.4386 7.35543 25.3653 6.40719 23.7441C6.10591 23.2288 5.67246 22.8009 5.15059 22.5034C5.17226 20.3657 6.93356 18.6441 9.09892 18.6441H17.1673V22.5051C15.5251 23.4411 14.9624 25.5144 15.9107 27.1356C16.8587 28.757 18.9586 29.3125 20.6006 28.3763C22.2428 27.4403 22.8054 25.367 21.8572 23.7458C21.5559 23.2305 21.1225 22.8025 20.6006 22.5051V18.6441H28.6689C30.8356 18.6441 32.5975 20.3678 32.6173 22.5068C30.9751 23.4428 30.4124 25.5161 31.3607 27.1373C32.3087 28.7587 34.4086 29.3142 36.0506 28.378C37.6928 27.442 38.2554 25.3689 37.3072 23.7475Z" transform="translate(359.216 41.4068)" fill="#FFA630"/>
<rect width="4" height="60" transform="translate(61 -5)" fill="#4C6085"/>
<rect width="4" height="79" transform="translate(106 56)" fill="#4C6085"/>
<rect width="4" height="232" transform="translate(194 -21)" fill="#4C6085"/>
<rect width="4" height="178" transform="translate(282 -21)" fill="#4C6085"/>
<path d="M26.7889 35.0588L21.2519 24.0981C21.2046 24.0079 21.1358 23.9292 21.0508 23.8681C21.1929 23.7761 21.3286 23.6868 21.4615 23.5868L22.0235 23.1641C24.5673 21.2542 25.7774 18.1815 25.1682 15.1785L23.696 7.92026C22.6232 2.63555 17.1875 -0.832685 11.5549 0.173762C7.36931 0.921639 4.0957 3.99314 3.2986 7.92018L1.82499 15.1785C1.21582 18.1816 2.42653 21.2546 4.97115 23.164L5.53387 23.5867C5.66674 23.6867 5.806 23.776 5.94455 23.868C5.85947 23.9291 5.79072 24.0078 5.74347 24.098L0.210706 35.0588C-0.0497862 35.5766 -0.0695922 36.1727 0.155996 36.7047C0.490026 37.4853 1.29868 37.995 2.19517 37.99C2.49367 37.9892 2.78934 37.9352 3.06626 37.8307C3.58103 37.6383 3.9989 37.27 4.23576 36.8001L6.68704 31.9417L11.3658 30.1337V34.1149C11.3658 35.2194 12.3201 36.1148 13.4973 36.1148C14.6745 36.1148 15.6288 35.2194 15.6288 34.1149V30.1337L20.3076 31.9417L22.7588 36.8001C23.0086 37.2869 23.4493 37.6643 23.9887 37.8533C24.2465 37.9504 24.5217 38.0002 24.7994 38C26.0119 38.0026 26.9972 37.0825 27 35.9449C27.0007 35.6384 26.9286 35.3357 26.7889 35.0588ZM2.95116 36.2288C2.85435 36.4108 2.6848 36.5496 2.47938 36.6147C2.08255 36.7635 1.63235 36.5823 1.47373 36.21C1.3938 36.0223 1.4009 35.812 1.49318 35.6295L7.02737 24.6674C7.04913 24.6147 7.06343 24.5595 7.07 24.5034C7.44915 24.6855 7.84189 24.8414 8.24519 24.97C8.35745 25.0047 8.47256 25.0294 8.58482 25.062L7.99225 26.2366C7.94047 26.2883 7.89802 26.3474 7.86649 26.4119C7.85379 26.4524 7.84526 26.4939 7.84091 26.5359L2.95116 36.2288ZM11.3658 28.6912L7.59081 30.1497L8.90881 27.5372L11.3658 28.4865V28.6912V28.6912ZM9.51843 26.33L9.87369 25.6193C9.90699 25.5487 9.92698 25.4731 9.93266 25.396C10.4063 25.4924 10.8831 25.5691 11.3629 25.626L11.3658 27.0439L9.51843 26.33ZM14.2078 34.1142C14.2078 34.4823 13.8897 34.7808 13.4973 34.7808C13.1049 34.7808 12.7868 34.4823 12.7868 34.1142V29.5811L13.4973 29.3065L14.2078 29.5811V34.1142ZM14.2078 27.5932L13.4973 27.8672L12.7868 27.5925V25.7393C13.0234 25.7486 13.26 25.7653 13.4973 25.7653C13.7346 25.7653 13.9712 25.7486 14.2078 25.7393V27.5932ZM8.69566 23.7068C7.87075 23.4484 7.10109 23.0552 6.42201 22.5455L5.85787 22.1235C3.72446 20.5224 2.70976 17.9457 3.22115 15.4279L4.69476 8.16959C5.62127 3.60833 10.3135 0.615405 15.175 1.48478C18.7867 2.13057 21.6115 4.78093 22.2999 8.16959L23.7735 15.4279C24.2847 17.9457 23.27 20.5223 21.1367 22.1235L20.574 22.5455C19.8949 23.0552 19.1253 23.4484 18.3004 23.7068C15.1818 24.6746 11.8141 24.6746 8.69566 23.7068ZM17.4769 26.33L15.6288 27.0439V25.626C16.1092 25.5687 16.5859 25.492 17.0591 25.396C17.0648 25.4731 17.0848 25.5487 17.1181 25.6193L17.4769 26.33ZM15.6288 28.6912V28.4865L18.0858 27.5372L19.4038 30.1497L15.6288 28.6912ZM25.5242 36.2094C25.3538 36.5872 24.8894 36.7638 24.4868 36.604C24.4773 36.6002 24.4678 36.5962 24.4584 36.5921C24.277 36.5243 24.1297 36.3945 24.0463 36.2288L19.1537 26.5373C19.1494 26.4953 19.1408 26.4538 19.1281 26.4133C19.0966 26.3486 19.0541 26.2892 19.0024 26.2373L18.4098 25.0634C18.5221 25.0307 18.6372 25.006 18.7494 24.9714C19.1527 24.8428 19.5455 24.6868 19.9246 24.5047C19.9311 24.5609 19.9455 24.616 19.9672 24.6687L25.505 35.6295C25.5966 35.8119 25.6036 36.0219 25.5242 36.2094Z" transform="translate(139 78)" fill="#FFA630"/>
<path d="M14.0911 0.296799C13.8733 -0.00951768 13.4321 -0.0921802 13.1056 0.112142C9.47441 2.39194 4.73617 2.39194 1.10501 0.112142C0.778525 -0.0921802 0.337297 -0.00951768 0.119525 0.296799C-0.0982478 0.603116 -0.0101438 1.01709 0.316337 1.22142C2.32576 2.48152 4.6883 3.15431 7.10529 3.15465C9.52228 3.15431 11.8848 2.48152 13.8942 1.22142C14.2207 1.01701 14.3088 0.603116 14.0911 0.296799Z" transform="translate(145.392 96.8522)" fill="#FFA630"/>
<rect width="4" height="198" transform="translate(0 135) scale(-1 1) rotate(90)" fill="#4C6085"/>
<rect width="4" height="375" transform="translate(0 211) scale(-1 1) rotate(90)" fill="#4C6085"/>
<rect width="4" height="198" transform="translate(198 157) scale(-1 1) rotate(90)" fill="#4C6085"/>
<rect width="4" height="198" transform="translate(195 90) scale(-1 1) rotate(90)" fill="#4C6085"/>
<rect width="4" height="194" transform="translate(0 58) rotate(-90)" fill="#4C6085"/>
<path d="M6.57731 34.8H4.76694V19.4484L7.07274 17.1546C7.91509 16.3147 8.36776 15.164 8.32189 13.9788L7.78422 0.576C7.77124 0.254025 7.50482 -0.000224851 7.18076 1.4922e-07H1.14622C0.822164 -0.000224851 0.555739 0.254025 0.542765 0.576L0.00327699 13.98C-0.0433398 15.1653 0.4091 16.3162 1.25182 17.1558L3.56004 19.4484V34.8H1.74967C1.41642 34.8 1.14622 35.0686 1.14622 35.4C1.14622 35.7313 1.41642 36 1.74967 36H6.57731C6.91056 36 7.18076 35.7313 7.18076 35.4C7.18076 35.0686 6.91056 34.8 6.57731 34.8ZM2.10511 16.3062C1.49924 15.7041 1.1736 14.8779 1.20656 14.0268L1.72493 1.2H6.60024L7.11619 14.0268C7.14938 14.8777 6.82442 15.7039 6.21946 16.3068L4.16349 18.3516L2.10511 16.3062Z" transform="translate(10 9)" fill="#FFA630"/>
<path d="M10.8622 30H7.24145V14.4C7.24145 14.3898 7.23602 14.3814 7.23542 14.3712C10.6763 14.0659 13.3047 11.1848 13.276 7.7502L12.6725 0.550203C12.6464 0.238428 12.3837 -0.00104656 12.0691 3.43954e-06H1.20691C0.892283 -0.00104656 0.629554 0.238428 0.603454 0.550203L2.14746e-07 7.8C-0.000678671 11.2148 2.6199 14.0656 6.04058 14.3712C6.04058 14.3814 6.03454 14.3898 6.03454 14.4V30H2.41382C2.08056 30 1.81036 30.2687 1.81036 30.6C1.81036 30.9314 2.08056 31.2 2.41382 31.2H10.8622C11.1954 31.2 11.4656 30.9314 11.4656 30.6C11.4656 30.2687 11.1954 30 10.8622 30ZM2.79761 11.6184H2.80003C1.78841 10.6213 1.21551 9.2661 1.20691 7.8498L1.76209 1.2H11.5139L12.0691 7.8C12.0691 10.7823 9.63754 13.2 6.63807 13.2001C5.19755 13.2001 3.81617 12.6311 2.79761 11.6184Z" transform="translate(19.6549 13.8)" fill="#FFA630"/>
<path d="M1.80602 5.32557L1.20256 0.525572C1.16115 0.196772 0.859501 -0.0364026 0.528808 0.00469741C0.528732 0.00469741 0.528582 0.00469737 0.528506 0.00477237C0.197964 0.0459474 -0.0365533 0.345647 0.00470791 0.674372L0.608163 5.47437C0.645879 5.7746 0.902496 5.9999 1.20679 5.99997C1.23198 5.99982 1.25718 5.99825 1.28222 5.99517C1.61276 5.954 1.8472 5.6543 1.80602 5.32557Z" transform="translate(28.1034 16.2)" fill="#FFA630"/>
<path d="M1.79864 3.48135C1.79864 3.48127 1.79864 3.4812 1.79857 3.48112L1.19511 0.481123C1.13167 0.158473 0.817275 -0.0519022 0.492767 0.0111728C0.489524 0.0117728 0.48628 0.0124479 0.483037 0.0131229C0.156493 0.0793479 -0.0542635 0.396223 0.0122673 0.720897C0.0122673 0.720972 0.0122667 0.721047 0.0123421 0.721122L0.615796 3.72112C0.673125 4.0005 0.92039 4.2012 1.20718 4.20112C1.24769 4.20135 1.2882 4.1973 1.32787 4.18912C1.65449 4.1229 1.86525 3.80602 1.79864 3.48135Z" transform="translate(25.6891 16.1989)" fill="#FFA630"/>
<path d="M10.2587 0H0.603453C0.270196 0 -1.06813e-06 0.26865 -1.06813e-06 0.6C-1.06813e-06 0.93135 0.270196 1.2 0.603453 1.2H10.2587C10.592 1.2 10.8622 0.93135 10.8622 0.6C10.8622 0.26865 10.592 0 10.2587 0Z" transform="translate(33.5344 11.4)" fill="#FFA630"/>
<path d="M10.4844 15.009C9.54604 13.3269 9.05309 11.4353 9.05181 9.5118V8.796C9.05189 7.78987 9.18684 6.78825 9.45311 5.8176L10.8411 0.7578C10.9287 0.438075 10.7391 0.1083 10.4176 0.0211498C10.3658 0.00712484 10.3124 1.57041e-08 10.2587 1.57041e-08H1.81036C1.4771 -7.49843e-05 1.20683 0.2685 1.20676 0.59985C1.20676 0.653175 1.21392 0.706275 1.22803 0.7578L2.61597 5.8182C2.88225 6.78862 3.01727 7.7901 3.01727 8.796V9.5118C3.01599 11.4353 2.52304 13.3269 1.58467 15.009C0.54658 16.869 0.00128127 18.961 -1.06813e-06 21.0882V30.6C-1.06813e-06 30.9313 0.270196 31.2 0.603453 31.2H11.4656C11.7989 31.2 12.0691 30.9313 12.0691 30.6V21.0882C12.0678 18.961 11.5225 16.869 10.4844 15.009ZM10.8622 27.6H3.62072C3.28747 27.6 3.01727 27.8686 3.01727 28.2C3.01727 28.5313 3.28747 28.8 3.62072 28.8H10.8622V30H1.20691V21.0882C1.20819 19.1647 1.70114 17.2731 2.63951 15.591C3.6776 13.731 4.2229 11.639 4.22418 9.5118V8.796C4.22433 7.68345 4.07513 6.57592 3.78064 5.5026L2.60089 1.2H9.4682L8.28844 5.502C7.99396 6.57555 7.84483 7.6833 7.8449 8.796V9.5118C7.84619 11.639 8.39148 13.731 9.42958 15.591C10.3679 17.2731 10.8609 19.1647 10.8622 21.0882V27.6V27.6Z" transform="translate(32.9309 13.8)" fill="#FFA630"/>
<path d="M2.97191 4.5716L1.16155 0.371602C1.0346 0.065227 0.681881 -0.0808729 0.373742 0.0454271C0.0656036 0.171652 -0.0813375 0.522352 0.0456896 0.828727C0.0478772 0.833977 0.0501398 0.839228 0.0524782 0.844403L1.86284 5.0444C1.95796 5.26498 2.17603 5.408 2.41741 5.408C2.49918 5.4083 2.5802 5.3918 2.65518 5.3594C2.96135 5.22883 3.10317 4.8761 2.97191 4.5716Z" transform="translate(36.5482 32.392)" fill="#FFA630"/>
<path d="M1.74738 1.53218L1.14393 0.332179C0.994948 0.0356288 0.632348 -0.0847473 0.334091 0.0633777C0.0358335 0.211503 -0.0852356 0.572027 0.0637422 0.868577L0.667196 2.06858C0.816174 2.36513 1.17878 2.4855 1.47703 2.33738C1.77529 2.18925 1.89636 1.82873 1.74738 1.53218Z" transform="translate(35.3474 35.9996)" fill="#FFA630"/>
<path d="M0.603454 0C0.270196 0 1.40422e-07 0.26865 1.40422e-07 0.6V6.6C1.40422e-07 6.93135 0.270196 7.2 0.603454 7.2C0.936712 7.2 1.20691 6.93135 1.20691 6.6V0.6C1.20691 0.26865 0.936712 0 0.603454 0Z" transform="translate(14.1635 12)" fill="#FFA630"/>
<path d="M0.603454 0C0.270196 0 1.40422e-07 0.26865 1.40422e-07 0.6V1.2C1.40422e-07 1.53135 0.270196 1.8 0.603454 1.8C0.936712 1.8 1.20691 1.53135 1.20691 1.2V0.6C1.20691 0.26865 0.936712 0 0.603454 0Z" transform="translate(14.1635 20.4)" fill="#FFA630"/>
<path d="M6.57731 34.8H4.76694V19.4484L7.07274 17.1546C7.91509 16.3147 8.36776 15.164 8.32189 13.9788L7.78422 0.576C7.77124 0.254025 7.50482 -0.000224851 7.18076 1.4922e-07H1.14622C0.822164 -0.000224851 0.555739 0.254025 0.542765 0.576L0.00327699 13.98C-0.0433398 15.1653 0.4091 16.3162 1.25182 17.1558L3.56004 19.4484V34.8H1.74967C1.41642 34.8 1.14622 35.0686 1.14622 35.4C1.14622 35.7313 1.41642 36 1.74967 36H6.57731C6.91056 36 7.18076 35.7313 7.18076 35.4C7.18076 35.0686 6.91056 34.8 6.57731 34.8ZM2.10511 16.3062C1.49924 15.7041 1.1736 14.8779 1.20656 14.0268L1.72493 1.2H6.60024L7.11619 14.0268C7.14938 14.8777 6.82442 15.7039 6.21946 16.3068L4.16349 18.3516L2.10511 16.3062Z" transform="translate(221 108)" fill="#FFA630"/>
<path d="M10.8622 30H7.24145V14.4C7.24145 14.3898 7.23602 14.3814 7.23542 14.3712C10.6763 14.0659 13.3047 11.1848 13.276 7.7502L12.6725 0.550203C12.6464 0.238428 12.3837 -0.00104656 12.0691 3.43954e-06H1.20691C0.892283 -0.00104656 0.629554 0.238428 0.603454 0.550203L2.14746e-07 7.8C-0.000678671 11.2148 2.6199 14.0656 6.04058 14.3712C6.04058 14.3814 6.03454 14.3898 6.03454 14.4V30H2.41382C2.08056 30 1.81036 30.2687 1.81036 30.6C1.81036 30.9314 2.08056 31.2 2.41382 31.2H10.8622C11.1954 31.2 11.4656 30.9314 11.4656 30.6C11.4656 30.2687 11.1954 30 10.8622 30ZM2.79761 11.6184H2.80003C1.78841 10.6213 1.21551 9.2661 1.20691 7.8498L1.76209 1.2H11.5139L12.0691 7.8C12.0691 10.7823 9.63754 13.2 6.63807 13.2001C5.19755 13.2001 3.81617 12.6311 2.79761 11.6184Z" transform="translate(230.655 112.8)" fill="#FFA630"/>
<path d="M1.80602 5.32557L1.20256 0.525572C1.16115 0.196772 0.859501 -0.0364026 0.528808 0.00469741C0.528732 0.00469741 0.528582 0.00469737 0.528506 0.00477237C0.197964 0.0459474 -0.0365533 0.345647 0.00470791 0.674372L0.608163 5.47437C0.645879 5.7746 0.902496 5.9999 1.20679 5.99997C1.23198 5.99982 1.25718 5.99825 1.28222 5.99517C1.61276 5.954 1.8472 5.6543 1.80602 5.32557Z" transform="translate(239.103 115.2)" fill="#FFA630"/>
<path d="M1.79864 3.48135C1.79864 3.48127 1.79864 3.4812 1.79857 3.48112L1.19511 0.481123C1.13167 0.158473 0.817275 -0.0519022 0.492767 0.0111728C0.489524 0.0117728 0.48628 0.0124479 0.483037 0.0131229C0.156493 0.0793479 -0.0542635 0.396223 0.0122673 0.720897C0.0122673 0.720972 0.0122667 0.721047 0.0123421 0.721122L0.615796 3.72112C0.673125 4.0005 0.92039 4.2012 1.20718 4.20112C1.24769 4.20135 1.2882 4.1973 1.32787 4.18912C1.65449 4.1229 1.86525 3.80602 1.79864 3.48135Z" transform="translate(236.689 115.199)" fill="#FFA630"/>
<path d="M10.2587 0H0.603453C0.270196 0 -1.06813e-06 0.26865 -1.06813e-06 0.6C-1.06813e-06 0.93135 0.270196 1.2 0.603453 1.2H10.2587C10.592 1.2 10.8622 0.93135 10.8622 0.6C10.8622 0.26865 10.592 0 10.2587 0Z" transform="translate(244.534 110.4)" fill="#FFA630"/>
<path d="M10.4844 15.009C9.54604 13.3269 9.05309 11.4353 9.05181 9.5118V8.796C9.05189 7.78987 9.18684 6.78825 9.45311 5.8176L10.8411 0.7578C10.9287 0.438075 10.7391 0.1083 10.4176 0.0211498C10.3658 0.00712484 10.3124 1.57041e-08 10.2587 1.57041e-08H1.81036C1.4771 -7.49843e-05 1.20683 0.2685 1.20676 0.59985C1.20676 0.653175 1.21392 0.706275 1.22803 0.7578L2.61597 5.8182C2.88225 6.78862 3.01727 7.7901 3.01727 8.796V9.5118C3.01599 11.4353 2.52304 13.3269 1.58467 15.009C0.54658 16.869 0.00128127 18.961 -1.06813e-06 21.0882V30.6C-1.06813e-06 30.9313 0.270196 31.2 0.603453 31.2H11.4656C11.7989 31.2 12.0691 30.9313 12.0691 30.6V21.0882C12.0678 18.961 11.5225 16.869 10.4844 15.009ZM10.8622 27.6H3.62072C3.28747 27.6 3.01727 27.8686 3.01727 28.2C3.01727 28.5313 3.28747 28.8 3.62072 28.8H10.8622V30H1.20691V21.0882C1.20819 19.1647 1.70114 17.2731 2.63951 15.591C3.6776 13.731 4.2229 11.639 4.22418 9.5118V8.796C4.22433 7.68345 4.07513 6.57592 3.78064 5.5026L2.60089 1.2H9.4682L8.28844 5.502C7.99396 6.57555 7.84483 7.6833 7.8449 8.796V9.5118C7.84619 11.639 8.39148 13.731 9.42958 15.591C10.3679 17.2731 10.8609 19.1647 10.8622 21.0882V27.6V27.6Z" transform="translate(243.931 112.8)" fill="#FFA630"/>
<path d="M2.97191 4.5716L1.16155 0.371602C1.0346 0.065227 0.681881 -0.0808729 0.373742 0.0454271C0.0656036 0.171652 -0.0813375 0.522352 0.0456896 0.828727C0.0478772 0.833977 0.0501398 0.839228 0.0524782 0.844403L1.86284 5.0444C1.95796 5.26498 2.17603 5.408 2.41741 5.408C2.49918 5.4083 2.5802 5.3918 2.65518 5.3594C2.96135 5.22883 3.10317 4.8761 2.97191 4.5716Z" transform="translate(247.548 131.392)" fill="#FFA630"/>
<path d="M1.74738 1.53218L1.14393 0.332179C0.994948 0.0356288 0.632348 -0.0847473 0.334091 0.0633777C0.0358335 0.211503 -0.0852356 0.572027 0.0637422 0.868577L0.667196 2.06858C0.816174 2.36513 1.17878 2.4855 1.47703 2.33738C1.77529 2.18925 1.89636 1.82873 1.74738 1.53218Z" transform="translate(246.347 135)" fill="#FFA630"/>
<path d="M0.603454 0C0.270196 0 1.40422e-07 0.26865 1.40422e-07 0.6V6.6C1.40422e-07 6.93135 0.270196 7.2 0.603454 7.2C0.936712 7.2 1.20691 6.93135 1.20691 6.6V0.6C1.20691 0.26865 0.936712 0 0.603454 0Z" transform="translate(225.164 111)" fill="#FFA630"/>
<path d="M0.603454 0C0.270196 0 1.40422e-07 0.26865 1.40422e-07 0.6V1.2C1.40422e-07 1.53135 0.270196 1.8 0.603454 1.8C0.936712 1.8 1.20691 1.53135 1.20691 1.2V0.6C1.20691 0.26865 0.936712 0 0.603454 0Z" transform="translate(225.164 119.4)" fill="#FFA630"/>
<path d="M55.675 0H45.5917C42.0988 0.000512195 39.2672 2.8076 39.2667 6.27029V10.2439H34.4234C31.5802 10.2393 29.2716 12.5205 29.267 15.3391C29.2652 16.4589 29.6348 17.5482 30.319 18.439H5.58723C2.50286 18.4424 0.00335833 20.9202 0 23.9779V36.878C0 37.4438 0.462675 37.9024 1.03333 37.9024H2.06667V40.9756C2.06667 41.5413 2.52934 42 3.1 42H7.23333C7.80399 42 8.26667 41.5413 8.26667 40.9756V37.9024H18.6V40.9756C18.6 41.5413 19.0627 42 19.6333 42H23.7667C24.3373 42 24.8 41.5413 24.8 40.9756V37.9024H53.7333V40.9756C53.7333 41.5413 54.196 42 54.7667 42H58.9C59.4707 42 59.9333 41.5413 59.9333 40.9756V37.9024H60.9667C61.5373 37.9024 62 37.4438 62 36.878V6.27029C61.9995 2.8076 59.1679 0.000512195 55.675 0ZM6.2 39.9512H4.13333V37.9024H6.2V39.9512ZM22.7333 39.9512H20.6667V37.9024H22.7333V39.9512ZM22.7333 35.8537H2.06667V32.7805H22.7333V35.8537ZM22.7333 23.9779V30.7317H2.06667V23.9779C2.06835 22.051 3.64353 20.4895 5.58723 20.4878H23.9878C23.1757 21.4728 22.7326 22.7059 22.7333 23.9779ZM32.2317 13.1921C32.8145 12.6182 33.6019 12.295 34.4234 12.2927H41.0068C39.6232 14.1119 39.6232 16.6198 41.0068 18.439H34.4234C32.7113 18.4393 31.3233 17.0635 31.323 15.3662C31.3229 14.5507 31.6498 13.7686 32.2317 13.1921ZM24.8 23.9779C24.8017 22.051 26.3769 20.4895 28.3206 20.4878H37.8861C39.2186 20.4895 40.2983 21.5598 40.3 22.8808V30.7317H24.8V23.9779ZM57.8667 39.9512H55.8V37.9024H57.8667V39.9512ZM59.9333 35.8537H24.8V32.7805H50.6333C51.204 32.7805 51.6667 32.3218 51.6667 31.7561C51.6667 31.1904 51.204 30.7317 50.6333 30.7317H48.5667V22.8808C48.5636 22.0307 48.3123 21.1995 47.8433 20.4878H59.9333V35.8537ZM44.0861 20.4878C45.4186 20.4895 46.4983 21.5598 46.5 22.8808V30.7317H42.3667V22.8808C42.3636 22.0307 42.1123 21.1995 41.6433 20.4878H44.0861ZM42.0108 15.3673C42.0104 14.5513 42.3373 13.7688 42.9195 13.1921C43.5001 12.6142 44.2896 12.2904 45.1122 12.2927H53.7333C55.4454 12.2927 56.8333 13.6686 56.8333 15.3659C56.8333 17.0631 55.4454 18.439 53.7333 18.439H45.1122C43.4001 18.4398 42.0116 17.0645 42.0108 15.3673ZM59.9333 18.439H57.8377C59.56 16.1965 59.1226 12.9944 56.8603 11.2869C55.9616 10.6086 54.8628 10.242 53.7333 10.2439H41.3333V6.27029C41.337 5.1514 41.785 4.07887 42.5806 3.28522C43.3774 2.49093 44.4617 2.04571 45.5917 2.04878H55.675C56.8049 2.04571 57.8893 2.49093 58.6861 3.28522C59.4816 4.07887 59.9297 5.1514 59.9333 6.27029V18.439V18.439Z" transform="translate(99 -13)" fill="#FFA630"/>
<path d="M3.1 0H1.03333C0.462675 0 0 0.458671 0 1.02439C0 1.59011 0.462675 2.04878 1.03333 2.04878H3.1C3.67066 2.04878 4.13333 1.59011 4.13333 1.02439C4.13333 0.458671 3.67066 0 3.1 0Z" transform="translate(152.733 17.7317)" fill="#FFA630"/>
<path d="M82.6145 0H67.6522C62.4691 0.000756098 58.2674 4.14455 58.2667 9.25615V15.122H51.0799C46.861 15.1151 43.4353 18.4826 43.4284 22.6434C43.4257 24.2964 43.9743 25.9045 44.9895 27.2195H8.29073C3.71393 27.2244 0.00498333 30.8822 0 35.396V54.439C0 55.2741 0.68655 55.9512 1.53333 55.9512H3.06667V60.4878C3.06667 61.3229 3.75322 62 4.6 62H10.7333C11.5801 62 12.2667 61.3229 12.2667 60.4878V55.9512H27.6V60.4878C27.6 61.3229 28.2865 62 29.1333 62H35.2667C36.1135 62 36.8 61.3229 36.8 60.4878V55.9512H79.7333V60.4878C79.7333 61.3229 80.4199 62 81.2667 62H87.4C88.2468 62 88.9333 61.3229 88.9333 60.4878V55.9512H90.4667C91.3135 55.9512 92 55.2741 92 54.439V9.25615C91.9992 4.14455 87.7975 0.000756098 82.6145 0ZM9.2 58.9756H6.13333V55.9512H9.2V58.9756ZM33.7333 58.9756H30.6667V55.9512H33.7333V58.9756ZM33.7333 52.9268H3.06667V48.3902H33.7333V52.9268ZM33.7333 35.396V45.3659H3.06667V35.396C3.06916 32.5515 5.40653 30.2464 8.29073 30.2439H35.5948C34.3898 31.6979 33.7322 33.5182 33.7333 35.396ZM47.8277 19.474C48.6925 18.6268 49.8609 18.1497 51.0799 18.1463H60.8488C58.7957 20.8318 58.7957 24.534 60.8488 27.2195H51.0799C48.5394 27.2199 46.4797 25.189 46.4794 22.6835C46.4792 21.4796 46.9643 20.325 47.8277 19.474ZM36.8 35.396C36.8025 32.5515 39.1399 30.2464 42.0241 30.2439H56.2181C58.1954 30.2464 59.7975 31.8264 59.8 33.7764V45.3659H36.8V35.396ZM85.8667 58.9756H82.8V55.9512H85.8667V58.9756ZM88.9333 52.9268H36.8V48.3902H75.1333C75.9801 48.3902 76.6667 47.7132 76.6667 46.878C76.6667 46.0429 75.9801 45.3659 75.1333 45.3659H72.0667V33.7764C72.0621 32.5215 71.6893 31.2945 70.9933 30.2439H88.9333V52.9268ZM65.4181 30.2439C67.3954 30.2464 68.9975 31.8264 69 33.7764V45.3659H62.8667V33.7764C62.8621 32.5215 62.4893 31.2945 61.7933 30.2439H65.4181ZM62.3386 22.685C62.338 21.4805 62.8232 20.3254 63.687 19.474C64.5485 18.621 65.72 18.1429 66.9407 18.1463H79.7333C82.2739 18.1463 84.3333 20.1774 84.3333 22.6829C84.3333 25.1884 82.2739 27.2195 79.7333 27.2195H66.9407C64.4002 27.2206 62.3398 25.1905 62.3386 22.685ZM88.9333 27.2195H85.8237C88.3794 23.9091 87.7302 19.1822 84.3734 16.6616C83.0398 15.6603 81.4093 15.1191 79.7333 15.122H61.3333V9.25615C61.3387 7.60445 62.0036 6.02118 63.1841 4.84961C64.3665 3.67709 65.9755 3.01985 67.6522 3.02439H82.6145C84.2912 3.01985 85.9002 3.67709 87.0826 4.84961C88.2631 6.02118 88.928 7.60445 88.9333 9.25615V27.2195V27.2195Z" transform="translate(61 143)" fill="#FFA630"/>
<path d="M4.6 0H1.53333C0.68655 0 0 0.677085 0 1.5122C0 2.34731 0.68655 3.02439 1.53333 3.02439H4.6C5.44678 3.02439 6.13333 2.34731 6.13333 1.5122C6.13333 0.677085 5.44678 0 4.6 0Z" transform="translate(140.733 188.366)" fill="#FFA630"/>
<path d="M42.7059 0C41.9912 0 41.4118 0.582075 41.4118 1.3V7.8H38.8235V1.3C38.8235 0.582075 38.2441 0 37.5294 0C36.8147 0 36.2353 0.582075 36.2353 1.3V7.8H33.6471V1.3C33.6471 0.582075 33.0676 0 32.3529 0C31.6383 0 31.0588 0.582075 31.0588 1.3V7.8H12.9412V1.3C12.9412 0.582075 12.3617 0 11.6471 0C10.9324 0 10.3529 0.582075 10.3529 1.3V7.8H7.76471V1.3C7.76471 0.582075 7.18526 0 6.47059 0C5.75591 0 5.17647 0.582075 5.17647 1.3V7.8H2.58824V1.3C2.58824 0.582075 2.00879 0 1.29412 0C0.579441 0 0 0.582075 0 1.3V76.7C0 77.4179 0.579441 78 1.29412 78C2.00879 78 2.58824 77.4179 2.58824 76.7V70.2H5.17647V76.7C5.17647 77.4179 5.75591 78 6.47059 78C7.18526 78 7.76471 77.4179 7.76471 76.7V70.2H10.3529V76.7C10.3529 77.4179 10.9324 78 11.6471 78C12.3617 78 12.9412 77.4179 12.9412 76.7V70.2H31.0588V76.7C31.0588 77.4179 31.6383 78 32.3529 78C33.0676 78 33.6471 77.4179 33.6471 76.7V70.2H36.2353V76.7C36.2353 77.4179 36.8147 78 37.5294 78C38.2441 78 38.8235 77.4179 38.8235 76.7V70.2H41.4118V76.7C41.4118 77.4179 41.9912 78 42.7059 78C43.4206 78 44 77.4179 44 76.7V1.3C44 0.582075 43.4206 0 42.7059 0ZM41.4118 67.6H2.58824V64.2382L5.17647 61.6382L8.14388 64.6191C8.64923 65.1266 9.46841 65.1266 9.97377 64.6191L12.9412 61.6382L15.9086 64.6191C16.4139 65.1266 17.2331 65.1266 17.7385 64.6191L20.7059 61.6382L23.6733 64.6191C24.1786 65.1266 24.9978 65.1266 25.5032 64.6191L28.4706 61.6382L31.438 64.6191C31.9434 65.1266 32.7625 65.1266 33.2679 64.6191L36.2353 61.6382L39.2027 64.6191C39.7081 65.1266 40.5272 65.1266 41.0326 64.6191L41.4118 64.2382V67.6ZM41.4118 60.5618L40.1176 61.8618L37.1502 58.8809C36.6449 58.3734 35.8257 58.3734 35.3204 58.8809L32.3529 61.8618L29.3855 58.8809C28.8802 58.3734 28.061 58.3734 27.5556 58.8809L24.5882 61.8618L21.6208 58.8809C21.1155 58.3734 20.2963 58.3734 19.7909 58.8809L16.8235 61.8618L13.8561 58.8809C13.3508 58.3734 12.5316 58.3734 12.0262 58.8809L9.05882 61.8618L6.09141 58.8809C5.58606 58.3734 4.76688 58.3734 4.26153 58.8809L2.58824 60.5618V57.7382L5.17647 55.1382L8.14388 58.1191C8.64923 58.6266 9.46841 58.6266 9.97377 58.1191L12.9412 55.1382L15.9086 58.1191C16.4139 58.6266 17.2331 58.6266 17.7385 58.1191L20.7059 55.1382L23.6733 58.1191C24.1786 58.6266 24.9978 58.6266 25.5032 58.1191L28.4706 55.1382L31.438 58.1191C31.9434 58.6266 32.7625 58.6266 33.2679 58.1191L36.2353 55.1382L39.2027 58.1191C39.7081 58.6266 40.5272 58.6266 41.0326 58.1191L41.4118 57.7382V60.5618ZM41.4118 54.0618L40.1176 55.3618L37.1502 52.3809C36.6449 51.8734 35.8257 51.8734 35.3204 52.3809L32.3529 55.3618L29.3855 52.3809C28.8802 51.8734 28.061 51.8734 27.5556 52.3809L24.5882 55.3618L21.6208 52.3809C21.1155 51.8734 20.2963 51.8734 19.7909 52.3809L16.8235 55.3618L13.8561 52.3809C13.3508 51.8734 12.5316 51.8734 12.0262 52.3809L9.05882 55.3618L6.09141 52.3809C5.58606 51.8734 4.76688 51.8734 4.26153 52.3809L2.58824 54.0618V25.2382L5.17647 22.6382L8.14388 25.6191C8.64923 26.1266 9.46841 26.1266 9.97377 25.6191L12.9412 22.6382L15.9086 25.6191C16.4139 26.1266 17.2331 26.1266 17.7385 25.6191L20.7059 22.6382L23.6733 25.6191C24.1786 26.1266 24.9978 26.1266 25.5032 25.6191L28.4706 22.6382L31.438 25.6191C31.9434 26.1266 32.7625 26.1266 33.2679 25.6191L36.2353 22.6382L39.2027 25.6191C39.7081 26.1266 40.5272 26.1266 41.0326 25.6191L41.4118 25.2382V54.0618ZM41.4118 21.5618L40.1176 22.8618L37.1502 19.8809C36.6449 19.3734 35.8257 19.3734 35.3204 19.8809L32.3529 22.8618L29.3855 19.8809C28.8802 19.3734 28.061 19.3734 27.5556 19.8809L24.5882 22.8618L21.6208 19.8809C21.1155 19.3734 20.2963 19.3734 19.7909 19.8809L16.8235 22.8618L13.8561 19.8809C13.3508 19.3734 12.5316 19.3734 12.0262 19.8809L9.05882 22.8618L6.09141 19.8809C5.58606 19.3734 4.76688 19.3734 4.26153 19.8809L2.58824 21.5618V18.7382L5.17647 16.1382L8.14388 19.1191C8.64923 19.6266 9.46841 19.6266 9.97377 19.1191L12.9412 16.1382L15.9086 19.1191C16.4139 19.6266 17.2331 19.6266 17.7385 19.1191L20.7059 16.1382L23.6733 19.1191C24.1786 19.6266 24.9978 19.6266 25.5032 19.1191L28.4706 16.1382L31.438 19.1191C31.9434 19.6266 32.7625 19.6266 33.2679 19.1191L36.2353 16.1382L39.2027 19.1191C39.7081 19.6266 40.5272 19.6266 41.0326 19.1191L41.4118 18.7382V21.5618ZM41.4118 15.0618L40.1176 16.3618L37.1502 13.3809C36.6449 12.8734 35.8257 12.8734 35.3204 13.3809L32.3529 16.3618L29.3855 13.3809C28.8802 12.8734 28.061 12.8734 27.5556 13.3809L24.5882 16.3618L21.6208 13.3809C21.1155 12.8734 20.2963 12.8734 19.7909 13.3809L16.8235 16.3618L13.8561 13.3809C13.3508 12.8734 12.5316 12.8734 12.0262 13.3809L9.05882 16.3618L6.09141 13.3809C5.58606 12.8734 4.76688 12.8734 4.26153 13.3809L2.58824 15.0618V10.4H41.4118V15.0618Z" transform="translate(210)" fill="#FFA630"/>
<path d="M1.94118 0C0.869162 0 0 0.873112 0 1.95C0 3.02689 0.869162 3.9 1.94118 3.9C3.01319 3.9 3.88235 3.02689 3.88235 1.95C3.88235 0.873112 3.01319 0 1.94118 0ZM1.94118 2.6C1.58384 2.6 1.29412 2.30896 1.29412 1.95C1.29412 1.59104 1.58384 1.3 1.94118 1.3C2.29851 1.3 2.58824 1.59104 2.58824 1.95C2.58824 2.30896 2.29851 2.6 1.94118 2.6Z" transform="translate(228.118 35.1)" fill="#FFA630"/>
<path d="M1.94118 3.9C3.01326 3.9 3.88235 3.02696 3.88235 1.95C3.88235 0.873045 3.01326 0 1.94118 0C0.869094 0 0 0.873045 0 1.95C0 3.02696 0.869094 3.9 1.94118 3.9Z" transform="translate(228.118 35.1)" fill="#FFA630"/>
<path d="M1.94118 3.9C3.01326 3.9 3.88235 3.02696 3.88235 1.95C3.88235 0.873045 3.01326 0 1.94118 0C0.869094 0 0 0.873045 0 1.95C0 3.02696 0.869094 3.9 1.94118 3.9Z" transform="translate(237.176 39)" fill="#FFA630"/>
<path d="M1.94118 3.9C3.01326 3.9 3.88235 3.02696 3.88235 1.95C3.88235 0.873045 3.01326 0 1.94118 0C0.869094 0 0 0.873045 0 1.95C0 3.02696 0.869094 3.9 1.94118 3.9Z" transform="translate(237.176 27.3)" fill="#FFA630"/>
<path d="M1.94118 3.9C3.01326 3.9 3.88235 3.02696 3.88235 1.95C3.88235 0.873045 3.01326 0 1.94118 0C0.869094 0 0 0.873045 0 1.95C0 3.02696 0.869094 3.9 1.94118 3.9Z" transform="translate(243.647 31.2)" fill="#FFA630"/>
<path d="M1.94118 3.9C3.01326 3.9 3.88235 3.02696 3.88235 1.95C3.88235 0.873045 3.01326 0 1.94118 0C0.869094 0 0 0.873045 0 1.95C0 3.02696 0.869094 3.9 1.94118 3.9Z" transform="translate(229.412 42.9)" fill="#FFA630"/>
<path d="M1.94118 3.9C3.01326 3.9 3.88235 3.02696 3.88235 1.95C3.88235 0.873045 3.01326 0 1.94118 0C0.869094 0 0 0.873045 0 1.95C0 3.02696 0.869094 3.9 1.94118 3.9Z" transform="translate(219.059 45.5)" fill="#FFA630"/>
<path d="M1.94118 3.9C3.01326 3.9 3.88235 3.02696 3.88235 1.95C3.88235 0.873045 3.01326 0 1.94118 0C0.869094 0 0 0.873045 0 1.95C0 3.02696 0.869094 3.9 1.94118 3.9Z" transform="translate(217.765 31.2)" fill="#FFA630"/>
<path d="M1.94118 3.9C3.01326 3.9 3.88235 3.02696 3.88235 1.95C3.88235 0.873045 3.01326 0 1.94118 0C0.869094 0 0 0.873045 0 1.95C0 3.02696 0.869094 3.9 1.94118 3.9Z" transform="translate(225.529 28.6)" fill="#FFA630"/>
<path d="M1.94118 3.9C3.01326 3.9 3.88235 3.02696 3.88235 1.95C3.88235 0.873045 3.01326 0 1.94118 0C0.869094 0 0 0.873045 0 1.95C0 3.02696 0.869094 3.9 1.94118 3.9Z" transform="translate(241.059 46.8)" fill="#FFA630"/>
<path d="M28.1471 0C27.676 0 27.2941 0.38805 27.2941 0.866667V5.2H25.5882V0.866667C25.5882 0.38805 25.2063 0 24.7353 0C24.2643 0 23.8824 0.38805 23.8824 0.866667V5.2H22.1765V0.866667C22.1765 0.38805 21.7946 0 21.3235 0C20.8525 0 20.4706 0.38805 20.4706 0.866667V5.2H8.52941V0.866667C8.52941 0.38805 8.14751 0 7.67647 0C7.20543 0 6.82353 0.38805 6.82353 0.866667V5.2H5.11765V0.866667C5.11765 0.38805 4.73574 0 4.26471 0C3.79367 0 3.41176 0.38805 3.41176 0.866667V5.2H1.70588V0.866667C1.70588 0.38805 1.32398 0 0.852941 0C0.381904 0 0 0.38805 0 0.866667V51.1333C0 51.612 0.381904 52 0.852941 52C1.32398 52 1.70588 51.612 1.70588 51.1333V46.8H3.41176V51.1333C3.41176 51.612 3.79367 52 4.26471 52C4.73574 52 5.11765 51.612 5.11765 51.1333V46.8H6.82353V51.1333C6.82353 51.612 7.20543 52 7.67647 52C8.14751 52 8.52941 51.612 8.52941 51.1333V46.8H20.4706V51.1333C20.4706 51.612 20.8525 52 21.3235 52C21.7946 52 22.1765 51.612 22.1765 51.1333V46.8H23.8824V51.1333C23.8824 51.612 24.2643 52 24.7353 52C25.2063 52 25.5882 51.612 25.5882 51.1333V46.8H27.2941V51.1333C27.2941 51.612 27.676 52 28.1471 52C28.6181 52 29 51.612 29 51.1333V0.866667C29 0.38805 28.6181 0 28.1471 0ZM27.2941 45.0667H1.70588V42.8255L3.41176 41.0921L5.36756 43.0794C5.70063 43.4177 6.24054 43.4177 6.57362 43.0794L8.52941 41.0921L10.4852 43.0794C10.8183 43.4177 11.3582 43.4177 11.6913 43.0794L13.6471 41.0921L15.6029 43.0794C15.9359 43.4177 16.4758 43.4177 16.8089 43.0794L18.7647 41.0921L20.7205 43.0794C21.0536 43.4177 21.5935 43.4177 21.9266 43.0794L23.8824 41.0921L25.8381 43.0794C26.1712 43.4177 26.7111 43.4177 27.0442 43.0794L27.2941 42.8255V45.0667ZM27.2941 40.3745L26.4412 41.2412L24.4854 39.2539C24.1523 38.9156 23.6124 38.9156 23.2793 39.2539L21.3235 41.2412L19.3677 39.2539C19.0347 38.9156 18.4947 38.9156 18.1617 39.2539L16.2059 41.2412L14.2501 39.2539C13.917 38.9156 13.3771 38.9156 13.044 39.2539L11.0882 41.2412L9.13244 39.2539C8.79937 38.9156 8.25946 38.9156 7.92638 39.2539L5.97059 41.2412L4.01479 39.2539C3.68172 38.9156 3.14181 38.9156 2.80873 39.2539L1.70588 40.3745V38.4921L3.41176 36.7588L5.36756 38.7461C5.70063 39.0844 6.24054 39.0844 6.57362 38.7461L8.52941 36.7588L10.4852 38.7461C10.8183 39.0844 11.3582 39.0844 11.6913 38.7461L13.6471 36.7588L15.6029 38.7461C15.9359 39.0844 16.4758 39.0844 16.8089 38.7461L18.7647 36.7588L20.7205 38.7461C21.0536 39.0844 21.5935 39.0844 21.9266 38.7461L23.8824 36.7588L25.8381 38.7461C26.1712 39.0844 26.7111 39.0844 27.0442 38.7461L27.2941 38.4921V40.3745ZM27.2941 36.0412L26.4412 36.9079L24.4854 34.9206C24.1523 34.5823 23.6124 34.5823 23.2793 34.9206L21.3235 36.9079L19.3677 34.9206C19.0347 34.5823 18.4947 34.5823 18.1617 34.9206L16.2059 36.9079L14.2501 34.9206C13.917 34.5823 13.3771 34.5823 13.044 34.9206L11.0882 36.9079L9.13244 34.9206C8.79937 34.5823 8.25946 34.5823 7.92638 34.9206L5.97059 36.9079L4.01479 34.9206C3.68172 34.5823 3.14181 34.5823 2.80873 34.9206L1.70588 36.0412V16.8255L3.41176 15.0921L5.36756 17.0794C5.70063 17.4177 6.24054 17.4177 6.57362 17.0794L8.52941 15.0921L10.4852 17.0794C10.8183 17.4177 11.3582 17.4177 11.6913 17.0794L13.6471 15.0921L15.6029 17.0794C15.9359 17.4177 16.4758 17.4177 16.8089 17.0794L18.7647 15.0921L20.7205 17.0794C21.0536 17.4177 21.5935 17.4177 21.9266 17.0794L23.8824 15.0921L25.8381 17.0794C26.1712 17.4177 26.7111 17.4177 27.0442 17.0794L27.2941 16.8255V36.0412ZM27.2941 14.3745L26.4412 15.2412L24.4854 13.2539C24.1523 12.9156 23.6124 12.9156 23.2793 13.2539L21.3235 15.2412L19.3677 13.2539C19.0347 12.9156 18.4947 12.9156 18.1617 13.2539L16.2059 15.2412L14.2501 13.2539C13.917 12.9156 13.3771 12.9156 13.044 13.2539L11.0882 15.2412L9.13244 13.2539C8.79937 12.9156 8.25946 12.9156 7.92638 13.2539L5.97059 15.2412L4.01479 13.2539C3.68172 12.9156 3.14181 12.9156 2.80873 13.2539L1.70588 14.3745V12.4921L3.41176 10.7588L5.36756 12.7461C5.70063 13.0844 6.24054 13.0844 6.57362 12.7461L8.52941 10.7588L10.4852 12.7461C10.8183 13.0844 11.3582 13.0844 11.6913 12.7461L13.6471 10.7588L15.6029 12.7461C15.9359 13.0844 16.4758 13.0844 16.8089 12.7461L18.7647 10.7588L20.7205 12.7461C21.0536 13.0844 21.5935 13.0844 21.9266 12.7461L23.8824 10.7588L25.8381 12.7461C26.1712 13.0844 26.7111 13.0844 27.0442 12.7461L27.2941 12.4921V14.3745ZM27.2941 10.0412L26.4412 10.9079L24.4854 8.9206C24.1523 8.58228 23.6124 8.58228 23.2793 8.9206L21.3235 10.9079L19.3677 8.9206C19.0347 8.58228 18.4947 8.58228 18.1617 8.9206L16.2059 10.9079L14.2501 8.9206C13.917 8.58228 13.3771 8.58228 13.044 8.9206L11.0882 10.9079L9.13244 8.9206C8.79937 8.58228 8.25946 8.58228 7.92638 8.9206L5.97059 10.9079L4.01479 8.9206C3.68172 8.58228 3.14181 8.58228 2.80873 8.9206L1.70588 10.0412V6.93333H27.2941V10.0412Z" transform="translate(258 199) rotate(-90)" fill="#FFA630"/>
<path d="M1.27941 0C0.572857 0 0 0.582075 0 1.3C0 2.01792 0.572857 2.6 1.27941 2.6C1.98597 2.6 2.55882 2.01792 2.55882 1.3C2.55882 0.582075 1.98597 0 1.27941 0ZM1.27941 1.73333C1.04389 1.73333 0.852941 1.53931 0.852941 1.3C0.852941 1.06069 1.04389 0.866667 1.27941 0.866667C1.51493 0.866667 1.70588 1.06069 1.70588 1.3C1.70588 1.53931 1.51493 1.73333 1.27941 1.73333Z" transform="translate(281.4 187.059) rotate(-90)" fill="#FFA630"/>
<path d="M1.27941 2.6C1.98601 2.6 2.55882 2.01797 2.55882 1.3C2.55882 0.58203 1.98601 0 1.27941 0C0.572812 0 0 0.58203 0 1.3C0 2.01797 0.572812 2.6 1.27941 2.6Z" transform="translate(281.4 187.059) rotate(-90)" fill="#FFA630"/>
<path d="M1.27941 2.6C1.98601 2.6 2.55882 2.01797 2.55882 1.3C2.55882 0.58203 1.98601 0 1.27941 0C0.572812 0 0 0.58203 0 1.3C0 2.01797 0.572812 2.6 1.27941 2.6Z" transform="translate(284 181.088) rotate(-90)" fill="#FFA630"/>
<path d="M1.27941 2.6C1.98601 2.6 2.55882 2.01797 2.55882 1.3C2.55882 0.58203 1.98601 0 1.27941 0C0.572812 0 0 0.58203 0 1.3C0 2.01797 0.572812 2.6 1.27941 2.6Z" transform="translate(276.2 181.088) rotate(-90)" fill="#FFA630"/>
<path d="M1.27941 2.6C1.98601 2.6 2.55882 2.01797 2.55882 1.3C2.55882 0.58203 1.98601 0 1.27941 0C0.572812 0 0 0.58203 0 1.3C0 2.01797 0.572812 2.6 1.27941 2.6Z" transform="translate(278.8 176.824) rotate(-90)" fill="#FFA630"/>
<path d="M1.27941 2.6C1.98601 2.6 2.55882 2.01797 2.55882 1.3C2.55882 0.58203 1.98601 0 1.27941 0C0.572812 0 0 0.58203 0 1.3C0 2.01797 0.572812 2.6 1.27941 2.6Z" transform="translate(286.6 186.206) rotate(-90)" fill="#FFA630"/>
<path d="M1.27941 2.6C1.98601 2.6 2.55882 2.01797 2.55882 1.3C2.55882 0.58203 1.98601 0 1.27941 0C0.572812 0 0 0.58203 0 1.3C0 2.01797 0.572812 2.6 1.27941 2.6Z" transform="translate(288.333 193.029) rotate(-90)" fill="#FFA630"/>
<path d="M1.27941 2.6C1.98601 2.6 2.55882 2.01797 2.55882 1.3C2.55882 0.58203 1.98601 0 1.27941 0C0.572812 0 0 0.58203 0 1.3C0 2.01797 0.572812 2.6 1.27941 2.6Z" transform="translate(278.8 193.882) rotate(-90)" fill="#FFA630"/>
<path d="M1.27941 2.6C1.98601 2.6 2.55882 2.01797 2.55882 1.3C2.55882 0.58203 1.98601 0 1.27941 0C0.572812 0 0 0.58203 0 1.3C0 2.01797 0.572812 2.6 1.27941 2.6Z" transform="translate(277.067 188.765) rotate(-90)" fill="#FFA630"/>
<path d="M1.27941 2.6C1.98601 2.6 2.55882 2.01797 2.55882 1.3C2.55882 0.58203 1.98601 0 1.27941 0C0.572812 0 0 0.58203 0 1.3C0 2.01797 0.572812 2.6 1.27941 2.6Z" transform="translate(289.2 178.529) rotate(-90)" fill="#FFA630"/>
<path d="M64.9 29.9531H60.7607L63.7758 16.2704C63.9027 15.6926 63.524 15.1242 62.93 15.0008C62.8544 14.985 62.7774 14.9771 62.7 14.9771H59.4V12.8377H61.6V10.6982H59.4V9.62852C59.3994 9.15503 59.3531 8.68262 59.2614 8.21756L60.9917 7.37677L60.0083 5.46198L58.5343 6.17869C58.2178 5.59315 57.823 5.05067 57.3606 4.56556L59.0777 2.8968L57.5223 1.38423L55.6523 3.20274C54.7785 2.69369 53.8086 2.35967 52.8 2.22074V0.00108365H50.6V2.22074C49.5924 2.36261 48.624 2.69904 47.7521 3.21023L45.8821 1.39171L44.3267 2.90429L46.0438 4.57411C45.5811 5.05869 45.1864 5.60077 44.8701 6.18617L43.3961 5.46947L42.4127 7.38426L44.143 8.22505C44.0503 8.68744 44.0025 9.15744 44 9.62852V10.6982H41.8V12.8377H44V14.9771H40.7C40.0925 14.9771 39.6 15.4559 39.5999 16.0467C39.5999 16.1218 39.608 16.1968 39.6242 16.2704L42.6393 29.9531H34.2639L37.8862 29.0524C38.4748 28.9061 38.8299 28.3234 38.6794 27.7511C38.6794 27.751 38.6793 27.7508 38.6793 27.7506L37.5892 23.6065L35.9535 17.3893L31.592 0.808719C31.4436 0.235886 30.8458 -0.111638 30.2567 0.0326402C30.2545 0.0331751 30.2523 0.0337101 30.25 0.034245L21.725 2.15549C21.6201 2.18624 21.5207 2.23238 21.4302 2.29241C21.27 2.19788 21.0873 2.14546 20.9 2.14051H3.3C2.69252 2.14051 2.2 2.61948 2.2 3.21023V29.9531H1.1C0.492525 29.9531 0 30.4321 0 31.0228V37.4411C0 38.0319 0.492525 38.5108 1.1 38.5108H4.4V44.9291C4.4 45.5199 4.89252 45.9988 5.50014 45.9987C5.82106 45.9987 6.12604 45.8623 6.3349 45.6255L12.606 38.5108H53.394L59.664 45.6255C60.0589 46.0745 60.7533 46.1272 61.2149 45.7433C61.4596 45.5398 61.6003 45.2423 61.6 44.9291V38.5108H64.9C65.5075 38.5108 66 38.0319 66 37.4411V31.0228C66 30.4321 65.5075 29.9531 64.9 29.9531ZM46.2 9.62852C46.2 6.67463 48.6625 4.27994 51.7 4.27994C54.7375 4.27994 57.2 6.67463 57.2 9.62852V14.9771H55V8.5588C55 7.96805 54.5075 7.48909 53.9 7.48909C53.2925 7.48909 52.8 7.96805 52.8 8.5588V14.9771H50.6V10.6982C50.6 10.1075 50.1075 9.62852 49.5 9.62852C48.8925 9.62852 48.4 10.1075 48.4 10.6982V14.9771H46.2V9.62852ZM42.0607 17.1165H61.3393L58.5101 29.9531H44.8899L42.0607 17.1165ZM36.2758 27.2446L29.8804 28.8352L29.3304 26.7621L35.7247 25.1715L36.2758 27.2446ZM35.1846 23.0994L28.7903 24.6901L27.7002 20.545L34.0945 18.9543L35.1846 23.0994ZM29.7319 2.37264L33.55 16.8812L27.1557 18.4719L23.3387 3.95903L29.7319 2.37264ZM22 26.744V7.50834L25.3 20.0368L26.851 25.9331L27.9037 29.9531H22V26.744ZM13.2 4.27994H19.8V19.256H13.2V4.27994ZM13.2 21.3954H19.8V25.6742H13.2V21.3954ZM13.2 27.8137H19.8V29.9531H13.2V27.8137ZM4.4 4.27994H11V19.256H4.4V4.27994ZM4.4 21.3954H11V25.6742H4.4V21.3954ZM4.4 27.8137H11V29.9531H4.4V27.8137ZM6.6 42.0409V38.5108H9.7086L6.6 42.0409ZM59.4 42.0409L56.2914 38.5108H59.4V42.0409ZM63.8 36.3714H2.2V32.0925H63.8V36.3714Z" transform="translate(30 76)" fill="#FFA630"/>
<path d="M46.2167 21.4881H43.269L45.4161 11.6722C45.5065 11.2577 45.2368 10.85 44.8138 10.7614C44.76 10.7501 44.7051 10.7444 44.65 10.7444H42.3V9.20963H43.8667V7.67482H42.3V6.90741C42.2996 6.56774 42.2666 6.22884 42.2013 5.89521L43.4335 5.29203L42.7332 3.91838L41.6835 4.43254C41.4581 4.01248 41.177 3.62331 40.8477 3.27529L42.0705 2.07814L40.9628 0.993031L39.6312 2.29762C39.0089 1.93243 38.3182 1.69281 37.6 1.59314V0.000777398H36.0333V1.59314C35.3158 1.69492 34.6262 1.93627 34.0053 2.30299L32.6736 0.998403L31.566 2.08351L32.7888 3.28143C32.4593 3.62906 32.1782 4.01795 31.953 4.43791L30.9033 3.92375L30.203 5.2974L31.4352 5.90058C31.3692 6.23229 31.3351 6.56947 31.3333 6.90741V7.67482H29.7667V9.20963H31.3333V10.7444H28.9833C28.5507 10.7444 28.2 11.0879 28.1999 11.5117C28.1999 11.5657 28.2057 11.6195 28.2172 11.6722L30.3644 21.4881H24.4001L26.9796 20.8419C27.3987 20.737 27.6516 20.319 27.5444 19.9084C27.5444 19.9083 27.5443 19.9082 27.5443 19.908L26.7681 16.9351L25.6033 12.4749L22.4973 0.580168C22.3917 0.169223 21.9659 -0.0800878 21.5465 0.0234158C21.5449 0.0237995 21.5433 0.0241833 21.5417 0.024567L15.4708 1.54633C15.3961 1.56839 15.3253 1.60149 15.2609 1.64456C15.1468 1.57674 15.0167 1.53913 14.8833 1.53559H2.35C1.9174 1.53559 1.56667 1.87919 1.56667 2.30299V21.4881H0.783333C0.350737 21.4881 0 21.8317 0 22.2555V26.8599C0 27.2837 0.350737 27.6273 0.783333 27.6273H3.13333V32.2318C3.13333 32.6556 3.48407 32.9992 3.91676 32.9991C4.1453 32.9991 4.36248 32.9012 4.51122 32.7313L8.977 27.6273H38.023L42.488 32.7313C42.7692 33.0535 43.2637 33.0912 43.5924 32.8158C43.7667 32.6698 43.8669 32.4564 43.8667 32.2318V27.6273H46.2167C46.6493 27.6273 47 27.2837 47 26.8599V22.2555C47 21.8317 46.6493 21.4881 46.2167 21.4881ZM32.9 6.90741C32.9 4.78832 34.6536 3.07039 36.8167 3.07039C38.9797 3.07039 40.7333 4.78832 40.7333 6.90741V10.7444H39.1667V6.14001C39.1667 5.71621 38.8159 5.37261 38.3833 5.37261C37.9507 5.37261 37.6 5.71621 37.6 6.14001V10.7444H36.0333V7.67482C36.0333 7.25102 35.6826 6.90741 35.25 6.90741C34.8174 6.90741 34.4667 7.25102 34.4667 7.67482V10.7444H32.9V6.90741ZM29.9523 12.2792H43.681L41.6663 21.4881H31.967L29.9523 12.2792ZM25.8328 19.545L21.2785 20.6862L20.8868 19.1989L25.4403 18.0578L25.8328 19.545ZM25.0557 16.5713L20.5022 17.7125L19.7259 14.7388L24.2794 13.5976L25.0557 16.5713ZM21.1727 1.70211L23.8917 12.1104L19.3382 13.2515L16.62 2.84017L21.1727 1.70211ZM15.6667 19.1859V5.38642L18.0167 14.3743L19.1212 18.6042L19.8708 21.4881H15.6667V19.1859ZM9.4 3.07039H14.1V13.8141H9.4V3.07039ZM9.4 15.3489H14.1V18.4185H9.4V15.3489ZM9.4 19.9533H14.1V21.4881H9.4V19.9533ZM3.13333 3.07039H7.83333V13.8141H3.13333V3.07039ZM3.13333 15.3489H7.83333V18.4185H3.13333V15.3489ZM3.13333 19.9533H7.83333V21.4881H3.13333V19.9533ZM4.7 30.1598V27.6273H6.9137L4.7 30.1598ZM42.3 30.1598L40.0863 27.6273H42.3V30.1598ZM45.4333 26.0925H1.56667V23.0229H45.4333V26.0925Z" transform="translate(309 110)" fill="#FFA630"/>
</svg>
