<svg width="74" height="88" viewBox="0 0 74 88" fill="none" xmlns="http://www.w3.org/2000/svg">
<g filter="url(#filter0_d)">
<circle cx="33" cy="33" r="33" transform="translate(4)" fill="#FFA630"/>
<circle cx="33" cy="33" r="31.5" transform="translate(4)" stroke="#4C6085" stroke-width="3"/>
</g>
<path d="M5.3623 13.8672L3.99121 15.3438V19H1.35449V6.20312H3.99121V12.0039L5.15137 10.4131L8.41211 6.20312H11.6553L7.11133 11.8896L11.7871 19H8.64941L5.3623 13.8672ZM15.2939 19H12.7451V9.49023H15.2939V19ZM12.5957 7.0293C12.5957 6.64844 12.7217 6.33496 12.9736 6.08887C13.2314 5.84277 13.5801 5.71973 14.0195 5.71973C14.4531 5.71973 14.7988 5.84277 15.0566 6.08887C15.3145 6.33496 15.4434 6.64844 15.4434 7.0293C15.4434 7.41602 15.3115 7.73242 15.0479 7.97852C14.79 8.22461 14.4473 8.34766 14.0195 8.34766C13.5918 8.34766 13.2461 8.22461 12.9824 7.97852C12.7246 7.73242 12.5957 7.41602 12.5957 7.0293ZM20.4355 7.15234V9.49023H22.0615V11.3535H20.4355V16.0996C20.4355 16.4512 20.5029 16.7031 20.6377 16.8555C20.7725 17.0078 21.0303 17.084 21.4111 17.084C21.6924 17.084 21.9414 17.0635 22.1582 17.0225V18.9473C21.6602 19.0996 21.1475 19.1758 20.6201 19.1758C18.8389 19.1758 17.9307 18.2764 17.8955 16.4775V11.3535H16.5068V9.49023H17.8955V7.15234H20.4355ZM27.4316 17.1279C27.9004 17.1279 28.2812 16.999 28.5742 16.7412C28.8672 16.4834 29.0195 16.1406 29.0312 15.7129H31.4131C31.4072 16.3574 31.2314 16.9492 30.8857 17.4883C30.54 18.0215 30.0654 18.4375 29.4619 18.7363C28.8643 19.0293 28.2021 19.1758 27.4756 19.1758C26.1162 19.1758 25.0439 18.7451 24.2588 17.8838C23.4736 17.0166 23.0811 15.8213 23.0811 14.2979V14.1309C23.0811 12.666 23.4707 11.4971 24.25 10.624C25.0293 9.75098 26.0986 9.31445 27.458 9.31445C28.6475 9.31445 29.5996 9.6543 30.3145 10.334C31.0352 11.0078 31.4014 11.9072 31.4131 13.0322H29.0312C29.0195 12.54 28.8672 12.1416 28.5742 11.8369C28.2812 11.5264 27.8945 11.3711 27.4141 11.3711C26.8223 11.3711 26.374 11.5879 26.0693 12.0215C25.7705 12.4492 25.6211 13.1465 25.6211 14.1133V14.377C25.6211 15.3555 25.7705 16.0586 26.0693 16.4863C26.3682 16.9141 26.8223 17.1279 27.4316 17.1279ZM35.3418 10.5273C36.0156 9.71875 36.8623 9.31445 37.8818 9.31445C39.9443 9.31445 40.9902 10.5127 41.0195 12.9092V19H38.4795V12.9795C38.4795 12.4346 38.3623 12.0332 38.1279 11.7754C37.8936 11.5117 37.5039 11.3799 36.959 11.3799C36.2148 11.3799 35.6758 11.667 35.3418 12.2412V19H32.8018V5.5H35.3418V10.5273ZM47.3125 19.1758C45.918 19.1758 44.7812 18.748 43.9023 17.8926C43.0293 17.0371 42.5928 15.8975 42.5928 14.4736V14.2275C42.5928 13.2725 42.7773 12.4199 43.1465 11.6699C43.5156 10.9141 44.0371 10.334 44.7109 9.92969C45.3906 9.51953 46.1641 9.31445 47.0312 9.31445C48.332 9.31445 49.3545 9.72461 50.0986 10.5449C50.8486 11.3652 51.2236 12.5283 51.2236 14.0342V15.0713H45.168C45.25 15.6924 45.4961 16.1904 45.9062 16.5654C46.3223 16.9404 46.8467 17.1279 47.4795 17.1279C48.458 17.1279 49.2227 16.7734 49.7734 16.0645L51.0215 17.4619C50.6406 18.001 50.125 18.4229 49.4746 18.7275C48.8242 19.0264 48.1035 19.1758 47.3125 19.1758ZM47.0225 11.3711C46.5186 11.3711 46.1084 11.541 45.792 11.8809C45.4814 12.2207 45.2822 12.707 45.1943 13.3398H48.7275V13.1377C48.7158 12.5752 48.5635 12.1416 48.2705 11.8369C47.9775 11.5264 47.5615 11.3711 47.0225 11.3711ZM55.0117 9.49023L55.0908 10.5889C55.7705 9.73926 56.6816 9.31445 57.8242 9.31445C58.832 9.31445 59.582 9.61035 60.0742 10.2021C60.5664 10.7939 60.8184 11.6787 60.8301 12.8564V19H58.29V12.918C58.29 12.3789 58.1729 11.9893 57.9385 11.749C57.7041 11.5029 57.3145 11.3799 56.7695 11.3799C56.0547 11.3799 55.5186 11.6846 55.1611 12.2939V19H52.6211V9.49023H55.0117Z" transform="translate(6 68)" fill="#4C6085"/>
<path d="M6.76523 34.8H4.90314V19.4484L7.27482 17.1546C8.14124 16.3147 8.60684 15.164 8.55966 13.9788L8.00662 0.576C7.99328 0.254025 7.71924 -0.000224851 7.38593 1.4922e-07H1.17897C0.845655 -0.000224851 0.571618 0.254025 0.558273 0.576L0.00337062 13.98C-0.0445781 15.1653 0.420789 16.3162 1.28759 17.1558L3.66175 19.4484V34.8H1.79966C1.45689 34.8 1.17897 35.0686 1.17897 35.4C1.17897 35.7313 1.45689 36 1.79966 36H6.76523C7.10801 36 7.38593 35.7313 7.38593 35.4C7.38593 35.0686 7.10801 34.8 6.76523 34.8ZM2.16525 16.3062C1.54208 15.7041 1.20713 14.8779 1.24104 14.0268L1.77422 1.2H6.78882L7.31951 14.0268C7.35365 14.8777 7.01941 15.7039 6.39716 16.3068L4.28245 18.3516L2.16525 16.3062Z" transform="translate(19 13)" fill="white"/>
<path d="M11.1725 30H7.44835V14.4C7.44835 14.3898 7.44276 14.3814 7.44214 14.3712C10.9813 14.0659 13.6849 11.1848 13.6553 7.7502L13.0346 0.550203C13.0078 0.238428 12.7375 -0.00104656 12.4139 3.43954e-06H1.24139C0.917776 -0.00104656 0.647541 0.238428 0.620696 0.550203L2.20881e-07 7.8C-0.000698062 11.2148 2.69475 14.0656 6.21316 14.3712C6.21316 14.3814 6.20696 14.3898 6.20696 14.4V30H2.48278C2.14 30 1.86209 30.2687 1.86209 30.6C1.86209 30.9314 2.14 31.2 2.48278 31.2H11.1725C11.5153 31.2 11.7932 30.9314 11.7932 30.6C11.7932 30.2687 11.5153 30 11.1725 30ZM2.87755 11.6184H2.88003C1.83951 10.6213 1.25024 9.2661 1.24139 7.8498L1.81243 1.2H11.8429L12.4139 7.8C12.4139 10.7823 9.9129 13.2 6.82773 13.2001C5.34605 13.2001 3.9252 12.6311 2.87755 11.6184Z" transform="translate(28.9308 17.7999)" fill="white"/>
<path d="M1.85762 5.32557L1.23692 0.525572C1.19433 0.196772 0.884058 -0.0364026 0.543917 0.00469741C0.543839 0.00469741 0.543684 0.00469737 0.543606 0.00477237C0.20362 0.0459474 -0.0375977 0.345647 0.00484243 0.674372L0.62554 5.47437C0.664333 5.7746 0.928282 5.9999 1.24127 5.99997C1.26718 5.99982 1.2931 5.99825 1.31885 5.99517C1.65884 5.954 1.89998 5.6543 1.85762 5.32557Z" transform="translate(37.6206 20.2001)" fill="white"/>
<path d="M1.85003 3.48135C1.85003 3.48127 1.85003 3.4812 1.84996 3.48112L1.22926 0.481123C1.16401 0.158473 0.840626 -0.0519022 0.506846 0.0111728C0.50351 0.0117728 0.500174 0.0124479 0.496838 0.0131229C0.160964 0.0793479 -0.0558139 0.396223 0.0126178 0.720897C0.0126178 0.720972 0.0126172 0.721047 0.0126947 0.721122L0.633391 3.72112C0.692357 4.0005 0.946687 4.2012 1.24167 4.20112C1.28334 4.20135 1.325 4.1973 1.36581 4.18912C1.70176 4.1229 1.91854 3.80602 1.85003 3.48135Z" transform="translate(35.1372 20.1989)" fill="white"/>
<path d="M10.5518 0H0.620695C0.277915 0 -1.09864e-06 0.26865 -1.09864e-06 0.6C-1.09864e-06 0.93135 0.277915 1.2 0.620695 1.2H10.5518C10.8946 1.2 11.1725 0.93135 11.1725 0.6C11.1725 0.26865 10.8946 0 10.5518 0Z" transform="translate(43.2068 15.4)" fill="white"/>
<path d="M10.784 15.009C9.81879 13.3269 9.31175 11.4353 9.31043 9.5118V8.796C9.31051 7.78987 9.44932 6.78825 9.7232 5.8176L11.1508 0.7578C11.241 0.438075 11.0459 0.1083 10.7152 0.0211498C10.662 0.00712484 10.6071 1.57041e-08 10.5518 1.57041e-08H1.86209C1.51931 -7.49843e-05 1.24131 0.2685 1.24124 0.59985C1.24124 0.653175 1.24861 0.706275 1.26312 0.7578L2.69072 5.8182C2.9646 6.78862 3.10348 7.7901 3.10348 8.796V9.5118C3.10216 11.4353 2.59513 13.3269 1.62995 15.009C0.562196 16.869 0.00131788 18.961 -1.09864e-06 21.0882V30.6C-1.09864e-06 30.9313 0.277915 31.2 0.620695 31.2H11.7932C12.136 31.2 12.4139 30.9313 12.4139 30.6V21.0882C12.4126 18.961 11.8517 16.869 10.784 15.009ZM11.1725 27.6H3.72417C3.38139 27.6 3.10348 27.8686 3.10348 28.2C3.10348 28.5313 3.38139 28.8 3.72417 28.8H11.1725V30H1.24139V21.0882C1.24271 19.1647 1.74974 17.2731 2.71492 15.591C3.78267 13.731 4.34355 11.639 4.34487 9.5118V8.796C4.34502 7.68345 4.19156 6.57592 3.88866 5.5026L2.6752 1.2H9.73872L8.52526 5.502C8.22236 6.57555 8.06897 7.6833 8.06904 8.796V9.5118C8.07036 11.639 8.63124 13.731 9.69899 15.591C10.6642 17.2731 11.1712 19.1647 11.1725 21.0882V27.6V27.6Z" transform="translate(42.5859 17.7999)" fill="white"/>
<path d="M3.05683 4.5716L1.19474 0.371602C1.06416 0.065227 0.701363 -0.0808729 0.384421 0.0454271C0.0674779 0.171652 -0.0836614 0.522352 0.0469951 0.828727C0.0492451 0.833977 0.0515724 0.839228 0.0539776 0.844403L1.91606 5.0444C2.0139 5.26498 2.23821 5.408 2.48648 5.408C2.57059 5.4083 2.65392 5.3918 2.73104 5.3594C3.04596 5.22883 3.19183 4.8761 3.05683 4.5716Z" transform="translate(46.3065 36.392)" fill="white"/>
<path d="M1.79731 1.53218L1.17661 0.332179C1.02338 0.0356288 0.650415 -0.0847473 0.343636 0.0633777C0.0368574 0.211503 -0.0876709 0.572027 0.0655634 0.868577L0.686259 2.06858C0.839493 2.36513 1.21246 2.4855 1.51923 2.33738C1.82601 2.18925 1.95054 1.82873 1.79731 1.53218Z" transform="translate(45.0715 39.9996)" fill="white"/>
<path d="M0.620696 0C0.277916 0 1.44434e-07 0.26865 1.44434e-07 0.6V6.6C1.44434e-07 6.93135 0.277916 7.2 0.620696 7.2C0.963475 7.2 1.24139 6.93135 1.24139 6.6V0.6C1.24139 0.26865 0.963475 0 0.620696 0Z" transform="translate(23.2823 16)" fill="white"/>
<path d="M0.620696 0C0.277916 0 1.44434e-07 0.26865 1.44434e-07 0.6V1.2C1.44434e-07 1.53135 0.277916 1.8 0.620696 1.8C0.963475 1.8 1.24139 1.53135 1.24139 1.2V0.6C1.24139 0.26865 0.963475 0 0.620696 0Z" transform="translate(23.2823 24.4)" fill="white"/>
<defs>
<filter id="filter0_d" x="0" y="0" width="74" height="74" filterUnits="userSpaceOnUse" color-interpolation-filters="sRGB">
<feFlood flood-opacity="0" result="BackgroundImageFix"/>
<feColorMatrix in="SourceAlpha" type="matrix" values="0 0 0 0 0 0 0 0 0 0 0 0 0 0 0 0 0 0 255 0"/>
<feOffset dy="4"/>
<feGaussianBlur stdDeviation="2"/>
<feColorMatrix type="matrix" values="0 0 0 0 0 0 0 0 0 0 0 0 0 0 0 0 0 0 0.25 0"/>
<feBlend mode="normal" in2="BackgroundImageFix" result="effect1_dropShadow"/>
<feBlend mode="normal" in="SourceGraphic" in2="effect1_dropShadow" result="shape"/>
</filter>
</defs>
</svg>
