<svg width="74" height="83" viewBox="0 0 74 83" fill="none" xmlns="http://www.w3.org/2000/svg">
<g filter="url(#filter0_d)">
<circle cx="33" cy="33" r="33" transform="translate(4)" fill="#E8EEF2"/>
<circle cx="33" cy="33" r="31.5" transform="translate(4)" stroke="#FFA630" stroke-width="3"/>
</g>
<path d="M3.70996 10.3721L2.49316 11.6367V15H1.18066V5.04688H2.49316V9.96875L6.91602 5.04688H8.50195L4.58496 9.44238L8.80957 15H7.2373L3.70996 10.3721ZM11.1338 15H9.86914V7.60352H11.1338V15ZM9.7666 5.6416C9.7666 5.43652 9.82812 5.26335 9.95117 5.12207C10.0788 4.98079 10.2656 4.91016 10.5117 4.91016C10.7578 4.91016 10.9447 4.98079 11.0723 5.12207C11.1999 5.26335 11.2637 5.43652 11.2637 5.6416C11.2637 5.84668 11.1999 6.01758 11.0723 6.1543C10.9447 6.29102 10.7578 6.35938 10.5117 6.35938C10.2656 6.35938 10.0788 6.29102 9.95117 6.1543C9.82812 6.01758 9.7666 5.84668 9.7666 5.6416ZM14.8799 5.8125V7.60352H16.2607V8.58105H14.8799V13.168C14.8799 13.4642 14.9414 13.6875 15.0645 13.8379C15.1875 13.9837 15.3971 14.0566 15.6934 14.0566C15.8392 14.0566 16.0397 14.0293 16.2949 13.9746V15C15.9622 15.0911 15.6387 15.1367 15.3242 15.1367C14.7591 15.1367 14.333 14.9658 14.0459 14.624C13.7588 14.2822 13.6152 13.7969 13.6152 13.168V8.58105H12.2686V7.60352H13.6152V5.8125H14.8799ZM20.7109 14.1045C21.1621 14.1045 21.5563 13.9678 21.8936 13.6943C22.2308 13.4209 22.4176 13.0791 22.4541 12.6689H23.6504C23.6276 13.0928 23.4818 13.4961 23.2129 13.8789C22.944 14.2617 22.584 14.5671 22.1328 14.7949C21.6862 15.0228 21.2122 15.1367 20.7109 15.1367C19.7038 15.1367 18.9017 14.8018 18.3047 14.1318C17.7122 13.4574 17.416 12.5368 17.416 11.3701V11.1582C17.416 10.4382 17.5482 9.79785 17.8125 9.2373C18.0768 8.67676 18.4551 8.24154 18.9473 7.93164C19.444 7.62174 20.0296 7.4668 20.7041 7.4668C21.5335 7.4668 22.2217 7.71517 22.7686 8.21191C23.32 8.70866 23.6139 9.35352 23.6504 10.1465H22.4541C22.4176 9.66797 22.2354 9.27604 21.9072 8.9707C21.5837 8.66081 21.1826 8.50586 20.7041 8.50586C20.0615 8.50586 19.5625 8.73828 19.207 9.20312C18.8561 9.66341 18.6807 10.3311 18.6807 11.2061V11.4453C18.6807 12.2975 18.8561 12.9538 19.207 13.4141C19.5579 13.8743 20.0592 14.1045 20.7109 14.1045ZM26.3369 8.49902C26.8975 7.81087 27.6266 7.4668 28.5244 7.4668C30.0876 7.4668 30.876 8.34863 30.8896 10.1123V15H29.625V10.1055C29.6204 9.57227 29.4974 9.17806 29.2559 8.92285C29.0189 8.66764 28.6475 8.54004 28.1416 8.54004C27.7314 8.54004 27.3714 8.64941 27.0615 8.86816C26.7516 9.08691 26.5101 9.37402 26.3369 9.72949V15H25.0723V4.5H26.3369V8.49902ZM35.8525 15.1367C34.8499 15.1367 34.0342 14.8086 33.4053 14.1523C32.7764 13.4915 32.4619 12.6097 32.4619 11.5068V11.2744C32.4619 10.5407 32.6009 9.88672 32.8789 9.3125C33.1615 8.73372 33.5534 8.28255 34.0547 7.95898C34.5605 7.63086 35.1074 7.4668 35.6953 7.4668C36.6569 7.4668 37.4043 7.78353 37.9375 8.41699C38.4707 9.05046 38.7373 9.95736 38.7373 11.1377V11.6641H33.7266C33.7448 12.3932 33.9567 12.9834 34.3623 13.4346C34.7725 13.8812 35.292 14.1045 35.9209 14.1045C36.3675 14.1045 36.7458 14.0133 37.0557 13.8311C37.3656 13.6488 37.6367 13.4072 37.8691 13.1064L38.6416 13.708C38.0218 14.6605 37.0921 15.1367 35.8525 15.1367ZM35.6953 8.50586C35.1849 8.50586 34.7565 8.69271 34.4102 9.06641C34.0638 9.43555 33.8496 9.95508 33.7676 10.625H37.4727V10.5293C37.4362 9.88672 37.263 9.38997 36.9531 9.03906C36.6432 8.68359 36.224 8.50586 35.6953 8.50586ZM41.4033 7.60352L41.4443 8.5332C42.0094 7.82227 42.7477 7.4668 43.6592 7.4668C45.2223 7.4668 46.0107 8.34863 46.0244 10.1123V15H44.7598V10.1055C44.7552 9.57227 44.6322 9.17806 44.3906 8.92285C44.1536 8.66764 43.7822 8.54004 43.2764 8.54004C42.8662 8.54004 42.5062 8.64941 42.1963 8.86816C41.8864 9.08691 41.6449 9.37402 41.4717 9.72949V15H40.207V7.60352H41.4033Z" transform="translate(12 67)" fill="#F2994A"/>
<path d="M6.76523 34.8H4.90314V19.4484L7.27482 17.1546C8.14124 16.3147 8.60684 15.164 8.55966 13.9788L8.00662 0.576C7.99328 0.254025 7.71924 -0.000224851 7.38593 1.4922e-07H1.17897C0.845655 -0.000224851 0.571618 0.254025 0.558273 0.576L0.00337062 13.98C-0.0445781 15.1653 0.420789 16.3162 1.28759 17.1558L3.66175 19.4484V34.8H1.79966C1.45689 34.8 1.17897 35.0686 1.17897 35.4C1.17897 35.7313 1.45689 36 1.79966 36H6.76523C7.10801 36 7.38593 35.7313 7.38593 35.4C7.38593 35.0686 7.10801 34.8 6.76523 34.8ZM2.16525 16.3062C1.54208 15.7041 1.20713 14.8779 1.24104 14.0268L1.77422 1.2H6.78882L7.31951 14.0268C7.35365 14.8777 7.01941 15.7039 6.39716 16.3068L4.28245 18.3516L2.16525 16.3062Z" transform="translate(19 13)" fill="#FFA630"/>
<path d="M11.1725 30H7.44835V14.4C7.44835 14.3898 7.44276 14.3814 7.44214 14.3712C10.9813 14.0659 13.6849 11.1848 13.6553 7.7502L13.0346 0.550203C13.0078 0.238428 12.7375 -0.00104656 12.4139 3.43954e-06H1.24139C0.917776 -0.00104656 0.647541 0.238428 0.620696 0.550203L2.20881e-07 7.8C-0.000698062 11.2148 2.69475 14.0656 6.21316 14.3712C6.21316 14.3814 6.20696 14.3898 6.20696 14.4V30H2.48278C2.14 30 1.86209 30.2687 1.86209 30.6C1.86209 30.9314 2.14 31.2 2.48278 31.2H11.1725C11.5153 31.2 11.7932 30.9314 11.7932 30.6C11.7932 30.2687 11.5153 30 11.1725 30ZM2.87755 11.6184H2.88003C1.83951 10.6213 1.25024 9.2661 1.24139 7.8498L1.81243 1.2H11.8429L12.4139 7.8C12.4139 10.7823 9.9129 13.2 6.82773 13.2001C5.34605 13.2001 3.9252 12.6311 2.87755 11.6184Z" transform="translate(28.9308 17.8)" fill="#FFA630"/>
<path d="M1.85762 5.32557L1.23692 0.525572C1.19433 0.196772 0.884058 -0.0364026 0.543917 0.00469741C0.543839 0.00469741 0.543684 0.00469737 0.543606 0.00477237C0.20362 0.0459474 -0.0375977 0.345647 0.00484243 0.674372L0.62554 5.47437C0.664333 5.7746 0.928282 5.9999 1.24127 5.99997C1.26718 5.99982 1.2931 5.99825 1.31885 5.99517C1.65884 5.954 1.89998 5.6543 1.85762 5.32557Z" transform="translate(37.6206 20.2)" fill="#FFA630"/>
<path d="M1.85003 3.48135C1.85003 3.48127 1.85003 3.4812 1.84996 3.48112L1.22926 0.481123C1.16401 0.158473 0.840626 -0.0519022 0.506846 0.0111728C0.50351 0.0117728 0.500174 0.0124479 0.496838 0.0131229C0.160964 0.0793479 -0.0558139 0.396223 0.0126178 0.720897C0.0126178 0.720972 0.0126172 0.721047 0.0126947 0.721122L0.633391 3.72112C0.692357 4.0005 0.946687 4.2012 1.24167 4.20112C1.28334 4.20135 1.325 4.1973 1.36581 4.18912C1.70176 4.1229 1.91854 3.80602 1.85003 3.48135Z" transform="translate(35.1372 20.1989)" fill="#FFA630"/>
<path d="M10.5518 0H0.620695C0.277915 0 -1.09864e-06 0.26865 -1.09864e-06 0.6C-1.09864e-06 0.93135 0.277915 1.2 0.620695 1.2H10.5518C10.8946 1.2 11.1725 0.93135 11.1725 0.6C11.1725 0.26865 10.8946 0 10.5518 0Z" transform="translate(43.2068 15.4)" fill="#FFA630"/>
<path d="M10.784 15.009C9.81878 13.3269 9.31175 11.4353 9.31044 9.5118V8.796C9.31051 7.78987 9.44932 6.78825 9.7232 5.8176L11.1508 0.7578C11.241 0.438075 11.0459 0.1083 10.7152 0.0211498C10.662 0.00712484 10.6071 1.57041e-08 10.5518 1.57041e-08H1.86209C1.51931 -7.49843e-05 1.24131 0.2685 1.24124 0.59985C1.24124 0.653175 1.24861 0.706275 1.26312 0.7578L2.69072 5.8182C2.9646 6.78862 3.10348 7.7901 3.10348 8.796V9.5118C3.10216 11.4353 2.59513 13.3269 1.62995 15.009C0.562196 16.869 0.00131788 18.961 -1.09864e-06 21.0882V30.6C-1.09864e-06 30.9313 0.277915 31.2 0.620695 31.2H11.7932C12.136 31.2 12.4139 30.9313 12.4139 30.6V21.0882C12.4126 18.961 11.8517 16.869 10.784 15.009ZM11.1725 27.6H3.72417C3.38139 27.6 3.10348 27.8686 3.10348 28.2C3.10348 28.5313 3.38139 28.8 3.72417 28.8H11.1725V30H1.24139V21.0882C1.24271 19.1647 1.74974 17.2731 2.71492 15.591C3.78267 13.731 4.34355 11.639 4.34487 9.5118V8.796C4.34502 7.68345 4.19156 6.57592 3.88866 5.5026L2.6752 1.2H9.73872L8.52526 5.502C8.22236 6.57555 8.06897 7.6833 8.06904 8.796V9.5118C8.07036 11.639 8.63124 13.731 9.69899 15.591C10.6642 17.2731 11.1712 19.1647 11.1725 21.0882V27.6Z" transform="translate(42.5859 17.8)" fill="#FFA630"/>
<path d="M3.05683 4.5716L1.19474 0.371602C1.06416 0.065227 0.701364 -0.0808729 0.384421 0.0454271C0.0674779 0.171652 -0.0836614 0.522352 0.0469951 0.828727C0.0492451 0.833977 0.0515724 0.839228 0.0539776 0.844403L1.91606 5.0444C2.0139 5.26498 2.23821 5.408 2.48648 5.408C2.57059 5.4083 2.65392 5.3918 2.73104 5.3594C3.04596 5.22883 3.19183 4.8761 3.05683 4.5716Z" transform="translate(46.3065 36.392)" fill="#FFA630"/>
<path d="M1.79731 1.53218L1.17661 0.332179C1.02338 0.0356288 0.650415 -0.0847473 0.343636 0.0633777C0.0368574 0.211503 -0.0876709 0.572027 0.0655634 0.868577L0.686259 2.06858C0.839493 2.36513 1.21246 2.4855 1.51923 2.33738C1.82601 2.18925 1.95054 1.82873 1.79731 1.53218Z" transform="translate(45.0715 39.9996)" fill="#FFA630"/>
<path d="M0.620696 0C0.277916 0 1.44434e-07 0.26865 1.44434e-07 0.6V6.6C1.44434e-07 6.93135 0.277916 7.2 0.620696 7.2C0.963475 7.2 1.24139 6.93135 1.24139 6.6V0.6C1.24139 0.26865 0.963475 0 0.620696 0Z" transform="translate(23.2823 16)" fill="#FFA630"/>
<path d="M0.620696 0C0.277916 0 1.44434e-07 0.26865 1.44434e-07 0.6V1.2C1.44434e-07 1.53135 0.277916 1.8 0.620696 1.8C0.963475 1.8 1.24139 1.53135 1.24139 1.2V0.6C1.24139 0.26865 0.963475 0 0.620696 0Z" transform="translate(23.2823 24.4)" fill="#FFA630"/>
<defs>
<filter id="filter0_d" x="0" y="0" width="74" height="74" filterUnits="userSpaceOnUse" color-interpolation-filters="sRGB">
<feFlood flood-opacity="0" result="BackgroundImageFix"/>
<feColorMatrix in="SourceAlpha" type="matrix" values="0 0 0 0 0 0 0 0 0 0 0 0 0 0 0 0 0 0 255 0"/>
<feOffset dy="4"/>
<feGaussianBlur stdDeviation="2"/>
<feColorMatrix type="matrix" values="0 0 0 0 0 0 0 0 0 0 0 0 0 0 0 0 0 0 0.25 0"/>
<feBlend mode="normal" in2="BackgroundImageFix" result="effect1_dropShadow"/>
<feBlend mode="normal" in="SourceGraphic" in2="effect1_dropShadow" result="shape"/>
</filter>
</defs>
</svg>
