<svg width="375" height="667" viewBox="0 0 375 667" fill="none" xmlns="http://www.w3.org/2000/svg">
<rect width="375" height="667" transform="translate(0.5 10)" fill="white"/>
<path d="M39.3333 0H7.86667C3.52205 0 0 3.49069 0 7.79661C0 12.1025 3.52205 15.5932 7.86667 15.5932H39.3333C43.6779 15.5932 47.2 12.1025 47.2 7.79661C47.2 3.49069 43.6779 0 39.3333 0ZM42.1142 10.5527C41.375 11.2812 40.3759 11.6915 39.3333 11.6949H7.86667C6.82433 11.6915 5.82502 11.2812 5.0858 10.5527C3.55032 9.03043 3.55032 6.5628 5.0858 5.04051C5.82502 4.31201 6.82433 3.90172 7.86667 3.89831H39.3333C40.3759 3.90172 41.375 4.31201 42.1142 5.04051C43.6497 6.5628 43.6497 9.03043 42.1142 10.5527Z" transform="translate(94.5 541.576)" fill="#FFA630"/>
<path d="M1.96667 0C0.880575 0 0 0.872733 0 1.94915V58.4746C0 59.551 0.880575 60.4237 1.96667 60.4237C3.05276 60.4237 3.93333 59.551 3.93333 58.4746V1.94915C3.93333 0.872733 3.05276 0 1.96667 0Z" transform="translate(145.633 541.576)" fill="#FFA630"/>
<path d="M37.3667 0H1.96667C0.880575 0 0 0.872733 0 1.94915V48.7288C0 49.8052 0.880575 50.678 1.96667 50.678V58.4746C1.96667 59.551 2.84724 60.4237 3.93333 60.4237C5.01943 60.4237 5.9 59.551 5.9 58.4746V50.678H37.3667C38.4528 50.678 39.3333 49.8052 39.3333 48.7288V1.94915C39.3333 0.872733 38.4528 0 37.3667 0ZM35.4 46.7797H3.93333V35.0848H35.4V46.7797ZM35.4 31.1864H3.93333V19.4915H35.4V31.1864ZM35.4 15.5932H3.93333V3.89831H35.4V15.5932Z" transform="translate(39.4333 541.576)" fill="#FFA630"/>
<path d="M13.7667 0H1.96667C0.880575 0 0 0.872733 0 1.94915V40.9322C0 42.0086 0.880575 42.8814 1.96667 42.8814H13.7667C14.8528 42.8814 15.7333 42.0086 15.7333 40.9322V1.94915C15.7333 0.872733 14.8528 0 13.7667 0ZM11.8 38.9831H3.93333V35.0848H11.8V38.9831ZM11.8 31.1864H3.93333V27.2881H11.8V31.1864ZM11.8 23.3898H3.93333V3.89831H11.8V23.3898Z" transform="translate(43.3666 487)" fill="#FFA630"/>
<path d="M13.7667 0H1.96667C0.880575 0 0 0.872733 0 1.94915V40.9322C0 42.0086 0.880575 42.8814 1.96667 42.8814H13.7667C14.8528 42.8814 15.7333 42.0086 15.7333 40.9322V1.94915C15.7333 0.872733 14.8528 0 13.7667 0ZM11.8 38.9831H3.93333V35.0848H11.8V38.9831ZM11.8 31.1864H3.93333V27.2881H11.8V31.1864ZM11.8 23.3898H3.93333V3.89831H11.8V23.3898Z" transform="translate(63.0334 487)" fill="#FFA630"/>
<path d="M116.033 37.0339H100.07L98.8801 27.6098C98.4317 24.0876 95.4114 21.4451 91.8296 21.4407H84.5667V17.5424H88.4725C92.3967 17.5431 95.5785 14.3906 95.5793 10.5013C95.5793 10.1663 95.5552 9.83177 95.5072 9.50017L95.0136 6.06771C94.4974 2.59408 91.4977 0.0155932 87.9552 0H77.2448C73.7021 0.0155932 70.7027 2.59408 70.1864 6.06771L69.6928 9.50017C69.1355 13.3502 71.833 16.9189 75.7174 17.471C76.052 17.5185 76.3895 17.5424 76.7275 17.5424H80.6333V21.4407H73.3704C69.7886 21.4451 66.7683 24.0876 66.3199 27.6098L65.1301 37.0339H1.96667C0.880575 37.0339 0 37.9066 0 38.9831C0 40.0595 0.880575 40.9322 1.96667 40.9322H116.033C117.119 40.9322 118 40.0595 118 38.9831C118 37.9066 117.119 37.0339 116.033 37.0339ZM76.7275 13.6441C74.9723 13.6441 73.5494 12.2339 73.5494 10.4942C73.5494 10.3461 73.56 10.1982 73.5809 10.0518L74.0745 6.61932C74.3048 5.05927 75.65 3.90001 77.2408 3.89051H87.9513C89.5421 3.90001 90.8873 5.05927 91.1176 6.61932L91.6113 10.0518C91.8578 11.7741 90.6488 13.3685 88.911 13.6129C88.7657 13.6334 88.6192 13.6438 88.4725 13.6441H76.7275ZM69.0949 37.0339L70.2218 28.0931C70.4226 26.5207 71.7713 25.3412 73.3704 25.339H91.8296C93.428 25.3422 94.7754 26.5214 94.9762 28.0931L96.1051 37.0339H69.0949Z" transform="translate(35.5 496.746)" fill="#FFA630"/>
<path d="M42.7403 27.3096C42.3951 26.717 41.8985 26.2249 41.3007 25.8828V25.8789C41.2704 21.2696 37.4947 17.5477 32.844 17.5424H23.6007V1.94915C23.6007 0.872733 22.7201 0 21.634 0C20.5479 0 19.6673 0.872733 19.6673 1.94915V17.5424H10.424C5.77333 17.5477 1.99758 21.2696 1.96734 25.8789C0.0859824 26.9553 -0.558593 29.3396 0.527744 31.204C1.61384 33.0686 4.01956 33.7074 5.90068 32.6308C7.78204 31.5544 8.42661 29.17 7.34027 27.3057C6.99512 26.7131 6.49854 26.221 5.90068 25.8789C5.92551 23.4205 7.94331 21.4407 10.424 21.4407H19.6673V25.8809C17.786 26.9573 17.1414 29.3416 18.2277 31.2059C19.3138 33.0705 21.7196 33.7094 23.6007 32.6327C25.482 31.5563 26.1266 29.172 25.0403 27.3076C24.6951 26.7151 24.1985 26.2229 23.6007 25.8809V21.4407H32.844C35.3262 21.4407 37.3447 23.423 37.3673 25.8828C35.486 26.9592 34.8414 29.3435 35.9277 31.2079C37.0138 33.0725 39.4196 33.7113 41.3007 32.6347C43.182 31.5583 43.8266 29.1742 42.7403 27.3096Z" transform="translate(96.4659 561.068)" fill="#FFA630"/>
<rect width="8" height="667" transform="translate(184.5)" fill="#4C6085"/>
<path d="M70.4448 95.0278L55.8845 65.3184C55.7603 65.0741 55.5793 64.8606 55.3557 64.6951C55.7294 64.4457 56.0863 64.2036 56.4357 63.9325L57.9136 62.787C64.6029 57.6101 67.785 49.2813 66.1831 41.1418L62.3117 21.4681C59.4907 7.14372 45.1969 -2.25701 30.3852 0.470986C19.3785 2.49813 10.7702 10.8235 8.67409 21.4679L4.79905 41.1416C3.19714 49.2818 6.38088 57.6113 13.0723 62.7867L14.552 63.9323C14.9014 64.2034 15.2676 64.4455 15.632 64.6948C15.4082 64.8604 15.2275 65.0738 15.1032 65.3182L0.554078 95.0278C-0.130919 96.4314 -0.183002 98.047 0.410211 99.4891C1.28859 101.605 3.41504 102.986 5.77248 102.973C6.55744 102.971 7.33492 102.824 8.06312 102.541C9.41677 102.02 10.5156 101.021 11.1385 99.7475L17.5844 86.5787L29.8878 81.6783V92.4692C29.8878 95.4631 32.3972 97.89 35.4929 97.89C38.5886 97.89 41.0981 95.4631 41.0981 92.4692V81.6783L53.4014 86.5787L59.8473 99.7475C60.5041 101.067 61.6629 102.09 63.0815 102.602C63.7593 102.866 64.483 103 65.2134 103C68.4018 103.007 70.9925 100.513 71 97.4295C71.0019 96.5987 70.8122 95.7784 70.4448 95.0278ZM7.76045 98.199C7.50588 98.6925 7.06004 99.0686 6.51984 99.2452C5.47634 99.6484 4.29249 99.1573 3.87537 98.1482C3.66517 97.6395 3.68386 97.0694 3.92652 96.5746L18.4794 66.8616C18.5366 66.7188 18.5742 66.5693 18.5915 66.4171C19.5885 66.9106 20.6213 67.3334 21.6818 67.6819C21.977 67.7759 22.2797 67.8427 22.5749 67.9313L21.0167 71.1151C20.8805 71.2551 20.7689 71.4155 20.686 71.5903C20.6526 71.7 20.6301 71.8125 20.6187 71.9264L7.76045 98.199ZM29.8878 77.7681L19.961 81.7217L23.4269 74.6404L29.8878 77.2134V77.7681ZM25.03 71.368L25.9641 69.4418C26.0517 69.2503 26.1043 69.0454 26.1192 68.8365C27.3647 69.0979 28.6184 69.3056 29.8803 69.4599L29.8878 73.3032L25.03 71.368ZM37.3613 92.4674C37.3613 93.4653 36.5247 94.2744 35.4929 94.2744C34.4611 94.2744 33.6245 93.4653 33.6245 92.4674V80.1804L35.4929 79.4359L37.3613 80.1804V92.4674ZM37.3613 74.7921L35.4929 75.5348L33.6245 74.7903V69.7671C34.2467 69.7924 34.8689 69.8376 35.4929 69.8376C36.117 69.8376 36.7391 69.7924 37.3613 69.7671V74.7921ZM22.8664 64.2578C20.6972 63.5574 18.6732 62.4917 16.8875 61.1101L15.404 59.9663C9.79395 55.6266 7.12566 48.6424 8.47043 41.8176L12.3455 22.1439C14.7818 9.78047 27.1207 1.66807 39.9046 4.02452C49.4021 5.77498 56.8304 12.9588 58.6404 22.1439L62.5154 41.8176C63.8597 48.6424 61.1914 55.6264 55.5818 59.9663L54.1021 61.1101C52.3163 62.4917 50.2924 63.5574 48.1232 64.2578C39.9226 66.8812 31.0667 66.8812 22.8664 64.2578ZM45.9578 71.368L41.0981 73.3032V69.4599C42.3611 69.3045 43.6148 69.0967 44.8591 68.8365C44.8741 69.0454 44.9266 69.2503 45.0142 69.4418L45.9578 71.368ZM41.0981 77.7681V77.2134L47.559 74.6404L51.0248 81.7217L41.0981 77.7681ZM67.1191 98.1466C66.6712 99.1704 65.4499 99.6493 64.3913 99.2161C64.3663 99.2059 64.3413 99.1951 64.3165 99.1838C63.8394 99.0001 63.4522 98.6482 63.2329 98.199L50.3672 71.93C50.3557 71.8161 50.3333 71.7037 50.2999 71.5939C50.217 71.4186 50.1053 71.2576 49.9692 71.1169L48.4109 67.9349C48.7062 67.8463 49.0088 67.7795 49.304 67.6855C50.3646 67.337 51.3973 66.9142 52.3944 66.4207C52.4114 66.5729 52.4492 66.7224 52.5065 66.8652L67.0687 96.5746C67.3097 97.0692 67.3279 97.6384 67.1191 98.1466Z" transform="translate(254.5 597)" fill="#FFA630"/>
<path d="M37.0543 0.804482C36.4816 -0.0257979 35.3213 -0.249857 34.4628 0.303964C24.9142 6.48341 12.4544 6.48341 2.90576 0.303964C2.04723 -0.249857 0.886966 -0.0257979 0.314305 0.804482C-0.258355 1.63476 -0.0266745 2.75686 0.83185 3.31068C6.11588 6.72621 12.3285 8.54985 18.6843 8.55075C25.0401 8.54985 31.2527 6.72621 36.5367 3.31068C37.3953 2.75663 37.6269 1.63476 37.0543 0.804482Z" transform="translate(271.309 648.099)" fill="#FFA630"/>
<rect width="8" height="183" transform="translate(192.5 555) rotate(-90)" fill="#4C6085"/>
<rect width="8" height="183" transform="translate(2.5 85) rotate(-90)" fill="#4C6085"/>
<path d="M14.4701 77.3333H10.4873V43.2187L15.56 38.1213C17.4132 36.255 18.4091 33.6978 18.3082 31.064L17.1253 1.28C17.0967 0.5645 16.5106 -0.000499668 15.7977 3.31601e-07H2.52168C1.80876 -0.000499668 1.22263 0.5645 1.19408 1.28L0.00720937 31.0667C-0.0953477 33.7007 0.90002 36.2582 2.75401 38.124L7.83208 43.2187V77.3333H3.84928C3.11612 77.3333 2.52168 77.9303 2.52168 78.6667C2.52168 79.403 3.11612 80 3.84928 80H14.4701C15.2032 80 15.7977 79.403 15.7977 78.6667C15.7977 77.9303 15.2032 77.3333 14.4701 77.3333ZM4.63124 36.236C3.29833 34.898 2.58192 33.062 2.65444 31.1707L3.79485 2.66667H14.5205L15.6556 31.1707C15.7286 33.0617 15.0137 34.8977 13.6828 36.2373L9.15968 40.7813L4.63124 36.236Z" transform="translate(57.5 -27)" fill="#FFA630"/>
<path d="M23.8968 66.6667H15.9312V32C15.9312 31.9773 15.9192 31.9587 15.9179 31.936C23.4879 31.2575 29.2704 24.8552 29.2072 17.2227L27.8796 1.22267C27.8222 0.529841 27.2442 -0.00232569 26.552 7.64343e-06H2.6552C1.96302 -0.00232569 1.38502 0.529841 1.3276 1.22267L4.72441e-07 17.3333C-0.00149308 24.9218 5.76377 31.2568 13.2893 31.936C13.2893 31.9587 13.276 31.9773 13.276 32V66.6667H5.3104C4.57723 66.6667 3.9828 67.2637 3.9828 68C3.9828 68.7363 4.57723 69.3333 5.3104 69.3333H23.8968C24.63 69.3333 25.2244 68.7363 25.2244 68C25.2244 67.2637 24.63 66.6667 23.8968 66.6667ZM6.15475 25.8187H6.16006C3.93451 23.6028 2.67412 20.5913 2.6552 17.444L3.87659 2.66667H25.3306L26.552 17.3333C26.552 23.9607 21.2026 29.3333 14.6038 29.3335C11.4346 29.3335 8.39557 28.0692 6.15475 25.8187Z" transform="translate(78.7408 -16.3334)" fill="#FFA630"/>
<path d="M3.97324 11.8346L2.64564 1.16794C2.55453 0.437272 1.8909 -0.0808946 1.16338 0.0104387C1.16321 0.0104387 1.16288 0.0104386 1.16271 0.0106053C0.435521 0.102105 -0.0804172 0.768104 0.0103574 1.4986L1.33796 12.1653C1.42093 12.8324 1.98549 13.3331 2.65493 13.3333C2.71036 13.3329 2.76579 13.3294 2.82088 13.3226C3.54808 13.2311 4.06385 12.5651 3.97324 11.8346Z" transform="translate(97.3275 -10.9999)" fill="#FFA630"/>
<path d="M23.0657 33.3533C21.0013 29.6153 19.9168 25.4118 19.914 21.1373V19.5467C19.9142 17.3108 20.211 15.085 20.7968 12.928L23.8503 1.684C24.0432 0.973499 23.626 0.240666 22.9187 0.0469996C22.8048 0.015833 22.6873 3.4898e-08 22.5692 3.4898e-08H3.9828C3.24963 -0.000166632 2.65503 0.596667 2.65487 1.333C2.65487 1.4515 2.67063 1.5695 2.70167 1.684L5.75514 12.9293C6.34095 15.0858 6.63799 17.3113 6.63799 19.5467V21.1373C6.63517 25.4118 5.55069 29.6153 3.48628 33.3533C1.20248 37.4867 0.0028188 42.1355 -2.34988e-06 46.8627V68C-2.34988e-06 68.7363 0.59443 69.3333 1.3276 69.3333H25.2244C25.9576 69.3333 26.552 68.7363 26.552 68V46.8627C26.5492 42.1355 25.3495 37.4867 23.0657 33.3533ZM23.8968 61.3333H7.96559C7.23243 61.3333 6.63799 61.9303 6.63799 62.6667C6.63799 63.403 7.23243 64 7.96559 64H23.8968V66.6667H2.6552V46.8627C2.65802 42.5882 3.7425 38.3847 5.80692 34.6467C8.09072 30.5133 9.29037 25.8645 9.29319 21.1373V19.5467C9.29352 17.0743 8.96528 14.6132 8.31741 12.228L5.72195 2.66667H20.83L18.2346 12.2267C17.5867 14.6123 17.2586 17.074 17.2588 19.5467V21.1373C17.2616 25.8645 18.4613 30.5133 20.7451 34.6467C22.8095 38.3847 23.894 42.5882 23.8968 46.8627V61.3333Z" transform="translate(107.948 -16.3333)" fill="#FFA630"/>
<path d="M6.53821 10.1591L2.55541 0.825782C2.27612 0.144949 1.50014 -0.179718 0.822233 0.100949C0.144328 0.381449 -0.178942 1.16078 0.100517 1.84162C0.10533 1.85328 0.110308 1.86495 0.115452 1.87645L4.09825 11.2098C4.30751 11.7 4.78727 12.0178 5.31831 12.0178C5.4982 12.0185 5.67643 11.9818 5.84139 11.9098C6.51498 11.6196 6.82697 10.8358 6.53821 10.1591Z" transform="translate(115.906 24.9822)" fill="#FFA630"/>
<path d="M3.84424 3.40484L2.51664 0.738175C2.18889 0.0791752 1.39117 -0.188327 0.735 0.140839C0.0788338 0.470006 -0.187518 1.27117 0.140233 1.93017L1.46783 4.59684C1.79558 5.25584 2.59331 5.52334 3.24947 5.19417C3.90564 4.86501 4.17199 4.06384 3.84424 3.40484Z" transform="translate(113.264 32.9991)" fill="#FFA630"/>
<path d="M1.3276 0C0.594432 0 3.08928e-07 0.597 3.08928e-07 1.33333V2.66667C3.08928e-07 3.403 0.594432 4 1.3276 4C2.06077 4 2.6552 3.403 2.6552 2.66667V1.33333C2.6552 0.597 2.06077 0 1.3276 0Z" transform="translate(66.6597 -1.66669)" fill="#FFA630"/>
<g filter="url(#filter0_d)">
<path d="M101.472 0H83.0945C76.7284 0.000939024 71.5676 5.14726 71.5667 11.4955V18.7805H62.7395C57.5575 18.772 53.3499 22.9542 53.3414 28.1217C53.3381 30.1746 54.0119 32.1717 55.2589 33.8049H10.1832C4.56167 33.811 0.00612083 38.3537 0 43.9595V67.6098C0 68.6469 0.843262 69.4878 1.88333 69.4878H3.76667V75.1219C3.76667 76.1591 4.60993 77 5.65 77H13.1833C14.2234 77 15.0667 76.1591 15.0667 75.1219V69.4878H33.9V75.1219C33.9 76.1591 34.7433 77 35.7833 77H43.3167C44.3567 77 45.2 76.1591 45.2 75.1219V69.4878H97.9333V75.1219C97.9333 76.1591 98.7766 77 99.8167 77H107.35C108.39 77 109.233 76.1591 109.233 75.1219V69.4878H111.117C112.157 69.4878 113 68.6469 113 67.6098V11.4955C112.999 5.14726 107.838 0.000939024 101.472 0ZM11.3 73.2439H7.53333V69.4878H11.3V73.2439ZM41.4333 73.2439H37.6667V69.4878H41.4333V73.2439ZM41.4333 65.7317H3.76667V60.0976H41.4333V65.7317ZM41.4333 43.9595V56.3415H3.76667V43.9595C3.76973 40.4269 6.64063 37.564 10.1832 37.561H43.7197C42.2396 39.3667 41.4319 41.6274 41.4333 43.9595ZM58.7449 24.1855C59.8071 23.1333 61.2422 22.5408 62.7395 22.5366H74.7382C72.2164 25.8718 72.2164 30.4697 74.7382 33.8049H62.7395C59.619 33.8053 57.0892 31.2831 57.0888 28.1714C57.0885 26.6763 57.6844 25.2424 58.7449 24.1855ZM45.2 43.9595C45.2031 40.4269 48.074 37.564 51.6165 37.561H69.0505C71.4791 37.564 73.4469 39.5264 73.45 41.9481V56.3415H45.2V43.9595ZM105.467 73.2439H101.7V69.4878H105.467V73.2439ZM109.233 65.7317H45.2V60.0976H92.2833C93.3234 60.0976 94.1667 59.2567 94.1667 58.2195C94.1667 57.1824 93.3234 56.3415 92.2833 56.3415H88.5167V41.9481C88.511 40.3896 88.0531 38.8657 87.1983 37.561H109.233V65.7317ZM80.3505 37.561C82.7791 37.564 84.7469 39.5264 84.75 41.9481V56.3415H77.2167V41.9481C77.211 40.3896 76.7531 38.8657 75.8983 37.561H80.3505ZM76.5681 28.1733C76.5674 26.6774 77.1632 25.2429 78.2243 24.1855C79.2824 23.1261 80.7213 22.5324 82.2207 22.5366H97.9333C101.054 22.5366 103.583 25.059 103.583 28.1707C103.583 31.2824 101.054 33.8049 97.9333 33.8049H82.2207C79.1002 33.8063 76.5695 31.285 76.5681 28.1733ZM109.233 33.8049H105.414C108.553 29.6936 107.756 23.823 103.633 20.6926C101.995 19.4491 99.9918 18.777 97.9333 18.7805H75.3333V11.4955C75.3399 9.44424 76.1566 7.47792 77.6065 6.0229C79.0588 4.56671 81.0351 3.75046 83.0945 3.7561H101.472C103.532 3.75046 105.508 4.56671 106.96 6.0229C108.41 7.47792 109.227 9.44424 109.233 11.4955V33.8049Z" transform="translate(223.5 449)" fill="#FFA630"/>
<path d="M5.65 0H1.88333C0.843262 0 0 0.840896 0 1.87805C0 2.9152 0.843262 3.7561 1.88333 3.7561H5.65C6.69007 3.7561 7.53333 2.9152 7.53333 1.87805C7.53333 0.840896 6.69007 0 5.65 0Z" transform="translate(321.433 505.341)" fill="#FFA630"/>
</g>
<g filter="url(#filter1_d)">
<path d="M100.941 0C99.2519 0 97.8824 1.38056 97.8824 3.08333V18.5H91.7647V3.08333C91.7647 1.38056 90.3951 0 88.7059 0C87.0166 0 85.6471 1.38056 85.6471 3.08333V18.5H79.5294V3.08333C79.5294 1.38056 78.1598 0 76.4706 0C74.7813 0 73.4118 1.38056 73.4118 3.08333V18.5H30.5882V3.08333C30.5882 1.38056 29.2186 0 27.5294 0C25.8402 0 24.4706 1.38056 24.4706 3.08333V18.5H18.3529V3.08333C18.3529 1.38056 16.9834 0 15.2941 0C13.6049 0 12.2353 1.38056 12.2353 3.08333V18.5H6.11765V3.08333C6.11765 1.38056 4.74806 0 3.05882 0C1.36959 0 0 1.38056 0 3.08333V181.917C0 183.619 1.36959 185 3.05882 185C4.74806 185 6.11765 183.619 6.11765 181.917V166.5H12.2353V181.917C12.2353 183.619 13.6049 185 15.2941 185C16.9834 185 18.3529 183.619 18.3529 181.917V166.5H24.4706V181.917C24.4706 183.619 25.8402 185 27.5294 185C29.2186 185 30.5882 183.619 30.5882 181.917V166.5H73.4118V181.917C73.4118 183.619 74.7813 185 76.4706 185C78.1598 185 79.5294 183.619 79.5294 181.917V166.5H85.6471V181.917C85.6471 183.619 87.0166 185 88.7059 185C90.3951 185 91.7647 183.619 91.7647 181.917V166.5H97.8824V181.917C97.8824 183.619 99.2519 185 100.941 185C102.63 185 104 183.619 104 181.917V3.08333C104 1.38056 102.63 0 100.941 0ZM97.8824 160.333H6.11765V152.36L12.2353 146.193L19.2492 153.263C20.4436 154.467 22.3799 154.467 23.5744 153.263L30.5882 146.193L37.6021 153.263C38.7966 154.467 40.7328 154.467 41.9273 153.263L48.9412 146.193L55.9551 153.263C57.1495 154.467 59.0858 154.467 60.2802 153.263L67.2941 146.193L74.308 153.263C75.5025 154.467 77.4387 154.467 78.6332 153.263L85.6471 146.193L92.6609 153.263C93.8554 154.467 95.7916 154.467 96.9861 153.263L97.8824 152.36V160.333ZM97.8824 143.64L94.8235 146.723L87.8096 139.653C86.6152 138.45 84.6789 138.45 83.4845 139.653L76.4706 146.723L69.4567 139.653C68.2622 138.45 66.326 138.45 65.1315 139.653L58.1176 146.723L51.1038 139.653C49.9093 138.45 47.9731 138.45 46.7786 139.653L39.7647 146.723L32.7508 139.653C31.5564 138.45 29.6201 138.45 28.4256 139.653L21.4118 146.723L14.3979 139.653C13.2034 138.45 11.2672 138.45 10.0727 139.653L6.11765 143.64V136.943L12.2353 130.777L19.2492 137.847C20.4436 139.05 22.3799 139.05 23.5744 137.847L30.5882 130.777L37.6021 137.847C38.7966 139.05 40.7328 139.05 41.9273 137.847L48.9412 130.777L55.9551 137.847C57.1495 139.05 59.0858 139.05 60.2802 137.847L67.2941 130.777L74.308 137.847C75.5025 139.05 77.4387 139.05 78.6332 137.847L85.6471 130.777L92.6609 137.847C93.8554 139.05 95.7916 139.05 96.9861 137.847L97.8824 136.943V143.64ZM97.8824 128.223L94.8235 131.307L87.8096 124.237C86.6152 123.033 84.6789 123.033 83.4845 124.237L76.4706 131.307L69.4567 124.237C68.2622 123.033 66.326 123.033 65.1315 124.237L58.1176 131.307L51.1038 124.237C49.9093 123.033 47.9731 123.033 46.7786 124.237L39.7647 131.307L32.7508 124.237C31.5564 123.033 29.6201 123.033 28.4256 124.237L21.4118 131.307L14.3979 124.237C13.2034 123.033 11.2672 123.033 10.0727 124.237L6.11765 128.223V59.8598L12.2353 53.6932L19.2492 60.7633C20.4436 61.9669 22.3799 61.9669 23.5744 60.7633L30.5882 53.6932L37.6021 60.7633C38.7966 61.9669 40.7328 61.9669 41.9273 60.7633L48.9412 53.6932L55.9551 60.7633C57.1495 61.9669 59.0858 61.9669 60.2802 60.7633L67.2941 53.6932L74.308 60.7633C75.5025 61.9669 77.4387 61.9669 78.6332 60.7633L85.6471 53.6932L92.6609 60.7633C93.8554 61.9669 95.7916 61.9669 96.9861 60.7633L97.8824 59.8598V128.223ZM97.8824 51.1402L94.8235 54.2235L87.8096 47.1534C86.6152 45.9498 84.6789 45.9498 83.4845 47.1534L76.4706 54.2235L69.4567 47.1534C68.2622 45.9498 66.326 45.9498 65.1315 47.1534L58.1176 54.2235L51.1038 47.1534C49.9093 45.9498 47.9731 45.9498 46.7786 47.1534L39.7647 54.2235L32.7508 47.1534C31.5564 45.9498 29.6201 45.9498 28.4256 47.1534L21.4118 54.2235L14.3979 47.1534C13.2034 45.9498 11.2672 45.9498 10.0727 47.1534L6.11765 51.1402V44.4432L12.2353 38.2765L19.2492 45.3466C20.4436 46.5502 22.3799 46.5502 23.5744 45.3466L30.5882 38.2765L37.6021 45.3466C38.7966 46.5502 40.7328 46.5502 41.9273 45.3466L48.9412 38.2765L55.9551 45.3466C57.1495 46.5502 59.0858 46.5502 60.2802 45.3466L67.2941 38.2765L74.308 45.3466C75.5025 46.5502 77.4387 46.5502 78.6332 45.3466L85.6471 38.2765L92.6609 45.3466C93.8554 46.5502 95.7916 46.5502 96.9861 45.3466L97.8824 44.4432V51.1402ZM97.8824 35.7235L94.8235 38.8068L87.8096 31.7368C86.6152 30.5331 84.6789 30.5331 83.4845 31.7368L76.4706 38.8068L69.4567 31.7368C68.2622 30.5331 66.326 30.5331 65.1315 31.7368L58.1176 38.8068L51.1038 31.7368C49.9093 30.5331 47.9731 30.5331 46.7786 31.7368L39.7647 38.8068L32.7508 31.7368C31.5564 30.5331 29.6201 30.5331 28.4256 31.7368L21.4118 38.8068L14.3979 31.7368C13.2034 30.5331 11.2672 30.5331 10.0727 31.7368L6.11765 35.7235V24.6667H97.8824V35.7235Z" transform="translate(232.5 53)" fill="#FFA630"/>
<path d="M4.58824 0C2.05438 0 0 2.07084 0 4.625C0 7.17916 2.05438 9.25 4.58824 9.25C7.12209 9.25 9.17647 7.17916 9.17647 4.625C9.17647 2.07084 7.12209 0 4.58824 0ZM4.58824 6.16667C3.74362 6.16667 3.05882 5.47639 3.05882 4.625C3.05882 3.77361 3.74362 3.08333 4.58824 3.08333C5.43285 3.08333 6.11765 3.77361 6.11765 4.625C6.11765 5.47639 5.43285 6.16667 4.58824 6.16667Z" transform="translate(275.324 136.25)" fill="#FFA630"/>
<path d="M4.58824 9.25C7.12225 9.25 9.17647 7.17932 9.17647 4.625C9.17647 2.07068 7.12225 0 4.58824 0C2.05422 0 0 2.07068 0 4.625C0 7.17932 2.05422 9.25 4.58824 9.25Z" transform="translate(275.324 136.25)" fill="#FFA630"/>
<path d="M4.58824 9.25C7.12225 9.25 9.17647 7.17932 9.17647 4.625C9.17647 2.07068 7.12225 0 4.58824 0C2.05422 0 0 2.07068 0 4.625C0 7.17932 2.05422 9.25 4.58824 9.25Z" transform="translate(296.735 145.5)" fill="#FFA630"/>
<path d="M4.58824 9.25C7.12225 9.25 9.17647 7.17932 9.17647 4.625C9.17647 2.07068 7.12225 0 4.58824 0C2.05422 0 0 2.07068 0 4.625C0 7.17932 2.05422 9.25 4.58824 9.25Z" transform="translate(296.735 117.75)" fill="#FFA630"/>
<path d="M4.58824 9.25C7.12225 9.25 9.17647 7.17932 9.17647 4.625C9.17647 2.07068 7.12225 0 4.58824 0C2.05422 0 0 2.07068 0 4.625C0 7.17932 2.05422 9.25 4.58824 9.25Z" transform="translate(312.029 127)" fill="#FFA630"/>
<path d="M4.58824 9.25C7.12225 9.25 9.17647 7.17932 9.17647 4.625C9.17647 2.07068 7.12225 0 4.58824 0C2.05422 0 0 2.07068 0 4.625C0 7.17932 2.05422 9.25 4.58824 9.25Z" transform="translate(278.382 154.75)" fill="#FFA630"/>
<path d="M4.58824 9.25C7.12225 9.25 9.17647 7.17932 9.17647 4.625C9.17647 2.07068 7.12225 0 4.58824 0C2.05422 0 0 2.07068 0 4.625C0 7.17932 2.05422 9.25 4.58824 9.25Z" transform="translate(253.912 160.917)" fill="#FFA630"/>
<path d="M4.58824 9.25C7.12225 9.25 9.17647 7.17932 9.17647 4.625C9.17647 2.07068 7.12225 0 4.58824 0C2.05422 0 0 2.07068 0 4.625C0 7.17932 2.05422 9.25 4.58824 9.25Z" transform="translate(250.853 127)" fill="#FFA630"/>
<path d="M4.58824 9.25C7.12225 9.25 9.17647 7.17932 9.17647 4.625C9.17647 2.07068 7.12225 0 4.58824 0C2.05422 0 0 2.07068 0 4.625C0 7.17932 2.05422 9.25 4.58824 9.25Z" transform="translate(269.206 120.833)" fill="#FFA630"/>
<path d="M4.58824 9.25C7.12225 9.25 9.17647 7.17932 9.17647 4.625C9.17647 2.07068 7.12225 0 4.58824 0C2.05422 0 0 2.07068 0 4.625C0 7.17932 2.05422 9.25 4.58824 9.25Z" transform="translate(305.912 164)" fill="#FFA630"/>
</g>
<path d="M116.033 53.3947H108.633L114.023 29.0037C114.25 27.9738 113.573 26.9605 112.511 26.7405C112.376 26.7124 112.238 26.6983 112.1 26.6983H106.2V22.8845H110.133V19.0708H106.2V17.1639C106.199 16.3198 106.116 15.4777 105.952 14.6487L109.046 13.1499L107.288 9.73657L104.652 11.0142C104.086 9.9704 103.381 9.00337 102.554 8.1386L105.624 5.16386L102.843 2.46753L99.4996 5.70923C97.9373 4.80179 96.2032 4.20637 94.4 3.95871V0.00193172H90.4667V3.95871C88.6652 4.21161 86.9338 4.81133 85.375 5.72258L82.0316 2.48088L79.2508 5.17721L82.3207 8.15386C81.4935 9.01767 80.7877 9.98399 80.2223 11.0275L77.587 9.74992L75.8288 13.1632L78.9223 14.662C78.7566 15.4863 78.6711 16.3241 78.6667 17.1639V19.0708H74.7333V22.8845H78.6667V26.6983H72.7667C71.6806 26.6983 70.8 27.5519 70.7998 28.6049C70.7998 28.7389 70.8143 28.8726 70.8433 29.0037L76.2339 53.3947H61.2597L67.7359 51.7891C68.7883 51.5283 69.4231 50.4895 69.1541 49.4693C69.1541 49.4691 69.1539 49.4689 69.1539 49.4684L67.2049 42.0811L64.2805 30.9983L56.4827 1.44163C56.2174 0.420493 55.1485 -0.199006 54.0954 0.0581848C54.0914 0.0591382 54.0875 0.0600919 54.0833 0.0610453L38.8417 3.84239C38.6541 3.89722 38.4764 3.97945 38.3146 4.08648C38.0282 3.91795 37.7015 3.82452 37.3667 3.8157H5.9C4.81391 3.8157 3.93333 4.6695 3.93333 5.72258V53.3947H1.96667C0.880575 53.3947 0 54.2485 0 55.3015V66.7428C0 67.7959 0.880575 68.6497 1.96667 68.6497H7.86667V80.091C7.86667 81.1441 8.74724 81.9979 9.83358 81.9977C10.4074 81.9977 10.9526 81.7545 11.326 81.3324L22.538 68.6497H95.462L106.672 81.3324C107.378 82.1328 108.619 82.2267 109.445 81.5424C109.882 81.1796 110.134 80.6493 110.133 80.091V68.6497H116.033C117.119 68.6497 118 67.7959 118 66.7428V55.3015C118 54.2485 117.119 53.3947 116.033 53.3947ZM82.6 17.1639C82.6 11.8983 87.0026 7.62946 92.4333 7.62946C97.864 7.62946 102.267 11.8983 102.267 17.1639V26.6983H98.3333V15.257C98.3333 14.2039 97.4528 13.3501 96.3667 13.3501C95.2806 13.3501 94.4 14.2039 94.4 15.257V26.6983H90.4667V19.0708C90.4667 18.0177 89.5861 17.1639 88.5 17.1639C87.4139 17.1639 86.5333 18.0177 86.5333 19.0708V26.6983H82.6V17.1639ZM75.1994 30.5121H109.667L104.609 53.3947H80.2577L75.1994 30.5121ZM64.8567 48.5664L53.4225 51.402L52.4392 47.7064L63.8714 44.8709L64.8567 48.5664ZM62.9058 41.1773L51.4736 44.0128L49.5246 36.6236L60.9568 33.7881L62.9058 41.1773ZM53.157 4.22949L59.9833 30.0925L48.5511 32.9281L41.7268 7.0574L53.157 4.22949ZM39.3333 47.674V13.3844L45.2333 35.7178L48.0063 46.2286L49.8884 53.3947H39.3333V47.674ZM23.6 7.62946H35.4V34.3258H23.6V7.62946ZM23.6 38.1396H35.4V45.7671H23.6V38.1396ZM23.6 49.5809H35.4V53.3947H23.6V49.5809ZM7.86667 7.62946H19.6667V34.3258H7.86667V7.62946ZM7.86667 38.1396H19.6667V45.7671H7.86667V38.1396ZM7.86667 49.5809H19.6667V53.3947H7.86667V49.5809ZM11.8 74.9424V68.6497H17.3578L11.8 74.9424ZM106.2 74.9424L100.642 68.6497H106.2V74.9424ZM114.067 64.836H3.93333V57.2084H114.067V64.836Z" transform="translate(36.5 156)" fill="#FFA630"/>
<g filter="url(#filter2_d)">
<rect width="156" height="375" transform="translate(1 425) rotate(-90)" fill="#4C6085"/>
</g>
<path d="M56.9283 5.544V8.952H42.3843V20.424H54.1923V23.832H42.3843V39H38.0163V5.544H56.9283ZM66.5718 35.64H78.2838V39H62.2038V5.544H66.5718V35.64ZM87.2906 8.952V20.424H99.4826V23.784H87.2906V35.544H100.923V39H82.9226V5.496H100.923V8.952H87.2906ZM127.308 31.56H112.716L110.028 39H105.42L117.516 5.736H122.556L134.604 39H129.996L127.308 31.56ZM126.108 28.152L120.012 11.112L113.916 28.152H126.108ZM188.109 5.784V39H183.741V14.232L172.701 39H169.629L158.541 14.28V39H154.173V5.784H158.877L171.165 33.24L183.453 5.784H188.109ZM215.292 31.56H200.7L198.012 39H193.404L205.5 5.736H210.54L222.588 39H217.98L215.292 31.56ZM214.092 28.152L207.996 11.112L201.9 28.152H214.092ZM245.476 39L237.508 25.32H232.228V39H227.86V5.544H238.66C241.188 5.544 243.316 5.976 245.044 6.84C246.804 7.704 248.116 8.872 248.98 10.344C249.844 11.816 250.276 13.496 250.276 15.384C250.276 17.688 249.604 19.72 248.26 21.48C246.948 23.24 244.964 24.408 242.308 24.984L250.708 39H245.476ZM232.228 21.816H238.66C241.028 21.816 242.804 21.24 243.988 20.088C245.172 18.904 245.764 17.336 245.764 15.384C245.764 13.368 245.188 11.8 244.036 10.68C242.884 9.56 241.092 9 238.66 9H232.228V21.816ZM275.207 39L261.431 23.736V39H257.063V5.544H261.431V21.048L275.255 5.544H280.775L265.607 22.296L280.919 39H275.207ZM290.166 8.952V20.424H302.358V23.784H290.166V35.544H303.798V39H285.798V5.496H303.798V8.952H290.166ZM330.999 5.544V8.952H321.879V39H317.511V8.952H308.343V5.544H330.999Z" transform="translate(8.5 295)" fill="#E8EEF2"/>
<defs>
<filter id="filter0_d" x="219.5" y="449" width="121" height="85" filterUnits="userSpaceOnUse" color-interpolation-filters="sRGB">
<feFlood flood-opacity="0" result="BackgroundImageFix"/>
<feColorMatrix in="SourceAlpha" type="matrix" values="0 0 0 0 0 0 0 0 0 0 0 0 0 0 0 0 0 0 255 0"/>
<feOffset dy="4"/>
<feGaussianBlur stdDeviation="2"/>
<feColorMatrix type="matrix" values="0 0 0 0 0 0 0 0 0 0 0 0 0 0 0 0 0 0 0.25 0"/>
<feBlend mode="normal" in2="BackgroundImageFix" result="effect1_dropShadow"/>
<feBlend mode="normal" in="SourceGraphic" in2="effect1_dropShadow" result="shape"/>
</filter>
<filter id="filter1_d" x="228.5" y="53" width="112" height="193" filterUnits="userSpaceOnUse" color-interpolation-filters="sRGB">
<feFlood flood-opacity="0" result="BackgroundImageFix"/>
<feColorMatrix in="SourceAlpha" type="matrix" values="0 0 0 0 0 0 0 0 0 0 0 0 0 0 0 0 0 0 255 0"/>
<feOffset dy="4"/>
<feGaussianBlur stdDeviation="2"/>
<feColorMatrix type="matrix" values="0 0 0 0 0 0 0 0 0 0 0 0 0 0 0 0 0 0 0.25 0"/>
<feBlend mode="normal" in2="BackgroundImageFix" result="effect1_dropShadow"/>
<feBlend mode="normal" in="SourceGraphic" in2="effect1_dropShadow" result="shape"/>
</filter>
<filter id="filter2_d" x="-3" y="269" width="383" height="164" filterUnits="userSpaceOnUse" color-interpolation-filters="sRGB">
<feFlood flood-opacity="0" result="BackgroundImageFix"/>
<feColorMatrix in="SourceAlpha" type="matrix" values="0 0 0 0 0 0 0 0 0 0 0 0 0 0 0 0 0 0 255 0"/>
<feOffset dy="4"/>
<feGaussianBlur stdDeviation="2"/>
<feColorMatrix type="matrix" values="0 0 0 0 0 0 0 0 0 0 0 0 0 0 0 0 0 0 0.25 0"/>
<feBlend mode="normal" in2="BackgroundImageFix" result="effect1_dropShadow"/>
<feBlend mode="normal" in="SourceGraphic" in2="effect1_dropShadow" result="shape"/>
</filter>
</defs>
</svg>
