<svg width="74" height="88" viewBox="0 0 74 88" fill="none" xmlns="http://www.w3.org/2000/svg">
<g filter="url(#filter0_d)">
<circle cx="33" cy="33" r="33" transform="translate(4)" fill="#FFA630"/>
<circle cx="33" cy="33" r="31.5" transform="translate(4)" stroke="#4C6085" stroke-width="3"/>
</g>
<path d="M4.03613 14.4912V19H1.39941V6.20312H6.3916C7.35254 6.20312 8.19629 6.37891 8.92285 6.73047C9.65527 7.08203 10.2178 7.58301 10.6104 8.2334C11.0029 8.87793 11.1992 9.61328 11.1992 10.4395C11.1992 11.6934 10.7686 12.6836 9.90723 13.4102C9.05176 14.1309 7.86523 14.4912 6.34766 14.4912H4.03613ZM4.03613 12.3555H6.3916C7.08887 12.3555 7.61914 12.1914 7.98242 11.8633C8.35156 11.5352 8.53613 11.0664 8.53613 10.457C8.53613 9.83008 8.35156 9.32324 7.98242 8.93652C7.61328 8.5498 7.10352 8.35059 6.45312 8.33887H4.03613V12.3555ZM15.5322 19H12.9834V5.5H15.5322V19ZM23.1436 19C23.0264 18.7715 22.9414 18.4873 22.8887 18.1475C22.2734 18.833 21.4736 19.1758 20.4893 19.1758C19.5576 19.1758 18.7842 18.9062 18.1689 18.3672C17.5596 17.8281 17.2549 17.1484 17.2549 16.3281C17.2549 15.3203 17.627 14.5469 18.3711 14.0078C19.1211 13.4688 20.2021 13.1963 21.6143 13.1904H22.7832V12.6455C22.7832 12.2061 22.6689 11.8545 22.4404 11.5908C22.2178 11.3271 21.8633 11.1953 21.377 11.1953C20.9492 11.1953 20.6123 11.2979 20.3662 11.5029C20.126 11.708 20.0059 11.9893 20.0059 12.3467H17.4658C17.4658 11.7959 17.6357 11.2861 17.9756 10.8174C18.3154 10.3486 18.7959 9.98242 19.417 9.71875C20.0381 9.44922 20.7354 9.31445 21.5088 9.31445C22.6807 9.31445 23.6094 9.61035 24.2949 10.2021C24.9863 10.7881 25.332 11.6143 25.332 12.6807V16.8027C25.3379 17.7051 25.4639 18.3877 25.71 18.8506V19H23.1436ZM21.043 17.2334C21.418 17.2334 21.7637 17.1514 22.0801 16.9873C22.3965 16.8174 22.6309 16.5918 22.7832 16.3105V14.6758H21.834C20.5625 14.6758 19.8857 15.1152 19.8037 15.9941L19.7949 16.1436C19.7949 16.46 19.9062 16.7207 20.1289 16.9258C20.3516 17.1309 20.6562 17.2334 21.043 17.2334ZM29.6211 9.49023L29.7002 10.5889C30.3799 9.73926 31.291 9.31445 32.4336 9.31445C33.4414 9.31445 34.1914 9.61035 34.6836 10.2021C35.1758 10.7939 35.4277 11.6787 35.4395 12.8564V19H32.8994V12.918C32.8994 12.3789 32.7822 11.9893 32.5479 11.749C32.3135 11.5029 31.9238 11.3799 31.3789 11.3799C30.6641 11.3799 30.1279 11.6846 29.7705 12.2939V19H27.2305V9.49023H29.6211ZM40.4141 7.15234V9.49023H42.04V11.3535H40.4141V16.0996C40.4141 16.4512 40.4814 16.7031 40.6162 16.8555C40.751 17.0078 41.0088 17.084 41.3896 17.084C41.6709 17.084 41.9199 17.0635 42.1367 17.0225V18.9473C41.6387 19.0996 41.126 19.1758 40.5986 19.1758C38.8174 19.1758 37.9092 18.2764 37.874 16.4775V11.3535H36.4854V9.49023H37.874V7.15234H40.4141ZM48.6055 16.3721C48.6055 16.0615 48.4502 15.8184 48.1396 15.6426C47.835 15.4609 47.3428 15.2998 46.6631 15.1592C44.4014 14.6846 43.2705 13.7236 43.2705 12.2764C43.2705 11.4326 43.6191 10.7295 44.3164 10.167C45.0195 9.59863 45.9365 9.31445 47.0674 9.31445C48.2744 9.31445 49.2383 9.59863 49.959 10.167C50.6855 10.7354 51.0488 11.4736 51.0488 12.3818H48.5088C48.5088 12.0186 48.3916 11.7197 48.1572 11.4854C47.9229 11.2451 47.5566 11.125 47.0586 11.125C46.6309 11.125 46.2998 11.2217 46.0654 11.415C45.8311 11.6084 45.7139 11.8545 45.7139 12.1533C45.7139 12.4346 45.8457 12.6631 46.1094 12.8389C46.3789 13.0088 46.8301 13.1582 47.4629 13.2871C48.0957 13.4102 48.6289 13.5508 49.0625 13.709C50.4043 14.2012 51.0752 15.0537 51.0752 16.2666C51.0752 17.1338 50.7031 17.8369 49.959 18.376C49.2148 18.9092 48.2539 19.1758 47.0762 19.1758C46.2793 19.1758 45.5703 19.0352 44.9492 18.7539C44.334 18.4668 43.8506 18.0771 43.499 17.585C43.1475 17.0869 42.9717 16.5508 42.9717 15.9766H45.3799C45.4033 16.4277 45.5703 16.7734 45.8809 17.0137C46.1914 17.2539 46.6074 17.374 47.1289 17.374C47.6152 17.374 47.9814 17.2832 48.2275 17.1016C48.4795 16.9141 48.6055 16.6709 48.6055 16.3721Z" transform="translate(11 68)" fill="#4C6085"/>
<path d="M31.8892 10.8558C29.4329 9.10724 26.2059 8.79601 23.4672 10.0437C20.8378 11.2417 18.9981 13.7225 18.5967 16.5744L16.6891 17.4434V14.5499C19.1179 13.0022 20.6128 10.2996 20.6128 7.41018C20.6128 4.4007 18.9916 1.59302 16.3821 0.0827489C16.1914 -0.027583 15.9564 -0.027583 15.7658 0.0827489C13.1561 1.59302 11.535 4.4007 11.535 7.41018C11.535 10.2996 13.0299 13.0022 15.4587 14.5499V17.4434L13.551 16.5743C13.1495 13.7224 11.3098 11.2415 8.68048 10.0436C5.94187 8.79601 2.71477 9.10708 0.258428 10.8557C0.0789441 10.9835 -0.0184267 11.1974 0.00290141 11.4166C0.295342 14.4175 2.17828 17.0567 4.91689 18.3045C6.03063 18.8119 7.22476 19.0615 8.41536 19.0615C10.0357 19.0615 11.6489 18.5985 13.0413 17.6943L15.4587 18.7956V23.7824H5.88133C4.60542 23.7824 3.5674 24.8204 3.5674 26.0963V27.795C3.5674 28.1348 3.84286 28.4102 4.18263 28.4102H5.35346L6.97202 38.9305C7.0182 39.2306 7.27644 39.4521 7.58012 39.4521H7.81432V41.3848C7.81432 41.7245 8.08978 42 8.42955 42H23.7181C24.058 42 24.3333 41.7245 24.3333 41.3848V39.4522H24.5675C24.8711 39.4522 25.1294 39.2306 25.1755 38.9306L26.794 28.4103H27.965C28.3049 28.4103 28.5802 28.1349 28.5802 27.7951V26.0964C28.5802 24.8205 27.5422 23.7824 26.2662 23.7824H16.6891V18.7956L19.1062 17.6943C20.4987 18.5987 22.1117 19.0616 23.7322 19.0616C24.9227 19.0616 26.1171 18.8119 27.2307 18.3046C29.9694 17.0569 31.8522 14.4176 32.1447 11.4167C32.1661 11.1975 32.0686 10.9835 31.8892 10.8558ZM6.14793 13.2017L5.50776 12.91C5.19851 12.7691 4.83363 12.9055 4.69279 13.2149C4.55194 13.5241 4.68836 13.8889 4.99761 14.0298L7.18341 15.0257L6.48057 15.5938C6.21627 15.8074 6.17525 16.1947 6.38878 16.459C6.51035 16.6094 6.68819 16.6875 6.86759 16.6875C7.00344 16.6875 7.1401 16.6427 7.25396 16.5507L8.43521 15.5961L11.6635 17.0668C9.72638 18.0335 7.42459 18.0949 5.42696 17.1848C3.19629 16.1685 1.62991 14.0715 1.27159 11.656C3.32943 10.3413 5.93974 10.1471 8.17033 11.1634C10.168 12.0736 11.6321 13.8507 12.1738 15.9469L7.39998 13.772L7.34493 12.2538C7.33263 11.9143 7.04527 11.6491 6.7078 11.6612C6.36819 11.6735 6.1029 11.9587 6.11521 12.2983L6.14793 13.2017ZM26.2664 25.0131C26.8637 25.0128 27.3499 25.4989 27.3499 26.0964V27.1798H8.62872C8.28895 27.1798 8.01349 27.4553 8.01349 27.7951C8.01349 28.1349 8.28895 28.4103 8.62872 28.4103H25.549L24.0397 38.2217H22.0195C21.6796 38.2217 21.4042 38.4972 21.4042 38.837C21.4042 39.1767 21.6796 39.4522 22.0195 39.4522H23.1029V40.7695H9.04486V39.4522H19.2721C19.612 39.4522 19.8873 39.1767 19.8873 38.837C19.8873 38.4972 19.612 38.2217 19.2721 38.2217H8.43357C8.43226 38.2217 8.43094 38.2216 8.42963 38.2216C8.42832 38.2216 8.42701 38.2217 8.42569 38.2217H8.10807L6.48943 27.7015C6.48877 27.6971 6.48754 27.6929 6.48672 27.6884C6.48467 27.6765 6.48221 27.6649 6.4795 27.6532C6.47745 27.6446 6.47532 27.6361 6.47294 27.6277C6.46991 27.6168 6.46646 27.6061 6.46285 27.5955C6.45974 27.5864 6.45645 27.5774 6.45301 27.5685C6.44932 27.5592 6.44538 27.5501 6.44128 27.541C6.43685 27.5313 6.43234 27.5217 6.42742 27.5122C6.4234 27.5045 6.41913 27.4969 6.41478 27.4894C6.40904 27.4793 6.40313 27.4694 6.39682 27.4597C6.39247 27.4531 6.38796 27.4466 6.38336 27.4401C6.37647 27.4304 6.36934 27.4208 6.36195 27.4115C6.35711 27.4054 6.35203 27.3995 6.34694 27.3936C6.33923 27.3847 6.33136 27.3759 6.32307 27.3674C6.31741 27.3615 6.31151 27.3559 6.3056 27.3502C6.29748 27.3425 6.28927 27.3349 6.28074 27.3277C6.27393 27.3218 6.26696 27.3163 6.25991 27.3108C6.2517 27.3044 6.24342 27.2981 6.23489 27.2921C6.22693 27.2865 6.21881 27.2812 6.21061 27.276C6.20232 27.2707 6.19412 27.2657 6.18559 27.2608C6.17673 27.2557 6.1677 27.2511 6.1586 27.2465C6.15007 27.2422 6.14154 27.2379 6.13284 27.2341C6.12357 27.2299 6.11406 27.226 6.10454 27.2223C6.09535 27.2187 6.08617 27.2154 6.07681 27.2122C6.06754 27.2091 6.05811 27.2063 6.04859 27.2036C6.03842 27.2007 6.02825 27.1981 6.01792 27.1957C6.00897 27.1936 5.99987 27.1919 5.99076 27.1903C5.97952 27.1882 5.96829 27.1865 5.95697 27.1851C5.94819 27.184 5.93941 27.1832 5.93055 27.1825C5.91882 27.1816 5.90701 27.1809 5.89512 27.1807C5.89052 27.1806 5.88601 27.18 5.88142 27.18H4.79795V26.0965C4.79795 25.4991 5.28398 25.0131 5.88142 25.0131H16.0731C16.0734 25.0131 16.0736 25.0131 16.0739 25.0131C16.0743 25.0131 16.0744 25.0131 16.0748 25.0131H26.2664V25.0131ZM16.0739 5.09625C15.7341 5.09625 15.4587 5.37171 15.4587 5.71148V6.4149L14.6503 6.01065C14.3464 5.85873 13.9769 5.98185 13.8248 6.28578C13.6728 6.5897 13.796 6.95925 14.1 7.11126L15.4587 7.7908V13.0367C13.7756 11.6747 12.7655 9.60541 12.7655 7.41018C12.7655 4.95893 14.0243 2.66419 16.0739 1.33651C18.1236 2.6641 19.3824 4.95893 19.3824 7.41018C19.3824 9.60541 18.3722 11.6747 16.6892 13.0366V9.48909L18.0478 8.80996C18.3517 8.65804 18.4749 8.28849 18.3229 7.98456C18.171 7.68055 17.8014 7.55734 17.4975 7.70935L16.6892 8.11343V5.71148C16.6892 5.37171 16.4138 5.09625 16.0739 5.09625ZM26.7206 17.1848C24.7229 18.0949 22.4212 18.0335 20.484 17.0666L23.7123 15.5958L24.8934 16.5505C25.0074 16.6425 25.144 16.6872 25.2798 16.6872C25.4593 16.6872 25.6371 16.6091 25.7587 16.4587C25.9723 16.1945 25.9312 15.8071 25.667 15.5935L24.9642 15.0255L27.1499 14.0297C27.4591 13.8888 27.5955 13.524 27.4547 13.2147C27.3139 12.9054 26.9488 12.769 26.6397 12.9099L25.9996 13.2016L26.0323 12.2983C26.0445 11.9587 25.7793 11.6735 25.4397 11.6612C25.0987 11.649 24.8149 11.9142 24.8026 12.2538L24.7476 13.772L19.9738 15.9469C20.5154 13.8507 21.9795 12.0736 23.9772 11.1634C26.2078 10.1471 28.8182 10.3414 30.876 11.656C30.5176 14.0716 28.9512 16.1686 26.7206 17.1848Z" transform="translate(21 11)" fill="white"/>
<defs>
<filter id="filter0_d" x="0" y="0" width="74" height="74" filterUnits="userSpaceOnUse" color-interpolation-filters="sRGB">
<feFlood flood-opacity="0" result="BackgroundImageFix"/>
<feColorMatrix in="SourceAlpha" type="matrix" values="0 0 0 0 0 0 0 0 0 0 0 0 0 0 0 0 0 0 255 0"/>
<feOffset dy="4"/>
<feGaussianBlur stdDeviation="2"/>
<feColorMatrix type="matrix" values="0 0 0 0 0 0 0 0 0 0 0 0 0 0 0 0 0 0 0.25 0"/>
<feBlend mode="normal" in2="BackgroundImageFix" result="effect1_dropShadow"/>
<feBlend mode="normal" in="SourceGraphic" in2="effect1_dropShadow" result="shape"/>
</filter>
</defs>
</svg>
