<svg width="50" height="51" viewBox="0 0 50 51" fill="none" xmlns="http://www.w3.org/2000/svg">
<path d="M49.5675 47.4606L37.4141 35.3072C40.6742 31.5591 42.648 26.6689 42.648 21.324C42.648 9.55866 33.0783 0 21.324 0C9.55866 0 0 9.56975 0 21.324C0 33.0783 9.56975 42.648 21.324 42.648C26.6689 42.648 31.5591 40.6742 35.3072 37.4141L47.4606 49.5675C47.7489 49.8558 48.1371 50.0111 48.5141 50.0111C48.8911 50.0111 49.2792 49.8669 49.5675 49.5675C50.1442 48.9909 50.1442 48.0373 49.5675 47.4606ZM2.98292 21.324C2.98292 11.2109 11.2109 2.99401 21.3129 2.99401C31.426 2.99401 39.6429 11.222 39.6429 21.324C39.6429 31.426 31.426 39.6651 21.3129 39.6651C11.2109 39.6651 2.98292 31.4371 2.98292 21.324Z" fill="#F2F2F2"/>
</svg>
