<svg width="122" height="55" viewBox="0 0 122 55" fill="none" xmlns="http://www.w3.org/2000/svg">
<rect x="1.5" y="1.5" width="119" height="52" rx="8.5" fill="#4C6085" stroke="#FFA630" stroke-width="3"/>
<path d="M14.0936 18.6426C14.0936 18.1445 13.9178 17.7637 13.5662 17.5C13.2147 17.2305 12.5819 16.9492 11.6678 16.6562C10.7537 16.3574 10.0301 16.0645 9.4969 15.7773C8.04377 14.9922 7.31721 13.9346 7.31721 12.6045C7.31721 11.9131 7.51057 11.2979 7.89729 10.7588C8.28987 10.2139 8.84944 9.78906 9.576 9.48438C10.3084 9.17969 11.1287 9.02734 12.0369 9.02734C12.951 9.02734 13.7655 9.19434 14.4803 9.52832C15.1951 9.85645 15.7488 10.3223 16.1414 10.9258C16.5399 11.5293 16.7391 12.2148 16.7391 12.9824H14.1024C14.1024 12.3965 13.9178 11.9424 13.5487 11.6201C13.1795 11.292 12.661 11.1279 11.993 11.1279C11.3485 11.1279 10.8475 11.2656 10.4901 11.541C10.1326 11.8105 9.95393 12.168 9.95393 12.6133C9.95393 13.0293 10.1619 13.3779 10.578 13.6592C10.9998 13.9404 11.618 14.2041 12.4324 14.4502C13.9324 14.9014 15.0252 15.4609 15.7108 16.1289C16.3963 16.7969 16.7391 17.6289 16.7391 18.625C16.7391 19.7324 16.3201 20.6025 15.4822 21.2354C14.6444 21.8623 13.5164 22.1758 12.0985 22.1758C11.1141 22.1758 10.2176 21.9971 9.40901 21.6396C8.60041 21.2764 7.98225 20.7812 7.55451 20.1543C7.13264 19.5273 6.9217 18.8008 6.9217 17.9746H9.56721C9.56721 19.3867 10.411 20.0928 12.0985 20.0928C12.7254 20.0928 13.2147 19.9668 13.5662 19.7148C13.9178 19.457 14.0936 19.0996 14.0936 18.6426ZM20.8436 13.5273C21.5174 12.7188 22.3641 12.3145 23.3836 12.3145C25.4461 12.3145 26.492 13.5127 26.5213 15.9092V22H23.9813V15.9795C23.9813 15.4346 23.8641 15.0332 23.6297 14.7754C23.3953 14.5117 23.0057 14.3799 22.4608 14.3799C21.7166 14.3799 21.1776 14.667 20.8436 15.2412V22H18.3035V8.5H20.8436V13.5273ZM33.9481 22C33.8309 21.7715 33.7459 21.4873 33.6932 21.1475C33.078 21.833 32.2781 22.1758 31.2938 22.1758C30.3621 22.1758 29.5887 21.9062 28.9735 21.3672C28.3641 20.8281 28.0594 20.1484 28.0594 19.3281C28.0594 18.3203 28.4315 17.5469 29.1756 17.0078C29.9256 16.4688 31.0067 16.1963 32.4188 16.1904H33.5877V15.6455C33.5877 15.2061 33.4735 14.8545 33.2449 14.5908C33.0223 14.3271 32.6678 14.1953 32.1815 14.1953C31.7537 14.1953 31.4168 14.2979 31.1707 14.5029C30.9305 14.708 30.8104 14.9893 30.8104 15.3467H28.2703C28.2703 14.7959 28.4403 14.2861 28.7801 13.8174C29.1199 13.3486 29.6004 12.9824 30.2215 12.7188C30.8426 12.4492 31.5399 12.3145 32.3133 12.3145C33.4852 12.3145 34.4139 12.6104 35.0994 13.2021C35.7908 13.7881 36.1365 14.6143 36.1365 15.6807V19.8027C36.1424 20.7051 36.2684 21.3877 36.5145 21.8506V22H33.9481ZM31.8475 20.2334C32.2225 20.2334 32.5682 20.1514 32.8846 19.9873C33.201 19.8174 33.4354 19.5918 33.5877 19.3105V17.6758H32.6385C31.367 17.6758 30.6903 18.1152 30.6082 18.9941L30.5994 19.1436C30.5994 19.46 30.7108 19.7207 30.9334 19.9258C31.1561 20.1309 31.4608 20.2334 31.8475 20.2334ZM43.4315 14.8721C43.0858 14.8252 42.7811 14.8018 42.5174 14.8018C41.5565 14.8018 40.9266 15.127 40.6278 15.7773V22H38.0877V12.4902H40.4871L40.5574 13.624C41.0672 12.751 41.7733 12.3145 42.6756 12.3145C42.9569 12.3145 43.2205 12.3525 43.4666 12.4287L43.4315 14.8721ZM48.8631 22.1758C47.4686 22.1758 46.3319 21.748 45.4529 20.8926C44.5799 20.0371 44.1434 18.8975 44.1434 17.4736V17.2275C44.1434 16.2725 44.3279 15.4199 44.6971 14.6699C45.0662 13.9141 45.5877 13.334 46.2615 12.9297C46.9412 12.5195 47.7147 12.3145 48.5819 12.3145C49.8826 12.3145 50.9051 12.7246 51.6492 13.5449C52.3992 14.3652 52.7742 15.5283 52.7742 17.0342V18.0713H46.7186C46.8006 18.6924 47.0467 19.1904 47.4569 19.5654C47.8729 19.9404 48.3973 20.1279 49.0301 20.1279C50.0086 20.1279 50.7733 19.7734 51.324 19.0645L52.5721 20.4619C52.1912 21.001 51.6756 21.4229 51.0252 21.7275C50.3748 22.0264 49.6541 22.1758 48.8631 22.1758ZM48.5731 14.3711C48.0692 14.3711 47.659 14.541 47.3426 14.8809C47.0321 15.2207 46.8328 15.707 46.7449 16.3398H50.2781V16.1377C50.2664 15.5752 50.1141 15.1416 49.8211 14.8369C49.5281 14.5264 49.1121 14.3711 48.5731 14.3711Z" transform="translate(53 12)" fill="white"/>
<path d="M7.67325 21.4273L7.54013 21.694L7.40473 21.7519L7.45388 21.8669L7.56572 21.9227L7.63148 21.7909L9.12356 21.1529C9.399 21.0387 9.70613 21.0241 9.98888 21.1164L7.67325 21.4273ZM7.67325 21.4273C7.95356 20.8687 7.761 20.1863 7.22719 19.856L7.67325 21.4273ZM17.1551 22.9573C17.1917 23.6276 16.6749 24.2007 16.0022 24.2347C13.8401 24.3586 11.6854 24.174 9.66469 23.5644L17.1551 22.9573ZM17.1551 22.9573C17.1186 22.2846 16.4799 21.7357 15.873 21.811L17.1551 22.9573ZM5.12566 21.3522L5.17319 21.2575L5.08754 21.1951C1.9145 18.8836 0.125 15.6356 0.125 12.1429C0.125 5.53707 6.60559 0.125 14.625 0.125C22.6444 0.125 29.125 5.53707 29.125 12.1429C29.125 12.6476 29.0936 13.1233 29.0099 13.5975C28.9024 14.1912 28.3451 14.5887 27.7419 14.4776L27.741 14.4775C27.1481 14.3728 26.7505 13.8062 26.8575 13.2142L26.8576 13.2139C26.9203 12.8613 26.9375 12.5108 26.9375 12.1429C26.9375 6.69143 21.3863 2.30357 14.625 2.30357C7.86372 2.30357 2.3125 6.69143 2.3125 12.1429C2.3125 15.2039 4.08826 18.0501 7.16115 19.9621L7.16142 19.9623C7.64025 20.2586 7.81277 20.8706 7.56153 21.3712L7.5614 21.3715L7.34203 21.811L7.19001 22.1156L7.50302 21.9818L9.17142 21.2683C9.17165 21.2682 9.17188 21.2681 9.17211 21.268C9.4205 21.1653 9.69649 21.1526 9.94976 21.2352C11.8304 21.8605 13.8502 22.0384 15.8793 21.9358L15.8793 21.9362L15.8884 21.935C16.1496 21.9027 16.4264 22.0042 16.6452 22.1974C16.8636 22.39 17.0141 22.6654 17.0303 22.9641L17.0303 22.9641C17.0631 23.565 16.5998 24.0794 15.9959 24.1099L15.995 24.1099C13.8445 24.2331 11.7048 24.0493 9.70079 23.4448L9.65736 23.4317L9.61564 23.4495L5.30675 25.2876C5.30667 25.2877 5.30659 25.2877 5.3065 25.2877C5.16615 25.3467 5.01942 25.375 4.875 25.375C4.5794 25.375 4.28838 25.2549 4.07862 25.0329L4.07834 25.0326C3.76383 24.7018 3.69164 24.2076 3.89704 23.8004L3.89716 23.8002L5.12566 21.3522Z" transform="translate(12 11)" fill="white" stroke="#4C6085" stroke-width="0.25"/>
<path d="M20.1714 16.876L20.0834 16.938L20.1317 17.0342L21.699 20.1549C21.9046 20.5646 21.8323 21.0563 21.5157 21.387L21.5147 21.388C21.3051 21.6121 21.0143 21.7321 20.7188 21.7321C20.5753 21.7321 20.4259 21.7018 20.2868 21.6447C20.2866 21.6446 20.2863 21.6445 20.2861 21.6444L14.4401 19.1461L14.4074 19.1321L14.3723 19.1374C10.5216 19.7206 6.95595 18.8234 4.35555 17.05C1.75479 15.2764 0.125 12.6314 0.125 9.71428C0.125 4.45086 5.5084 0.125 12.1875 0.125C18.8666 0.125 24.25 4.45086 24.25 9.71428C24.25 12.4471 22.7503 15.0589 20.1714 16.876ZM18.0907 18.3365L18.4041 18.4706L18.2517 18.1657L17.6838 17.0291C17.4259 16.5131 17.6158 15.8858 18.1189 15.598C20.6131 14.1762 22.0625 12.0345 22.0625 9.71428C22.0625 7.65738 20.9426 5.80189 19.1538 4.46498C17.3648 3.12804 14.9005 2.30357 12.1875 2.30357C9.47452 2.30357 7.01018 3.12804 5.22125 4.46498C3.43235 5.80189 2.3125 7.65738 2.3125 9.71428C2.3125 11.7712 3.43235 13.6267 5.22125 14.9636C7.01018 16.3005 9.47452 17.125 12.1875 17.125C12.8921 17.125 13.6038 17.0636 14.359 16.9313L14.3593 16.9312C14.4189 16.9206 14.4797 16.9161 14.5446 16.9161C14.6908 16.9161 14.84 16.9466 14.9762 17.0035C14.9763 17.0035 14.9764 17.0036 14.9766 17.0036L18.0907 18.3365Z" transform="translate(26.625 23.1429)" fill="white" stroke="#4C6085" stroke-width="0.25"/>
<path d="M1.20656 0.125H1.23094C1.83508 0.125 2.32469 0.613468 2.32469 1.21429C2.32469 1.8151 1.83508 2.30357 1.23094 2.30357C0.625165 2.30357 0.125 1.8135 0.125 1.21429C0.125 0.611826 0.604052 0.125 1.20656 0.125Z" transform="translate(20.5679 18.2856)" fill="white" stroke="#4C6085" stroke-width="0.25"/>
<path d="M1.20656 0.125H1.23094C1.83509 0.125 2.32469 0.613468 2.32469 1.21429C2.32469 1.8151 1.83509 2.30357 1.23094 2.30357C0.625166 2.30357 0.125 1.8135 0.125 1.21429C0.125 0.611826 0.604052 0.125 1.20656 0.125Z" transform="translate(30.3179 18.2856)" fill="white" stroke="#4C6085" stroke-width="0.25"/>
<path d="M1.20656 0.125H1.23094C1.83509 0.125 2.32469 0.613468 2.32469 1.21429C2.32469 1.8151 1.83509 2.30357 1.23094 2.30357C0.625166 2.30357 0.125001 1.8135 0.125001 1.21429C0.125001 0.61166 0.601779 0.125 1.20656 0.125Z" transform="translate(33.9741 29.2144)" fill="white" stroke="#4C6085" stroke-width="0.25"/>
<path d="M1.20656 0.125H1.23094C1.83509 0.125 2.32469 0.613468 2.32469 1.21429C2.32469 1.8151 1.83509 2.30357 1.23094 2.30357C0.627442 2.30357 0.125001 1.81334 0.125001 1.21429C0.125001 0.611826 0.604052 0.125 1.20656 0.125Z" transform="translate(41.2866 29.2144)" fill="white" stroke="#4C6085" stroke-width="0.25"/>
</svg>
