<svg width="115" height="55" viewBox="0 0 115 55" fill="none" xmlns="http://www.w3.org/2000/svg">
<rect x="1.5" y="1.5" width="112" height="52" rx="8.5" fill="#FFA630" stroke="#FFA630" stroke-width="3"/>
<path d="M19.4413 29.3887C19.4413 29.0013 19.3046 28.7051 19.0311 28.5C18.7577 28.2904 18.2655 28.0716 17.5546 27.8438C16.8436 27.6113 16.2808 27.3835 15.8661 27.1602C14.7359 26.5495 14.1708 25.7269 14.1708 24.6924C14.1708 24.1546 14.3212 23.6761 14.6219 23.2568C14.9273 22.833 15.3625 22.5026 15.9276 22.2656C16.4973 22.0286 17.1353 21.9102 17.8417 21.9102C18.5526 21.9102 19.1861 22.04 19.7421 22.2998C20.2981 22.555 20.7287 22.9173 21.0341 23.3867C21.344 23.8561 21.4989 24.3893 21.4989 24.9863H19.4481C19.4481 24.5306 19.3046 24.1774 19.0175 23.9268C18.7303 23.6715 18.327 23.5439 17.8075 23.5439C17.3062 23.5439 16.9165 23.651 16.6385 23.8652C16.3606 24.0749 16.2216 24.3529 16.2216 24.6992C16.2216 25.0228 16.3833 25.2939 16.7069 25.5127C17.035 25.7314 17.5158 25.9365 18.1493 26.1279C19.316 26.4788 20.1659 26.9141 20.6991 27.4336C21.2323 27.9531 21.4989 28.6003 21.4989 29.375C21.4989 30.2363 21.1731 30.9131 20.5214 31.4053C19.8697 31.8929 18.9924 32.1367 17.8895 32.1367C17.1239 32.1367 16.4266 31.9977 15.7977 31.7197C15.1688 31.4372 14.688 31.0521 14.3553 30.5645C14.0272 30.0768 13.8632 29.5117 13.8632 28.8691H15.9208C15.9208 29.9674 16.577 30.5166 17.8895 30.5166C18.3772 30.5166 18.7577 30.4186 19.0311 30.2227C19.3046 30.0221 19.4413 29.7441 19.4413 29.3887ZM24.6913 25.4102C25.2154 24.7812 25.8739 24.4668 26.6669 24.4668C28.271 24.4668 29.0845 25.3988 29.1073 27.2627V32H27.1317V27.3174C27.1317 26.8936 27.0406 26.5814 26.8583 26.3809C26.676 26.1758 26.3729 26.0732 25.9491 26.0732C25.3703 26.0732 24.951 26.2965 24.6913 26.7432V32H22.7157V21.5H24.6913V25.4102ZM34.8837 32C34.7925 31.8223 34.7264 31.6012 34.6854 31.3369C34.2069 31.8701 33.5848 32.1367 32.8192 32.1367C32.0946 32.1367 31.493 31.9271 31.0145 31.5078C30.5406 31.0885 30.3036 30.5599 30.3036 29.9219C30.3036 29.138 30.593 28.5365 31.1718 28.1172C31.7551 27.6979 32.5959 27.486 33.6942 27.4814H34.6034V27.0576C34.6034 26.7158 34.5145 26.4424 34.3368 26.2373C34.1636 26.0322 33.8879 25.9297 33.5096 25.9297C33.177 25.9297 32.9149 26.0094 32.7235 26.1689C32.5367 26.3285 32.4432 26.5472 32.4432 26.8252H30.4676C30.4676 26.3968 30.5998 26.0003 30.8641 25.6357C31.1285 25.2712 31.5022 24.9863 31.9852 24.7812C32.4683 24.5716 33.0106 24.4668 33.6122 24.4668C34.5236 24.4668 35.246 24.6969 35.7792 25.1572C36.3169 25.613 36.5858 26.2555 36.5858 27.085V30.291C36.5904 30.9928 36.6884 31.5238 36.8798 31.8838V32H34.8837ZM33.2499 30.626C33.5415 30.626 33.8104 30.5622 34.0565 30.4346C34.3026 30.3024 34.4849 30.127 34.6034 29.9082V28.6367H33.8651C32.8762 28.6367 32.3498 28.9785 32.286 29.6621L32.2792 29.7783C32.2792 30.0244 32.3658 30.2272 32.5389 30.3867C32.7121 30.5462 32.9491 30.626 33.2499 30.626ZM42.2596 26.4561C41.9908 26.4196 41.7538 26.4014 41.5487 26.4014C40.8013 26.4014 40.3114 26.6543 40.079 27.1602V32H38.1034V24.6035H39.9696L40.0243 25.4854C40.4208 24.8063 40.9699 24.4668 41.6718 24.4668C41.8905 24.4668 42.0956 24.4964 42.287 24.5557L42.2596 26.4561ZM46.4843 32.1367C45.3996 32.1367 44.5155 31.804 43.8319 31.1387C43.1529 30.4733 42.8134 29.5869 42.8134 28.4795V28.2881C42.8134 27.5452 42.9569 26.8822 43.244 26.2988C43.5311 25.7109 43.9367 25.2598 44.4608 24.9453C44.9895 24.6263 45.591 24.4668 46.2655 24.4668C47.2772 24.4668 48.0725 24.7858 48.6512 25.4238C49.2346 26.0618 49.5262 26.9665 49.5262 28.1377V28.9443H44.8163C44.8801 29.4274 45.0715 29.8148 45.3905 30.1064C45.7141 30.3981 46.1219 30.5439 46.6141 30.5439C47.3752 30.5439 47.9699 30.2682 48.3983 29.7168L49.369 30.8037C49.0728 31.223 48.6718 31.5511 48.1659 31.7881C47.66 32.0205 47.0995 32.1367 46.4843 32.1367ZM46.2587 26.0664C45.8667 26.0664 45.5477 26.1986 45.3016 26.4629C45.0601 26.7272 44.9052 27.1055 44.8368 27.5977H47.5848V27.4404C47.5757 27.0029 47.4572 26.6657 47.2294 26.4287C47.0015 26.1872 46.6779 26.0664 46.2587 26.0664Z" transform="translate(47.1913)" fill="white"/>
<path d="M3.96868 16.4978L4.01591 16.4033L3.93065 16.341C1.49619 14.561 0.125 12.0614 0.125 9.375C0.125 4.29502 5.09236 0.125 11.25 0.125C17.4076 0.125 22.375 4.29502 22.375 9.375C22.375 9.76354 22.3509 10.1291 22.2869 10.4933C22.2068 10.9367 21.7927 11.2323 21.3452 11.1496L21.3443 11.1494C20.9042 11.0715 20.6084 10.649 20.688 10.2072L20.6881 10.2068C20.7367 9.93235 20.75 9.65988 20.75 9.375C20.75 5.14512 16.4609 1.75 11.25 1.75C6.03907 1.75 1.75 5.14512 1.75 9.375C1.75 11.75 3.12278 13.9557 5.49316 15.436L5.49343 15.4362C5.84909 15.6571 5.97749 16.1136 5.7907 16.4872L5.79057 16.4875L5.62182 16.8268L5.47029 17.1316L5.78305 16.9974L7.06613 16.4467C7.06634 16.4466 7.06656 16.4465 7.06677 16.4464C7.25157 16.3697 7.45664 16.3603 7.64461 16.4218C9.09556 16.906 10.653 17.0435 12.2163 16.9642L12.2163 16.9646L12.2254 16.9634C12.4164 16.9396 12.6213 17.0141 12.7848 17.1589C12.9477 17.3032 13.0594 17.5089 13.0714 17.7311C13.0958 18.1797 12.7513 18.563 12.303 18.5858L12.3022 18.5858C10.6506 18.6808 9.00821 18.539 7.4706 18.0735L7.42703 18.0603L7.38517 18.0782L4.07079 19.4973C4.07072 19.4974 4.07066 19.4974 4.07059 19.4974C3.96626 19.5414 3.85725 19.5625 3.75 19.5625C3.53049 19.5625 3.31433 19.473 3.15853 19.3075L3.15824 19.3072C2.92461 19.0605 2.87086 18.6918 3.02356 18.388L3.02368 18.3878L3.96868 16.4978Z" transform="translate(14.375 14.375)" fill="white" stroke="#FFA630" stroke-width="0.25"/>
<path d="M15.4997 13.0061L15.412 13.0681L15.4601 13.1641L16.6657 15.5734C16.6657 15.5734 16.6657 15.5734 16.6657 15.5734C16.8186 15.8792 16.7647 16.246 16.5295 16.4925L16.5286 16.4935C16.3729 16.6606 16.1569 16.75 15.9375 16.75C15.8313 16.75 15.7203 16.7274 15.6166 16.6848C15.6164 16.6847 15.6161 16.6846 15.6158 16.6845L11.1193 14.7557L11.0865 14.7417L11.0512 14.747C5.12787 15.6475 0.125 11.9774 0.125 7.5C0.125 3.45738 4.24718 0.125 9.375 0.125C14.5028 0.125 18.625 3.45738 18.625 7.5C18.625 9.59917 17.4772 11.6076 15.4997 13.0061ZM13.9044 14.183L14.2175 14.3175L14.0656 14.0124L13.6288 13.1349C13.437 12.7498 13.5783 12.2818 13.9521 12.0672C15.8771 10.9658 17 9.30402 17 7.5C17 5.90109 16.1326 4.4608 14.7511 3.42454C13.3696 2.38826 11.4676 1.75 9.375 1.75C7.28235 1.75 5.38045 2.38826 3.9989 3.42454C2.61737 4.4608 1.75 5.90109 1.75 7.5C1.75 9.09891 2.61737 10.5392 3.9989 11.5755C5.38045 12.6117 7.28235 13.25 9.375 13.25C9.91876 13.25 10.4679 13.2024 11.0504 13.1L11.0507 13.0999C11.0946 13.0921 11.1396 13.0887 11.1881 13.0887C11.2965 13.0887 11.4074 13.1115 11.5086 13.1538C11.5088 13.1539 11.509 13.154 11.5092 13.154L13.9044 14.183Z" transform="translate(25.625 23.75)" fill="white" stroke="#FFA630" stroke-width="0.25"/>
<path d="M0.928126 0.125H0.946875C1.39534 0.125 1.75938 0.489036 1.75938 0.9375C1.75938 1.38596 1.39534 1.75 0.946875 1.75C0.496789 1.75 0.125 1.38435 0.125 0.9375C0.125 0.487391 0.481294 0.125 0.928126 0.125Z" transform="translate(20.9657 20)" fill="white" stroke="#FFA630" stroke-width="0.25"/>
<path d="M0.928126 0.125H0.946876C1.39534 0.125 1.75938 0.489036 1.75938 0.9375C1.75938 1.38596 1.39534 1.75 0.946876 1.75C0.496789 1.75 0.125 1.38435 0.125 0.9375C0.125 0.487391 0.481294 0.125 0.928126 0.125Z" transform="translate(28.4657 20)" fill="white" stroke="#FFA630" stroke-width="0.25"/>
<path d="M0.928126 0.125H0.946876C1.39534 0.125 1.75938 0.489036 1.75938 0.9375C1.75938 1.38596 1.39534 1.75 0.946876 1.75C0.496789 1.75 0.125001 1.38435 0.125001 0.9375C0.125001 0.487224 0.479583 0.125 0.928126 0.125Z" transform="translate(31.2782 28.4375)" fill="white" stroke="#FFA630" stroke-width="0.25"/>
<path d="M0.928126 0.125H0.946876C1.39534 0.125 1.75938 0.489036 1.75938 0.9375C1.75938 1.38596 1.39534 1.75 0.946876 1.75C0.498503 1.75 0.125001 1.38419 0.125001 0.9375C0.125001 0.487391 0.481294 0.125 0.928126 0.125Z" transform="translate(36.9032 28.4375)" fill="white" stroke="#FFA630" stroke-width="0.25"/>
</svg>
