<svg width="80" height="38" viewBox="0 0 80 38" fill="none" xmlns="http://www.w3.org/2000/svg">
<rect x="1.5" y="1.5" width="77" height="35" rx="8.5" fill="#F3F1F1" stroke="#FFA630" stroke-width="3"/>
<path d="M9.81067 21.3887C9.81067 21.0013 9.67395 20.7051 9.40052 20.5C9.12708 20.2904 8.63489 20.0716 7.92395 19.8438C7.21302 19.6113 6.65019 19.3835 6.23548 19.1602C5.10527 18.5495 4.54016 17.7269 4.54016 16.6924C4.54016 16.1546 4.69056 15.6761 4.99134 15.2568C5.29668 14.833 5.7319 14.5026 6.297 14.2656C6.86666 14.0286 7.50468 13.9102 8.21106 13.9102C8.922 13.9102 9.55546 14.04 10.1115 14.2998C10.6674 14.555 11.0981 14.9173 11.4034 15.3867C11.7133 15.8561 11.8683 16.3893 11.8683 16.9863H9.81751C9.81751 16.5306 9.67395 16.1774 9.38684 15.9268C9.09974 15.6715 8.69641 15.5439 8.17688 15.5439C7.67558 15.5439 7.28593 15.651 7.00794 15.8652C6.72994 16.0749 6.59095 16.3529 6.59095 16.6992C6.59095 17.0228 6.75273 17.2939 7.0763 17.5127C7.40442 17.7314 7.88522 17.9365 8.51868 18.1279C9.68535 18.4788 10.5353 18.9141 11.0685 19.4336C11.6017 19.9531 11.8683 20.6003 11.8683 21.375C11.8683 22.2363 11.5424 22.9131 10.8908 23.4053C10.2391 23.8929 9.36178 24.1367 8.25891 24.1367C7.49329 24.1367 6.79602 23.9977 6.16712 23.7197C5.53821 23.4372 5.05742 23.0521 4.72474 22.5645C4.39661 22.0768 4.23255 21.5117 4.23255 20.8691H6.29016C6.29016 21.9674 6.94641 22.5166 8.25891 22.5166C8.74655 22.5166 9.12708 22.4186 9.40052 22.2227C9.67395 22.0221 9.81067 21.7441 9.81067 21.3887ZM15.0607 17.4102C15.5848 16.7812 16.2433 16.4668 17.0363 16.4668C18.6404 16.4668 19.4539 17.3988 19.4767 19.2627V24H17.5011V19.3174C17.5011 18.8936 17.41 18.5814 17.2277 18.3809C17.0454 18.1758 16.7423 18.0732 16.3185 18.0732C15.7397 18.0732 15.3204 18.2965 15.0607 18.7432V24H13.0851V13.5H15.0607V17.4102ZM25.2531 24C25.1619 23.8223 25.0958 23.6012 25.0548 23.3369C24.5763 23.8701 23.9542 24.1367 23.1886 24.1367C22.464 24.1367 21.8624 23.9271 21.3839 23.5078C20.91 23.0885 20.673 22.5599 20.673 21.9219C20.673 21.138 20.9624 20.5365 21.5411 20.1172C22.1245 19.6979 22.9653 19.486 24.0636 19.4814H24.9728V19.0576C24.9728 18.7158 24.8839 18.4424 24.7062 18.2373C24.533 18.0322 24.2573 17.9297 23.879 17.9297C23.5463 17.9297 23.2843 18.0094 23.0929 18.1689C22.9061 18.3285 22.8126 18.5472 22.8126 18.8252H20.837C20.837 18.3968 20.9692 18.0003 21.2335 17.6357C21.4978 17.2712 21.8715 16.9863 22.3546 16.7812C22.8377 16.5716 23.38 16.4668 23.9816 16.4668C24.893 16.4668 25.6154 16.6969 26.1486 17.1572C26.6863 17.613 26.9552 18.2555 26.9552 19.085V22.291C26.9598 22.9928 27.0577 23.5238 27.2491 23.8838V24H25.2531ZM23.6193 22.626C23.9109 22.626 24.1798 22.5622 24.4259 22.4346C24.672 22.3024 24.8543 22.127 24.9728 21.9082V20.6367H24.2345C23.2456 20.6367 22.7192 20.9785 22.6554 21.6621L22.6486 21.7783C22.6486 22.0244 22.7352 22.2272 22.9083 22.3867C23.0815 22.5462 23.3185 22.626 23.6193 22.626ZM32.629 18.4561C32.3602 18.4196 32.1232 18.4014 31.9181 18.4014C31.1707 18.4014 30.6808 18.6543 30.4484 19.1602V24H28.4728V16.6035H30.339L30.3937 17.4854C30.7902 16.8063 31.3393 16.4668 32.0411 16.4668C32.2599 16.4668 32.465 16.4964 32.6564 16.5557L32.629 18.4561ZM36.8536 24.1367C35.769 24.1367 34.8849 23.804 34.2013 23.1387C33.5223 22.4733 33.1827 21.5869 33.1827 20.4795V20.2881C33.1827 19.5452 33.3263 18.8822 33.6134 18.2988C33.9005 17.7109 34.3061 17.2598 34.8302 16.9453C35.3588 16.6263 35.9604 16.4668 36.6349 16.4668C37.6466 16.4668 38.4419 16.7858 39.0206 17.4238C39.604 18.0618 39.8956 18.9665 39.8956 20.1377V20.9443H35.1857C35.2495 21.4274 35.4409 21.8148 35.7599 22.1064C36.0835 22.3981 36.4913 22.5439 36.9835 22.5439C37.7446 22.5439 38.3393 22.2682 38.7677 21.7168L39.7384 22.8037C39.4422 23.223 39.0411 23.5511 38.5353 23.7881C38.0294 24.0205 37.4689 24.1367 36.8536 24.1367ZM36.6281 18.0664C36.2361 18.0664 35.9171 18.1986 35.671 18.4629C35.4295 18.7272 35.2745 19.1055 35.2062 19.5977H37.9542V19.4404C37.9451 19.0029 37.8266 18.6657 37.5988 18.4287C37.3709 18.1872 37.0473 18.0664 36.6281 18.0664Z" transform="translate(29.3505)" fill="#FFA630"/>
<path d="M8.7975 11.8162C8.81625 12.1613 8.55125 12.4563 8.20625 12.4738C7.0975 12.5375 5.9925 12.4425 4.95625 12.1287L8.7975 11.8162ZM8.7975 11.8162C8.77875 11.47 8.45125 11.1875 8.14 11.2262L8.7975 11.8162ZM2.61597 10.9836L2.63487 10.9458L2.60076 10.9209C0.970475 9.7289 0.05 8.05307 0.05 6.25C0.05 2.83951 3.38244 0.05 7.5 0.05C11.6176 0.05 14.95 2.83951 14.95 6.25C14.95 6.51039 14.9339 6.75609 14.8908 7.00123C14.8343 7.31465 14.5411 7.52441 14.2241 7.46583L14.2237 7.46577C13.9122 7.41058 13.7029 7.11159 13.7592 6.79886L13.7592 6.79873C13.7912 6.61844 13.8 6.43895 13.8 6.25C13.8 3.45505 10.9629 1.2 7.5 1.2C4.03713 1.2 1.2 3.45505 1.2 6.25C1.2 7.81948 2.10711 9.28029 3.67977 10.2624L3.67987 10.2625C3.93163 10.4188 4.0225 10.742 3.89028 11.0064L3.89023 11.0065L3.77773 11.2327L3.71711 11.3546L3.84222 11.3009L4.69795 10.9337C4.69803 10.9336 4.69811 10.9336 4.69818 10.9336C4.82861 10.8794 4.97365 10.8726 5.10684 10.9162C6.06922 11.2374 7.10319 11.3289 8.14253 11.2762L8.14254 11.2763L8.14618 11.2759C8.28481 11.2586 8.43066 11.3128 8.54528 11.4143C8.6597 11.5157 8.73901 11.6608 8.74757 11.819L8.74757 11.819C8.76482 12.1364 8.521 12.4077 8.20372 12.4238L8.20338 12.4238C7.09924 12.4873 6.00029 12.3926 4.97074 12.0809L4.95331 12.0756L4.93657 12.0828L2.72681 13.0289C2.72681 13.0289 2.7268 13.0289 2.72679 13.0289C2.65304 13.0601 2.57592 13.075 2.5 13.075C2.3447 13.075 2.19173 13.0117 2.08141 12.8945L2.0813 12.8944C1.91584 12.7197 1.87785 12.4587 1.98592 12.2437L1.98597 12.2436L2.61597 10.9836Z" transform="translate(10 10)" fill="black"/>
<path d="M8.7975 11.8162C8.81625 12.1613 8.55125 12.4563 8.20625 12.4738C7.0975 12.5375 5.9925 12.4425 4.95625 12.1287L8.7975 11.8162ZM8.7975 11.8162C8.77875 11.47 8.45125 11.1875 8.14 11.2262L8.7975 11.8162ZM2.61597 10.9836L2.63487 10.9458L2.60076 10.9209C0.970475 9.7289 0.05 8.05307 0.05 6.25C0.05 2.83951 3.38244 0.05 7.5 0.05C11.6176 0.05 14.95 2.83951 14.95 6.25C14.95 6.51039 14.9339 6.75609 14.8908 7.00123C14.8343 7.31465 14.5411 7.52441 14.2241 7.46583L14.2237 7.46577C13.9122 7.41058 13.7029 7.11159 13.7592 6.79886L13.7592 6.79873C13.7912 6.61844 13.8 6.43895 13.8 6.25C13.8 3.45505 10.9629 1.2 7.5 1.2C4.03713 1.2 1.2 3.45505 1.2 6.25C1.2 7.81948 2.10711 9.28029 3.67977 10.2624L3.67987 10.2625C3.93163 10.4188 4.0225 10.742 3.89028 11.0064L3.89023 11.0065L3.77773 11.2327L3.71711 11.3546L3.84222 11.3009L4.69795 10.9337C4.69803 10.9336 4.69811 10.9336 4.69818 10.9336C4.82861 10.8794 4.97365 10.8726 5.10684 10.9162C6.06922 11.2374 7.10319 11.3289 8.14253 11.2762L8.14254 11.2763L8.14618 11.2759C8.28481 11.2586 8.43066 11.3128 8.54528 11.4143C8.6597 11.5157 8.73901 11.6608 8.74757 11.819L8.74757 11.819C8.76482 12.1364 8.521 12.4077 8.20372 12.4238L8.20338 12.4238C7.09924 12.4873 6.00029 12.3926 4.97074 12.0809L4.95331 12.0756L4.93657 12.0828L2.72681 13.0289C2.72681 13.0289 2.7268 13.0289 2.72679 13.0289C2.65304 13.0601 2.57592 13.075 2.5 13.075C2.3447 13.075 2.19173 13.0117 2.08141 12.8945L2.0813 12.8944C1.91584 12.7197 1.87785 12.4587 1.98592 12.2437L1.98597 12.2436L2.61597 10.9836Z" transform="translate(10 10)" stroke="black" stroke-width="0.1"/>
<path d="M8.7975 11.8162C8.81625 12.1613 8.55125 12.4563 8.20625 12.4738C7.0975 12.5375 5.9925 12.4425 4.95625 12.1287L8.7975 11.8162ZM8.7975 11.8162C8.77875 11.47 8.45125 11.1875 8.14 11.2262L8.7975 11.8162ZM2.61597 10.9836L2.63487 10.9458L2.60076 10.9209C0.970475 9.7289 0.05 8.05307 0.05 6.25C0.05 2.83951 3.38244 0.05 7.5 0.05C11.6176 0.05 14.95 2.83951 14.95 6.25C14.95 6.51039 14.9339 6.75609 14.8908 7.00123C14.8343 7.31465 14.5411 7.52441 14.2241 7.46583L14.2237 7.46577C13.9122 7.41058 13.7029 7.11159 13.7592 6.79886L13.7592 6.79873C13.7912 6.61844 13.8 6.43895 13.8 6.25C13.8 3.45505 10.9629 1.2 7.5 1.2C4.03713 1.2 1.2 3.45505 1.2 6.25C1.2 7.81948 2.10711 9.28029 3.67977 10.2624L3.67987 10.2625C3.93163 10.4188 4.0225 10.742 3.89028 11.0064L3.89023 11.0065L3.77773 11.2327L3.71711 11.3546L3.84222 11.3009L4.69795 10.9337C4.69803 10.9336 4.69811 10.9336 4.69818 10.9336C4.82861 10.8794 4.97365 10.8726 5.10684 10.9162C6.06922 11.2374 7.10319 11.3289 8.14253 11.2762L8.14254 11.2763L8.14618 11.2759C8.28481 11.2586 8.43066 11.3128 8.54528 11.4143C8.6597 11.5157 8.73901 11.6608 8.74757 11.819L8.74757 11.819C8.76482 12.1364 8.521 12.4077 8.20372 12.4238L8.20338 12.4238C7.09924 12.4873 6.00029 12.3926 4.97074 12.0809L4.95331 12.0756L4.93657 12.0828L2.72681 13.0289C2.72681 13.0289 2.7268 13.0289 2.72679 13.0289C2.65304 13.0601 2.57592 13.075 2.5 13.075C2.3447 13.075 2.19173 13.0117 2.08141 12.8945L2.0813 12.8944C1.91584 12.7197 1.87785 12.4587 1.98592 12.2437L1.98597 12.2436L2.61597 10.9836Z" transform="translate(10 10)" stroke="url(#paint0_linear)" stroke-width="0.1"/>
<path d="M10.3524 8.69793L10.3173 8.72272L10.3365 8.76112L11.1403 10.3674C11.1403 10.3674 11.1403 10.3674 11.1403 10.3674C11.2484 10.5837 11.2104 10.8434 11.0438 11.018L11.0434 11.0184C10.9331 11.1367 10.7803 11.2 10.625 11.2C10.5495 11.2 10.4711 11.184 10.3981 11.1539C10.398 11.1539 10.3979 11.1538 10.3978 11.1538L7.39971 9.8678L7.38659 9.86217L7.37249 9.86432C3.41115 10.4665 0.05 8.01247 0.05 5C0.05 2.27995 2.82037 0.05 6.25 0.05C9.67963 0.05 12.45 2.27995 12.45 5C12.45 6.41217 11.6779 7.76052 10.3524 8.69793ZM9.28277 9.42469L9.40801 9.47849L9.34726 9.35647L9.05601 8.77147C8.92031 8.49893 9.02033 8.16774 9.28483 8.0159C10.5609 7.28584 11.3 6.18761 11.3 5C11.3 3.94694 10.7288 2.99582 9.81406 2.30969C8.89932 1.62355 7.63856 1.2 6.25 1.2C4.86144 1.2 3.60068 1.62355 2.68594 2.30969C1.7712 2.99582 1.2 3.94694 1.2 5C1.2 6.05306 1.7712 7.00418 2.68594 7.69031C3.60068 8.37645 4.86144 8.8 6.25 8.8C6.6105 8.8 6.97465 8.76848 7.36116 8.70049L7.36129 8.70047C7.39283 8.69484 7.42482 8.6925 7.45875 8.6925C7.53561 8.6925 7.61396 8.70858 7.68543 8.73851C7.68551 8.73855 7.68559 8.73858 7.68566 8.73861L9.28277 9.42469Z" transform="translate(17.5 16.25)" fill="black"/>
<path d="M10.3524 8.69793L10.3173 8.72272L10.3365 8.76112L11.1403 10.3674C11.1403 10.3674 11.1403 10.3674 11.1403 10.3674C11.2484 10.5837 11.2104 10.8434 11.0438 11.018L11.0434 11.0184C10.9331 11.1367 10.7803 11.2 10.625 11.2C10.5495 11.2 10.4711 11.184 10.3981 11.1539C10.398 11.1539 10.3979 11.1538 10.3978 11.1538L7.39971 9.8678L7.38659 9.86217L7.37249 9.86432C3.41115 10.4665 0.05 8.01247 0.05 5C0.05 2.27995 2.82037 0.05 6.25 0.05C9.67963 0.05 12.45 2.27995 12.45 5C12.45 6.41217 11.6779 7.76052 10.3524 8.69793ZM9.28277 9.42469L9.40801 9.47849L9.34726 9.35647L9.05601 8.77147C8.92031 8.49893 9.02033 8.16774 9.28483 8.0159C10.5609 7.28584 11.3 6.18761 11.3 5C11.3 3.94694 10.7288 2.99582 9.81406 2.30969C8.89932 1.62355 7.63856 1.2 6.25 1.2C4.86144 1.2 3.60068 1.62355 2.68594 2.30969C1.7712 2.99582 1.2 3.94694 1.2 5C1.2 6.05306 1.7712 7.00418 2.68594 7.69031C3.60068 8.37645 4.86144 8.8 6.25 8.8C6.6105 8.8 6.97465 8.76848 7.36116 8.70049L7.36129 8.70047C7.39283 8.69484 7.42482 8.6925 7.45875 8.6925C7.53561 8.6925 7.61396 8.70858 7.68543 8.73851C7.68551 8.73855 7.68559 8.73858 7.68566 8.73861L9.28277 9.42469Z" transform="translate(17.5 16.25)" stroke="black" stroke-width="0.1"/>
<path d="M10.3524 8.69793L10.3173 8.72272L10.3365 8.76112L11.1403 10.3674C11.1403 10.3674 11.1403 10.3674 11.1403 10.3674C11.2484 10.5837 11.2104 10.8434 11.0438 11.018L11.0434 11.0184C10.9331 11.1367 10.7803 11.2 10.625 11.2C10.5495 11.2 10.4711 11.184 10.3981 11.1539C10.398 11.1539 10.3979 11.1538 10.3978 11.1538L7.39971 9.8678L7.38659 9.86217L7.37249 9.86432C3.41115 10.4665 0.05 8.01247 0.05 5C0.05 2.27995 2.82037 0.05 6.25 0.05C9.67963 0.05 12.45 2.27995 12.45 5C12.45 6.41217 11.6779 7.76052 10.3524 8.69793ZM9.28277 9.42469L9.40801 9.47849L9.34726 9.35647L9.05601 8.77147C8.92031 8.49893 9.02033 8.16774 9.28483 8.0159C10.5609 7.28584 11.3 6.18761 11.3 5C11.3 3.94694 10.7288 2.99582 9.81406 2.30969C8.89932 1.62355 7.63856 1.2 6.25 1.2C4.86144 1.2 3.60068 1.62355 2.68594 2.30969C1.7712 2.99582 1.2 3.94694 1.2 5C1.2 6.05306 1.7712 7.00418 2.68594 7.69031C3.60068 8.37645 4.86144 8.8 6.25 8.8C6.6105 8.8 6.97465 8.76848 7.36116 8.70049L7.36129 8.70047C7.39283 8.69484 7.42482 8.6925 7.45875 8.6925C7.53561 8.6925 7.61396 8.70858 7.68543 8.73851C7.68551 8.73855 7.68559 8.73858 7.68566 8.73861L9.28277 9.42469Z" transform="translate(17.5 16.25)" stroke="url(#paint1_linear)" stroke-width="0.1"/>
<path d="M0.61875 0.05H0.63125C0.948636 0.05 1.20625 0.307614 1.20625 0.625C1.20625 0.942386 0.948636 1.2 0.63125 1.2C0.313215 1.2 0.0500001 0.941741 0.0500001 0.625C0.0500001 0.306956 0.302018 0.05 0.61875 0.05Z" transform="translate(14.3938 13.75)" fill="black"/>
<path d="M0.61875 0.05H0.63125C0.948636 0.05 1.20625 0.307614 1.20625 0.625C1.20625 0.942386 0.948636 1.2 0.63125 1.2C0.313215 1.2 0.0500001 0.941741 0.0500001 0.625C0.0500001 0.306956 0.302018 0.05 0.61875 0.05Z" transform="translate(14.3938 13.75)" stroke="black" stroke-width="0.1"/>
<path d="M0.61875 0.05H0.63125C0.948636 0.05 1.20625 0.307614 1.20625 0.625C1.20625 0.942386 0.948636 1.2 0.63125 1.2C0.313215 1.2 0.0500001 0.941741 0.0500001 0.625C0.0500001 0.306956 0.302018 0.05 0.61875 0.05Z" transform="translate(14.3938 13.75)" stroke="url(#paint2_linear)" stroke-width="0.1"/>
<path d="M0.61875 0.05H0.631251C0.948636 0.05 1.20625 0.307614 1.20625 0.625C1.20625 0.942386 0.948636 1.2 0.631251 1.2C0.313216 1.2 0.0499998 0.941741 0.0499998 0.625C0.0499998 0.306956 0.302018 0.05 0.61875 0.05Z" transform="translate(19.3938 13.75)" fill="black"/>
<path d="M0.61875 0.05H0.631251C0.948636 0.05 1.20625 0.307614 1.20625 0.625C1.20625 0.942386 0.948636 1.2 0.631251 1.2C0.313216 1.2 0.0499998 0.941741 0.0499998 0.625C0.0499998 0.306956 0.302018 0.05 0.61875 0.05Z" transform="translate(19.3938 13.75)" stroke="black" stroke-width="0.1"/>
<path d="M0.61875 0.05H0.631251C0.948636 0.05 1.20625 0.307614 1.20625 0.625C1.20625 0.942386 0.948636 1.2 0.631251 1.2C0.313216 1.2 0.0499998 0.941741 0.0499998 0.625C0.0499998 0.306956 0.302018 0.05 0.61875 0.05Z" transform="translate(19.3938 13.75)" stroke="url(#paint3_linear)" stroke-width="0.1"/>
<path d="M0.61875 0.05H0.631251C0.948636 0.05 1.20625 0.307614 1.20625 0.625C1.20625 0.942386 0.948636 1.2 0.631251 1.2C0.313216 1.2 0.0500004 0.941741 0.0500004 0.625C0.0500004 0.30689 0.300833 0.05 0.61875 0.05Z" transform="translate(21.2688 19.375)" fill="black"/>
<path d="M0.61875 0.05H0.631251C0.948636 0.05 1.20625 0.307614 1.20625 0.625C1.20625 0.942386 0.948636 1.2 0.631251 1.2C0.313216 1.2 0.0500004 0.941741 0.0500004 0.625C0.0500004 0.30689 0.300833 0.05 0.61875 0.05Z" transform="translate(21.2688 19.375)" stroke="black" stroke-width="0.1"/>
<path d="M0.61875 0.05H0.631251C0.948636 0.05 1.20625 0.307614 1.20625 0.625C1.20625 0.942386 0.948636 1.2 0.631251 1.2C0.313216 1.2 0.0500004 0.941741 0.0500004 0.625C0.0500004 0.30689 0.300833 0.05 0.61875 0.05Z" transform="translate(21.2688 19.375)" stroke="url(#paint4_linear)" stroke-width="0.1"/>
<path d="M0.61875 0.05H0.631251C0.948636 0.05 1.20625 0.307614 1.20625 0.625C1.20625 0.942386 0.948636 1.2 0.631251 1.2C0.314401 1.2 0.0500004 0.941678 0.0500004 0.625C0.0500004 0.306956 0.302018 0.05 0.61875 0.05Z" transform="translate(25.0188 19.375)" fill="black"/>
<path d="M0.61875 0.05H0.631251C0.948636 0.05 1.20625 0.307614 1.20625 0.625C1.20625 0.942386 0.948636 1.2 0.631251 1.2C0.314401 1.2 0.0500004 0.941678 0.0500004 0.625C0.0500004 0.306956 0.302018 0.05 0.61875 0.05Z" transform="translate(25.0188 19.375)" stroke="black" stroke-width="0.1"/>
<path d="M0.61875 0.05H0.631251C0.948636 0.05 1.20625 0.307614 1.20625 0.625C1.20625 0.942386 0.948636 1.2 0.631251 1.2C0.314401 1.2 0.0500004 0.941678 0.0500004 0.625C0.0500004 0.306956 0.302018 0.05 0.61875 0.05Z" transform="translate(25.0188 19.375)" stroke="url(#paint5_linear)" stroke-width="0.1"/>
<defs>
<linearGradient id="paint0_linear" x2="1" gradientUnits="userSpaceOnUse" gradientTransform="translate(15) scale(15 13.125) rotate(90)">
<stop stop-color="white"/>
<stop offset="1" stop-color="white" stop-opacity="0"/>
</linearGradient>
<linearGradient id="paint1_linear" x2="1" gradientUnits="userSpaceOnUse" gradientTransform="translate(12.5) scale(12.5 11.25) rotate(90)">
<stop stop-color="white"/>
<stop offset="1" stop-color="white" stop-opacity="0"/>
</linearGradient>
<linearGradient id="paint2_linear" x2="1" gradientUnits="userSpaceOnUse" gradientTransform="translate(1.25625) scale(1.25625 1.25) rotate(90)">
<stop stop-color="white"/>
<stop offset="1" stop-color="white" stop-opacity="0"/>
</linearGradient>
<linearGradient id="paint3_linear" x2="1" gradientUnits="userSpaceOnUse" gradientTransform="translate(1.25625) scale(1.25625 1.25) rotate(90)">
<stop stop-color="white"/>
<stop offset="1" stop-color="white" stop-opacity="0"/>
</linearGradient>
<linearGradient id="paint4_linear" x2="1" gradientUnits="userSpaceOnUse" gradientTransform="translate(1.25625) scale(1.25625 1.25) rotate(90)">
<stop stop-color="white"/>
<stop offset="1" stop-color="white" stop-opacity="0"/>
</linearGradient>
<linearGradient id="paint5_linear" x2="1" gradientUnits="userSpaceOnUse" gradientTransform="translate(1.25625) scale(1.25625 1.25) rotate(90)">
<stop stop-color="white"/>
<stop offset="1" stop-color="white" stop-opacity="0"/>
</linearGradient>
</defs>
</svg>
