<svg width="104" height="94" viewBox="0 0 104 94" fill="none" xmlns="http://www.w3.org/2000/svg">
<g filter="url(#filter0_d)">
<circle cx="37.5" cy="37.5" r="36" transform="translate(15)" fill="#F3F1F1" stroke="#FFA630" stroke-width="3"/>
</g>
<path d="M7.2373 15.5635C6.11165 15.2399 5.29134 14.8434 4.77637 14.374C4.26595 13.9001 4.01074 13.3167 4.01074 12.624C4.01074 11.8402 4.32292 11.193 4.94727 10.6826C5.57617 10.1676 6.39193 9.91016 7.39453 9.91016C8.07812 9.91016 8.68652 10.0423 9.21973 10.3066C9.75749 10.571 10.1722 10.9355 10.4639 11.4004C10.7601 11.8652 10.9082 12.3734 10.9082 12.9248H9.58887C9.58887 12.3232 9.39746 11.8516 9.01465 11.5098C8.63184 11.1634 8.0918 10.9902 7.39453 10.9902C6.7474 10.9902 6.24154 11.1338 5.87695 11.4209C5.51693 11.7035 5.33691 12.0977 5.33691 12.6035C5.33691 13.0091 5.50781 13.3532 5.84961 13.6357C6.19596 13.9137 6.78158 14.1689 7.60645 14.4014C8.43587 14.6338 9.08301 14.8913 9.54785 15.1738C10.0173 15.4518 10.3636 15.7777 10.5869 16.1514C10.8148 16.5251 10.9287 16.9648 10.9287 17.4707C10.9287 18.2773 10.6143 18.9245 9.98535 19.4121C9.35645 19.8952 8.51562 20.1367 7.46289 20.1367C6.7793 20.1367 6.14128 20.0068 5.54883 19.7471C4.95638 19.4827 4.49837 19.1227 4.1748 18.667C3.85579 18.2113 3.69629 17.694 3.69629 17.1152H5.01562C5.01562 17.7168 5.23665 18.193 5.67871 18.5439C6.12533 18.8903 6.72005 19.0635 7.46289 19.0635C8.1556 19.0635 8.68652 18.9222 9.05566 18.6396C9.4248 18.3571 9.60938 17.972 9.60938 17.4844C9.60938 16.9967 9.43848 16.6208 9.09668 16.3564C8.75488 16.0876 8.13509 15.8232 7.2373 15.5635ZM13.6836 13.499C14.2441 12.8109 14.9733 12.4668 15.8711 12.4668C17.4342 12.4668 18.2227 13.3486 18.2363 15.1123V20H16.9717V15.1055C16.9671 14.5723 16.8441 14.1781 16.6025 13.9229C16.3656 13.6676 15.9941 13.54 15.4883 13.54C15.0781 13.54 14.7181 13.6494 14.4082 13.8682C14.0983 14.0869 13.8568 14.374 13.6836 14.7295V20H12.4189V9.5H13.6836V13.499ZM24.6963 20C24.6234 19.8542 24.5641 19.5944 24.5186 19.2207C23.9307 19.8314 23.2288 20.1367 22.4131 20.1367C21.6839 20.1367 21.0846 19.9316 20.6152 19.5215C20.1504 19.1068 19.918 18.5827 19.918 17.9492C19.918 17.179 20.2096 16.582 20.793 16.1582C21.3809 15.7298 22.2057 15.5156 23.2676 15.5156H24.498V14.9346C24.498 14.4925 24.3659 14.1416 24.1016 13.8818C23.8372 13.6175 23.4476 13.4854 22.9326 13.4854C22.4814 13.4854 22.1032 13.5993 21.7979 13.8271C21.4925 14.055 21.3398 14.3307 21.3398 14.6543H20.0684C20.0684 14.2852 20.1982 13.9297 20.458 13.5879C20.7223 13.2415 21.0778 12.9681 21.5244 12.7676C21.9756 12.5671 22.4701 12.4668 23.0078 12.4668C23.86 12.4668 24.5277 12.681 25.0107 13.1094C25.4938 13.5332 25.7445 14.1188 25.7627 14.8662V18.2705C25.7627 18.9495 25.8493 19.4896 26.0225 19.8906V20H24.6963ZM22.5977 19.0361C22.9941 19.0361 23.3701 18.9336 23.7256 18.7285C24.0811 18.5234 24.3385 18.2568 24.498 17.9287V16.4111H23.5068C21.9574 16.4111 21.1826 16.8646 21.1826 17.7715C21.1826 18.168 21.3148 18.4779 21.5791 18.7012C21.8434 18.9245 22.1829 19.0361 22.5977 19.0361ZM31.3203 13.7383C31.1289 13.7064 30.9215 13.6904 30.6982 13.6904C29.8688 13.6904 29.306 14.0436 29.0098 14.75V20H27.7451V12.6035H28.9756L28.9961 13.458C29.4108 12.7972 29.9987 12.4668 30.7598 12.4668C31.0059 12.4668 31.1927 12.4987 31.3203 12.5625V13.7383ZM35.4219 20.1367C34.4193 20.1367 33.6035 19.8086 32.9746 19.1523C32.3457 18.4915 32.0312 17.6097 32.0312 16.5068V16.2744C32.0312 15.5407 32.1702 14.8867 32.4482 14.3125C32.7308 13.7337 33.1227 13.2826 33.624 12.959C34.1299 12.6309 34.6768 12.4668 35.2646 12.4668C36.2262 12.4668 36.9736 12.7835 37.5068 13.417C38.04 14.0505 38.3066 14.9574 38.3066 16.1377V16.6641H33.2959C33.3141 17.3932 33.526 17.9834 33.9316 18.4346C34.3418 18.8812 34.8613 19.1045 35.4902 19.1045C35.9368 19.1045 36.3151 19.0133 36.625 18.8311C36.9349 18.6488 37.2061 18.4072 37.4385 18.1064L38.2109 18.708C37.5911 19.6605 36.6615 20.1367 35.4219 20.1367ZM35.2646 13.5059C34.7542 13.5059 34.3258 13.6927 33.9795 14.0664C33.6331 14.4355 33.4189 14.9551 33.3369 15.625H37.042V15.5293C37.0055 14.8867 36.8324 14.39 36.5225 14.0391C36.2126 13.6836 35.7933 13.5059 35.2646 13.5059ZM44.9648 10.8125V12.6035H46.3457V13.5811H44.9648V18.168C44.9648 18.4642 45.0264 18.6875 45.1494 18.8379C45.2725 18.9837 45.4821 19.0566 45.7783 19.0566C45.9242 19.0566 46.1247 19.0293 46.3799 18.9746V20C46.0472 20.0911 45.7236 20.1367 45.4092 20.1367C44.8441 20.1367 44.418 19.9658 44.1309 19.624C43.8438 19.2822 43.7002 18.7969 43.7002 18.168V13.5811H42.3535V12.6035H43.7002V10.8125H44.9648ZM47.3574 16.2334C47.3574 15.5088 47.4987 14.8571 47.7812 14.2783C48.0684 13.6995 48.4648 13.2529 48.9707 12.9385C49.4811 12.624 50.0622 12.4668 50.7139 12.4668C51.721 12.4668 52.5345 12.8154 53.1543 13.5127C53.7786 14.21 54.0908 15.1374 54.0908 16.2949V16.3838C54.0908 17.1038 53.9518 17.751 53.6738 18.3252C53.4004 18.8949 53.0062 19.3392 52.4912 19.6582C51.9808 19.9772 51.3929 20.1367 50.7275 20.1367C49.7249 20.1367 48.9115 19.7881 48.2871 19.0908C47.6673 18.3936 47.3574 17.4707 47.3574 16.3223V16.2334ZM48.6289 16.3838C48.6289 17.2041 48.818 17.8626 49.1963 18.3594C49.5791 18.8561 50.0895 19.1045 50.7275 19.1045C51.3701 19.1045 51.8805 18.8538 52.2588 18.3525C52.637 17.8467 52.8262 17.1403 52.8262 16.2334C52.8262 15.4222 52.6325 14.766 52.2451 14.2646C51.8623 13.7588 51.3519 13.5059 50.7139 13.5059C50.0895 13.5059 49.5859 13.7542 49.2031 14.251C48.8203 14.7477 48.6289 15.4587 48.6289 16.3838ZM61.4941 16.8623L61.6855 18.1748L61.9658 16.9922L63.9346 10.0469H65.042L66.9629 16.9922L67.2363 18.1953L67.4482 16.8555L68.9932 10.0469H70.3125L67.8994 20H66.7031L64.6523 12.7471L64.4951 11.9883L64.3379 12.7471L62.2119 20H61.0156L58.6094 10.0469H59.9219L61.4941 16.8623ZM74.4277 20.1367C73.4251 20.1367 72.6094 19.8086 71.9805 19.1523C71.3516 18.4915 71.0371 17.6097 71.0371 16.5068V16.2744C71.0371 15.5407 71.1761 14.8867 71.4541 14.3125C71.7367 13.7337 72.1286 13.2826 72.6299 12.959C73.1357 12.6309 73.6826 12.4668 74.2705 12.4668C75.2321 12.4668 75.9795 12.7835 76.5127 13.417C77.0459 14.0505 77.3125 14.9574 77.3125 16.1377V16.6641H72.3018C72.32 17.3932 72.5319 17.9834 72.9375 18.4346C73.3477 18.8812 73.8672 19.1045 74.4961 19.1045C74.9427 19.1045 75.321 19.0133 75.6309 18.8311C75.9408 18.6488 76.2119 18.4072 76.4443 18.1064L77.2168 18.708C76.597 19.6605 75.6673 20.1367 74.4277 20.1367ZM74.2705 13.5059C73.7601 13.5059 73.3317 13.6927 72.9854 14.0664C72.639 14.4355 72.4248 14.9551 72.3428 15.625H76.0479V15.5293C76.0114 14.8867 75.8382 14.39 75.5283 14.0391C75.2184 13.6836 74.7992 13.5059 74.2705 13.5059ZM86.3018 16.8418C86.1787 17.8945 85.7891 18.708 85.1328 19.2822C84.4811 19.8519 83.613 20.1367 82.5283 20.1367C81.3525 20.1367 80.4092 19.7152 79.6982 18.8721C78.9919 18.029 78.6387 16.901 78.6387 15.4883V14.5312C78.6387 13.6061 78.8027 12.7926 79.1309 12.0908C79.4635 11.389 79.9329 10.8512 80.5391 10.4775C81.1452 10.0993 81.847 9.91016 82.6445 9.91016C83.7018 9.91016 84.5495 10.2064 85.1875 10.7988C85.8255 11.3867 86.1969 12.2025 86.3018 13.2461H84.9824C84.8685 12.4531 84.6201 11.8789 84.2373 11.5234C83.859 11.168 83.3281 10.9902 82.6445 10.9902C81.806 10.9902 81.1475 11.3001 80.6689 11.9199C80.195 12.5397 79.958 13.4215 79.958 14.5654V15.5293C79.958 16.6094 80.1836 17.4684 80.6348 18.1064C81.0859 18.7445 81.7171 19.0635 82.5283 19.0635C83.2575 19.0635 83.8158 18.8994 84.2031 18.5713C84.5951 18.2386 84.8548 17.6621 84.9824 16.8418H86.3018ZM89.166 13.499C89.7266 12.8109 90.4557 12.4668 91.3535 12.4668C92.9167 12.4668 93.7051 13.3486 93.7188 15.1123V20H92.4541V15.1055C92.4495 14.5723 92.3265 14.1781 92.085 13.9229C91.848 13.6676 91.4766 13.54 90.9707 13.54C90.5605 13.54 90.2005 13.6494 89.8906 13.8682C89.5807 14.0869 89.3392 14.374 89.166 14.7295V20H87.9014V9.5H89.166V13.499ZM100.179 20C100.106 19.8542 100.047 19.5944 100.001 19.2207C99.4131 19.8314 98.7113 20.1367 97.8955 20.1367C97.1663 20.1367 96.5671 19.9316 96.0977 19.5215C95.6328 19.1068 95.4004 18.5827 95.4004 17.9492C95.4004 17.179 95.6921 16.582 96.2754 16.1582C96.8633 15.7298 97.6882 15.5156 98.75 15.5156H99.9805V14.9346C99.9805 14.4925 99.8483 14.1416 99.584 13.8818C99.3197 13.6175 98.93 13.4854 98.415 13.4854C97.9639 13.4854 97.5856 13.5993 97.2803 13.8271C96.9749 14.055 96.8223 14.3307 96.8223 14.6543H95.5508C95.5508 14.2852 95.6807 13.9297 95.9404 13.5879C96.2048 13.2415 96.5602 12.9681 97.0068 12.7676C97.458 12.5671 97.9525 12.4668 98.4902 12.4668C99.3424 12.4668 100.01 12.681 100.493 13.1094C100.976 13.5332 101.227 14.1188 101.245 14.8662V18.2705C101.245 18.9495 101.332 19.4896 101.505 19.8906V20H100.179ZM98.0801 19.0361C98.4766 19.0361 98.8525 18.9336 99.208 18.7285C99.5635 18.5234 99.821 18.2568 99.9805 17.9287V16.4111H98.9893C97.4398 16.4111 96.665 16.8646 96.665 17.7715C96.665 18.168 96.7972 18.4779 97.0615 18.7012C97.3258 18.9245 97.6654 19.0361 98.0801 19.0361ZM104.943 10.8125V12.6035H106.324V13.5811H104.943V18.168C104.943 18.4642 105.005 18.6875 105.128 18.8379C105.251 18.9837 105.461 19.0566 105.757 19.0566C105.903 19.0566 106.103 19.0293 106.358 18.9746V20C106.026 20.0911 105.702 20.1367 105.388 20.1367C104.823 20.1367 104.396 19.9658 104.109 19.624C103.822 19.2822 103.679 18.7969 103.679 18.168V13.5811H102.332V12.6035H103.679V10.8125H104.943Z" transform="translate(-3 73)" fill="#FFA630"/>
<rect width="40" height="34.514" fill="#F3F1F1" transform="translate(35 20)"/>
<path d="M37.6178 13.6894L5.34487 0.298084C3.98526 -0.266134 2.44933 -0.0179308 1.33636 0.945506C0.223392 1.9091 -0.242076 3.39371 0.121674 4.82011L3.29308 17.257L0.121674 29.6938C-0.242076 31.1202 0.223314 32.6049 1.33628 33.5684C2.45136 34.5339 3.98769 34.779 5.34487 34.2159L37.6178 20.8246C39.0872 20.2149 40 18.8478 40 17.257C40 15.6661 39.0872 14.2991 37.6178 13.6894ZM36.7195 18.6597L4.44659 32.051C3.90386 32.2761 3.31472 32.1811 2.87042 31.7964C2.4262 31.4118 2.24769 30.8424 2.39284 30.2729L5.41308 18.4289H17.0588C17.706 18.4289 18.2307 17.9042 18.2307 17.2569C18.2307 16.6096 17.706 16.0849 17.0588 16.0849H5.41315L2.39284 4.24105C2.24769 3.67168 2.4262 3.10214 2.87042 2.71754C3.31464 2.33293 3.90362 2.23777 4.44651 2.46293L36.7195 15.8542C37.5886 16.2149 37.6562 17.0191 37.6562 17.257C37.6562 17.4949 37.5886 18.2991 36.7195 18.6597Z" transform="translate(35 20)" fill="black"/>
<defs>
<filter id="filter0_d" x="11" y="0" width="83" height="83" filterUnits="userSpaceOnUse" color-interpolation-filters="sRGB">
<feFlood flood-opacity="0" result="BackgroundImageFix"/>
<feColorMatrix in="SourceAlpha" type="matrix" values="0 0 0 0 0 0 0 0 0 0 0 0 0 0 0 0 0 0 255 0"/>
<feOffset dy="4"/>
<feGaussianBlur stdDeviation="2"/>
<feColorMatrix type="matrix" values="0 0 0 0 0 0 0 0 0 0 0 0 0 0 0 0 0 0 0.25 0"/>
<feBlend mode="normal" in2="BackgroundImageFix" result="effect1_dropShadow"/>
<feBlend mode="normal" in="SourceGraphic" in2="effect1_dropShadow" result="shape"/>
</filter>
</defs>
</svg>
