<svg width="42" height="55" viewBox="0 0 42 55" fill="none" xmlns="http://www.w3.org/2000/svg">
<path d="M16.6666 33.5832C25.9952 33.5832 33.5832 25.9952 33.5832 16.6666C33.5832 7.33805 25.9952 -0.25 16.6666 -0.25C7.33805 -0.25 -0.25 7.33805 -0.25 16.6666C-0.25 25.9952 7.33805 33.5832 16.6666 33.5832ZM16.6666 2.47218C24.4929 2.47218 30.861 8.84023 30.861 16.6666C30.861 24.493 24.4929 30.861 16.6666 30.861C8.84033 30.861 2.47218 24.4929 2.47218 16.6666C2.47218 8.84033 8.84033 2.47218 16.6666 2.47218Z" transform="translate(1.00024 1)" fill="white" stroke="white" stroke-width="0.5"/>
<path d="M4.99998 13.0834H1.11114C0.358907 13.0834 -0.250001 13.6923 -0.250001 14.4445C-0.250001 15.1968 0.358906 15.8057 1.11114 15.8057H3.08332V16.6668C3.08332 17.4191 3.69223 18.028 4.44446 18.028C5.1967 18.028 5.80561 17.4191 5.80561 16.6668V15.7102C7.70006 15.3337 9.13893 13.6737 9.13893 11.6668C9.13893 9.38471 7.28221 7.528 5.00009 7.528H3.88895C3.10796 7.528 2.47229 6.89232 2.47229 6.11133C2.47229 5.33035 3.10796 4.69467 3.88895 4.69467H7.77779C8.53002 4.69467 9.13893 4.08577 9.13893 3.33353C9.13893 2.58121 8.53004 1.97228 7.77779 1.97228H5.80561V1.11114C5.80561 0.358906 5.1967 -0.25 4.44446 -0.25C3.69223 -0.25 3.08332 0.358906 3.08332 1.11114V2.06778C1.18887 2.44423 -0.250001 4.10429 -0.250001 6.11112C-0.250001 8.39325 1.60671 10.25 3.88884 10.25H4.99998C5.78097 10.25 6.41664 10.8856 6.41664 11.6666C6.41664 12.4477 5.78096 13.0834 4.99998 13.0834Z" transform="translate(13.2222 8.77771)" fill="white" stroke="white" stroke-width="0.5"/>
<path d="M2.07352 22.0734L2.07357 22.0734L13.3333 10.8135L21.2598 18.74C21.7915 19.2717 22.6529 19.2718 23.1845 18.74C23.1845 18.74 23.1846 18.74 23.1846 18.74L37.5277 4.39688V9.99986C37.5277 10.7521 38.1366 11.361 38.8889 11.361C39.6411 11.361 40.25 10.7521 40.25 9.99986V1.11104C40.2499 0.358891 39.641 -0.250001 38.8888 -0.250001H29.9999C29.2477 -0.250001 28.6388 0.358909 28.6388 1.11114C28.6388 1.86338 29.2477 2.47229 29.9999 2.47229H35.6029L22.2221 15.8531L14.2956 7.92653C13.7639 7.39486 12.9025 7.39482 12.3709 7.92653C12.3709 7.92654 12.3709 7.92655 12.3709 7.92655L0.148769 20.1487C-0.382904 20.6803 -0.382942 21.5418 0.148769 22.0734C0.414482 22.3391 0.763258 22.4721 1.11117 22.4721C1.45911 22.4721 1.80775 22.3391 2.07352 22.0734Z" transform="translate(1 32.1111)" fill="white" stroke="white" stroke-width="0.5"/>
</svg>
