<svg width="40" height="54" viewBox="0 0 40 54" fill="none" xmlns="http://www.w3.org/2000/svg">
<path d="M16.6666 33.3332C25.8571 33.3332 33.3332 25.8571 33.3332 16.6666C33.3332 7.47612 25.8571 0 16.6666 0C7.47612 0 0 7.47612 0 16.6666C0 25.8571 7.47612 33.3332 16.6666 33.3332ZM16.6666 2.22218C24.631 2.22218 31.111 8.70216 31.111 16.6666C31.111 24.6311 24.631 31.111 16.6666 31.111C8.70226 31.111 2.22218 24.631 2.22218 16.6666C2.22218 8.70226 8.70226 2.22218 16.6666 2.22218Z" transform="translate(0.000244141)" fill="white"/>
<path d="M4.99998 13.3334H1.11114C0.496978 13.3334 -7.75653e-07 13.8304 -7.75653e-07 14.4445C-7.75653e-07 15.0587 0.496978 15.5557 1.11114 15.5557H3.33332V16.6668C3.33332 17.281 3.8303 17.778 4.44446 17.778C5.05863 17.778 5.55561 17.281 5.55561 16.6668V15.4995C7.43539 15.2271 8.88893 13.6208 8.88893 11.6668C8.88893 9.52278 7.14414 7.778 5.00009 7.778H3.88895C2.96989 7.778 2.22229 7.03039 2.22229 6.11133C2.22229 5.19228 2.96989 4.44467 3.88895 4.44467H7.77779C8.39195 4.44467 8.88893 3.9477 8.88893 3.33353C8.88893 2.71926 8.39195 2.22228 7.77779 2.22228H5.55561V1.11114C5.55561 0.496978 5.05863 3.81468e-08 4.44446 3.81468e-08C3.8303 3.81468e-08 3.33332 0.496978 3.33332 1.11114V2.27843C1.45354 2.55083 -7.75653e-07 4.15717 -7.75653e-07 6.11113C-7.75653e-07 8.25518 1.74479 9.99997 3.88884 9.99997H4.99998C5.91904 9.99997 6.66664 10.7476 6.66664 11.6666C6.66664 12.5858 5.91904 13.3334 4.99998 13.3334Z" transform="translate(12.2222 7.77771)" fill="white"/>
<path d="M38.8888 -8.13799e-07H29.9999C29.3858 -8.13799e-07 28.8888 0.496979 28.8888 1.11114C28.8888 1.72531 29.3858 2.22229 29.9999 2.22229H36.2065L22.2221 16.2066L14.1188 8.10331C13.6848 7.66925 12.9816 7.66925 12.5477 8.10331L0.325546 20.3255C-0.108515 20.7595 -0.108515 21.4626 0.325546 21.8966C0.542524 22.1136 0.826898 22.2221 1.11117 22.2221C1.39544 22.2221 1.67971 22.1136 1.89679 21.8966L13.3333 10.46L21.4366 18.5633C21.8707 18.9973 22.5738 18.9973 23.0078 18.5633L37.7777 3.79332V9.99986C37.7777 10.614 38.2747 11.111 38.8889 11.111C39.503 11.111 40 10.614 40 9.99986V1.11104C39.9999 0.496978 39.5029 -8.13799e-07 38.8888 -8.13799e-07Z" transform="translate(0 31.1111)" fill="white"/>
</svg>
