<svg width="42" height="55" viewBox="0 0 42 55" fill="none" xmlns="http://www.w3.org/2000/svg">
<path d="M16.6667 33.5833C25.9952 33.5833 33.5833 25.9952 33.5833 16.6667C33.5833 7.33807 25.9952 -0.25 16.6667 -0.25C7.33807 -0.25 -0.25 7.33807 -0.25 16.6667C-0.25 25.9952 7.33807 33.5833 16.6667 33.5833ZM16.6667 2.47219C24.493 2.47219 30.8611 8.84025 30.8611 16.6667C30.8611 24.4931 24.493 30.8611 16.6667 30.8611C8.84036 30.8611 2.47219 24.493 2.47219 16.6667C2.47219 8.84036 8.84036 2.47219 16.6667 2.47219Z" transform="translate(1.00024 1)" fill="white" stroke="white" stroke-width="0.5"/>
<path d="M5 13.0834H1.11115C0.358908 13.0834 -0.250001 13.6923 -0.250001 14.4446C-0.250001 15.1968 0.358908 15.8057 1.11115 15.8057H3.08333V16.6669C3.08333 17.4191 3.69224 18.028 4.44448 18.028C5.19671 18.028 5.80562 17.4191 5.80562 16.6669V15.7102C7.70008 15.3338 9.13895 13.6737 9.13895 11.6669C9.13895 9.38474 7.28223 7.52802 5.0001 7.52802H3.88896C3.10797 7.52802 2.47229 6.89234 2.47229 6.11135C2.47229 5.33036 3.10797 4.69468 3.88896 4.69468H7.77781C8.53004 4.69468 9.13895 4.08578 9.13895 3.33354C9.13895 2.58121 8.53006 1.97229 7.77781 1.97229H5.80562V1.11115C5.80562 0.358907 5.19671 -0.25 4.44448 -0.25C3.69224 -0.25 3.08333 0.358907 3.08333 1.11115V2.06778C1.18887 2.44424 -0.250001 4.1043 -0.250001 6.11114C-0.250001 8.39327 1.60672 10.25 3.88885 10.25H5C5.78099 10.25 6.41666 10.8857 6.41666 11.6667C6.41666 12.4478 5.78098 13.0834 5 13.0834Z" transform="translate(13.2222 8.77771)" fill="white" stroke="white" stroke-width="0.5"/>
<path d="M22.2222 6.36912L35.6 19.7499H30C29.2478 19.7499 28.6389 20.3588 28.6389 21.1111C28.6389 21.8633 29.2478 22.4722 30 22.4722H38.8889C39.6411 22.4722 40.25 21.8633 40.25 21.1111V12.2222C40.25 11.47 39.6411 10.8611 38.8889 10.8611C38.1366 10.8611 37.5277 11.47 37.5277 12.2222V17.8283L23.1846 3.48212L23.1846 3.4821C22.9295 3.22697 22.5838 3.08336 22.2222 3.08336C21.8607 3.08336 21.5149 3.22697 21.2598 3.4821L13.3333 11.4086L2.07347 0.148768C1.54179 -0.382905 0.680377 -0.382943 0.14877 0.148769L22.2222 6.36912ZM22.2222 6.36912L14.2957 14.2956C14.2957 14.2956 14.2957 14.2956 14.2956 14.2956C13.764 14.8274 12.9026 14.8273 12.3709 14.2956L0.148791 2.07349C0.148784 2.07348 0.148777 2.07348 0.14877 2.07347C-0.382935 1.54187 -0.382905 0.680467 0.148749 0.14879L22.2222 6.36912Z" transform="translate(1 32.1111)" fill="white" stroke="white" stroke-width="0.5"/>
</svg>
