<svg width="42" height="42" viewBox="0 0 42 42" fill="none" xmlns="http://www.w3.org/2000/svg">
<path d="M-0.25 20C-0.25 31.1677 8.83352 40.2513 20 40.2513C31.1665 40.2513 40.2513 31.1678 40.25 20C40.25 8.83483 31.1665 -0.25 20 -0.25C8.83352 -0.25 -0.25 8.83483 -0.25 20ZM2.53605 20C2.53605 10.3705 10.3705 2.53605 20 2.53605C29.6308 2.53605 37.4652 10.3706 37.464 20C37.464 29.6308 29.6294 37.4652 20 37.4652C10.3706 37.4652 2.53605 29.6308 2.53605 20Z" transform="translate(1 1)" fill="white" stroke="white" stroke-width="0.5"/>
<path d="M6.29112 21.2367C6.56406 21.5097 6.91958 21.6448 7.27671 21.6448C7.63114 21.6448 7.98784 21.5098 8.26075 21.237C8.80577 20.6935 8.8054 19.8112 8.26101 19.2668L2.53605 13.5419V1.14238C2.53605 0.371759 1.91263 -0.25 1.14367 -0.25C0.373413 -0.25 -0.25 0.373047 -0.25 1.14238V14.1181C-0.25 14.4882 -0.103967 14.8416 0.158081 15.1037L6.29112 21.2367Z" transform="translate(19.8575 6.88196)" fill="white" stroke="white" stroke-width="0.5"/>
</svg>
