<svg width="35" height="35" viewBox="0 0 35 35" fill="none" xmlns="http://www.w3.org/2000/svg">
<path d="M29.8766 5.11981C23.0526 -1.7066 11.949 -1.7066 5.12508 5.11981C2.73083 7.51488 1.09308 10.5238 0.388711 13.8215C-0.297021 17.0324 -0.0724007 20.3592 1.03823 23.4419C1.17167 23.8121 1.57996 24.004 1.94989 23.8706C2.32006 23.7371 2.51191 23.3288 2.37847 22.9586C1.35807 20.1263 1.15173 17.0697 1.7819 14.1191C2.42857 11.0911 3.933 8.32756 6.13242 6.12739C12.401 -0.143345 22.6007 -0.143345 28.8692 6.12739C31.8545 9.11377 33.5256 13.0834 33.5746 17.3052C33.6236 21.5194 32.0537 25.5207 29.1542 28.5719C29.1199 28.608 29.0859 28.6444 29.0519 28.6807C28.9919 28.7449 28.9319 28.8093 28.8692 28.872C22.6007 35.1427 12.401 35.1427 6.13242 28.872C6.09906 28.8386 6.06653 28.8047 6.03436 28.7707C6.0327 28.7049 6.03127 28.6401 6.03127 28.5762C6.03127 28.4327 6.034 28.2898 6.03923 28.1475C6.04101 28.0998 6.04457 28.0527 6.04694 28.0052C6.05157 27.9105 6.05597 27.8159 6.06285 27.7217C6.06701 27.6655 6.07306 27.6099 6.07805 27.554C6.08553 27.4691 6.09253 27.3842 6.10179 27.2997C6.10832 27.2401 6.11687 27.181 6.12435 27.1216C6.13444 27.0414 6.14406 26.961 6.15593 26.8812C6.16495 26.8204 6.17564 26.7602 6.18561 26.6997C6.19831 26.622 6.21066 26.5442 6.22502 26.4669C6.2363 26.4057 6.24924 26.3451 6.26159 26.2843C6.27691 26.2084 6.29198 26.1324 6.30884 26.057C6.32249 25.9959 6.33769 25.935 6.35229 25.8742C6.3701 25.8 6.38779 25.7258 6.40702 25.6522C6.42305 25.5911 6.44038 25.5305 6.45724 25.4699C6.47754 25.3972 6.49773 25.3244 6.51945 25.2522C6.53762 25.1916 6.55709 25.1315 6.57632 25.0714C6.59911 25 6.62191 24.9285 6.64601 24.8578C6.66643 24.798 6.6878 24.7386 6.70917 24.6793C6.73446 24.609 6.75986 24.5386 6.78646 24.4688C6.80901 24.4098 6.8324 24.3514 6.85591 24.2928C6.88357 24.2238 6.91147 24.1548 6.94044 24.0864C6.96513 24.0282 6.99054 23.9705 7.01618 23.9128C7.04622 23.845 7.07661 23.7774 7.10795 23.7103C7.13466 23.6532 7.16197 23.5964 7.18963 23.5397C7.22216 23.4731 7.25505 23.4066 7.28876 23.3407C7.31738 23.2849 7.34646 23.2293 7.37602 23.174C7.41093 23.1084 7.44642 23.0431 7.48263 22.9781C7.51315 22.9235 7.54401 22.8691 7.57536 22.8151C7.61263 22.7508 7.65051 22.6869 7.68909 22.6233C7.7215 22.5698 7.75427 22.5166 7.78751 22.4636C7.82716 22.4007 7.86741 22.3381 7.90825 22.276C7.94244 22.2239 7.97687 22.172 8.01189 22.1204C8.0538 22.0587 8.09666 21.9976 8.13987 21.9367C8.17585 21.886 8.21182 21.8354 8.24862 21.7854C8.2929 21.7251 8.33814 21.6653 8.38361 21.6059C8.42124 21.5568 8.45876 21.5076 8.49722 21.459C8.54388 21.4 8.59161 21.3417 8.63945 21.2836C8.67851 21.2361 8.71757 21.1886 8.75746 21.1417C8.80661 21.084 8.85683 21.0271 8.90717 20.9703C8.94777 20.9245 8.98813 20.8785 9.02945 20.8334C9.08097 20.7771 9.13357 20.7219 9.18628 20.6667C9.2283 20.6225 9.27009 20.5782 9.31283 20.5346C9.36685 20.4797 9.42206 20.426 9.47714 20.3721C9.52036 20.33 9.56322 20.2873 9.60714 20.2458C9.66389 20.1921 9.72195 20.1397 9.77976 20.0872C9.82393 20.0472 9.8675 20.0067 9.91225 19.9673C9.97197 19.9147 10.0332 19.8636 10.0941 19.8122C10.1388 19.7745 10.1829 19.7363 10.2282 19.6992C10.2912 19.6477 10.3558 19.5977 10.4201 19.5473C10.465 19.5123 10.5092 19.4764 10.5545 19.442C10.6223 19.3906 10.6915 19.3409 10.7606 19.291C10.8042 19.2595 10.8469 19.2271 10.8911 19.1962C10.9673 19.1426 11.0453 19.0909 11.1231 19.039C11.1614 19.0135 11.199 18.987 11.2375 18.9618C11.3389 18.8959 11.4421 18.8321 11.546 18.7692C11.5621 18.7595 11.5778 18.749 11.5941 18.7393C11.7142 18.6673 11.836 18.5975 11.9592 18.5295C12.0014 18.5064 12.0447 18.4847 12.0873 18.462C12.1691 18.4183 12.2507 18.3742 12.3339 18.3324C12.3872 18.3056 12.4418 18.2804 12.4956 18.2544C12.5635 18.2215 12.6312 18.1882 12.6999 18.1565C13.991 19.3902 15.7133 20.0886 17.501 20.0886C19.2887 20.0886 21.0111 19.3901 22.3022 18.1563C24.8225 19.3231 26.8853 21.4168 28.0052 23.9628C28.1636 24.3229 28.5837 24.4866 28.944 24.3281C29.3041 24.1695 29.4676 23.749 29.3091 23.3889C28.0841 20.604 25.9516 18.3785 23.2522 17.035C24.0354 15.8858 24.4591 14.5287 24.4591 13.1283C24.4591 9.29025 21.3377 6.16777 17.501 6.16777C17.1077 6.16777 16.7887 6.48688 16.7887 6.88034C16.7887 7.27379 17.1077 7.59291 17.501 7.59291C20.5522 7.59291 23.0345 10.0761 23.0345 13.1283C23.0345 14.4931 22.5274 15.8073 21.6068 16.8285C21.6067 16.8286 21.6066 16.8288 21.6065 16.8289C20.5553 17.9949 19.059 18.6636 17.5009 18.6636C15.9428 18.6636 14.4463 17.9949 13.3953 16.8289C13.3952 16.8286 13.3949 16.8285 13.3947 16.8284C12.4742 15.8068 11.9673 14.493 11.9673 13.1284C11.9673 11.6386 12.5503 10.2411 13.6091 9.19334C13.8888 8.9165 13.8912 8.46533 13.6144 8.18564C13.3378 7.90572 12.8868 7.90359 12.6071 8.18018C11.2759 9.49725 10.5427 11.2546 10.5427 13.1279C10.5427 14.5269 10.9653 15.8831 11.7472 17.0317C11.7402 17.0352 11.7334 17.039 11.7265 17.0425C11.671 17.0703 11.6167 17.0998 11.5616 17.1282C11.4772 17.1719 11.3926 17.2153 11.3094 17.2608C11.2505 17.2929 11.1929 17.3266 11.1346 17.3595C11.0568 17.4036 10.979 17.4474 10.9023 17.4929C10.8428 17.5283 10.7843 17.5648 10.7254 17.6011C10.6518 17.6464 10.5782 17.6917 10.5056 17.7384C10.4464 17.7765 10.3882 17.8157 10.3297 17.8546C10.2593 17.9015 10.189 17.9487 10.1197 17.9969C10.0614 18.0375 10.0038 18.079 9.94621 18.1204C9.87854 18.1692 9.81111 18.2183 9.7445 18.2683C9.6874 18.3111 9.63101 18.3546 9.57473 18.3983C9.50944 18.449 9.44461 18.5001 9.3805 18.552C9.32494 18.5969 9.26986 18.6424 9.21501 18.6881C9.15197 18.7408 9.0894 18.7941 9.02743 18.8481C8.97365 18.8947 8.92022 18.9418 8.86728 18.9894C8.80613 19.0444 8.74582 19.1 8.68587 19.156C8.63411 19.2043 8.58246 19.2528 8.53141 19.3021C8.47217 19.3593 8.41388 19.4174 8.35571 19.4757C8.30608 19.5255 8.25646 19.5751 8.20778 19.6256C8.1502 19.6853 8.09369 19.7461 8.0373 19.8069C7.99017 19.8578 7.94268 19.9084 7.89638 19.96C7.83998 20.0227 7.78513 20.0867 7.73005 20.1505C7.68577 20.2018 7.64113 20.2527 7.59767 20.3046C7.54176 20.3714 7.48762 20.4396 7.43313 20.5075C7.39264 20.5581 7.35133 20.608 7.31156 20.6592C7.25433 20.7328 7.19901 20.8079 7.14345 20.8827C7.10854 20.9297 7.07269 20.9759 7.0385 21.0234C6.96822 21.1208 6.90019 21.2196 6.83276 21.3189C6.81507 21.345 6.79631 21.3704 6.77874 21.3967C6.6948 21.5221 6.61324 21.6489 6.53382 21.7772C6.50639 21.8215 6.48063 21.8667 6.4538 21.9113C6.40239 21.9967 6.35075 22.0819 6.30124 22.1685C6.27038 22.2226 6.24117 22.2775 6.21113 22.3321C6.1678 22.4104 6.12423 22.4886 6.08268 22.5679C6.05181 22.6267 6.02261 22.6862 5.99257 22.7455C5.95387 22.8219 5.91504 22.8983 5.87789 22.9756C5.84832 23.0371 5.82019 23.0994 5.79158 23.1612C5.75643 23.2376 5.72117 23.3139 5.68746 23.3909C5.65968 23.4545 5.63308 23.5186 5.60637 23.5826C5.5742 23.6595 5.54226 23.7363 5.51163 23.8137C5.48587 23.8788 5.46118 23.9442 5.43648 24.0097C5.40728 24.0873 5.37843 24.1651 5.35065 24.2434C5.32714 24.3098 5.30435 24.3765 5.28179 24.4434C5.25531 24.5219 5.22955 24.6006 5.20462 24.6799C5.18337 24.7472 5.16283 24.8148 5.14265 24.8825C5.1189 24.9624 5.09599 25.0425 5.07379 25.1231C5.05503 25.191 5.03663 25.2591 5.01894 25.3275C4.99793 25.4088 4.97798 25.4905 4.95851 25.5725C4.94225 25.6409 4.9261 25.7092 4.91102 25.7778C4.89274 25.8608 4.87576 25.9443 4.85914 26.0279C4.84549 26.0963 4.8316 26.1647 4.81901 26.2335C4.80346 26.3188 4.78945 26.4045 4.77556 26.4904C4.76464 26.5581 4.75312 26.6256 4.74327 26.6936C4.73033 26.7822 4.71941 26.8712 4.70825 26.9603C4.70006 27.0263 4.69103 27.0923 4.68379 27.1585C4.67358 27.2519 4.66575 27.3458 4.65755 27.4398C4.65209 27.5023 4.64556 27.5647 4.64105 27.6276C4.63345 27.7325 4.62847 27.8378 4.62336 27.9433C4.62087 27.9957 4.61695 28.0477 4.61505 28.1002C4.60935 28.2584 4.60615 28.4172 4.60615 28.5765C4.60615 28.7486 4.61197 28.9113 4.61897 29.091C4.62063 29.1326 4.62645 29.173 4.63476 29.2124C4.63547 29.2155 4.63583 29.2186 4.63654 29.2217C4.64533 29.2605 4.65767 29.2978 4.67251 29.3339C4.67394 29.3374 4.67524 29.341 4.67679 29.3446C4.6921 29.3802 4.71038 29.4142 4.73104 29.4465C4.73365 29.4505 4.73615 29.4545 4.73876 29.4585C4.76001 29.4902 4.78364 29.52 4.8094 29.5478C4.8113 29.5498 4.8126 29.5523 4.8145 29.5543L4.90853 29.6544C4.97953 29.7304 5.05052 29.8062 5.1246 29.8802C8.53664 33.2934 13.0185 35 17.5004 35C21.9824 35 26.4642 33.2934 29.8762 29.8802C29.9503 29.8062 30.0213 29.7303 30.0923 29.6544L30.1863 29.5543C33.343 26.2324 35.0521 21.8767 34.9988 17.2892C34.9457 12.6925 33.1264 8.37079 29.8766 5.11981Z" fill="white"/>
</svg>
