<svg width="16" height="22" viewBox="0 0 16 22" fill="none" xmlns="http://www.w3.org/2000/svg">
<path d="M13.665 13.254C14.109 12.81 14.808 12.81 15.252 13.254C15.681 13.698 15.681 14.397 15.252 14.841L8.602 21.492C8.396 21.698 8.11 21.825 7.793 21.825C7.476 21.825 7.19 21.698 6.983 21.492L0.333 14.841C-0.111 14.397 -0.111 13.698 0.333 13.254C0.777 12.81 1.476 12.81 1.92 13.254L6.666 18.016V1.111C6.665 0.492 7.173 0 7.792 0C8.411 0 8.903 0.492 8.903 1.111V18.015L13.665 13.254Z" fill="white"/>
</svg>
