<svg width="35" height="35" viewBox="0 0 35 35" fill="none" xmlns="http://www.w3.org/2000/svg">
<path d="M29.8802 5.12686C28.5388 3.78575 27.0381 2.69612 25.42 1.88824C25.0677 1.71228 24.6399 1.85535 24.4641 2.20728C24.2884 2.55933 24.4312 2.98714 24.7833 3.16286C26.2639 3.90211 27.6398 4.90186 28.8725 6.13433C35.1433 12.4037 35.1433 22.6045 28.8725 28.8739C22.6017 35.1432 12.3984 35.1432 6.12761 28.8739C-0.143198 22.6045 -0.143198 12.4037 6.12761 6.13433C9.16521 3.09732 13.2041 1.42482 17.4999 1.42482C17.8933 1.42482 18.2125 1.10578 18.2125 0.71241C18.2125 0.319041 17.8933 0 17.4999 0C12.8234 0 8.42674 1.82068 5.11979 5.12686C-1.7066 11.9516 -1.7066 23.0566 5.11979 29.8813C8.53303 33.2938 13.0165 35 17.5 35C21.9835 35 26.467 33.2938 29.8802 29.8813C36.7066 23.0566 36.7066 11.9516 29.8802 5.12686Z" fill="white"/>
<path d="M0.712577 6.88466e-08C0.319115 6.88466e-08 -7.82862e-07 0.319041 -7.82862e-07 0.71241V21.9492C-7.82862e-07 22.3427 0.319115 22.6616 0.712577 22.6616C1.10604 22.6616 1.42516 22.3427 1.42516 21.9492V0.71241C1.42516 0.318922 1.10604 6.88466e-08 0.712577 6.88466e-08Z" transform="translate(16.7874 6.17325)" fill="white"/>
<path d="M0.712577 1.42482H8.48324C8.8767 1.42482 9.19582 1.10578 9.19582 0.712411C9.19582 0.319042 8.8767 6.23243e-07 8.48324 6.23243e-07H0.712577C0.319115 6.23243e-07 -7.82862e-07 0.319042 -7.82862e-07 0.712411C-7.82862e-07 1.10578 0.318997 1.42482 0.712577 1.42482Z" transform="translate(19.6377 16.7916)" fill="white"/>
<path d="M0.712578 6.23243e-07C0.319116 6.23243e-07 8.69846e-08 0.319042 8.69846e-08 0.712411C8.69846e-08 1.10578 0.319116 1.42482 0.712578 1.42482H8.24572C8.63918 1.42482 8.95829 1.10578 8.95829 0.712411C8.95829 0.319042 8.63918 6.23243e-07 8.24572 6.23243e-07H0.712578Z" transform="translate(6.16626 16.7916)" fill="white"/>
</svg>
