<svg width="35" height="35" viewBox="0 0 35 35" fill="none" xmlns="http://www.w3.org/2000/svg">
<path d="M34.0084 17.3589C33.4608 17.3589 33.0167 17.7384 33.0167 18.2064V33.3052H22.3757V23.8271C22.3757 23.3591 21.9316 22.9796 21.384 22.9796H13.6161C13.0686 22.9796 12.6245 23.3591 12.6245 23.8271V31.3425C12.6245 31.8105 13.0686 32.19 13.6161 32.19C14.1637 32.19 14.6078 31.8105 14.6078 31.3425V24.6746H20.3924V33.3052H1.98329V12.5612L17.4999 1.93377L33.3881 12.8156C33.8155 13.1084 34.4396 13.0494 34.782 12.6842C35.1245 12.319 35.0557 11.7857 34.6283 11.4929L18.12 0.186237C17.7577 -0.0620789 17.2421 -0.0620789 16.8798 0.186237L0.371537 11.4929C0.136682 11.6538 3.78283e-08 11.8969 3.78283e-08 12.1543V34.1525C3.78283e-08 34.6205 0.443927 35 0.991647 35H34.0084C34.5561 35 35 34.6205 35 34.1525V18.2064C35 17.7383 34.5561 17.3589 34.0084 17.3589Z" fill="#FFA630"/>
</svg>
